<?xml version="1.0" standalone="no"?>
<!DOCTYPE svg PUBLIC "-//W3C//DTD SVG 1.1//EN" "http://www.w3.org/Graphics/SVG/1.1/DTD/svg11.dtd">
<svg xmlns="http://www.w3.org/2000/svg"><metadata>This SVG WebFont was generated by YouWorkForThem.
Copyright  2012 by Rodrigo Saiani. All rights reserved.</metadata><defs><font horiz-adv-x="2048" id="ywftsvg"><font-face ascent="1540" bbox="-212.026 -834 2261 2230" cap-height="1434" descent="-508" font-family="" font-stretch="normal" font-weight="300" panose-1="0 0 4 0 0 0 0 0 0 0" underline-position="0" underline-thickness="0" unicode-range="U+0020-1F633" units-per-em="2048" x-height="1073"/><missing-glyph d="M1012 0h-803v1434h803v-1434zM324 113h573v1210h-573v-1210z" horiz-adv-x="1220"/><glyph d="M1106 1438q-176 0 -176 -158v-207h274v-125h-274v-948h-148v948h-395v-948h-147v948h-162v125h162v203q0 147 80.5 219t222.5 72q90 0 157 -23l-28 -121q-49 14 -109 15q-176 0 -176 -158v-207h395v203q0 147 82 219t221 72q90 0 158 -23l-29 -121q-49 15 -108 15z" glyph-name="f_f.liga" horiz-adv-x="1241" unicode="ff"/><glyph d="M1458 1073v-1073h-145v948h-389v-948h-148v948h-389v-948h-147v948h-162v125h162v203q0 147 80.5 219t222.5 72q90 0 157 -23l-28 -121q-49 14 -109 15q-176 0 -176 -158v-207h389v178q0 313 340 314q100 0 161.5 -20.5t121.5 -61.5l-72 -107q-66 61 -199 62 q-205 0 -204 -183v-182h534z" glyph-name="f_f_i.liga" horiz-adv-x="1603" unicode="ffi"/><glyph d="M1565 1210v-1210h-148v1200q0 131 -53 184.5t-169 53.5t-166 -46t-50 -163v-156h274v-125h-274v-948h-148v948h-444v-948h-147v948h-162v125h162v203q0 147 80.5 219t222.5 72q90 0 157 -23l-28 -121q-49 14 -109 15q-176 0 -176 -158v-207h444v150q0 184 92.5 264 t278.5 80t274.5 -95.5t88.5 -261.5z" glyph-name="f_f_l.liga" horiz-adv-x="1744" unicode="ffl"/><glyph d="M1012 0h-803v1434h803v-1434zM324 113h573v1210h-573v-1210z" glyph-name=".notdef" horiz-adv-x="1220"/><glyph glyph-name="glyph1" horiz-adv-x="0"/><glyph glyph-name="glyph2" horiz-adv-x="681"/><glyph glyph-name="space" horiz-adv-x="604" unicode=" "/><glyph d="M371 410h-129l-29 1026h195zM301 223q53 0 88 -32.5t35 -92t-34 -92.5t-88 -33t-89 33t-35 92.5t35 92t88 32.5z" glyph-name="exclam" horiz-adv-x="602" unicode="!"/><glyph d="M352 979h-104l-29 455h158zM643 979h-106l-27 455h156z" glyph-name="quotedbl" horiz-adv-x="886" unicode="&quot;"/><glyph d="M1284 526v-106h-340l-53 -420h-113l53 420h-344l-53 -420h-117l56 420h-297v106h311l51 400h-317v106h332l53 402h112l-51 -402h340l51 402h113l-51 -402h311v-106h-323l-50 -400h326zM895 926h-342l-51 -400h344z" glyph-name="numbersign" horiz-adv-x="1406" unicode="#"/><glyph d="M838 187.5q86 68.5 86 174.5t-70.5 159.5t-129 79.5t-151.5 63q-92 37 -190.5 80.5t-174 127.5t-75.5 227q0 144 111.5 245.5t310.5 111.5l-8 189h133l-10 -189q199 -16 372 -129l-67 -117q-180 117 -377 117q-141 0 -225 -63.5t-84 -166.5t73.5 -161.5t256 -133.5 t245 -107.5t140 -99t77.5 -225.5t-120.5 -270.5t-331.5 -122.5l12 -204h-133l10 204q-233 18 -409 129l57 125q193 -113 418 -112q168 0 254 68.5z" glyph-name="dollar" horiz-adv-x="1165" unicode="$"/><glyph d="M380 1458q130 0 214 -85t84 -234q0 -150 -84 -236t-214 -86t-217 85t-87 236t87 235.5t217 84.5zM352 0h-125l963 1434h129zM380 1354q-83 0 -131 -57.5t-48 -158.5t48 -157.5t131 -56.5t127 55t44 159t-44 160t-127 56zM1154 618q130 0 215 -86t85 -235q0 -150 -85 -236 t-215 -86t-217 85t-87 237t87 236.5t217 84.5zM1154 514q-83 0 -130 -58.5t-47 -159.5t47 -158.5t130 -57.5t127 57.5t44 159.5t-44 159.5t-127 57.5z" glyph-name="percent" horiz-adv-x="1527" unicode="%"/><glyph d="M588 -25q-205 0 -314.5 92.5t-109.5 239.5q0 201 233 373l66 49l-99 102q-100 102 -118.5 165t-18.5 122q0 152 101.5 247t280.5 95t280.5 -84t101.5 -215q0 -190 -207 -352l-104 -80l319 -303q29 59 56 133l75 199l132 -49l-82 -211q-39 -96 -76 -172l270 -256 l-104 -105l-244 232q-84 -117 -189.5 -169.5t-248.5 -52.5zM844 1155q0 90 -64.5 132t-173.5 42t-169 -55.5t-60 -143.5t40 -142t146 -150l21 -19l90 66q170 129 170 270zM575 109q209 0 347 186l-363 342l-88 -68q-154 -115 -154 -247q0 -96 65.5 -154.5t192.5 -58.5z" glyph-name="ampersand" horiz-adv-x="1488" unicode="&amp;"/><glyph d="M311 979h-106l-27 455h156z" glyph-name="quotesingle" horiz-adv-x="512" unicode="'"/><glyph d="M303 681q0 -116 27.5 -250t61.5 -218t88.5 -163t82 -108.5t51.5 -53.5t29 -27l-59 -72q-39 27 -76 56.5t-106.5 111.5t-119 177t-87 250t-37.5 332t36.5 330.5t87 248t116 172t106.5 109.5t78 52l59 -72q0 -2 -25.5 -25.5t-37 -34.5t-41 -45t-47 -59.5t-45 -70.5t-45 -87 t-38 -101.5t-32 -121t-19.5 -138t-8 -192.5z" glyph-name="parenleft" horiz-adv-x="759" unicode="("/><glyph d="M604 692q0 -152 -44 -311.5t-98 -257.5t-141 -198.5t-145 -135.5l-59 72q18 16 42.5 39.5t82 104.5t101.5 171t79 235.5t35 303t-35 303t-77 232.5t-102.5 167t-80.5 99.5t-43 39.5l59 72q31 -18 85 -69.5t93 -98.5t87.5 -126t82 -166t56 -205.5t22.5 -270.5z" glyph-name="parenright" horiz-adv-x="761" unicode=")"/><glyph d="M473 1327l189 117l49 -82l-197 -111l197 -98l-49 -82l-189 115l14 -215h-104l8 215l-180 -115l-49 80l196 100l-198 109l51 82l180 -113l-8 213h104z" glyph-name="asterisk" horiz-adv-x="870" unicode="*"/><glyph d="M807 782h444v-125h-444v-467h-127v467h-442v125h442v467h127v-467z" glyph-name="plus" horiz-adv-x="1492" unicode="+"/><glyph d="M319 211q49 0 79 -35t30 -96q0 -180 -176 -311l-53 41q92 92 104 190q-37 6 -65.5 34.5t-28.5 74.5t30.5 74t79.5 28z" glyph-name="comma" horiz-adv-x="645" unicode=","/><glyph d="M754 535h-578v129h578v-129z" glyph-name="hyphen" horiz-adv-x="929" unicode="-"/><glyph d="M326.5 217q52.5 0 85 -32.5t32.5 -90t-32.5 -89.5t-85 -32t-85 32t-32.5 89.5t32.5 90t85 32.5z" glyph-name="period" horiz-adv-x="653" unicode="."/><glyph d="M178 -84h-141l553 1624h139z" glyph-name="slash" horiz-adv-x="722" unicode="/"/><glyph d="M656.5 1458q111.5 0 209 -44t174 -132t121.5 -235.5t45 -333.5t-45 -329.5t-121.5 -232t-174 -132.5t-267 -44t-329.5 182.5t-160 553.5q0 188 44 335.5t121.5 235.5t174 132t208 44zM656.5 1315q-181.5 0 -286 -156.5t-104.5 -442.5t105.5 -441.5t285.5 -155.5 t286 156.5t106 441.5t-105.5 441.5t-287 156.5z" glyph-name="zero" horiz-adv-x="1314" unicode="0"/><glyph d="M971 137v-137h-766v137h307v1125l-342 -164l-64 114l447 228h115v-1303h303z" glyph-name="one" horiz-adv-x="1132" unicode="1"/><glyph d="M604 1458q248 0 380 -115.5t132 -304.5q0 -117 -38 -182t-63.5 -101t-82 -93t-133.5 -125q-78 -68 -86 -76l-363 -318h809v-143h-1007v141l405 359q33 29 93.5 80t88 76.5t122.5 116t95 240.5t-95 224t-263 74q-219 0 -387 -127l-76 123q221 151 469 151z" glyph-name="two" horiz-adv-x="1302" unicode="2"/><glyph d="M600 1458q231 0 358 -96t127 -230t-72.5 -223.5t-193.5 -130.5v-6q141 -18 236.5 -113.5t95.5 -232.5q0 -199 -161 -326t-415 -127q-299 0 -503 160l84 123q182 -137 395 -137t326.5 88t113.5 221t-107.5 197.5t-328.5 64.5h-145v139h137q164 0 271.5 64.5t107.5 176.5 t-95.5 178.5t-255.5 66.5q-199 0 -372 -135l-84 108q202 170 481 170z" glyph-name="three" horiz-adv-x="1259" unicode="3"/><glyph d="M1243 522v-131h-227v-391h-152l-4 391h-737v117l760 926h133v-912h227zM866 1212l-569 -690h565z" glyph-name="four" horiz-adv-x="1351" unicode="4"/><glyph d="M1073 1294h-704v-489q129 92 321 92q278 0 381 -145.5t103 -284.5q0 -225 -148 -359.5t-416 -134.5t-426 133l74 117q140 -102 338 -102t309 92.5t111 242.5t-98 227t-264 77t-322 -115l-113 72v723h854v-146z" glyph-name="five" horiz-adv-x="1304" unicode="5"/><glyph d="M254 696q199 195 433 195q212 0 319.5 -77t149.5 -163t42 -194q0 -205 -147.5 -343.5t-366.5 -138.5q-283 0 -432.5 177.5t-149.5 543.5q0 199 53.5 350.5t188 281.5t384.5 130q251 0 419 -115l-82 -120q-154 90 -342 90t-326.5 -134.5t-142.5 -482.5zM702 750 q-275 0 -432 -209q8 -199 117 -310.5t282 -111.5t272 93.5t99 237.5t-99 222t-239 78z" glyph-name="six" horiz-adv-x="1259" unicode="6"/><glyph d="M61 1294v140h1020v-136l-653 -1298h-172l662 1294h-857z" glyph-name="seven" horiz-adv-x="1187" unicode="7"/><glyph d="M635 1458q217 0 346 -100.5t129 -257.5q0 -115 -61.5 -199t-174.5 -125q119 -27 201 -132t82 -245q0 -190 -136 -308t-388 -118t-388 117t-136 307q0 139 82.5 245t203.5 134q-111 41 -173 125t-62 199q0 158 129 258t346 100zM635 1319q-147 0 -233.5 -62.5 t-86.5 -173.5t91.5 -173t229.5 -62t227 61t89 173t-85 174.5t-232 62.5zM635 709q-164 0 -266.5 -83t-102.5 -215t95.5 -212t273.5 -80t271 78.5t93 212.5t-100 216.5t-264 82.5z" glyph-name="eight" horiz-adv-x="1265" unicode="8"/><glyph d="M565 1458q281 0 428.5 -170t147.5 -504q0 -431 -178 -620t-457 -189q-215 0 -397 107l63 125q154 -88 349 -88t331.5 147.5t136.5 476.5q-111 -98 -215 -140t-248 -42q-195 0 -324.5 118t-129.5 325t144 330.5t349 123.5zM227 1007q0 -140 82.5 -220t220.5 -80t268 55 t183 137q-8 212 -128 314t-275 102q-156 0 -253.5 -84t-97.5 -224z" glyph-name="nine" horiz-adv-x="1245" unicode="9"/><glyph d="M326.5 1098q54.5 0 88.5 -33t34 -92t-34 -92t-88.5 -33t-88 33t-33.5 91t33.5 92t88 34zM326.5 223q54.5 0 88.5 -32.5t34 -92t-34 -92.5t-88.5 -33t-88 33t-33.5 92.5t33.5 92t88 32.5z" glyph-name="colon" horiz-adv-x="653" unicode=":"/><glyph d="M326 1096q51 0 84.5 -33t33.5 -89t-32.5 -88t-85.5 -32t-86 32t-33 88t34 89t85 33zM320 211q48 0 79 -35t31 -96q0 -180 -176 -311l-55 41q92 92 106 190q-37 6 -65.5 34.5t-28.5 74.5t30.5 74t78.5 28z" glyph-name="semicolon" horiz-adv-x="653" unicode=";"/><glyph d="M885 1010l-674 -416l670 -420l-68 -108l-754 473v112l756 473z" glyph-name="less" horiz-adv-x="1024" unicode="&lt;"/><glyph d="M1174 768h-943v117h943v-117zM1174 358h-943v115h943v-115z" glyph-name="equal" horiz-adv-x="1413" unicode="="/><glyph d="M961 649v-110l-750 -471l-70 106l672 420l-674 416l68 116z" glyph-name="greater" horiz-adv-x="1019" unicode=">"/><glyph d="M496 1458q193 0 307.5 -96t114.5 -246t-99.5 -244t-200 -183.5t-100.5 -244.5h-133q0 177 94 272t188.5 180t94.5 199q0 113 -74 171.5t-201 58.5q-205 0 -346 -106l-69 104q72 59 183.5 97t240.5 38zM457.5 225q54.5 0 88.5 -33.5t34 -91t-34 -90.5t-88.5 -33t-87 33 t-32.5 90.5t32.5 91t87 33.5z" glyph-name="question" horiz-adv-x="1083" unicode="?"/><glyph d="M999 1307q309 0 501 -175.5t192 -488.5q0 -227 -111 -373.5t-280 -146.5t-230 110q-104 -106 -264 -106q-117 0 -199 85.5t-82 269.5t124 298.5t325 114.5q139 0 264 -49l-61 -422q-14 -92 19.5 -136t94.5 -44q119 0 189.5 105.5t70.5 293.5q0 266 -157.5 403.5 t-427.5 137.5q-203 0 -364 -82t-257 -250t-96 -395q0 -467 240 -540t344 -73q215 0 385 54l36 -113q-82 -29 -187 -46.5t-183 -17.5q-776 0 -776 754q0 248 115.5 437.5t317 292t457.5 102.5zM950 778q-129 0 -205.5 -85t-76.5 -210t49 -181t129 -56q119 0 196 104 q1 29 5 64l47 344q-90 20 -144 20z" glyph-name="at" horiz-adv-x="1800" unicode="@"/><glyph d="M1036 365h-665l-131 -365h-160l532 1434h189l536 -1434h-170zM989 498l-282 788l-287 -788h569z" glyph-name="A" horiz-adv-x="1415" unicode="A"/><glyph d="M1157 393q0 -199 -135 -296t-360 -97h-484v1434h430q223 0 340 -90.5t117 -253.5q0 -111 -61.5 -200t-151.5 -134q123 -25 214 -119t91 -244zM330 793h254q152 0 240.5 72.5t88.5 195.5q0 242 -335 242h-248v-510zM330 131h313q180 0 269 69.5t89 190.5q0 272 -348 273 h-323v-533z" glyph-name="B" horiz-adv-x="1296" unicode="B"/><glyph d="M440 254q145 -141 363 -141q238 4 405 141l84 -111q-197 -170 -484 -170t-470 173q-92 87 -145.5 231.5t-54.5 334t51.5 336t145.5 234.5q186 176 467.5 176t454.5 -129l-77 -115q-162 106 -378 106q-214 2 -356 -142q-150 -153 -150.5 -468t144.5 -456z" glyph-name="C" horiz-adv-x="1349" unicode="C"/><glyph d="M178 1434h404q295 0 438 -122t197.5 -260.5t54.5 -322.5t-54.5 -325.5t-199 -272.5t-436.5 -131h-404v1434zM330 1298v-1157h270q248 0 382 147.5t134 440.5q0 569 -516 569h-270z" glyph-name="D" horiz-adv-x="1411" unicode="D"/><glyph d="M1071 1300h-743v-499h659v-135h-659v-527h743v-139h-893v1434h893v-134z" glyph-name="E" horiz-adv-x="1175" unicode="E"/><glyph d="M993 1298h-665v-534h583v-135h-583v-629h-150v1434h815v-136z" glyph-name="F" horiz-adv-x="1052" unicode="F"/><glyph d="M815.5 1458q157.5 0 273 -47t211.5 -129l-88 -106q-182 145 -412 145t-367.5 -153.5t-137.5 -443.5t137 -445.5t369 -155.5q129 0 228 46t155 110v376h-451v129h600v-569q-193 -240 -553 -240q-265 0 -448 179q-90 88 -141.5 235.5t-51.5 330.5t50.5 323.5t140.5 230.5 t209 137t276.5 47z" glyph-name="G" horiz-adv-x="1519" unicode="G"/><glyph d="M1284 0h-151v659h-805v-659h-150v1434h150v-639h805v639h151v-1434z" glyph-name="H" horiz-adv-x="1460" unicode="H"/><glyph d="M350 0h-151v1434h151v-1434z" glyph-name="I" horiz-adv-x="546" unicode="I"/><glyph d="M760 1434v-981q0 -320 -158.5 -400t-335.5 -80q-98 0 -166 17l15 135q33 -6 103 -6t166.5 12t160 90.5t63.5 257.5v955h152z" glyph-name="J" horiz-adv-x="935" unicode="J"/><glyph d="M330 0h-152v1434h152v-717l659 717h191l-633 -672l680 -762h-201l-586 649l-110 -117v-532z" glyph-name="K" horiz-adv-x="1284" unicode="K"/><glyph d="M328 135h700v-135h-850v1434h150v-1299z" glyph-name="L" horiz-adv-x="1126" unicode="L"/><glyph d="M1602 1434v-1434h-150v1124l-522 -1118h-82l-522 1120v-1126h-148v1434h156l563 -1223l547 1223h158z" glyph-name="M" horiz-adv-x="1777" unicode="M"/><glyph d="M1315 0h-129l-858 1167v-1167h-150v1434h133l852 -1168v1168h152v-1434z" glyph-name="N" horiz-adv-x="1492" unicode="N"/><glyph d="M817.5 1458q102.5 0 251 -41t287.5 -219t139 -477q0 -186 -58.5 -333.5t-156.5 -236t-216 -133.5t-247 -45t-246.5 45t-216 133.5t-157 236t-58.5 316.5t38 292.5t103.5 207.5t153.5 142.5t184.5 85t199 26.5zM817 1321q-222 0 -330 -109.5t-150 -225.5t-42 -263 q0 -287 147.5 -449.5t367.5 -162.5t373.5 156.5t153.5 454.5t-150.5 448.5t-369.5 150.5z" glyph-name="O" horiz-adv-x="1632" unicode="O"/><glyph d="M178 1434h422q236 0 359.5 -114t123.5 -308t-126 -322.5t-355 -128.5h-274v-561h-150v1434zM328 1300v-604h258q164 0 251 83t87 237q0 285 -338 284h-258z" glyph-name="P" horiz-adv-x="1142" unicode="P"/><glyph d="M139 704q0 169 38 292.5t103.5 207.5t153.5 142.5t184.5 85t199 26.5t251 -41t287.5 -219t139 -470t-128 -472t-329 -248l410 -192l-72 -125l-540 284l-19 -2q-264 0 -412.5 133.5t-207 281t-58.5 316.5zM817 1321q-222 0 -330 -109.5t-150 -225.5t-42 -263 q0 -287 147.5 -449.5t367.5 -162.5t373.5 156.5t153.5 454.5t-150.5 448.5t-369.5 150.5z" glyph-name="Q" horiz-adv-x="1632" unicode="Q"/><glyph d="M328 565v-565h-150v1434h475q381 0 469 -252q24 -70 25 -158q0 -158 -75 -272.5t-222 -159.5l362 -592h-170l-344 567l-34 -2h-336zM328 700h354q147 0 226 86t79 226.5t-83 214t-271 73.5h-305v-600z" glyph-name="R" horiz-adv-x="1308" unicode="R"/><glyph d="M924 363.5q0 107.5 -85 171t-274 133.5q-269 106 -350.5 197t-81.5 240t125 251t351.5 102t432.5 -131l-67 -117q-180 117 -377 117q-143 0 -227 -63.5t-84 -176.5q0 -77 53 -127q29 -28 54.5 -48.5t84.5 -48.5q106 -50 232 -97q188 -76 279 -160t91 -223 q0 -182 -133 -295t-364 -113q-123 0 -250 35t-225 96l57 125q190 -112 387.5 -112t284 68.5t86.5 176z" glyph-name="S" horiz-adv-x="1165" unicode="S"/><glyph d="M1217 1298h-482v-1298h-151v1298h-484v136h1117v-136z" glyph-name="T" horiz-adv-x="1316" unicode="T"/><glyph d="M1253 1434v-918q0 -141 -44 -248.5t-119.5 -170t-170 -93.5t-204 -31t-203.5 31t-171 93.5t-120 170t-43 248.5v918h150v-928q0 -182 102 -283.5t287 -101.5q184 0 284.5 101.5t100.5 283.5v928h151z" glyph-name="U" horiz-adv-x="1429" unicode="U"/><glyph d="M813 0h-192l-545 1434h164l481 -1297l467 1297h166z" glyph-name="V" horiz-adv-x="1429" unicode="V"/><glyph d="M1569 0h-162l-379 1206l-375 -1206h-161l-439 1434h162l363 -1233l378 1233h160l373 -1231l362 1231h158z" glyph-name="W" horiz-adv-x="2062" unicode="W"/><glyph d="M737 754l539 -754h-199l-434 629l-397 -629h-185l498 743l-475 691h199l368 -574l367 574h201z" glyph-name="X" horiz-adv-x="1394" unicode="X"/><glyph d="M715 0h-152v573l-502 861h179l403 -719l399 719h172l-499 -861v-573z" glyph-name="Y" horiz-adv-x="1333" unicode="Y"/><glyph d="M1204 135v-135h-1075v125l854 1173h-807v136h987v-115l-858 -1184h899z" glyph-name="Z" horiz-adv-x="1347" unicode="Z"/><glyph d="M469 1509h-174v-1624h174v-121h-311v1866h311v-121z" glyph-name="bracketleft" horiz-adv-x="583" unicode="["/><glyph d="M635 -84h-139l-488 1624h139z" glyph-name="backslash" horiz-adv-x="731" unicode="\"/><glyph d="M426 -236h-311v121h174v1624h-174v121h311v-1866z" glyph-name="bracketright" horiz-adv-x="583" unicode="]"/><glyph d="M1042 860l-370 561l-373 -561h-164l455 682h164l452 -682h-164z" glyph-name="asciicircum" horiz-adv-x="1411" unicode="^"/><glyph d="M1331 -129h-1184v113h1184v-113z" glyph-name="underscore" horiz-adv-x="1474" unicode="_"/><glyph d="M500 1208h-121l-242 236h209z" glyph-name="grave" horiz-adv-x="634" unicode="`"/><glyph d="M974 -8q-56 0 -91 27.5t-52 97.5q-117 -143 -339 -144q-176 0 -279.5 78t-103.5 236q0 230 167.5 267.5t295.5 37.5t245 -25v158q0 135 -66.5 190.5t-193.5 55.5q-184 0 -326 -111l-67 98q172 142 391 142t314.5 -89t95.5 -290v-531q0 -88 67 -88h7l26 2l-16 -96 q-19 -16 -75 -16zM547 473q-291 0 -291 -184q0 -100 69.5 -144.5t178.5 -44.5q219 0 313 156v190q-139 27 -270 27z" glyph-name="a" horiz-adv-x="1134" unicode="a"/><glyph d="M324 940h4q131 160 340 160t332.5 -143.5t123.5 -408.5t-135 -420t-362 -155q-94 0 -177 38t-139 108h-6l-29 -119h-100v1540h148v-600zM653 967q-184 0 -329 -189v-518q96 -154 305 -154q152 0 248 122t96 321t-89.5 308.5t-230.5 109.5z" glyph-name="b" horiz-adv-x="1232" unicode="b"/><glyph d="M630 1100q222 0 376 -131l-78 -105q-70 53 -134.5 79t-160.5 26q-166 0 -269.5 -112t-103.5 -314.5t107.5 -320.5t273.5 -118t311 117l76 -98q-66 -61 -167 -105.5t-230 -44.5q-227 0 -374.5 150.5t-147.5 415t149.5 413t371.5 148.5z" glyph-name="c" horiz-adv-x="1097" unicode="c"/><glyph d="M1049 0h-103l-26 127h-7q-59 -66 -146 -110t-180 -44t-174 32t-150.5 95.5t-111.5 175.5t-42 254t38.5 252.5t139 214t298.5 103.5q199 0 316 -119v559h148v-1540zM600 967q-141 0 -240.5 -108.5t-99.5 -319.5t100.5 -320.5t237.5 -109.5q184 0 303 157v563 q-129 138 -301 138z" glyph-name="d" horiz-adv-x="1224" unicode="d"/><glyph d="M1071 584q0 -63 -6 -113h-803q39 -369 369 -369q199 0 342 123l78 -94q-178 -158 -445 -158q-202 1 -346 137q-70 66 -110.5 174.5t-40.5 245.5q0 268 134 419t357 151q152 0 262 -76q210 -145 209 -440zM601 973q-151 0 -244 -100.5t-99 -282.5h678q-6 170 -95 276.5 t-240 106.5z" glyph-name="e" horiz-adv-x="1200" unicode="e"/><glyph d="M543 1567q90 0 157 -23l-28 -121q-49 14 -109 15q-176 0 -176 -158v-207h275v-125h-275v-948h-147v948h-162v125h162v203q0 147 81 219t222 72z" glyph-name="f" horiz-adv-x="698" unicode="f"/><glyph d="M1071 1073v-1034q0 -236 -126 -350.5t-354.5 -114.5t-393.5 129l65 113q139 -104 308 -104q356 -1 356 280v170q-76 -76 -153 -103.5t-177 -27.5t-186 33.5t-154 97t-107.5 167t-39.5 233.5t46 236q47 106 119 170q149 132 340 132t320 -115h8l43 88h86zM629 967 q-150 0 -257.5 -105.5t-107.5 -298.5t99.5 -297t271.5 -104t289 155v525q-107 125 -295 125z" glyph-name="g" horiz-adv-x="1247" unicode="g"/><glyph d="M322 1540v-620q80 94 163.5 136t190.5 42q156 0 260 -92.5t104 -262.5v-743h-147v709q0 139 -72.5 198.5t-185.5 59.5q-178 0 -311 -209v-758h-148v1540h146z" glyph-name="h" horiz-adv-x="1216" unicode="h"/><glyph d="M254 1470q43 0 73.5 -26.5t30.5 -77.5t-30.5 -77.5t-73.5 -26.5t-72.5 26.5t-29.5 77.5t29.5 77.5t72.5 26.5zM326 0h-144v1073h144v-1073z" glyph-name="i" horiz-adv-x="509" unicode="i"/><glyph d="M270 1452q43 0 74 -26.5t31 -78t-31 -78t-74 -26.5t-72.5 26.5t-29.5 78t29.5 78t72.5 26.5zM346 1073v-1206q0 -147 -92 -220t-240 -73q-90 0 -151 23l26 122q45 -14 126 -14t132.5 47t51.5 160v1161h147z" glyph-name="j" horiz-adv-x="526" unicode="j"/><glyph d="M324 0h-148v1540h148v-1005l452 538h195l-404 -455l486 -618h-195l-389 510l-145 -164v-346z" glyph-name="k" horiz-adv-x="1079" unicode="k"/><glyph d="M326 0h-148v1540h148v-1540z" glyph-name="l" horiz-adv-x="503" unicode="l"/><glyph d="M1305 1098q162 0 251 -94.5t89 -276.5v-727h-150v721q0 246 -205 246q-176 0 -305 -209v-758h-149v727q0 127 -59.5 183.5t-151.5 56.5t-171 -57.5t-128 -151.5v-758h-150v1073h115l24 -155h9q66 92 140 136t184 44t183.5 -47t116.5 -152q146 199 357 199z" glyph-name="m" horiz-adv-x="1820" unicode="m"/><glyph d="M708.5 1100q147.5 0 239.5 -90t92 -265v-745h-147v705q0 143 -56.5 201.5t-164.5 58.5q-215 0 -353 -213v-752h-143v1073h105l22 -166h6q78 94 165 143.5t234.5 49.5z" glyph-name="n" horiz-adv-x="1216" unicode="n"/><glyph d="M625.5 1100q103.5 0 193.5 -34t164 -99.5t117 -176t43 -254t-43 -254t-117 -176t-164 -99.5t-193.5 -34t-194.5 34t-163.5 99.5t-115.5 176t-43 254t43 254t115.5 176t163.5 99.5t194.5 34zM626 967q-167 0 -266.5 -115t-99.5 -315.5t99.5 -315.5t266.5 -115t265 115 t98 315.5t-98 315.5t-265 115z" glyph-name="o" horiz-adv-x="1251" unicode="o"/><glyph d="M664 1098q193 0 315.5 -136.5t122.5 -398.5t-146 -426t-330 -164t-302 78v-473h-148v1495h105l30 -164h6q68 94 150 141.5t197 47.5zM656 967q-114 0 -190.5 -56.5t-141.5 -169.5v-553q59 -47 116.5 -66.5t147.5 -19.5q139 0 250.5 122t111.5 330t-90 310.5t-204 102.5z " glyph-name="p" horiz-adv-x="1210" unicode="p"/><glyph d="M1055 1073v-1495h-148v490q-131 -94 -313 -94t-290.5 102t-151.5 213t-43 249t45 248.5t157 212t296 101.5q183 0 313 -115h6l49 88h80zM628 965q-157 0 -261.5 -111t-104.5 -322q0 -113 35 -198.5t116.5 -155t218.5 -69.5q138 0 275 106v627q-122 123 -279 123z" glyph-name="q" horiz-adv-x="1230" unicode="q"/><glyph d="M586 1100q74 0 110 -25l-26 -135q-57 16 -109 16q-166 0 -239 -229v-727h-146v1073h111l28 -158h7q71 185 264 185z" glyph-name="r" horiz-adv-x="735" unicode="r"/><glyph d="M504 1100q104 0 197.5 -31t156.5 -80l-63 -108q-147 92 -272 92t-190 -47t-65 -121q0 -114 174 -173q26 -9 77.5 -24.5t75 -24t69.5 -25.5q44 -18 68 -32q77 -47 108.5 -98.5t31.5 -130.5q0 -145 -108.5 -234.5t-300.5 -89.5q-96 0 -194.5 32t-164.5 87l54 123 q57 -51 140 -81t159 -30q129 0 197.5 52.5t68.5 132.5q0 53 -23.5 76.5t-38 35t-47 24.5t-73.5 29.5t-109 34.5q-149 53 -208.5 100.5t-79 95.5t-19.5 116q0 137 106.5 218t272.5 81z" glyph-name="s" horiz-adv-x="966" unicode="s"/><glyph d="M393 213q0 -107 100 -107q51 0 132 35l41 -112q-96 -55 -199 -56q-223 0 -223 215v760h-183v125h183v168l75 107h74v-275h262v-125h-262v-735z" glyph-name="t" horiz-adv-x="751" unicode="t"/><glyph d="M1030 1073v-1073h-110l-33 164q-74 -92 -162.5 -140.5t-224.5 -48.5t-230 93.5t-94 289.5v715h148v-682q0 -283 213 -282q106 0 185 53t161 145v766h147z" glyph-name="u" horiz-adv-x="1206" unicode="u"/><glyph d="M1030 1073l-432 -1073h-152l-413 1073h155l340 -917l346 917h156z" glyph-name="v" horiz-adv-x="1062" unicode="v"/><glyph d="M1546 1073l-375 -1073h-112l-285 840l-293 -840h-110l-338 1073h153l250 -872l293 872h107l282 -883l285 883h143z" glyph-name="w" horiz-adv-x="1579" unicode="w"/><glyph d="M971 0h-178l-297 449l-306 -449h-174v4l396 555l-369 508v6h178l273 -409l272 409h174v-4l-360 -512l391 -553v-4z" glyph-name="x" horiz-adv-x="987" unicode="x"/><glyph d="M272 -424q-92 0 -161 23l28 116q55 -18 122 -18t130.5 56.5t100.5 154.5l24 61l-459 1104h158l373 -954l338 954h151l-422 -1139q-131 -358 -383 -358z" glyph-name="y" horiz-adv-x="1136" unicode="y"/><glyph d="M885 129v-129h-803v113l604 829h-584v131h764v-123l-618 -821h637z" glyph-name="z" horiz-adv-x="964" unicode="z"/><glyph d="M688 1602v-95q-94 -12 -148.5 -76.5t-54.5 -168.5v-301q0 -88 -58 -153t-116 -75v-8q55 -10 114.5 -77.5t59.5 -151.5v-301q0 -104 54.5 -171t148.5 -79v-90q-164 0 -257 94t-93 248v256q0 102 -51 158.5t-137 66.5v102q82 12 135 69.5t53 154.5v253q0 154 94 249.5 t256 95.5z" glyph-name="braceleft" horiz-adv-x="800" unicode="{"/><glyph d="M287 -154h-109v1862h109v-1862z" glyph-name="bar" horiz-adv-x="464" unicode="|"/><glyph d="M113 1602q160 0 255 -95.5t95 -249.5v-253q0 -98 52 -154.5t134 -69.5v-102q-86 -10 -136 -66.5t-50 -158.5v-256q0 -154 -94.5 -248t-255.5 -94v90q92 12 147 78.5t55 171.5v301q0 84 58.5 151.5t115.5 77.5v8q-59 10 -116.5 74.5t-57.5 153.5v301q0 104 -55 168.5 t-147 76.5v95z" glyph-name="braceright" horiz-adv-x="798" unicode="}"/><glyph d="M857 545q-85 0 -239.5 42t-234.5 42t-125 -92h-121q31 113 97.5 174t147.5 61t238.5 -43t217.5 -43q96 0 141 94h141q-33 -121 -105.5 -178t-157.5 -57z" glyph-name="asciitilde" horiz-adv-x="1298" unicode="~"/><glyph d="M302 1075q54 0 88 -31.5t34 -91.5q0 -59 -35 -93t-88 -34t-88 34t-35 93t35 91t89 32zM401 -387h-208l38 1028h131z" glyph-name="exclamdown" horiz-adv-x="602" unicode="¡"/><glyph d="M109 724q0 243 125.5 388t318.5 170l-4 217h129l-4 -213q197 -14 332 -129l-78 -104q-70 53 -134.5 78.5t-160.5 25.5q-166 0 -269.5 -111.5t-103.5 -314.5t107.5 -320.5t273.5 -117.5t311 117l76 -99q-133 -127 -334 -145l4 -195h-129l4 195q-207 18 -335.5 166.5 t-128.5 391.5z" glyph-name="cent" horiz-adv-x="1099" unicode="¢"/><glyph d="M882 117q82 0 173 18l30 -137q-93 -25 -203 -25t-205 13.5t-205 13.5t-204 -27l-51 131q147 70 148 254v316h-134v121h134v299q0 180 102 272t260 92q229 0 387 -119l-80 -122q-78 53 -143.5 76.5t-149.5 23.5q-217 0 -217 -246v-276h445v-121h-445v-293 q0 -100 -28.5 -156.5t-85.5 -99.5q74 20 139 20t158 -14t175 -14z" glyph-name="sterling" horiz-adv-x="1341" unicode="£"/><glyph d="M1100 689q0 -167 -84 -281l151 -150l-88 -92l-157 153q-117 -77 -282 -77t-284 77l-155 -153l-92 90l153 152q-90 116 -90 284t90 283l-151 153l90 93l157 -158q117 76 280 76t282 -80l157 158l90 -89l-155 -157q88 -115 88 -282zM636 381q128 0 213 83t85 227t-85 226 t-213 82t-213 -81.5t-85 -225.5t85 -227.5t213 -83.5z" glyph-name="currency" horiz-adv-x="1275" unicode="¤"/><glyph d="M1153 737v-125h-408v-137h408v-125h-408v-350h-151v350h-412v125h412v135l-2 2h-410v125h334l-426 697h191l391 -676l399 676h172l-422 -697h332z" glyph-name="yen" horiz-adv-x="1333" unicode="¥"/><glyph d="M285 817h-107v778h107v-778zM285 -35h-107v762h107v-762z" glyph-name="brokenbar" horiz-adv-x="460" unicode="¦"/><glyph d="M479 88q234 0 234 164q0 68 -50 102.5t-156 58t-138 33.5q-213 72 -213 254q0 100 53 166t149 90q-88 31 -141 93.5t-53 144.5q0 127 94 196.5t262 69.5t291 -59l-39 -103q-104 41 -232 41t-185.5 -42t-57.5 -109q0 -120 105.5 -147t137.5 -35t70 -18q89 -22 171.5 -76 t82.5 -183q0 -176 -211 -252q205 -63 205 -229q0 -125 -99.5 -202t-280.5 -77t-324 72l43 106q109 -59 282 -59zM509 893q-99 0 -158.5 -48t-59.5 -131t58.5 -129t159.5 -46t160.5 46t59.5 129t-60.5 131t-159.5 48z" glyph-name="section" horiz-adv-x="1015" unicode="§"/><glyph d="M147 1448q43 0 70 -25.5t27 -72.5t-27 -72t-70 -25t-68.5 25t-25.5 72t25.5 72.5t68.5 25.5zM487 1448q43 0 69 -25.5t26 -72.5t-26 -72t-69 -25t-69.5 25t-26.5 72t26.5 72.5t69.5 25.5z" glyph-name="dieresis" horiz-adv-x="634" unicode="¨"/><glyph d="M848.5 1462q148.5 0 283 -52t235.5 -146.5t160.5 -235.5t59.5 -309t-59.5 -310.5t-160.5 -236.5t-235.5 -146.5t-283 -52.5t-282.5 52.5t-235.5 146.5t-161.5 236.5t-60 310.5t60 309t161.5 235.5t235.5 146.5t282.5 52zM850 1354q-172 0 -314.5 -76t-228.5 -222.5 t-86 -337t86 -338t228.5 -224t314.5 -76.5t313.5 76.5t227.5 224t86 338.5q0 190 -86 337.5t-227.5 222.5t-313.5 75zM849 1110q157 0 257 -88l-51 -90q-63 46 -111.5 59t-97.5 13q-113 0 -183.5 -72t-70.5 -202t75.5 -203.5t194.5 -73.5t211 75l53 -88q-106 -96 -270 -96 t-269.5 97.5t-105.5 285.5t105.5 285.5t262.5 97.5z" glyph-name="copyright" horiz-adv-x="1695" unicode="©"/><glyph d="M391 1454q236 0 236 -221v-301q0 -51 47 -51h18l-10 -74q-25 -8 -55 -8q-78 0 -99 57q-76 -61 -178 -61t-160.5 53t-58.5 140t61.5 137.5t155.5 50.5t174 -13v51q0 143 -139 144q-86 0 -178 -43l-41 74q92 65 227 65zM371 1085q-135 0 -135 -72.5t30.5 -99t81.5 -26.5 q98 0 170 61v127q-51 10 -147 10z" glyph-name="ordfeminine" horiz-adv-x="815" unicode="ª"/><glyph d="M459 815l-244 -291l242 -293l-90 -77l-308 368l303 371zM805 815l-242 -291l242 -293l-90 -77l-307 368l303 371z" glyph-name="guillemotleft" horiz-adv-x="942" unicode="«"/><glyph d="M1198 322h-133v364h-885v123h1018v-487z" glyph-name="logicalnot" horiz-adv-x="1378" unicode="¬"/><glyph d="M848.5 1462q148.5 0 283 -52t235.5 -146.5t160.5 -235.5t59.5 -309t-59.5 -310.5t-160.5 -236.5t-235.5 -146.5t-283 -52.5t-282.5 52.5t-235.5 146.5t-161.5 236.5t-60 310.5t60 309t161.5 235.5t235.5 146.5t282.5 52zM850 1354q-172 0 -314.5 -76t-228.5 -222.5 t-86 -337t86 -338t228.5 -224t314.5 -76.5t313.5 76.5t227.5 224t86 338.5q0 190 -86 337.5t-227.5 222.5t-313.5 75zM606 1098h250q137 0 195.5 -58.5t58.5 -148.5q0 -137 -131 -203l172 -323h-131l-148 288h-157v-288h-109v733zM715 997v-243h135q66 0 104.5 35.5 t38.5 91.5q0 117 -141 116h-137z" glyph-name="registered" horiz-adv-x="1695" unicode="®"/><glyph d="M543 1335h-451v99h451v-99z" glyph-name="macron" horiz-adv-x="634" unicode="¯"/><glyph d="M380 1456q114 0 193.5 -67.5t79.5 -192.5t-79.5 -190.5t-193.5 -65.5t-194 65.5t-80 190.5t80 192.5t194 67.5zM382 1335q-64 0 -102 -35.5t-38 -104.5t37.5 -103.5t101.5 -34.5t102.5 34.5t38.5 104.5t-38 104.5t-102 34.5z" glyph-name="degree" horiz-adv-x="759" unicode="°"/><glyph d="M690 965h445v-121h-445v-467h-123v467h-446v121h446v467h123v-467zM1135 39h-1014v123h1014v-123z" glyph-name="plusminus" horiz-adv-x="1255" unicode="±"/><glyph d="M262 1208h-123l152 236h207z" glyph-name="acute" horiz-adv-x="634" unicode="´"/><glyph d="M868 0h-129v1317h-121v-1317h-129v766q-342 33 -342 342q0 152 90.5 239t282.5 87h348v-1434z" glyph-name="paragraph" horiz-adv-x="1044" unicode="¶"/><glyph d="M296 756q52 0 88 -33t36 -97t-36 -96t-88 -32t-89 32t-37 96t37 97t89 33z" glyph-name="periodcentered" horiz-adv-x="589" unicode="·"/><glyph d="M195 -328q147 19 147 93q0 35 -18.5 51t-41.5 16t-42 -8l-64 53l84 139h92l-61 -96q72 6 119 -38t47 -118t-63.5 -118.5t-168.5 -55.5z" glyph-name="cedilla" horiz-adv-x="634" unicode="¸"/><glyph d="M412 1454q127 0 219 -85t92 -245.5t-92 -245.5t-219 -85t-217.5 84t-90.5 246.5t90.5 246.5t217.5 84zM413 1356q-89 0 -144.5 -63.5t-55.5 -170.5q0 -106 55.5 -168.5t144.5 -62.5t145 62.5t56 168.5t-56 170t-145 64z" glyph-name="ordmasculine" horiz-adv-x="823" unicode="º"/><glyph d="M537 522l-308 -368l-92 77l244 293l-244 291l96 78zM883 522l-305 -368l-93 77l246 293l-246 291l97 78z" glyph-name="guillemotright" horiz-adv-x="942" unicode="»"/><glyph d="M1384 1532l-579 -1782h-107l582 1782h104zM500 725h174v-117h-481v117h174v541l-162 -74l-51 102l256 127h90v-696zM1870 319h125v-110h-125v-211h-129v211h-387v108l409 496h107v-494zM1741 319v297l-242 -297h242z" glyph-name="onequarter" horiz-adv-x="2086" unicode="¼"/><glyph d="M1384 1532l-579 -1782h-107l582 1782h104zM500 725h174v-117h-481v117h174v541l-162 -74l-51 102l256 127h90v-696zM1648 823q144 0 223 -67.5t79 -171.5q0 -178 -236 -361l-141 -108h399v-121h-579v106l235 191q176 143 176 278q0 61 -43 97t-112 36q-113 0 -207 -77 l-68 96q130 102 274 102z" glyph-name="onehalf" horiz-adv-x="2086" unicode="½"/><glyph d="M1384 1532l-579 -1782h-107l582 1782h104zM725 844q0 -115 -92 -188.5t-251 -73.5t-286 98l68 104q104 -80 212 -80t157 40t49 105t-46.5 96.5t-148.5 31.5h-80v115h64q82 0 130 29.5t48 86.5q0 109 -152 109q-111 0 -207 -84l-67 90q119 115 268 115t225 -60t76 -134 t-41.5 -126.5t-111.5 -70.5q86 -14 136 -66.5t50 -136.5zM1995 319v-110h-125v-211h-129v211h-387v108l409 496h107v-494h125zM1741 319v297l-242 -297h242z" glyph-name="threequarters" horiz-adv-x="2086" unicode="¾"/><glyph d="M580.5 872q-54.5 0 -87 34t-32.5 91.5t32.5 90t87 32.5t88 -32.5t33.5 -90t-33.5 -91.5t-88 -34zM545 -360q-195 0 -308.5 95t-113.5 247t99.5 243.5t199.5 185.5t100 242h133q0 -161 -77.5 -248t-188 -192t-110.5 -214t73.5 -167.5t200.5 -58.5q205 0 344 106l72 -104 q-72 -59 -184.5 -97t-239.5 -38z" glyph-name="questiondown" horiz-adv-x="1153" unicode="¿"/><glyph d="M674 1569l-242 235h209l154 -235h-121zM1036 365h-665l-131 -365h-160l532 1434h189l536 -1434h-170zM989 498l-282 788l-287 -788h569z" glyph-name="Agrave" horiz-adv-x="1415" unicode="À"/><glyph d="M752 1569h-121l151 235h205zM1036 365h-665l-131 -365h-160l532 1434h189l536 -1434h-170zM989 498l-282 788l-287 -788h569z" glyph-name="Aacute" horiz-adv-x="1415" unicode="Á"/><glyph d="M588 1591h-156l232 226h86l219 -226h-150l-119 109zM1036 365h-665l-131 -365h-160l532 1434h189l536 -1434h-170zM989 498l-282 788l-287 -788h569z" glyph-name="Acircumflex" horiz-adv-x="1415" unicode="Â"/><glyph d="M815 1606q-45 0 -110.5 37.5t-102.5 37.5q-70 0 -110 -82l-80 41q25 80 76 118t103 38t120.5 -38t97.5 -38q59 0 100 90l82 -47q-53 -157 -176 -157zM1036 365h-665l-131 -365h-160l532 1434h189l536 -1434h-170zM989 498l-282 788l-287 -788h569z" glyph-name="Atilde" horiz-adv-x="1415" unicode="Ã"/><glyph d="M539 1614q-43 0 -69 24.5t-26 71.5t26 72.5t69 25.5t69.5 -25.5t26.5 -72.5t-26.5 -71.5t-69.5 -24.5zM879 1614q-43 0 -70 24.5t-27 71.5t27 72.5t70 25.5t68.5 -25.5t25.5 -72.5t-25.5 -71.5t-68.5 -24.5zM1036 365h-665l-131 -365h-160l532 1434h189l536 -1434h-170z M989 498l-282 788l-287 -788h569z" glyph-name="Adieresis" horiz-adv-x="1415" unicode="Ä"/><glyph d="M712 1577q-64 0 -108.5 37t-44.5 107.5t44.5 108.5t108.5 38t108 -38t44 -108.5t-44 -107.5t-108 -37zM712 1796q-32 0 -51.5 -20.5t-19.5 -54.5t19.5 -54t51 -20t51 20.5t19.5 54t-19 54t-51 20.5zM1036 365h-665l-131 -365h-160l532 1434h189l536 -1434h-170zM989 498 l-282 788l-287 -788h569z" glyph-name="Aring" horiz-adv-x="1415" unicode="Å"/><glyph d="M1026 139h672v-139h-824v301h-471l-145 -301h-178l713 1434h905v-136h-672v-503h596v-136h-596v-520zM874 434v846l-407 -846h407z" glyph-name="AE" horiz-adv-x="1802" unicode="Æ"/><glyph d="M659 -328q148 19 148 93q0 67 -62 67q-23 0 -38 -8l-64 53l59 103q-242 29 -401.5 206.5t-163.5 526.5q0 188 52.5 334.5t145.5 234.5q186 176 467.5 176t454.5 -129l-77 -115q-162 106 -378 106q-214 2 -356 -142q-150 -154 -151 -468q0 -316 145 -456.5t363 -140.5 q238 4 405 141l84 -111q-197 -170 -493 -170h-8l-35 -53q72 6 120 -38t48 -117.5t-64.5 -118.5t-169.5 -56z" glyph-name="Ccedilla" horiz-adv-x="1349" unicode="Ç"/><glyph d="M676 1569h-119l-242 235h209zM1071 1300h-743v-499h659v-135h-659v-527h743v-139h-893v1434h893v-134z" glyph-name="Egrave" horiz-adv-x="1175" unicode="È"/><glyph d="M635 1569h-121l152 235h204zM1071 1300h-743v-499h659v-135h-659v-527h743v-139h-893v1434h893v-134z" glyph-name="Eacute" horiz-adv-x="1175" unicode="É"/><glyph d="M471 1591h-156l232 226h86l219 -226h-150l-118 109zM328 1300v-499h659v-135h-659v-527h743v-139h-893v1434h893v-134h-743z" glyph-name="Ecircumflex" horiz-adv-x="1175" unicode="Ê"/><glyph d="M422 1808q43 0 69.5 -25.5t26.5 -72.5t-26.5 -71.5t-69.5 -24.5t-68.5 24.5t-25.5 71.5t25.5 72.5t68.5 25.5zM762 1808q43 0 68.5 -25.5t25.5 -72.5t-25.5 -71.5t-68.5 -24.5t-69.5 24.5t-26.5 71.5t26.5 72.5t69.5 25.5zM1071 1300h-743v-499h659v-135h-659v-527h743 v-139h-893v1434h893v-134z" glyph-name="Edieresis" horiz-adv-x="1175" unicode="Ë"/><glyph d="M354 1569h-118l-242 235h207zM350 0h-151v1434h151v-1434z" glyph-name="Igrave" horiz-adv-x="546" unicode="Ì"/><glyph d="M313 1569h-123l152 235h207zM350 0h-151v1434h151v-1434z" glyph-name="Iacute" horiz-adv-x="546" unicode="Í"/><glyph d="M530 1591h-149l-119 109l-112 -109h-156l231 226h86zM199 1434h151v-1434h-151v1434z" glyph-name="Icircumflex" horiz-adv-x="546" unicode="Î"/><glyph d="M100 1808q43 0 70 -25.5t27 -72.5t-27 -71.5t-70 -24.5t-68.5 24.5t-25.5 71.5t25.5 72.5t68.5 25.5zM440 1808q43 0 69 -25.5t26 -72.5t-26 -71.5t-70 -24.5t-69.5 24.5t-25.5 71.5t26.5 72.5t69.5 25.5zM350 0h-151v1434h151v-1434z" glyph-name="Idieresis" horiz-adv-x="546" unicode="Ï"/><glyph d="M371 1434h403q294 0 439 -122t199 -260.5t54 -322.5t-54 -325.5t-199.5 -272.5t-438.5 -131h-403v676h-193v125h193v633zM524 141h269q250 0 384 147.5t134 440.5q0 569 -518 569h-269v-497h240v-125h-240v-535z" glyph-name="Eth" horiz-adv-x="1603" unicode="Ð"/><glyph d="M838 1610q-45 0 -110.5 36.5t-102.5 36.5q-72 0 -111 -81l-80 40q25 80 76 118t103 38t120 -38t98 -38q60 0 101 90l82 -47q-52 -155 -176 -155zM1315 0h-129l-858 1167v-1167h-150v1434h133l852 -1168v1168h152v-1434z" glyph-name="Ntilde" horiz-adv-x="1492" unicode="Ñ"/><glyph d="M881 1569h-121l-240 235h207zM817.5 1458q102.5 0 251 -41t287.5 -219t139 -477q0 -186 -58.5 -333.5t-156.5 -236t-216 -133.5t-247 -45t-246.5 45t-216 133.5t-157 236t-58.5 316.5t38 292.5t103.5 207.5t153.5 142.5t184.5 85t199 26.5zM817 1321q-222 0 -330 -109.5 t-150 -225.5t-42 -263q0 -287 147.5 -449.5t367.5 -162.5t373.5 156.5t153.5 454.5t-150.5 448.5t-369.5 150.5z" glyph-name="Ograve" horiz-adv-x="1632" unicode="Ò"/><glyph d="M838 1569h-121l151 235h205zM817.5 1458q102.5 0 251 -41t287.5 -219t139 -477q0 -186 -58.5 -333.5t-156.5 -236t-216 -133.5t-247 -45t-246.5 45t-216 133.5t-157 236t-58.5 316.5t38 292.5t103.5 207.5t153.5 142.5t184.5 85t199 26.5zM817 1321q-222 0 -330 -109.5 t-150 -225.5t-42 -263q0 -287 147.5 -449.5t367.5 -162.5t373.5 156.5t153.5 454.5t-150.5 448.5t-369.5 150.5z" glyph-name="Oacute" horiz-adv-x="1632" unicode="Ó"/><glyph d="M674 1591h-156l232 226h86l219 -226h-150l-117 109zM817.5 1458q102.5 0 251 -41t287.5 -219t139 -477q0 -186 -58.5 -333.5t-156.5 -236t-216 -133.5t-247 -45t-246.5 45t-216 133.5t-157 236t-58.5 316.5t38 292.5t103.5 207.5t153.5 142.5t184.5 85t199 26.5z M817 1321q-222 0 -330 -109.5t-150 -225.5t-42 -263q0 -287 147.5 -449.5t367.5 -162.5t373.5 156.5t153.5 454.5t-150.5 448.5t-369.5 150.5z" glyph-name="Ocircumflex" horiz-adv-x="1632" unicode="Ô"/><glyph d="M903 1606q-47 0 -111.5 37.5t-103.5 37.5q-70 0 -110 -82l-80 41q27 80 77 118t102 38t120.5 -38t99.5 -38q57 0 98 90l82 -47q-53 -157 -174 -157zM817.5 1458q102.5 0 251 -41t287.5 -219t139 -477q0 -186 -58.5 -333.5t-156.5 -236t-216 -133.5t-247 -45t-246.5 45 t-216 133.5t-157 236t-58.5 316.5t38 292.5t103.5 207.5t153.5 142.5t184.5 85t199 26.5zM817 1321q-222 0 -330 -109.5t-150 -225.5t-42 -263q0 -287 147.5 -449.5t367.5 -162.5t373.5 156.5t153.5 454.5t-150.5 448.5t-369.5 150.5z" glyph-name="Otilde" horiz-adv-x="1632" unicode="Õ"/><glyph d="M625 1808q43 0 69.5 -25.5t26.5 -72.5t-25.5 -71.5t-69.5 -24.5t-70 24.5t-26 71.5t26 72.5t69 25.5zM965 1808q43 0 68.5 -25.5t25.5 -72.5t-25.5 -71.5t-68.5 -24.5t-70 24.5t-27 71.5t27 72.5t70 25.5zM817.5 1458q102.5 0 251 -41t287.5 -219t139 -477 q0 -186 -58.5 -333.5t-156.5 -236t-216 -133.5t-247 -45t-246.5 45t-216 133.5t-157 236t-58.5 316.5t38 292.5t103.5 207.5t153.5 142.5t184.5 85t199 26.5zM817 1321q-222 0 -330 -109.5t-150 -225.5t-42 -263q0 -287 147.5 -449.5t367.5 -162.5t373.5 156.5t153.5 454.5 t-150.5 448.5t-369.5 150.5z" glyph-name="Odieresis" horiz-adv-x="1632" unicode="Ö"/><glyph d="M1202 98l-90 -94l-420 438l-420 -436l-90 92l418 441l-422 442l94 90l418 -438l418 438l94 -96l-420 -438z" glyph-name="multiply" horiz-adv-x="1380" unicode="×"/><glyph d="M1495 721q0 -186 -58.5 -333.5t-206.5 -281t-413 -133.5q-174 0 -321 78l-140 -244l-102 62l141 248q-256 205 -256 619t231.5 568t446.5 154q162 0 301 -65l131 229l105 -57l-131 -232q272 -199 272 -612zM295 723q0 -307 174 -477l580 1024q-104 51 -221 51t-211.5 -37 t-166 -109.5t-113.5 -188.5t-42 -263zM797 111q234 0 387 156.5t153 465.5t-188 471l-584 -1030q111 -63 232 -63z" glyph-name="Oslash" horiz-adv-x="1632" unicode="Ø"/><glyph d="M784 1569h-120l-242 235h209zM1253 1434v-918q0 -141 -44 -248.5t-119.5 -170t-170 -93.5t-204 -31t-203.5 31t-171 93.5t-120 170t-43 248.5v918h150v-928q0 -182 102 -283.5t287 -101.5q184 0 284.5 101.5t100.5 283.5v928h151z" glyph-name="Ugrave" horiz-adv-x="1429" unicode="Ù"/><glyph d="M741 1569h-120l151 235h205zM1253 1434v-918q0 -141 -44 -248.5t-119.5 -170t-170 -93.5t-204 -31t-203.5 31t-171 93.5t-120 170t-43 248.5v918h150v-928q0 -182 102 -283.5t287 -101.5q184 0 284.5 101.5t100.5 283.5v928h151z" glyph-name="Uacute" horiz-adv-x="1429" unicode="Ú"/><glyph d="M578 1591h-156l231 226h86l219 -226h-149l-119 109zM1253 1434v-918q0 -141 -44 -248.5t-119.5 -170t-170 -93.5t-204 -31t-203.5 31t-171 93.5t-120 170t-43 248.5v918h150v-928q0 -182 102 -283.5t287 -101.5q184 0 284.5 101.5t100.5 283.5v928h151z" glyph-name="Ucircumflex" horiz-adv-x="1429" unicode="Û"/><glyph d="M528 1808q43 0 70 -25.5t27 -72.5t-27 -71.5t-70 -24.5t-68.5 24.5t-25.5 71.5t25.5 72.5t68.5 25.5zM868 1808q43 0 69 -25.5t26 -72.5t-26 -71.5t-69 -24.5t-69.5 24.5t-26.5 71.5t26.5 72.5t69.5 25.5zM1253 1434v-918q0 -141 -44 -248.5t-119.5 -170t-170 -93.5 t-204 -31t-203.5 31t-171 93.5t-120 170t-43 248.5v918h150v-928q0 -182 102 -283.5t287 -101.5q184 0 284.5 101.5t100.5 283.5v928h151z" glyph-name="Udieresis" horiz-adv-x="1429" unicode="Ü"/><glyph d="M692 1569h-123l152 235h207zM715 0h-152v573l-502 861h179l403 -719l399 719h172l-499 -861v-573z" glyph-name="Yacute" horiz-adv-x="1333" unicode="Ý"/><glyph d="M332 1182h264q231 0 353 -114t122 -308t-124 -320.5t-351 -126.5h-264v-313h-154v1434h154v-252zM332 1044v-595h246q160 0 246.5 81.5t86.5 233.5q0 281 -333 280h-246z" glyph-name="Thorn" horiz-adv-x="1130" unicode="Þ"/><glyph d="M527 1565q167 0 259.5 -87t92.5 -223t-52.5 -202t-103.5 -118.5t-51 -103.5t33.5 -88.5t83 -75.5t98.5 -83t83 -116t34 -155q0 -162 -93.5 -249t-236.5 -87t-250 41l37 119q98 -35 192 -35t146.5 59.5t52.5 134.5t-34 132t-82 99t-131 111.5t-83 174.5q0 78 51.5 136.5 t102.5 118t51 160.5t-53 153.5t-148 52.5q-201 0 -200 -197v-1237h-150v1241q0 147 92 235.5t259 88.5z" glyph-name="germandbls" horiz-adv-x="1112" unicode="ß"/><glyph d="M645 1210h-119l-241 236h207zM974 -8q-56 0 -91 27.5t-52 97.5q-117 -143 -339 -144q-176 0 -279.5 78t-103.5 236q0 230 167.5 267.5t295.5 37.5t245 -25v158q0 135 -66.5 190.5t-193.5 55.5q-184 0 -326 -111l-67 98q172 142 391 142t314.5 -89t95.5 -290v-531 q0 -88 67 -88h7l26 2l-16 -96q-19 -16 -75 -16zM547 473q-291 0 -291 -184q0 -100 69.5 -144.5t178.5 -44.5q219 0 313 156v190q-139 27 -270 27z" glyph-name="agrave" horiz-adv-x="1134" unicode="à"/><glyph d="M604 1210h-123l154 236h205zM974 -8q-56 0 -91 27.5t-52 97.5q-117 -143 -339 -144q-176 0 -279.5 78t-103.5 236q0 230 167.5 267.5t295.5 37.5t245 -25v158q0 135 -66.5 190.5t-193.5 55.5q-184 0 -326 -111l-67 98q172 142 391 142t314.5 -89t95.5 -290v-531 q0 -88 67 -88h7l26 2l-16 -96q-19 -16 -75 -16zM547 473q-291 0 -291 -184q0 -100 69.5 -144.5t178.5 -44.5q219 0 313 156v190q-139 27 -270 27z" glyph-name="aacute" horiz-adv-x="1134" unicode="á"/><glyph d="M440 1231h-155l231 227h86l219 -227h-149l-119 108zM974 -10q-56 0 -91 28.5t-52 98.5q-117 -143 -339 -144q-176 0 -279.5 78t-103.5 236q0 230 167.5 267.5t295.5 37.5t245 -25v158q0 135 -66.5 190.5t-193.5 55.5q-184 0 -326 -111l-67 98q172 142 391 142t314.5 -89 t95.5 -290v-531q-1 -88 67 -88h7l26 2l-16 -96q-19 -18 -75 -18zM547 473q-291 0 -291 -184q0 -100 69.5 -144.5t178.5 -44.5q219 0 313 156v190q-139 27 -270 27z" glyph-name="acircumflex" horiz-adv-x="1134" unicode="â"/><glyph d="M676 1247q-53 0 -118.5 37t-102.5 37q-72 0 -111 -80l-80 41q25 80 76 118t103 38t120 -38t99 -38q59 0 100 90l82 -47q-25 -74 -70 -116t-98 -42zM974 -8q-56 0 -91 27.5t-52 97.5q-117 -143 -339 -144q-176 0 -279.5 78t-103.5 236q0 230 167.5 267.5t295.5 37.5 t245 -25v158q0 135 -66.5 190.5t-193.5 55.5q-184 0 -326 -111l-67 98q172 142 391 142t314.5 -89t95.5 -290v-531q0 -88 67 -88h7l26 2l-16 -96q-19 -16 -75 -16zM547 473q-291 0 -291 -184q0 -100 69.5 -144.5t178.5 -44.5q219 0 313 156v190q-139 27 -270 27z" glyph-name="atilde" horiz-adv-x="1134" unicode="ã"/><glyph d="M391 1450q43 0 69.5 -25.5t26.5 -72.5t-26.5 -72t-69.5 -25t-68.5 25t-25.5 72t25.5 72.5t68.5 25.5zM731 1450q43 0 68.5 -25.5t25.5 -72.5t-25.5 -72t-69.5 -25t-69.5 25t-25.5 72t26.5 72.5t69.5 25.5zM974 -8q-56 0 -91 27.5t-52 97.5q-117 -143 -339 -144 q-176 0 -279.5 78t-103.5 236q0 230 167.5 267.5t295.5 37.5t245 -25v158q0 135 -66.5 190.5t-193.5 55.5q-184 0 -326 -111l-67 98q172 142 391 142t314.5 -89t95.5 -290v-531q0 -88 67 -88h7l26 2l-16 -96q-19 -16 -75 -16zM547 473q-291 0 -291 -184q0 -100 69.5 -144.5 t178.5 -44.5q219 0 313 156v190q-139 27 -270 27z" glyph-name="adieresis" horiz-adv-x="1134" unicode="ä"/><glyph d="M564 1507q64 0 108.5 -36.5t44.5 -107.5t-44 -107.5t-109 -36.5t-109.5 36.5t-44.5 107.5t45 107.5t109 36.5zM564 1438q-32 0 -51 -20.5t-19 -54.5t19 -54.5t51 -20.5t51.5 20.5t19.5 54.5t-19.5 54.5t-51.5 20.5zM974 -10q-56 0 -91 28.5t-52 98.5q-117 -143 -339 -144 q-176 0 -279.5 78t-103.5 236q0 230 167.5 267.5t296.5 37.5t244 -25v158q0 135 -66.5 190.5t-193.5 55.5q-184 0 -326 -111l-67 98q172 142 391 142t314.5 -89t95.5 -290v-531q0 -88 67 -88h7l26 2l-16 -96q-19 -18 -75 -18zM547 473q-291 0 -291 -184q0 -100 69.5 -144.5 t178.5 -44.5q219 0 313 156v190q-139 27 -270 27z" glyph-name="aring" horiz-adv-x="1134" unicode="å"/><glyph d="M1757 594q0 -94 -2 -109h-776q10 -184 103.5 -282.5t252.5 -98.5q98 0 186.5 35t149.5 90l58 -96q-160 -158 -406 -158q-283 0 -414 228q-66 -106 -178.5 -167t-264.5 -61t-254.5 84t-102.5 238q0 185 141 258.5t304 73.5t275 -25v98q0 133 -70.5 200t-195.5 67 q-166 0 -317 -109l-70 103q88 63 181.5 99t227.5 36t217 -50.5t128 -160.5q63 104 166.5 157.5t228.5 53.5q190 0 311 -129t121 -375zM1614 604q-16 367 -301 367q-147 0 -234.5 -96.5t-95.5 -270.5h631zM258 310q0 -208 250 -208q112 0 217 75t109 173v133q-148 25 -278 25 t-214 -44t-84 -154z" glyph-name="ae" horiz-adv-x="1888" unicode="æ"/><glyph d="M500 -328q147 19 147 93q0 35 -17.5 51t-42 16t-40.5 -8l-64 53l62 103q-197 29 -316.5 176t-119.5 397t149.5 398.5t371.5 148.5t376 -131l-78 -105q-70 53 -134.5 79t-160.5 26q-166 0 -269.5 -112t-103.5 -314.5t107.5 -320.5t273.5 -118t311 117l76 -98 q-66 -61 -167 -105.5t-230 -44.5l-35 -53q72 6 120 -38t48 -117.5t-64.5 -118.5t-169.5 -56z" glyph-name="ccedilla" horiz-adv-x="1097" unicode="ç"/><glyph d="M549 1208l-240 236h207l154 -236h-121zM1071 584q0 -63 -6 -113h-803q39 -369 369 -369q199 0 342 123l80 -94q-180 -158 -447 -158q-202 1 -346 137q-70 66 -110.5 174.5t-40.5 245.5q0 268 134 419t357 151q152 0 262 -76q208 -143 209 -440zM601 973 q-151 0 -244 -100.5t-99 -282.5h678q-6 170 -95 276.5t-240 106.5z" glyph-name="egrave" horiz-adv-x="1200" unicode="è"/><glyph d="M627 1208h-121l151 236h205zM1071 584q0 -63 -6 -113h-803q39 -369 369 -369q199 0 342 123l78 -94q-178 -158 -445 -158q-202 1 -346 137q-70 66 -110.5 174.5t-40.5 245.5q0 268 134 419t357 151q152 0 262 -76q210 -145 209 -440zM601 973q-151 0 -244 -100.5 t-99 -282.5h678q-6 170 -95 276.5t-240 106.5z" glyph-name="eacute" horiz-adv-x="1200" unicode="é"/><glyph d="M463 1229h-156l232 227h86l219 -227h-150l-116 108zM1071 584q0 -63 -6 -113h-803q39 -369 369 -369q199 0 342 123l78 -94q-178 -158 -445 -158q-202 1 -346 137q-70 66 -110.5 174.5t-40.5 245.5q0 268 134 419t357 151q152 0 262 -76q208 -143 209 -440zM601 973 q-151 0 -244 -100.5t-99 -282.5h678q-6 170 -95 276.5t-240 106.5z" glyph-name="ecircumflex" horiz-adv-x="1200" unicode="ê"/><glyph d="M415 1253q-44 0 -70 25t-26 72t26 72.5t69 25.5t69.5 -25.5t26.5 -72.5t-25.5 -72t-69.5 -25zM754 1253q-43 0 -70 25t-27 72t27 72.5t70 25.5t68.5 -25.5t25.5 -72.5t-25.5 -72t-68.5 -25zM1071 584q0 -63 -6 -113h-803q39 -369 369 -369q199 0 342 123l78 -94 q-178 -158 -445 -158q-202 1 -346 137q-70 66 -110.5 174.5t-40.5 245.5q0 268 134 419t357 151q152 0 262 -76q210 -145 209 -440zM601 973q-151 0 -244 -100.5t-99 -282.5h678q-6 170 -95 276.5t-240 106.5z" glyph-name="edieresis" horiz-adv-x="1200" unicode="ë"/><glyph d="M287 1208h-121l-240 236h207zM299 0h-147v1073h147v-1073z" glyph-name="igrave" horiz-adv-x="448" unicode="ì"/><glyph d="M244 1208h-121l151 236h205zM299 0h-147v1073h147v-1073z" glyph-name="iacute" horiz-adv-x="448" unicode="í"/><glyph d="M461 1231h-150l-118 108l-113 -108h-156l232 225h86zM152 1073h147v-1073h-147v1073z" glyph-name="icircumflex" horiz-adv-x="448" unicode="î"/><glyph d="M31 1448q43 0 69.5 -25.5t26.5 -72.5t-25.5 -72t-69.5 -25t-69.5 25t-25.5 72t25.5 72.5t68.5 25.5zM371 1448q43 0 68.5 -25.5t25.5 -72.5t-25.5 -72t-68.5 -25t-70 25t-27 72t27 72.5t70 25.5zM299 0h-147v1073h147v-1073z" glyph-name="idieresis" horiz-adv-x="448" unicode="ï"/><glyph d="M1120 578q0 -289 -134 -447t-354 -158t-329.5 100.5t-151.5 211.5t-42 253q0 290 146 426t352 136t327 -158q-78 199 -234 340l-262 -127l-45 86l225 109q-70 53 -157 102l67 90q117 -61 211 -135l207 100l45 -86l-172 -82q301 -291 301 -761zM614 106q160 0 257.5 116 t97.5 314t-101.5 313.5t-261.5 115.5t-253 -114.5t-93 -314.5t97 -315t257 -115z" glyph-name="eth" horiz-adv-x="1228" unicode="ð"/><glyph d="M713 1247q-53 0 -119 38t-102 38q-72 0 -111 -82l-80 41q25 80 76 118t103 38t120 -38t98 -38q60 0 101 90l82 -47q-25 -74 -70 -116t-98 -42zM708.5 1100q147.5 0 239.5 -90t92 -265v-745h-147v705q0 143 -56.5 201.5t-164.5 58.5q-215 0 -353 -213v-752h-143v1073h105 l22 -166h6q78 94 165 143.5t234.5 49.5z" glyph-name="ntilde" horiz-adv-x="1216" unicode="ñ"/><glyph d="M688 1208h-121l-239 236h207zM625.5 1100q103.5 0 193.5 -34t164 -99.5t117 -176t43 -254t-43 -254t-117 -176t-164 -99.5t-193.5 -34t-194.5 34t-163.5 99.5t-115.5 176t-43 254t43 254t115.5 176t163.5 99.5t194.5 34zM626 967q-167 0 -266.5 -115t-99.5 -315.5 t99.5 -315.5t266.5 -115t265 115t98 315.5t-98 315.5t-265 115z" glyph-name="ograve" horiz-adv-x="1251" unicode="ò"/><glyph d="M647 1208h-123l152 236h207zM625.5 1100q103.5 0 193.5 -34t164 -99.5t117 -176t43 -254t-43 -254t-117 -176t-164 -99.5t-193.5 -34t-194.5 34t-163.5 99.5t-115.5 176t-43 254t43 254t115.5 176t163.5 99.5t194.5 34zM626 967q-167 0 -266.5 -115t-99.5 -315.5 t99.5 -315.5t266.5 -115t265 115t98 315.5t-98 315.5t-265 115z" glyph-name="oacute" horiz-adv-x="1251" unicode="ó"/><glyph d="M481 1231h-153l231 225h84l219 -225h-147l-119 108zM625.5 1100q103.5 0 193.5 -34t164 -99.5t117 -176t43 -254t-43 -254t-117 -176t-164 -99.5t-193.5 -34t-194.5 34t-163.5 99.5t-115.5 176t-43 254t43 254t115.5 176t163.5 99.5t194.5 34zM626 106q167 0 265 115 t98 315.5t-98 315.5t-265 115t-266.5 -115t-99.5 -315.5t99.5 -315.5t266.5 -115z" glyph-name="ocircumflex" horiz-adv-x="1251" unicode="ô"/><glyph d="M718 1245q-52 0 -117.5 38t-102.5 38q-72 0 -113 -82l-80 41q27 80 77 118t102 38t121 -38t100 -38q59 0 100 90l80 -47q-23 -74 -69 -116t-98 -42zM625.5 1100q103.5 0 193.5 -34t164 -99.5t117 -176t43 -254t-43 -254t-117 -176t-164 -99.5t-193.5 -34t-194.5 34 t-163.5 99.5t-115.5 176t-43 254t43 254t115.5 176t163.5 99.5t194.5 34zM626 967q-167 0 -266.5 -115t-99.5 -315.5t99.5 -315.5t266.5 -115t265 115t98 315.5t-98 315.5t-265 115z" glyph-name="otilde" horiz-adv-x="1251" unicode="õ"/><glyph d="M433 1448q44 0 69.5 -25.5t25.5 -72.5t-25.5 -72t-69.5 -25t-69.5 25t-25.5 72t25.5 72.5t69.5 25.5zM772 1448q43 0 68.5 -25.5t25.5 -72.5t-25.5 -72t-68.5 -25t-69.5 25t-26.5 72t26.5 72.5t69.5 25.5zM625.5 1100q103.5 0 193.5 -34t164 -99.5t117 -176t43 -254 t-43 -254t-117 -176t-164 -99.5t-193.5 -34t-194.5 34t-163.5 99.5t-115.5 176t-43 254t43 254t115.5 176t163.5 99.5t194.5 34zM626 967q-167 0 -266.5 -115t-99.5 -315.5t99.5 -315.5t266.5 -115t265 115t98 315.5t-98 315.5t-265 115z" glyph-name="odieresis" horiz-adv-x="1251" unicode="ö"/><glyph d="M617 1096q50 0 87 -33t37 -93t-36.5 -91t-86.5 -31t-86 31t-36 91t35.5 93t85.5 33zM1122 475h-1005v123h1005v-123zM617 229q50 0 87 -31.5t37 -93.5q0 -61 -36.5 -92.5t-86.5 -31.5t-86 31.5t-36 92.5t35.5 93t85.5 32z" glyph-name="divide" horiz-adv-x="1224" unicode="÷"/><glyph d="M1143 537q0 -143 -43 -254t-155.5 -210.5t-319.5 -99.5q-113 0 -209 39l-103 -198l-96 49l105 200q-213 145 -213 474q0 143 43 253.5t153 210t320 99.5q117 0 215 -41l96 188l92 -49l-98 -188q213 -147 213 -473zM625 967q-166 0 -265.5 -114.5t-99.5 -330.5t129 -332 l387 748q-67 29 -151 29zM625 106q168 0 266 115t98 330t-127 332l-385 -750q68 -27 148 -27z" glyph-name="oslash" horiz-adv-x="1251" unicode="ø"/><glyph d="M573 1208l-239 236h207l153 -236h-121zM1030 1073v-1073h-110l-33 164q-74 -92 -162.5 -140.5t-224.5 -48.5t-230 93.5t-94 289.5v715h148v-682q0 -283 213 -282q106 0 185 53t161 145v766h147z" glyph-name="ugrave" horiz-adv-x="1206" unicode="ù"/><glyph d="M653 1208h-123l152 236h205zM1030 1073v-1073h-110l-33 164q-74 -92 -162.5 -140.5t-224.5 -48.5t-230 93.5t-94 289.5v715h148v-682q0 -283 213 -282q106 0 185 53t161 145v766h147z" glyph-name="uacute" horiz-adv-x="1206" unicode="ú"/><glyph d="M487 1231h-153l231 225h84l219 -225h-147l-119 108zM1030 1073v-1073h-110l-33 164q-74 -92 -162.5 -140.5t-224.5 -48.5t-230 93.5t-94 289.5v715h148v-682q0 -283 213 -282q106 0 185 53t161 145v766h147z" glyph-name="ucircumflex" horiz-adv-x="1206" unicode="û"/><glyph d="M778 1253q-43 0 -69.5 25t-26.5 72t26.5 72.5t69.5 25.5t68.5 -25.5t25.5 -72.5t-25.5 -72t-68.5 -25zM439 1253q-44 0 -69.5 25t-25.5 72t25.5 72.5t69.5 25.5t70 -25.5t26 -72.5t-26 -72t-70 -25zM1030 1073v-1073h-110l-33 164q-74 -92 -162.5 -140.5t-224.5 -48.5 t-230 93.5t-94 289.5v715h148v-682q0 -283 213 -282q106 0 185 53t161 145v766h147z" glyph-name="udieresis" horiz-adv-x="1206" unicode="ü"/><glyph d="M606 1210h-123l152 236h207zM272 -424q-92 0 -161 23l28 116q55 -18 122 -18t130.5 56.5t100.5 154.5l24 61l-459 1104h158l373 -954l338 954h151l-422 -1139q-131 -358 -383 -358z" glyph-name="yacute" horiz-adv-x="1136" unicode="ý"/><glyph d="M315 915h7q135 183 335 183t322.5 -136.5t122.5 -397.5t-145 -425t-329 -164t-304 76v-475h-148v1858h139v-519zM641 967q-186 0 -317 -224v-555q59 -47 116.5 -65.5t145.5 -18.5q141 0 252.5 121t111.5 329t-90 310.5t-219 102.5z" glyph-name="thorn" horiz-adv-x="1210" unicode="þ"/><glyph d="M731 1255q-43 0 -69.5 25t-26.5 72t26.5 72.5t69.5 25.5t68.5 -25.5t25.5 -72.5t-25.5 -72t-68.5 -25zM392 1255q-44 0 -69.5 25t-25.5 72t25.5 72.5t69.5 25.5t69.5 -25.5t25.5 -72.5t-25.5 -72t-69.5 -25zM272 -424q-92 0 -161 23l28 116q55 -18 122 -18t130.5 56.5 t100.5 154.5l24 61l-459 1104h158l373 -954l338 954h151l-422 -1139q-131 -358 -383 -358z" glyph-name="ydieresis" horiz-adv-x="1136" unicode="ÿ"/><glyph d="M938 1696h-451v98h451v-98zM1036 365h-665l-131 -365h-160l532 1434h189l536 -1434h-170zM989 498l-282 788l-287 -788h569z" glyph-name="Amacron" horiz-adv-x="1415" unicode="Ā"/><glyph d="M791 1337h-453v99h453v-99zM974 -8q-56 0 -91 27.5t-52 97.5q-117 -143 -339 -144q-176 0 -279.5 78t-103.5 236q0 230 167.5 267.5t295.5 37.5t245 -25v158q0 135 -66.5 190.5t-193.5 55.5q-184 0 -326 -111l-67 98q172 142 391 142t314.5 -89t95.5 -290v-531 q0 -88 67 -88h7l26 2l-16 -96q-19 -16 -75 -16zM547 473q-291 0 -291 -184q0 -100 69.5 -144.5t178.5 -44.5q219 0 313 156v190q-139 27 -270 27z" glyph-name="amacron" horiz-adv-x="1134" unicode="ā"/><glyph d="M712 1569q-97 0 -170 60.5t-87 168.5h102q10 -63 52.5 -97t102.5 -34t100 34t52 97h109q-16 -109 -90 -169t-171 -60zM1036 365h-665l-131 -365h-160l532 1434h189l536 -1434h-170zM989 498l-282 788l-287 -788h569z" glyph-name="Abreve" horiz-adv-x="1415" unicode="Ă"/><glyph d="M564 1210q-98 0 -170 60.5t-87 169.5h101q12 -63 54 -97t102 -34t100.5 34t52.5 97h108q-18 -109 -90.5 -169.5t-170.5 -60.5zM974 -8q-56 0 -91 27.5t-52 97.5q-117 -143 -339 -144q-176 0 -279.5 78t-103.5 236q0 230 167.5 267.5t295.5 37.5t245 -25v158 q0 135 -66.5 190.5t-193.5 55.5q-184 0 -326 -111l-67 98q172 142 391 142t314.5 -89t95.5 -290v-531q0 -88 67 -88h7l26 2l-16 -96q-19 -16 -75 -16zM547 473q-291 0 -291 -184q0 -100 69.5 -144.5t178.5 -44.5q219 0 313 156v190q-139 27 -270 27z" glyph-name="abreve" horiz-adv-x="1134" unicode="ă"/><glyph d="M1178 -184q0 -102 104 -121l-31 -96q-94 14 -145 66t-51 132q-2 113 112 205l-131 363h-665l-131 -365h-160l532 1434h189l536 -1434h-77q-49 -59 -65.5 -98t-16.5 -86zM989 498l-282 788l-287 -788h569z" glyph-name="Aogonek" horiz-adv-x="1415" unicode="Ą"/><glyph d="M981 -178q0 -102 102 -121l-30 -96q-92 12 -143.5 65.5t-53.5 143.5t94 178q-47 6 -75.5 34.5t-43.5 90.5q-117 -143 -339 -144q-176 0 -279.5 78t-103.5 236q0 230 167.5 267.5t296.5 37.5t244 -25v158q0 135 -66.5 190.5t-193.5 55.5q-184 0 -326 -111l-67 98 q172 142 391 142t314.5 -89t95.5 -290v-531q0 -88 67 -88h7l26 2l-12 -71l22 -8q-55 -70 -74.5 -112t-19.5 -91zM547 473q-291 0 -291 -184q0 -100 69.5 -144.5t178.5 -44.5q219 0 313 156v190q-139 27 -270 27z" glyph-name="aogonek" horiz-adv-x="1134" unicode="ą"/><glyph d="M823 1571h-123l152 235h207zM440 254q145 -141 363 -141q238 4 405 141l84 -111q-197 -170 -484 -170t-470 173q-92 87 -145.5 231.5t-54.5 334t51.5 336t145.5 234.5q186 176 467.5 176t454.5 -129l-77 -115q-162 106 -378 106q-214 2 -356 -142q-150 -153 -150.5 -468 t144.5 -456z" glyph-name="Cacute" horiz-adv-x="1349" unicode="Ć"/><glyph d="M674 1208h-121l152 236h204zM630 1100q222 0 376 -131l-78 -105q-70 53 -134.5 79t-160.5 26q-166 0 -269.5 -112t-103.5 -314.5t107.5 -320.5t273.5 -118t311 117l76 -98q-66 -61 -167 -105.5t-230 -44.5q-227 0 -374.5 150.5t-147.5 415t149.5 413t371.5 148.5z" glyph-name="cacute" horiz-adv-x="1097" unicode="ć"/><glyph d="M784 1810q41 0 71 -25.5t30 -75.5t-30 -75.5t-71 -25.5t-70.5 25.5t-29.5 75.5t29.5 75.5t70.5 25.5zM440 254q145 -141 363 -141q238 4 405 141l84 -111q-197 -170 -484 -170t-470 173q-92 87 -145.5 231.5t-54.5 334t51.5 336t145.5 234.5q186 176 467.5 176 t454.5 -129l-77 -115q-162 106 -378 106q-214 2 -356 -142q-150 -153 -150.5 -468t144.5 -456z" glyph-name="Cdotaccent" horiz-adv-x="1349" unicode="Ċ"/><glyph d="M636 1448q42 0 71.5 -25.5t29.5 -76t-29.5 -77t-71.5 -26.5t-70.5 26.5t-28.5 77t28.5 76t70.5 25.5zM630 1100q222 0 376 -131l-78 -105q-70 53 -134.5 79t-160.5 26q-166 0 -269.5 -112t-103.5 -314.5t107.5 -320.5t273.5 -118t311 117l76 -98q-66 -61 -167 -105.5 t-230 -44.5q-227 0 -374.5 150.5t-147.5 415t149.5 413t371.5 148.5z" glyph-name="cdotaccent" horiz-adv-x="1097" unicode="ċ"/><glyph d="M723 1589l-221 217h147l121 -118l127 118h141l-211 -217h-104zM802.5 1458q281.5 0 454.5 -129l-77 -115q-162 106 -378 106q-214 2 -356 -142q-150 -154 -151 -468q0 -316 145 -456.5t363 -140.5q237 4 405 141l84 -111q-197 -170 -484 -170t-470 173 q-92 87 -145.5 231.5t-54.5 334t51.5 336t145.5 234.5q186 176 467.5 176z" glyph-name="Ccaron" horiz-adv-x="1349" unicode="Č"/><glyph d="M575 1227l-221 217h148l119 -121l127 121h141l-209 -217h-105zM631 -27q-227 0 -374.5 150.5t-147.5 415t149.5 413t371.5 148.5t376 -131l-78 -105q-70 53 -134.5 79t-160.5 26q-166 0 -269.5 -112t-103.5 -314.5t107.5 -320.5t273.5 -118t311 117l76 -98 q-66 -61 -167 -105.5t-230 -44.5z" glyph-name="ccaron" horiz-adv-x="1097" unicode="č"/><glyph d="M565 1587l-223 217h150l118 -121l127 121h142l-211 -217h-103zM178 1434h404q295 0 438 -122t197.5 -260.5t54.5 -322.5t-54.5 -326.5t-199.5 -272.5t-436 -130h-404v1434zM330 141h270q248 0 382 147.5t134 440.5q0 569 -516 569h-270v-1157z" glyph-name="Dcaron" horiz-adv-x="1411" unicode="Ď"/><glyph d="M1049 0h-103l-26 127h-7q-59 -66 -146 -110t-180 -44t-174 32t-150.5 95.5t-111.5 175.5t-42 254t38.5 252.5t139 214t298.5 103.5q199 0 316 -119v559h148v-1540zM1243 1237h-80l13 303h143zM600 967q-141 0 -240.5 -108.5t-99.5 -319.5t100.5 -320.5t237.5 -109.5 q184 0 303 157v563q-129 138 -301 138z" glyph-name="dcaron" horiz-adv-x="1253" unicode="ď"/><glyph d="M850 1696h-451v98h451v-98zM178 1434h404q295 0 438 -122t197.5 -260.5t54.5 -322.5t-54.5 -325.5t-199 -272.5t-436.5 -131h-404v1434zM330 1298v-1157h270q248 0 382 147.5t134 440.5q0 569 -516 569h-270z" glyph-name="Dcroat" horiz-adv-x="1411" unicode="Đ"/><glyph d="M1194 1253h-145v-1253h-103l-26 127h-7q-59 -66 -146 -110t-180 -44t-174 32t-150.5 95.5t-111.5 175.5t-42 254t38.5 252.5t139 214t298.5 103.5q199 0 316 -119v272h-158v99h158v188h148v-188h145v-99zM260 539q0 -211 100.5 -320.5t237.5 -109.5q184 -1 303 157v563 q-129 137 -301 138q-141 0 -240.5 -108.5t-99.5 -319.5z" glyph-name="dcroat" horiz-adv-x="1224" unicode="đ"/><glyph d="M821 1696h-450v98h450v-98zM1071 1300h-743v-499h659v-135h-659v-527h743v-139h-893v1434h893v-134z" glyph-name="Emacron" horiz-adv-x="1175" unicode="Ē"/><glyph d="M813 1335h-451v99h451v-99zM1071 584q0 -63 -6 -113h-803q39 -369 369 -369q199 0 342 123l78 -94q-178 -158 -445 -158q-202 1 -346 137q-70 66 -110.5 174.5t-40.5 245.5q0 268 134 419t357 151q152 0 262 -76q210 -145 209 -440zM601 973q-151 0 -244 -100.5 t-99 -282.5h678q-6 170 -95 276.5t-240 106.5z" glyph-name="emacron" horiz-adv-x="1200" unicode="ē"/><glyph d="M595 1569q-97 0 -170 60.5t-87 168.5h102q10 -63 52.5 -97t102.5 -34t100.5 34t52.5 97h108q-16 -109 -90 -169t-171 -60zM1071 1300h-743v-499h659v-135h-659v-527h743v-139h-893v1434h893v-134z" glyph-name="Ebreve" horiz-adv-x="1175" unicode="Ĕ"/><glyph d="M588 1208q-96 0 -170 60.5t-88 169.5h102q12 -63 54 -97t102 -34q59 0 99 33.5t52 97.5h109q-16 -109 -90 -169.5t-170 -60.5zM1071 584q0 -63 -6 -113h-803q39 -369 369 -369q199 0 342 123l78 -94q-178 -158 -445 -158q-202 1 -346 137q-70 66 -110.5 174.5 t-40.5 245.5q0 268 134 419t357 151q152 0 262 -76q210 -145 209 -440zM601 973q-151 0 -244 -100.5t-99 -282.5h678q-6 170 -95 276.5t-240 106.5z" glyph-name="ebreve" horiz-adv-x="1200" unicode="ĕ"/><glyph d="M597 1808q42 0 70.5 -25.5t28.5 -75.5t-28.5 -76.5t-70.5 -26.5t-71.5 26.5t-29.5 76.5t29.5 75.5t71.5 25.5zM1071 1300h-743v-499h659v-135h-659v-527h743v-139h-893v1434h893v-134z" glyph-name="Edotaccent" horiz-adv-x="1175" unicode="Ė"/><glyph d="M589 1243q-42 0 -71 26.5t-29 77t29 76t71 25.5t71.5 -25.5t29.5 -76t-29.5 -77t-71.5 -26.5zM1071 584q0 -63 -6 -113h-803q39 -369 369 -369q199 0 342 123l78 -94q-178 -158 -445 -158q-202 1 -346 137q-70 66 -110.5 174.5t-40.5 245.5q0 268 134 419t357 151 q152 0 262 -76q210 -145 209 -440zM601 973q-151 0 -244 -100.5t-99 -282.5h678q-6 170 -95 276.5t-240 106.5z" glyph-name="edotaccent" horiz-adv-x="1200" unicode="ė"/><glyph d="M328 1300v-499h659v-135h-659v-527h743v-139h-280q-49 -59 -65.5 -98t-16.5 -86q0 -102 104 -121l-31 -96q-94 14 -145 66t-51 132q-2 111 110 203h-518v1434h893v-134h-743z" glyph-name="Eogonek" horiz-adv-x="1175" unicode="Ę"/><glyph d="M1071 584q0 -63 -6 -113h-803q39 -369 369 -369q199 0 342 123l78 -94q-119 -104 -267 -139q-43 -55 -58 -92t-15 -80q0 -104 104 -123l-31 -94q-94 12 -145 64t-52 140t81 168q-29 -2 -94.5 -2t-154.5 35t-159 101.5t-110.5 175t-40.5 245.5q0 268 134 419t357 151 q152 0 262 -76q210 -145 209 -440zM601 973q-151 0 -244 -100.5t-99 -282.5h678q-6 170 -95 276.5t-240 106.5z" glyph-name="eogonek" horiz-adv-x="1200" unicode="ę"/><glyph d="M537 1587l-224 217h148l121 -121l127 121h141l-211 -217h-102zM328 1300v-499h659v-135h-659v-527h743v-139h-893v1434h893v-134h-743z" glyph-name="Ecaron" horiz-adv-x="1175" unicode="Ě"/><glyph d="M528 1227l-221 217h148l118 -121l127 121h142l-209 -217h-105zM1071 584q0 -63 -6 -113h-803q39 -369 369 -369q199 0 342 123l78 -94q-178 -158 -445 -158q-202 1 -346 137q-70 66 -110.5 174.5t-40.5 245.5q0 268 134 419t357 151q152 0 262 -76q210 -145 209 -440z M601 973q-151 0 -244 -100.5t-99 -282.5h678q-6 170 -95 276.5t-240 106.5z" glyph-name="ecaron" horiz-adv-x="1200" unicode="ě"/><glyph d="M776 1573q-96 0 -170 60.5t-88 166.5h103q10 -61 53 -95t102 -34t99.5 33t52.5 96h108q-16 -106 -90 -166.5t-170 -60.5zM815.5 1458q157.5 0 273 -47t211.5 -129l-88 -106q-182 145 -412 145t-367.5 -153.5t-137.5 -443.5t137 -445.5t369 -155.5q129 0 228 46t155 110 v376h-451v129h600v-569q-193 -240 -553 -240q-265 0 -448 179q-90 88 -141.5 235.5t-51.5 330.5t50.5 323.5t140.5 230.5t209 137t276.5 47z" glyph-name="Gbreve" horiz-adv-x="1519" unicode="Ğ"/><glyph d="M614 1208q-96 0 -168.5 60.5t-87.5 169.5h101q12 -63 54 -97t101 -34t100.5 34t51.5 97h108q-16 -109 -89.5 -169.5t-170.5 -60.5zM1071 1073v-1034q0 -236 -126 -350.5t-354.5 -114.5t-393.5 129l65 113q139 -104 308 -104q356 -1 356 280v170q-76 -76 -153 -103.5 t-177 -27.5t-186 33.5t-154 97t-107.5 167t-39.5 233.5t46 236q47 106 119 170q149 132 340 132t320 -115h8l43 88h86zM629 967q-150 0 -257.5 -105.5t-107.5 -298.5t99.5 -297t271.5 -104t289 155v525q-107 125 -295 125z" glyph-name="gbreve" horiz-adv-x="1247" unicode="ğ"/><glyph d="M777 1810q42 0 72 -25.5t30 -75.5t-30 -75.5t-72 -25.5t-70.5 25.5t-28.5 75.5t28.5 75.5t70.5 25.5zM815.5 1458q157.5 0 273 -47t211.5 -129l-88 -106q-182 145 -412 145t-367.5 -153.5t-137.5 -443.5t137 -445.5t369 -155.5q129 0 228 46t155 110v376h-451v129h600 v-569q-193 -240 -553 -240q-265 0 -448 179q-90 88 -141.5 235.5t-51.5 330.5t50.5 323.5t140.5 230.5t209 137t276.5 47z" glyph-name="Gdotaccent" horiz-adv-x="1519" unicode="Ġ"/><glyph d="M615 1448q42 0 72 -25.5t30 -76t-30 -77t-72 -26.5t-70.5 26.5t-28.5 77t28.5 76t70.5 25.5zM1071 1073v-1034q0 -236 -126 -350.5t-354.5 -114.5t-393.5 129l65 113q139 -104 308 -104q356 -1 356 280v170q-76 -76 -153 -103.5t-177 -27.5t-186 33.5t-154 97t-107.5 167 t-39.5 233.5t46 236q47 106 119 170q149 132 340 132t320 -115h8l43 88h86zM629 967q-150 0 -257.5 -105.5t-107.5 -298.5t99.5 -297t271.5 -104t289 155v525q-107 125 -295 125z" glyph-name="gdotaccent" horiz-adv-x="1247" unicode="ġ"/><glyph d="M815.5 1458q157.5 0 273 -47t211.5 -129l-88 -106q-182 145 -412 145t-367.5 -153.5t-137.5 -443.5t137 -445.5t369 -155.5q129 0 228 46t155 110v376h-451v129h600v-569q-193 -240 -553 -240q-265 0 -448 179q-90 88 -141.5 235.5t-51.5 330.5t50.5 323.5t140.5 230.5 t209 137t276.5 47zM813 -412h-82l14 303h144z" glyph-name="Gcommaaccent" horiz-adv-x="1519" unicode="Ģ"/><glyph d="M1071 1073v-1034q0 -236 -126 -350.5t-354.5 -114.5t-393.5 129l65 113q139 -104 308 -104q356 -1 356 280v170q-76 -76 -153 -103.5t-177 -27.5t-186 33.5t-154 97t-107.5 167t-39.5 233.5t46 236q47 106 119 170q149 132 340 132t320 -115h8l43 88h86zM629 967 q-150 0 -257.5 -105.5t-107.5 -298.5t99.5 -297t271.5 -104t289 155v525q-107 125 -295 125zM610 -834h-82l15 304h143z" glyph-name="gcommaaccent" horiz-adv-x="1247" unicode="ģ"/><glyph d="M1532 1075h-123v-1075h-152v659h-804v-659h-152v1075h-123v115h123v244h152v-244h804v244h152v-244h123v-115zM1257 1075h-804v-280h804v280z" glyph-name="Hbar" horiz-adv-x="1710" unicode="Ħ"/><glyph d="M676 1098q156 0 260 -92.5t104 -262.5v-743h-147v709q0 139 -72.5 198.5t-185.5 59.5q-178 0 -311 -209v-758h-148v1206h-180v99h180v235h146v-235h217v-99h-217v-286q80 94 164 136t190 42z" glyph-name="hbar" horiz-adv-x="1216" unicode="ħ"/><glyph d="M500 1696h-453v98h453v-98zM350 0h-151v1434h151v-1434z" glyph-name="Imacron" horiz-adv-x="546" unicode="Ī"/><glyph d="M430 1335h-450v99h450v-99zM299 0h-147v1073h147v-1073z" glyph-name="imacron" horiz-adv-x="448" unicode="ī"/><glyph d="M350 0h-24q-47 -59 -63.5 -98t-16.5 -86q0 -102 102 -121l-31 -96q-92 14 -143 66t-53 132q-2 111 110 203h-32v1434h151v-1434z" glyph-name="Iogonek" horiz-adv-x="546" unicode="Į"/><glyph d="M254 1262q-43 0 -72.5 26.5t-29.5 77.5t29.5 77.5t72.5 26.5t73.5 -26.5t30.5 -77.5t-30.5 -77.5t-73.5 -26.5zM276 -184q0 -102 105 -121l-31 -96q-94 14 -145 66t-51 132q-2 111 110 203h-82v1073h144v-1036l47 -19q-57 -70 -77 -111.5t-20 -90.5z" glyph-name="iogonek" horiz-adv-x="509" unicode="į"/><glyph d="M274 1808q41 0 71 -25.5t30 -75.5t-30 -76.5t-71 -26.5t-70.5 26.5t-29.5 76.5t29.5 75.5t70.5 25.5zM350 0h-151v1434h151v-1434z" glyph-name="Idotaccent" horiz-adv-x="546" unicode="İ"/><glyph d="M299 0h-147v1073h147v-1073z" glyph-name="dotlessi" horiz-adv-x="448" unicode="ı"/><glyph d="M350 0h-151v1434h151v-1434zM1307 1434v-981q0 -323 -158.5 -401.5t-335.5 -78.5q-96 0 -164 17l13 135q34 -6 104 -6t168 12t159.5 91t61.5 257v955h152z" glyph-name="IJ" horiz-adv-x="1482" unicode="Ĳ"/><glyph d="M254 1470q43 0 73.5 -26.5t30.5 -77.5t-30.5 -77.5t-73.5 -26.5t-72.5 26.5t-29.5 77.5t29.5 77.5t72.5 26.5zM778 1452q43 0 75 -26.5t32 -78t-32 -78t-75 -26.5t-72.5 26.5t-29.5 78t29.5 78t72.5 26.5zM326 0h-144v1073h144v-1073zM856 1073v-1206q0 -147 -93 -220 t-239 -73q-92 0 -151 23l24 122q47 -14 105 -14q104 0 155.5 47t51.5 160v1161h147z" glyph-name="ij" horiz-adv-x="1034" unicode="ĳ"/><glyph d="M330 0h-152v1434h152v-717l659 717h191l-633 -672l680 -762h-201l-586 649l-110 -117v-532zM590 -109h143l-76 -303h-82z" glyph-name="Kcommaaccent" horiz-adv-x="1284" unicode="Ķ"/><glyph d="M324 0h-148v1540h148v-1005l452 538h195l-404 -455l486 -618h-195l-389 510l-145 -164v-346zM465 -109h143l-76 -303h-81z" glyph-name="kcommaaccent" horiz-adv-x="1079" unicode="ķ"/><glyph d="M289 1571h-121l151 235h205zM328 135h700v-135h-850v1434h150v-1299z" glyph-name="Lacute" horiz-adv-x="1126" unicode="Ĺ"/><glyph d="M281 1675h-123l151 236h207zM326 0h-148v1540h148v-1540z" glyph-name="lacute" horiz-adv-x="503" unicode="ĺ"/><glyph d="M328 135h700v-135h-850v1434h150v-1299zM528 -412h-79l12 303h143z" glyph-name="Lcommaaccent" horiz-adv-x="1126" unicode="Ļ"/><glyph d="M326 0h-148v1540h148v-1540zM258 -412h-82l14 303h144z" glyph-name="lcommaaccent" horiz-adv-x="503" unicode="ļ"/><glyph d="M328 135h700v-135h-850v1434h150v-1299zM637 1128h-80l12 304h144z" glyph-name="Lcaron" horiz-adv-x="1126" unicode="Ľ"/><glyph d="M506 1237h-80l12 303h146zM326 0h-148v1540h148v-1540z" glyph-name="lcaron" horiz-adv-x="489" unicode="ľ"/><glyph d="M328 135h700v-135h-850v1434h150v-1299zM701 932q52 0 89 -32t37 -95t-35.5 -97t-89.5 -34q-53 0 -88.5 33.5t-35.5 97.5q0 63 35.5 95t87.5 32z" glyph-name="Ldot" horiz-adv-x="1126" unicode="Ŀ"/><glyph d="M326 0h-148v1540h148v-1540zM539 940q53 0 89 -33t36 -97t-36 -96t-89 -32t-89 33t-36 96t36 96t89 33z" glyph-name="ldot" horiz-adv-x="608" unicode="ŀ"/><glyph d="M369 133h692v-133h-842v657l-188 -84v127l188 80v654h150v-580l286 123v-123l-286 -125v-596z" glyph-name="Lslash" horiz-adv-x="1159" unicode="Ł"/><glyph d="M375 0h-148v748l-168 -91v142l168 88v653h148v-575l190 100v-139l-190 -101v-825z" glyph-name="lslash" horiz-adv-x="624" unicode="ł"/><glyph d="M774 1571h-121l152 235h205zM1315 0h-129l-858 1167v-1167h-150v1434h133l852 -1168v1168h152v-1434z" glyph-name="Nacute" horiz-adv-x="1492" unicode="Ń"/><glyph d="M641 1210h-123l154 236h205zM708.5 1100q147.5 0 239.5 -90t92 -265v-745h-147v705q0 143 -56.5 201.5t-164.5 58.5q-215 0 -353 -213v-752h-143v1073h105l22 -166h6q78 94 165 143.5t234.5 49.5z" glyph-name="nacute" horiz-adv-x="1216" unicode="ń"/><glyph d="M1315 0h-129l-858 1167v-1167h-150v1434h133l852 -1168v1168h152v-1434zM729 -412h-80l13 303h145z" glyph-name="Ncommaaccent" horiz-adv-x="1492" unicode="Ņ"/><glyph d="M708.5 1100q147.5 0 239.5 -90t92 -265v-745h-147v705q0 143 -56.5 201.5t-164.5 58.5q-215 0 -353 -213v-752h-143v1073h105l22 -166h6q78 94 165 143.5t234.5 49.5zM600 -412h-80l12 303h146z" glyph-name="ncommaaccent" horiz-adv-x="1216" unicode="ņ"/><glyph d="M676 1589l-223 217h147l121 -118l127 118h141l-211 -217h-102zM1315 1434v-1434h-129l-858 1167v-1167h-150v1434h133l852 -1168v1168h152z" glyph-name="Ncaron" horiz-adv-x="1492" unicode="Ň"/><glyph d="M543 1229l-224 217h148l121 -121l127 121h141l-211 -217h-102zM708.5 1100q147.5 0 239.5 -90t92 -265v-745h-147v705q0 143 -56.5 201.5t-164.5 58.5q-215 0 -353 -213v-752h-143v1073h105l22 -166h6q78 94 165 143.5t234.5 49.5z" glyph-name="ncaron" horiz-adv-x="1216" unicode="ň"/><glyph d="M1315 1434v-1434q-16 -250 -161 -342q-126 -80 -331 -80q-98 0 -166 14l15 138q32 -8 110 -8q161 -1 265 55t116 254l-835 1136v-1167h-150v1434h133l852 -1168v1168h152z" glyph-name="Eng" horiz-adv-x="1492" unicode="Ŋ"/><glyph d="M1040 745v-882q0 -147 -92 -219t-241 -72q-74 0 -152 20l37 123q74 -14 98 -14q100 0 151.5 48t51.5 155v801q0 143 -57.5 201.5t-165.5 58.5q-213 0 -351 -213v-752h-143v1073h105l22 -166h6q76 92 164 142.5t207 50.5q176 0 268 -90t92 -265z" glyph-name="eng" horiz-adv-x="1216" unicode="ŋ"/><glyph d="M1024 1696h-451v98h451v-98zM817.5 1458q102.5 0 251 -41t287.5 -219t139 -477q0 -186 -58.5 -333.5t-156.5 -236t-216 -133.5t-247 -45t-246.5 45t-216 133.5t-157 236t-58.5 316.5t38 292.5t103.5 207.5t153.5 142.5t184.5 85t199 26.5zM817 1321q-222 0 -330 -109.5 t-150 -225.5t-42 -263q0 -287 147.5 -449.5t367.5 -162.5t373.5 156.5t153.5 454.5q0 299 -152 449t-368 150z" glyph-name="Omacron" horiz-adv-x="1632" unicode="Ō"/><glyph d="M834 1335h-453v99h453v-99zM625.5 1100q103.5 0 193.5 -34t164 -99.5t117 -176t43 -254t-43 -254t-117 -176t-164 -99.5t-193.5 -34t-194.5 34t-163.5 99.5t-115.5 176t-43 254t43 254t115.5 176t163.5 99.5t194.5 34zM626 967q-167 0 -266.5 -115t-99.5 -315.5 t99.5 -315.5t266.5 -115t265 115t98 315.5t-98 315.5t-265 115z" glyph-name="omacron" horiz-adv-x="1251" unicode="ō"/><glyph d="M707 1573h-99l37 233h174zM936 1573h-100l118 233h179zM817.5 1458q102.5 0 251 -41t287.5 -219t139 -477q0 -186 -58.5 -333.5t-156.5 -236t-216 -133.5t-247 -45t-246.5 45t-216 133.5t-157 236t-58.5 316.5t38 292.5t103.5 207.5t153.5 142.5t184.5 85t199 26.5z M817 1321q-222 0 -330 -109.5t-150 -225.5t-42 -263q0 -287 147.5 -449.5t367.5 -162.5t373.5 156.5t153.5 454.5t-150.5 448.5t-369.5 150.5z" glyph-name="Ohungarumlaut" horiz-adv-x="1632" unicode="Ő"/><glyph d="M514 1212h-98l37 234h174zM743 1212h-100l121 234h176zM625.5 1100q103.5 0 193.5 -34t164 -99.5t117 -176t43 -254t-43 -254t-117 -176t-164 -99.5t-193.5 -34t-194.5 34t-163.5 99.5t-115.5 176t-43 254t43 254t115.5 176t163.5 99.5t194.5 34zM626 967 q-167 0 -266.5 -115t-99.5 -315.5t99.5 -315.5t266.5 -115t265 115t98 315.5t-98 315.5t-265 115z" glyph-name="ohungarumlaut" horiz-adv-x="1251" unicode="ő"/><glyph d="M1659 1305h-617v-514h537v-127h-537v-535h617v-129h-807q-324 0 -518.5 187.5t-194.5 530.5t195.5 529.5t525.5 186.5h799v-129zM891 1307h-47q-256 0 -401.5 -161t-145.5 -429t144.5 -428t402.5 -160h47v1178z" glyph-name="OE" horiz-adv-x="1763" unicode="Œ"/><glyph d="M1929 604q0 -90 -6 -119h-795q8 -179 103.5 -280t271.5 -101t318 125l75 -96q-166 -158 -405 -158q-152 0 -271.5 67t-179.5 204q-53 -133 -176 -202t-264 -69q-207 0 -349 149.5t-142 412t143 412t352 149.5q139 0 259 -68.5t177 -208.5q49 139 163 208t243 69t221 -44 t148.5 -116t85 -158t28.5 -176zM1455 971q-144 0 -230.5 -95.5t-96.5 -269.5h650q-4 166 -91.5 265.5t-231.5 99.5zM612 106q162 0 256.5 115t94.5 316t-93.5 315.5t-256.5 114.5t-260 -115t-97 -315q0 -201 97 -316t259 -115z" glyph-name="oe" horiz-adv-x="2058" unicode="œ"/><glyph d="M662 1569h-123l153 235h205zM328 565v-565h-150v1434h475q381 0 469 -252q24 -70 25 -158q0 -158 -75 -272.5t-222 -159.5l362 -592h-170l-344 567l-34 -2h-336zM328 700h354q147 0 226 86t79 226.5t-83 214t-271 73.5h-305v-600z" glyph-name="Racute" horiz-adv-x="1308" unicode="Ŕ"/><glyph d="M453 1210h-123l153 236h205zM586 1100q74 0 110 -25l-26 -135q-57 16 -109 16q-166 0 -239 -229v-727h-146v1073h111l28 -158h7q71 185 264 185z" glyph-name="racute" horiz-adv-x="735" unicode="ŕ"/><glyph d="M328 565v-565h-150v1434h475q381 0 469 -252q24 -70 25 -158q0 -158 -75 -272.5t-222 -159.5l362 -592h-170l-344 567l-34 -2h-336zM328 700h354q147 0 226 86t79 226.5t-82 214t-272 73.5h-305v-600zM557 -109h143l-75 -303h-82z" glyph-name="Rcommaaccent" horiz-adv-x="1308" unicode="Ŗ"/><glyph d="M586 1100q74 0 110 -25l-26 -135q-57 16 -109 16q-166 0 -239 -229v-727h-146v1073h111l28 -158h7q71 185 264 185zM256 -412h-82l14 303h144z" glyph-name="rcommaaccent" horiz-adv-x="735" unicode="ŗ"/><glyph d="M563 1587l-223 217h147l121 -121l127 121h142l-211 -217h-103zM328 565v-565h-150v1434h475q381 0 469 -252q24 -70 25 -158q0 -158 -75 -272.5t-222 -159.5l362 -592h-170l-344 567l-34 -2h-336zM328 700h354q147 0 226 86t79 226.5t-83 214t-271 73.5h-305v-600z" glyph-name="Rcaron" horiz-adv-x="1308" unicode="Ř"/><glyph d="M354 1229l-223 217h148l120 -121l127 121h142l-211 -217h-103zM586 1100q74 0 110 -25l-26 -135q-57 16 -109 16q-166 0 -239 -229v-727h-146v1073h111l28 -158h7q71 185 264 185z" glyph-name="rcaron" horiz-adv-x="735" unicode="ř"/><glyph d="M608 1571h-121l152 237h205zM924 363.5q0 107.5 -85 171t-274 133.5q-269 106 -350.5 197t-81.5 240t125 251t351.5 102t432.5 -131l-67 -117q-180 117 -377 117q-143 0 -227 -63.5t-84 -176.5q0 -77 53 -127q29 -28 54.5 -48.5t84.5 -48.5q106 -50 232 -97 q188 -76 279 -160t91 -223q0 -182 -133 -295t-364 -113q-123 0 -250 35t-225 96l57 125q190 -112 387.5 -112t284 68.5t86.5 176z" glyph-name="Sacute" horiz-adv-x="1165" unicode="Ś"/><glyph d="M532 1208h-122l151 236h207zM504 1100q104 0 197.5 -31t156.5 -80l-63 -108q-147 92 -272 92t-190 -47t-65 -121q0 -114 174 -173q26 -9 77.5 -24.5t75 -24t69.5 -25.5q44 -18 68 -32q77 -47 108.5 -98.5t31.5 -130.5q0 -145 -108.5 -234.5t-300.5 -89.5q-96 0 -194.5 32 t-164.5 87l54 123q57 -51 140 -81t159 -30q129 0 197.5 52.5t68.5 132.5q0 53 -23.5 76.5t-38 35t-47 24.5t-73.5 29.5t-109 34.5q-149 53 -208.5 100.5t-79 95.5t-19.5 116q0 137 106.5 218t272.5 81z" glyph-name="sacute" horiz-adv-x="966" unicode="ś"/><glyph d="M924 363.5q0 107.5 -85 171t-274 133.5q-269 106 -350.5 197t-81.5 240t125 251t351.5 102t432.5 -131l-67 -117q-180 117 -377 117q-143 0 -227 -63.5t-84 -176.5q0 -77 53 -127q29 -28 54.5 -48.5t84.5 -48.5q106 -50 232 -97q188 -76 279 -160t91 -223 q0 -178 -126 -288.5t-345 -119.5l-37 -55q74 6 121 -38t47 -117.5t-63.5 -118.5t-167.5 -56l-31 82q148 19 148 101q0 27 -18.5 43t-43.5 16t-41 -8l-63 53l59 100q-233 18 -411 129l57 125q190 -112 387.5 -112t284 68.5t86.5 176z" glyph-name="Scedilla" horiz-adv-x="1165" unicode="Ş"/><glyph d="M403 -328q148 19 148 93q0 67 -62 67q-23 0 -38 -8l-64 53l57 98q-92 2 -184 34t-156 83l54 123q57 -51 140 -81t159 -30q129 0 197.5 52.5t68.5 132.5q0 53 -23.5 76.5t-38 35t-47 24.5t-73.5 29.5t-109 34.5q-149 53 -208.5 100.5t-79 95.5t-19.5 116q0 137 106.5 218 t272.5 81q104 0 197.5 -31t156.5 -80l-63 -108q-147 92 -272 92t-190 -47t-65 -121q0 -114 174 -173q26 -9 77.5 -24.5t75 -24t69.5 -25.5q44 -18 68 -32q77 -47 108.5 -98.5t31.5 -130.5q0 -129 -88 -216t-247 -104l-37 -57q72 6 120 -38t48 -117.5t-64.5 -118.5 t-169.5 -56z" glyph-name="scedilla" horiz-adv-x="966" unicode="ş"/><glyph d="M510 1589l-223 219h149l119 -120l127 120h141l-211 -219h-102zM924 363.5q0 107.5 -85 171t-274 133.5q-269 106 -350.5 197t-81.5 240t125 251t351.5 102t432.5 -131l-67 -117q-180 117 -377 117q-143 0 -227 -63.5t-84 -176.5q0 -77 53 -127q29 -28 54.5 -48.5 t84.5 -48.5q106 -50 232 -97q188 -76 279 -160t91 -223q0 -182 -133 -295t-364 -113q-123 0 -250 35t-225 96l57 125q190 -112 387.5 -112t284 68.5t86.5 176z" glyph-name="Scaron" horiz-adv-x="1165" unicode="Š"/><glyph d="M434 1227l-223 217h147l121 -121l127 121h142l-211 -217h-103zM872 297q0 -145 -108.5 -234.5t-300.5 -89.5q-96 0 -194.5 32t-164.5 87l54 123q57 -51 140 -81t159 -30q129 0 197.5 52.5t68.5 132.5q0 53 -23.5 76.5t-38 35t-47 24.5t-73.5 29.5t-109 34.5 q-149 53 -208.5 100.5t-79 95.5t-19.5 116q0 137 106.5 218t272.5 81q104 0 197.5 -31t156.5 -80l-63 -108q-147 92 -272 92t-190 -47t-65 -121q0 -93 109 -145q54 -26 124 -47t93.5 -29.5t69.5 -25.5q44 -18 68 -32q77 -47 108.5 -98.5t31.5 -130.5z" glyph-name="scaron" horiz-adv-x="966" unicode="š"/><glyph d="M543 -328q147 19 147 93q0 35 -17.5 51t-42 16t-40.5 -8l-64 53l72 123h-14v1298h-484v136h1117v-136h-482v-1298h-45l-51 -80q72 6 120 -38t48 -117.5t-64.5 -118.5t-169.5 -56z" glyph-name="Tcommaaccent" horiz-adv-x="1316" unicode="Ţ"/><glyph d="M393 213q0 -107 100 -107q51 0 132 35l41 -112q-96 -55 -199 -56q-21 0 -39 2l-37 -55q72 6 120 -38t48 -117.5t-64.5 -118.5t-168.5 -56l-31 82q147 19 147 93q0 67 -61 67q-23 0 -39 -8l-63 53l69 119q-104 49 -104 192v760h-183v125h183v168l75 107h74v-275h262v-125 h-262v-735z" glyph-name="tcommaaccent" horiz-adv-x="751" unicode="ţ"/><glyph d="M606 1587l-223 217h149l119 -121l127 121h142l-211 -217h-103zM1217 1434v-136h-482v-1298h-151v1298h-484v136h1117z" glyph-name="Tcaron" horiz-adv-x="1316" unicode="Ť"/><glyph d="M545 1303h-80l12 303h144zM393 213q0 -107 100 -107q51 0 132 35l41 -112q-96 -55 -199 -56q-223 0 -223 215v760h-183v125h183v168l75 107h74v-275h262v-125h-262v-735z" glyph-name="tcaron" horiz-adv-x="751" unicode="ť"/><glyph d="M891 1696h-451v98h451v-98zM1217 1298h-482v-1298h-151v1298h-484v136h1117v-136z" glyph-name="Tbar" horiz-adv-x="1316" unicode="Ŧ"/><glyph d="M393 213q1 -107 101 -107q52 0 131 35l41 -112q-96 -55 -199 -56q-223 0 -223 215v408h-148v98h148v254h-183v125h183v168l75 107h74v-275h262v-125h-262v-254h156v-98h-156v-383z" glyph-name="tbar" horiz-adv-x="751" unicode="ŧ"/><glyph d="M928 1696h-451v98h451v-98zM1253 1434v-918q0 -141 -44 -248.5t-119.5 -170t-170 -93.5t-204 -31t-203.5 31t-171 93.5t-120 170t-43 248.5v918h150v-928q0 -182 102 -283.5t287 -101.5q184 0 284.5 101.5t100.5 283.5v928h151z" glyph-name="Umacron" horiz-adv-x="1429" unicode="Ū"/><glyph d="M838 1335h-451v99h451v-99zM1030 1073v-1073h-110l-33 164q-74 -92 -162.5 -140.5t-224.5 -48.5t-230 93.5t-94 289.5v715h148v-682q0 -283 213 -282q106 0 185 53t161 145v766h147z" glyph-name="umacron" horiz-adv-x="1206" unicode="ū"/><glyph d="M700 1868q64 0 109 -38t45 -108.5t-44 -107.5t-109 -37t-108.5 37t-43.5 107.5t43.5 108.5t107.5 38zM701 1796q-32 0 -51 -20.5t-19 -54.5t19.5 -54t51 -20t51 20.5t19.5 54t-19.5 54t-51.5 20.5zM1253 1434v-918q0 -141 -44 -248.5t-119.5 -170t-170 -93.5t-204 -31 t-203.5 31t-171 93.5t-120 170t-43 248.5v918h150v-928q0 -182 102 -283.5t287 -101.5q184 0 284.5 101.5t100.5 283.5v928h151z" glyph-name="Uring" horiz-adv-x="1429" unicode="Ů"/><glyph d="M610 1217q-64 0 -107.5 36.5t-43.5 107.5t44 108.5t108 37.5t109.5 -37.5t45.5 -108.5t-46 -107.5t-110 -36.5zM611 1436q-32 0 -51 -20.5t-19 -54.5t20.5 -54.5t52 -20.5t50 20.5t18.5 54.5t-19.5 54.5t-51.5 20.5zM1030 1073v-1073h-110l-33 164q-74 -92 -162.5 -140.5 t-224.5 -48.5t-230 93.5t-94 289.5v715h148v-682q0 -283 213 -282q106 0 185 53t161 145v766h147z" glyph-name="uring" horiz-adv-x="1206" unicode="ů"/><glyph d="M610 1573h-98l37 233h174zM840 1573h-103l121 233h178zM1253 1434v-918q0 -141 -44 -248.5t-119.5 -170t-170 -93.5t-204 -31t-203.5 31t-171 93.5t-120 170t-43 248.5v918h150v-928q0 -182 102 -283.5t287 -101.5q184 0 284.5 101.5t100.5 283.5v928h151z" glyph-name="Uhungarumlaut" horiz-adv-x="1429" unicode="Ű"/><glyph d="M520 1212h-98l37 234h174zM750 1212h-101l121 234h176zM1030 1073v-1073h-110l-33 164q-74 -92 -162.5 -140.5t-224.5 -48.5t-230 93.5t-94 289.5v715h148v-682q0 -283 213 -282q106 0 185 53t161 145v766h147z" glyph-name="uhungarumlaut" horiz-adv-x="1206" unicode="ű"/><glyph d="M1253 1434v-918q0 -201 -84 -325.5t-225 -178.5q-51 -63 -69.5 -104t-18.5 -88q0 -102 105 -121l-33 -96q-92 14 -143.5 66t-52.5 141t85 172q-159 -26 -399 53t-240 481v918h150v-928q0 -182 102 -283.5t287 -101.5q184 0 284.5 101.5t100.5 283.5v928h151z" glyph-name="Uogonek" horiz-adv-x="1429" unicode="Ų"/><glyph d="M956 -184q0 -102 103 -121l-31 -96q-94 14 -144 66t-53 132q-2 111 111 203h-22l-33 164q-74 -92 -162.5 -140.5t-224.5 -48.5t-230 93.5t-94 289.5v715h148v-682q0 -283 213 -282q106 0 185 53t161 145v766h147v-1046l21 -9q-55 -70 -75 -111.5t-20 -90.5z" glyph-name="uogonek" horiz-adv-x="1206" unicode="ų"/><glyph d="M889 1591h-154l232 226h84l219 -226h-148l-118 109zM2009 1434l-440 -1434h-162l-379 1206l-375 -1206h-161l-439 1434h162l363 -1233l378 1233h160l373 -1231l362 1231h158z" glyph-name="Wcircumflex" horiz-adv-x="2062" unicode="Ŵ"/><glyph d="M649 1231h-155l231 225h86l219 -225h-149l-119 108zM1546 1073l-375 -1073h-112l-285 840l-293 -840h-110l-338 1073h153l250 -872l293 872h107l282 -883l285 883h143z" glyph-name="wcircumflex" horiz-adv-x="1579" unicode="ŵ"/><glyph d="M526 1591h-153l231 226h84l219 -226h-147l-119 109zM715 0h-152v573l-502 861h179l403 -719l399 719h172l-499 -861v-573z" glyph-name="Ycircumflex" horiz-adv-x="1333" unicode="Ŷ"/><glyph d="M440 1231h-153l231 227h84l219 -227h-147l-119 108zM272 -424q-92 0 -161 23l28 116q55 -18 122 -18t130.5 56.5t100.5 154.5l24 61l-459 1104h158l373 -954l338 954h151l-422 -1139q-131 -358 -383 -358z" glyph-name="ycircumflex" horiz-adv-x="1136" unicode="ŷ"/><glyph d="M478 1808q44 0 69.5 -25.5t25.5 -72.5t-25.5 -71.5t-69.5 -24.5t-69.5 24.5t-25.5 71.5t25.5 72.5t69.5 25.5zM817 1808q43 0 68.5 -25.5t25.5 -72.5t-25.5 -71.5t-68.5 -24.5t-69.5 24.5t-26.5 71.5t26.5 72.5t69.5 25.5zM715 0h-152v573l-502 861h179l403 -719l399 719 h172l-499 -861v-573z" glyph-name="Ydieresis" horiz-adv-x="1333" unicode="Ÿ"/><glyph d="M698 1571h-123l152 235h207zM1204 135v-135h-1075v125l854 1173h-807v136h987v-115l-858 -1184h899z" glyph-name="Zacute" horiz-adv-x="1347" unicode="Ź"/><glyph d="M492 1208h-121l151 236h205zM885 129v-129h-803v113l604 829h-584v131h764v-123l-618 -821h637z" glyph-name="zacute" horiz-adv-x="964" unicode="ź"/><glyph d="M658 1810q42 0 72 -25.5t30 -75.5t-30 -75.5t-72 -25.5t-70.5 25.5t-28.5 75.5t28.5 75.5t70.5 25.5zM1204 135v-135h-1075v125l854 1173h-807v136h987v-115l-858 -1184h899z" glyph-name="Zdotaccent" horiz-adv-x="1347" unicode="Ż"/><glyph d="M454 1448q42 0 70.5 -25.5t28.5 -76t-28.5 -77t-70.5 -26.5t-72 26.5t-30 77t30 76t72 25.5zM885 129v-129h-803v113l604 829h-584v131h764v-123l-618 -821h637z" glyph-name="zdotaccent" horiz-adv-x="964" unicode="ż"/><glyph d="M598 1589l-221 217h147l121 -118l127 118h139l-209 -217h-104zM1204 135v-135h-1075v125l854 1173h-807v136h987v-115l-858 -1184h899z" glyph-name="Zcaron" horiz-adv-x="1347" unicode="Ž"/><glyph d="M393 1227l-223 217h149l119 -121l127 121h142l-211 -217h-103zM885 129v-129h-803v113l604 829h-584v131h764v-123l-618 -821h637z" glyph-name="zcaron" horiz-adv-x="964" unicode="ž"/><glyph d="M686 1565q94 0 150 -23l-29 -123q-49 15 -123 15t-120 -39t-46 -117v-205h281v-117h-281v-895q0 -147 -85 -217.5t-230 -70.5q-80 0 -156 20l29 123q51 -14 106 -14q186 0 187 157v897h-174v117h174v201q0 150 85 220.5t232 70.5z" glyph-name="florin" horiz-adv-x="935" unicode="ƒ"/><glyph d="M924 363.5q0 107.5 -85 171t-274 133.5q-269 106 -350.5 197t-81.5 240t125 251t351.5 102t432.5 -131l-67 -117q-180 117 -377 117q-143 0 -227 -63.5t-84 -176.5q0 -77 53 -127q29 -28 54.5 -48.5t84.5 -48.5q106 -50 232 -97q188 -76 279 -160t91 -223 q0 -182 -133 -295t-364 -113q-123 0 -250 35t-225 96l57 125q190 -112 387.5 -112t284 68.5t86.5 176zM584 -412h-80l12 303h143z" glyph-name="Scommaaccent" horiz-adv-x="1165" unicode="Ș"/><glyph d="M504 1100q104 0 197.5 -31t156.5 -80l-63 -108q-147 92 -272 92t-190 -47t-65 -121q0 -114 174 -173q26 -9 77.5 -24.5t75 -24t69.5 -25.5q44 -18 68 -32q77 -47 108.5 -98.5t31.5 -130.5q0 -145 -108.5 -234.5t-300.5 -89.5q-96 0 -194.5 32t-164.5 87l54 123 q57 -51 140 -81t159 -30q129 0 197.5 52.5t68.5 132.5q0 53 -23.5 76.5t-38 35t-47 24.5t-73.5 29.5t-109 34.5q-149 53 -208.5 100.5t-79 95.5t-19.5 116q0 137 106.5 218t272.5 81zM510 -412h-82l14 303h144z" glyph-name="scommaaccent" horiz-adv-x="966" unicode="ș"/><glyph d="M1217 1298h-482v-1298h-151v1298h-484v136h1117v-136zM649 -412h-82l15 303h143z" glyph-name="uni021A" horiz-adv-x="1316" unicode="Ț"/><glyph d="M393 213q0 -107 100 -107q51 0 132 35l41 -112q-96 -55 -199 -56q-223 0 -223 215v760h-183v125h183v168l75 107h74v-275h262v-125h-262v-735zM401 -412h-82l15 303h143z" glyph-name="uni021B" horiz-adv-x="751" unicode="ț"/><glyph d="M436 1231l-119 108l-112 -108h-156l232 225h86l219 -225h-150z" glyph-name="circumflex" horiz-adv-x="634" unicode="ˆ"/><glyph d="M586 1444l-211 -217h-103l-223 217h148l120 -121l127 121h142z" glyph-name="caron" horiz-adv-x="634" unicode="ˇ"/><glyph d="M309 1217q-96 0 -169.5 60t-88.5 167h103q12 -61 54 -95t101 -34t99.5 33t52.5 96h108q-16 -106 -89.5 -166.5t-170.5 -60.5z" glyph-name="breve" horiz-adv-x="620" unicode="˘"/><glyph d="M251 1448q42 0 71.5 -25.5t29.5 -76t-29.5 -77t-71.5 -26.5t-70.5 26.5t-28.5 77t28.5 76t70.5 25.5z" glyph-name="dotaccent" horiz-adv-x="503" unicode="˙"/><glyph d="M318 1507q64 0 108.5 -37.5t44.5 -108.5t-44 -107.5t-109 -36.5t-108.5 36.5t-43.5 107.5t44 108.5t108 37.5zM318 1436q-32 0 -51 -20.5t-19 -54.5t19.5 -54.5t51 -20.5t51 20.5t19.5 54.5t-19.5 54.5t-51.5 20.5z" glyph-name="ring" horiz-adv-x="634" unicode="˚"/><glyph d="M188 -203q0 -102 105 -121l-31 -96q-94 14 -144 66.5t-52 132.5q-3 132 165 241l54 -20q-57 -70 -77 -112t-20 -91z" glyph-name="ogonek" horiz-adv-x="376" unicode="˛"/><glyph d="M219 1321q-72 0 -110 -82l-80 41q25 80 76 118t103 38t120.5 -38t97.5 -38q59 0 100 90l82 -47q-53 -158 -176 -158q-45 0 -110.5 38t-102.5 38z" glyph-name="tilde" horiz-adv-x="634" unicode="˜"/><glyph d="M158 1212h-99l35 234h176zM385 1212h-100l121 234h178z" glyph-name="hungarumlaut" horiz-adv-x="634" unicode="˝"/><glyph d="M276 -412h-79l12 303h145z" glyph-name="uni0326" horiz-adv-x="0" unicode="̦"/><glyph d="M1067 1073v-1073h-111l-32 160q-72 -92 -143.5 -138.5t-176.5 -46.5q-201 0 -274 97v-465h-150v1466h148v-702q0 -127 80.5 -194.5t197.5 -67.5q180 0 314 208v756h147z" glyph-name="mu" horiz-adv-x="1243" unicode="μ"/><glyph d="M1096 1569h-121l-240 235h207zM1569 0h-162l-379 1206l-375 -1206h-161l-439 1434h162l363 -1233l378 1233h160l373 -1231l362 1231h158z" glyph-name="Wgrave" horiz-adv-x="2062" unicode="Ẁ"/><glyph d="M735 1208l-241 236h208l154 -236h-121zM1546 1073l-375 -1073h-112l-285 840l-293 -840h-110l-338 1073h153l250 -872l293 872h107l282 -883l285 883h143z" glyph-name="wgrave" horiz-adv-x="1579" unicode="ẁ"/><glyph d="M1055 1569h-123l151 235h205zM1569 0h-162l-379 1206l-375 -1206h-161l-439 1434h162l363 -1233l378 1233h160l373 -1231l362 1231h158z" glyph-name="Wacute" horiz-adv-x="2062" unicode="Ẃ"/><glyph d="M813 1208h-121l152 236h205zM1546 1073l-375 -1073h-112l-285 840l-293 -840h-110l-338 1073h153l250 -872l293 872h107l282 -883l285 883h143z" glyph-name="wacute" horiz-adv-x="1579" unicode="ẃ"/><glyph d="M841 1808q44 0 69.5 -25.5t25.5 -72.5t-25.5 -71.5t-69.5 -24.5t-70 24.5t-26 71.5t26 72.5t70 25.5zM1180 1808q43 0 68.5 -25.5t25.5 -72.5t-25.5 -71.5t-68.5 -24.5t-70 24.5t-27 71.5t27 72.5t70 25.5zM1569 0h-162l-379 1206l-375 -1206h-161l-439 1434h162 l363 -1231l378 1231h160l373 -1231l362 1231h158z" glyph-name="Wdieresis" horiz-adv-x="2062" unicode="Ẅ"/><glyph d="M940 1253q-43 0 -69.5 25t-26.5 72t26.5 72.5t69.5 25.5t68.5 -25.5t25.5 -72.5t-25.5 -72t-68.5 -25zM600 1253q-43 0 -68.5 25t-25.5 72t25.5 72.5t68.5 25.5t69.5 -25.5t26.5 -72.5t-26.5 -72t-69.5 -25zM1546 1073l-375 -1073h-112l-285 840l-293 -840h-110 l-338 1073h153l250 -872l293 872h107l282 -883l285 883h143z" glyph-name="wdieresis" horiz-adv-x="1579" unicode="ẅ"/><glyph d="M1235 367q0 -170 -124 -281t-293 -111t-288 56l33 131q101 -49 227 -49t205.5 70.5t79.5 178.5t-102.5 194.5t-364.5 82.5v117l342 299q0 121 -83 194.5t-219 73.5t-224 -78t-88 -233v-1012h-154v1038q0 193 133.5 306.5t341.5 113.5q209 0 328 -115.5t119 -318.5 l-320 -274q180 -12 277.5 -80t135.5 -140.5t38 -162.5z" glyph-name="uni1E9E" horiz-adv-x="1372" unicode="ẞ"/><glyph d="M733 1569h-121l-239 235h207zM715 0h-152v573l-502 861h179l403 -719l399 719h172l-499 -861v-573z" glyph-name="Ygrave" horiz-adv-x="1333" unicode="Ỳ"/><glyph d="M526 1210l-239 236h207l153 -236h-121zM272 -424q-92 0 -161 23l28 116q55 -18 122 -18t130.5 56.5t100.5 154.5l24 61l-459 1104h158l373 -954l338 954h151l-422 -1139q-131 -358 -383 -358z" glyph-name="ygrave" horiz-adv-x="1136" unicode="ỳ"/><glyph glyph-name="uni2009" horiz-adv-x="96" unicode=" "/><glyph d="M1073 469h-911v129h911v-129z" glyph-name="endash" horiz-adv-x="1241" unicode="–"/><glyph d="M1751 469h-1587v129h1587v-129z" glyph-name="emdash" horiz-adv-x="1869" unicode="—"/><glyph d="M305 1164q0 -54 -34.5 -87t-88.5 -33t-88.5 40t-34.5 106q0 158 177 270l45 -30q-74 -77 -84 -140q47 -8 77.5 -40t30.5 -86z" glyph-name="quoteleft" horiz-adv-x="442" unicode="‘"/><glyph d="M261 1460q54 0 88 -40t34 -103q0 -160 -176 -273l-47 33q74 74 86 140q-47 8 -78 40.5t-31 85.5t35 85t89 32z" glyph-name="quoteright" horiz-adv-x="509" unicode="’"/><glyph d="M261 231q54 0 88 -39.5t34 -103.5q0 -164 -180 -276l-43 30q74 72 86 140q-47 4 -78 40t-31 90t35 86.5t89 32.5z" glyph-name="quotesinglbase" horiz-adv-x="442" unicode="‚"/><glyph d="M307 1158q0 -54 -33.5 -87t-87.5 -33t-88.5 40t-34.5 106q0 162 179 274l45 -28q-78 -76 -88 -146q47 -6 77.5 -39t30.5 -87zM614 1158q0 -54 -34.5 -87t-88.5 -33t-88 40t-34 106q0 162 178 274l45 -28q-76 -74 -88 -144q45 -4 77.5 -39t32.5 -89z" glyph-name="quotedblleft" horiz-adv-x="747" unicode="“"/><glyph d="M562 1458q54 0 88 -40t34 -103q0 -164 -178 -277l-45 31q76 76 88 145q-47 6 -79 39t-32 87t35 86t89 32zM257 1458q54 0 88 -40t34 -103q0 -164 -178 -277l-45 31q76 74 86 143q-45 4 -77 39t-32 89t35 86t89 32z" glyph-name="quotedblright" horiz-adv-x="747" unicode="”"/><glyph d="M562 231q54 0 88 -39.5t34 -103.5q0 -164 -178 -276l-45 30q76 74 88 144q-47 8 -79 40t-32 86t35 86.5t89 32.5zM257 231q54 0 88 -39.5t34 -103.5q0 -164 -178 -276l-45 30q76 74 86 142q-45 4 -77 39t-32 89t35 86.5t89 32.5z" glyph-name="quotedblbase" horiz-adv-x="747" unicode="„"/><glyph d="M774 948h-278v-948h-144v948h-278v125h278v361h144v-361h278v-125z" glyph-name="dagger" horiz-adv-x="849" unicode="†"/><glyph d="M535 954v-241h262v-127h-262v-586h-144v586h-260v127h260v241h-260v127h260v355h144v-355h262v-127h-262z" glyph-name="daggerdbl" horiz-adv-x="929" unicode="‡"/><glyph d="M326 784q70 0 121 -44t51 -129t-51.5 -131t-120.5 -46q-70 0 -119 46t-49 131t49 129t119 44z" glyph-name="bullet" horiz-adv-x="655" unicode="•"/><glyph d="M330.5 223q54.5 0 88.5 -32.5t34 -92t-34 -92.5t-88.5 -33t-88 33t-33.5 92.5t33.5 92t88 32.5zM898 223q54 0 88 -32.5t34 -92t-34 -92.5t-88 -33t-88 33t-34 92.5t34 92t88 32.5zM1464.5 223q53.5 0 88 -32.5t34.5 -92t-33.5 -92.5t-88 -33t-89.5 33t-35 92.5t35 92 t88.5 32.5z" glyph-name="ellipsis" horiz-adv-x="1796" unicode="…"/><glyph d="M379 1458q129 0 214 -85t85 -234q0 -150 -84 -236t-214 -86t-217 85t-87 236t87 235.5t216 84.5zM352 0h-127l965 1434h129zM377 924q174 0 174 215q0 102 -44 158.5t-127 56.5t-131 -57.5t-48 -158.5t48 -157.5t128 -56.5zM1154 618q130 0 214 -86t84 -235 q0 -150 -84 -236t-214 -86t-217 85t-87 237t87 236.5t217 84.5zM1863 618q130 0 214 -86t84 -235q0 -150 -84 -236t-214 -86t-217 85t-87 237t87 236.5t217 84.5zM1154 514q-83 0 -130 -58.5t-47 -159.5t47 -158.5t130 -57.5t127 57.5t44 159.5t-44 159.5t-127 57.5z M1863 514q-83 0 -130 -58.5t-47 -159.5t47 -158.5t130 -57.5t127 57.5t44 159.5t-44 159.5t-127 57.5z" glyph-name="perthousand" horiz-adv-x="2236" unicode="‰"/><glyph d="M561 815l-244 -291l244 -293l-90 -77l-309 368l303 371z" glyph-name="guilsinglleft" horiz-adv-x="724" unicode="‹"/><glyph d="M578 522l-308 -368l-92 77l244 293l-244 291l96 78z" glyph-name="guilsinglright" horiz-adv-x="749" unicode="›"/><glyph d="M559 1532l-579 -1782h-107l582 1782h104z" glyph-name="fraction" horiz-adv-x="436" unicode="⁄"/><glyph d="M903 -27q-213 0 -366.5 131.5t-202.5 389.5h-195v120h178q-4 50 -4 102t4 99h-178v121h193q49 260 207.5 391t403.5 131t433 -158l-88 -108q-170 123 -348 123t-291.5 -96.5t-154.5 -282.5h755l-28 -121h-746q-2 -45 -2 -97t4 -104h711l-29 -120h-661 q45 -178 155.5 -276.5t253.5 -98.5q207 0 389 135l86 -109q-211 -172 -479 -172z" glyph-name="Euro" horiz-adv-x="1462" unicode="€"/><glyph d="M719 1321h-230v-631h-124v631h-228v113h582v-113zM1612 690h-125v465l-252 -438h-43l-242 438v-465h-123v744h97l295 -535l303 535h90v-744z" glyph-name="trademark" horiz-adv-x="1742" unicode="™"/><glyph d="M1384 1532l-579 -1782h-107l582 1782h104zM500 725h174v-117h-481v117h174v541l-162 -74l-51 102l256 127h90v-696zM1995 213q0 -98 -90.5 -171t-230.5 -73t-230 72t-90 172q0 156 162 213q-127 49 -127 178q0 98 79.5 159.5t206.5 61.5t207 -61.5t80 -159.5 q0 -131 -127 -178q160 -55 160 -213zM1718.5 479q110.5 0 110.5 115q0 51 -44 83t-109.5 32t-109.5 -32t-44 -87t43 -83t153.5 -28zM1675 86q86 0 131 39t45 101t-48 101.5t-128 39.5t-129 -39.5t-49 -101.5t46 -101t132 -39z" glyph-name="oneeighth" horiz-adv-x="2086" unicode="⅛"/><glyph d="M1384 1532l-579 -1782h-107l582 1782h104zM725 844q0 -115 -92 -188.5t-251 -73.5t-286 98l68 104q104 -80 212 -80t157 40t49 105t-46.5 96.5t-148.5 31.5h-80v115h64q82 0 130 29.5t48 86.5q0 109 -152 109q-111 0 -207 -84l-67 90q119 115 268 115t225 -60t76 -134 t-41.5 -126.5t-111.5 -70.5q86 -14 136 -66.5t50 -136.5zM1995 213q0 -98 -90.5 -171t-230.5 -73t-230 72t-90 172q0 156 162 213q-127 49 -127 178q0 98 79.5 159.5t206.5 61.5t207 -61.5t80 -159.5q0 -131 -127 -178q160 -55 160 -213zM1718.5 479q110.5 0 110.5 115 q0 51 -44 83t-109.5 32t-109.5 -32t-44 -87t43 -83t153.5 -28zM1675 86q86 0 131 39t45 101t-48 101.5t-128 39.5t-129 -39.5t-49 -101.5t46 -101t132 -39z" glyph-name="threeeighths" horiz-adv-x="2086" unicode="⅜"/><glyph d="M1384 1532l-579 -1782h-107l582 1782h104zM446 1143q104 0 184.5 -73.5t80.5 -195.5t-93.5 -202t-241.5 -80t-253 82l55 98q92 -61 190 -61t147.5 46t49.5 119t-47 112.5t-133 39.5t-143 -55l-86 39v409h497v-121h-366v-196q55 39 159 39zM1995 213q0 -98 -90.5 -171 t-230.5 -73t-230 72t-90 172q0 156 162 213q-127 49 -127 178q0 98 79.5 159.5t206.5 61.5t207 -61.5t80 -159.5q0 -131 -127 -178q160 -55 160 -213zM1718.5 479q110.5 0 110.5 115q0 51 -44 83t-109.5 32t-109.5 -32t-44 -87t43 -83t153.5 -28zM1675 86q86 0 131 39 t45 101t-48 101.5t-128 39.5t-129 -39.5t-49 -101.5t46 -101t132 -39z" glyph-name="fiveeighths" horiz-adv-x="2086" unicode="⅝"/><glyph d="M1384 1532l-579 -1782h-107l582 1782h104zM119 1286v123h588v-100l-357 -701h-145l342 678h-428zM1995 213q0 -98 -90.5 -171t-230.5 -73t-230 72t-90 172q0 156 162 213q-127 49 -127 178q0 98 79.5 159.5t206.5 61.5t207 -61.5t80 -159.5q0 -131 -127 -178 q160 -55 160 -213zM1718.5 479q110.5 0 110.5 115q0 51 -44 83t-109.5 32t-109.5 -32t-44 -87t43 -83t153.5 -28zM1675 86q86 0 131 39t45 101t-48 101.5t-128 39.5t-129 -39.5t-49 -101.5t46 -101t132 -39z" glyph-name="seveneighths" horiz-adv-x="2086" unicode="⅞"/><glyph d="M1163 662h-948v118h948v-118z" glyph-name="minus" horiz-adv-x="1378" unicode="−"/><glyph d="M1174 483v-114h-504l-109 -308h-131l109 308h-308v114h349l104 295h-453v119h496l96 268h131l-96 -268h316v-119h-359l-104 -295h463z" glyph-name="notequal" horiz-adv-x="1413" unicode="≠"/><glyph d="M1024 608q180 0 317.5 -103.5t169.5 -258.5h-96q-47 100 -153.5 163.5t-237.5 63.5t-237.5 -63.5t-153.5 -163.5h-96q33 156 170 259t317 103z" glyph-name="uni2322" unicode="⌢"/><glyph d="M1024 199q-180 0 -317.5 103.5t-169.5 258.5h96q47 -104 153.5 -170.5t237.5 -66.5t237.5 66.5t153.5 170.5h96q-33 -156 -170 -259t-317 -103z" glyph-name="uni2323" unicode="⌣"/><glyph d="M1024 1458q328 0 560.5 -233t232.5 -561t-232.5 -561.5t-560.5 -233.5t-560.5 233.5t-232.5 562.5t232.5 561t560.5 232zM843 1078q-93 0 -93 -198t93 -198t93 198t-93 198zM1205 1078q-93 0 -93 -198t93 -198t93 198t-93 198zM733 219q0 106 85 181t206 75t206 -74.5 t85 -181.5h110q0 158 -117.5 268.5t-283.5 110.5t-283.5 -110.5t-117.5 -268.5h110z" glyph-name="uni2639" unicode="☹"/><glyph d="M1024 1458q328 0 560.5 -233t232.5 -561t-232.5 -561.5t-560.5 -233.5t-560.5 233.5t-232.5 562.5t232.5 561t560.5 232zM843 1036q-93 0 -93 -198t93 -198t93 198t-93 198zM1205 1036q-93 0 -93 -198t93 -198t93 198t-93 198zM1024 199q180 0 317.5 103.5t169.5 258.5 h-96q-47 -104 -153.5 -170.5t-237.5 -66.5t-237.5 66.5t-153.5 170.5h-96q33 -156 170 -259t317 -103z" glyph-name="smileface" unicode="☺"/><glyph d="M971 137v-137h-766v137h307v1125l-342 -164l-64 114l447 228h115v-1303h303z" glyph-name="uniF6DC" horiz-adv-x="1132" unicode=""/><glyph d="M1182 535h-1006v131h1006v-131z" glyph-name="uniF6DE" horiz-adv-x="1357" unicode=""/><glyph d="M1024 1458q328 0 560.5 -233t232.5 -561t-232.5 -561.5t-560.5 -233.5t-560.5 233.5t-232.5 562.5t232.5 561t560.5 232zM843 1036q-93 0 -93 -198t93 -198t93 198t-93 198zM1205 1036q-93 0 -93 -198t93 -198t93 198t-93 198zM1027 510q-349 0 -552 172 q2 -250 150.5 -405.5t399.5 -155.5t398.5 156.5t149.5 406.5q-197 -174 -546 -174zM584 526q86 -47 176 -73v-101q-133 59 -176 174zM1466 526q-43 -115 -176 -174v101q92 26 176 73zM1225 328q-78 -23 -166 -27v115q86 2 166 20v-108zM825 434q80 -16 166 -18v-115 q-88 4 -166 27v106z" glyph-name="u1F600" unicode="😀"/><glyph d="M1024 1458q328 0 560.5 -233t232.5 -561t-232.5 -561.5t-560.5 -233.5t-560.5 233.5t-232.5 562.5t232.5 561t560.5 232zM801 1069q-70 0 -115 -78t-49 -221h94q13 203 69 203t68 -203h95q-4 143 -48 221t-114 78zM1249 1069q-70 0 -114.5 -78t-49.5 -221h95 q12 203 68 203t69 -203h94q-4 143 -48 221t-114 78zM1027 510q-349 0 -552 172q2 -250 150.5 -405.5t399.5 -155.5t398.5 156.5t149.5 406.5q-197 -174 -546 -174zM584 526q86 -47 176 -73v-101q-133 59 -176 174zM1466 526q-43 -115 -176 -174v101q92 26 176 73zM1225 328 q-78 -23 -166 -27v115q86 2 166 20v-108zM825 434q80 -16 166 -18v-115q-88 4 -166 27v106z" glyph-name="u1F601" unicode="😁"/><glyph d="M1919 193q-55 0 -88 34q-33 30 -43 98t-14 81q-82 -236 -288 -386.5t-463 -150.5t-462 149.5t-287 387.5q-4 -16 -9 -49t-12.5 -68.5t-38.5 -66.5q-30 -30 -85 -29.5t-94 39t-40 94t36 88.5q29 31 113.5 46t107.5 23q-20 88 -21 181q0 217 105.5 399t289 288.5 t398.5 106.5t397.5 -106.5t289 -289.5t106.5 -398q0 -92 -21 -181q23 -8 107.5 -23t117.5 -47t32 -87.5t-40 -94t-94 -38.5zM833 1051q-67 0 -108 -74t-45 -211h84q12 188 67.5 188t65.5 -188h86q-6 137 -44.5 211t-105.5 74zM1215 1051q-67 0 -105.5 -74t-44.5 -211h86 q10 188 65.5 188t67.5 -188h84q-4 137 -45 211t-108 74zM1751 629q0 55 -34 88t-132 48t-145 50l-10 -8q35 -47 53 -162q-187 -109 -457 -107t-461 107q18 115 53 162l-10 8q-47 -35 -145 -50t-132 -48t-34 -89t36 -92t82 -41.5t81 15.5q53 -170 191 -269.5t337 -99.5 t337 99.5t191 269.5q35 -20 81 -15t82 42t36 92zM1526 719q25 -8 73 -17.5t65 -27.5t18 -44t-19 -46t-47 -20t-44 18t-26.5 66t-19.5 71zM385 584q-20 20 -19 46t18 44t65.5 27.5t72.5 17.5q-10 -25 -19 -72t-27 -64t-43 -18t-48 19zM756 479v-100q-135 61 -181 176 q87 -47 181 -76zM1294 379v102q94 27 181 74q-46 -115 -181 -176zM1059 328v116q88 2 168 19v-109q-78 -22 -168 -26zM823 354v109q80 -16 168 -19v-116q-90 3 -168 26zM130 262q26 1 44 18t27.5 65t17.5 73q-23 -10 -71 -19.5t-66 -27.5t-18.5 -44t20.5 -46q20 -20 46 -19z M1964 281q20 20 20 45.5t-18 43.5t-66.5 28t-70.5 20q8 -25 17.5 -73t27.5 -65t44 -18t46 19z" glyph-name="u1F602" unicode="😂"/><glyph d="M1024 1458q328 0 560.5 -233t232.5 -561t-232.5 -561.5t-560.5 -233.5t-560.5 233.5t-232.5 562.5t232.5 561t560.5 232zM843 1098q-93 0 -93 -198t93 -198t93 198t-93 198zM1205 1098q-93 0 -93 -198t93 -198t93 198t-93 198zM1026 502q-324 0 -510 160 q0 -231 138.5 -376t370.5 -145t369.5 146t137.5 377q-182 -162 -506 -162zM1025 240q-146 0 -258 71.5t-151 206.5q182 -102 409 -102t409 102q-39 -135 -151 -206.5t-258 -71.5z" glyph-name="u1F603" unicode="😃"/><glyph d="M1024 1458q328 0 560.5 -233t232.5 -561t-232.5 -561.5t-560.5 -233.5t-560.5 233.5t-232.5 562.5t232.5 561t560.5 232zM801 1069q-70 0 -115 -78t-49 -221h94q13 203 69 203t68 -203h95q-4 143 -48 221t-114 78zM1249 1069q-70 0 -114.5 -78t-49.5 -221h95 q12 203 68 203t69 -203h94q-4 143 -48 221t-114 78zM1026 502q-324 0 -510 160q0 -231 138.5 -376t370.5 -145t369.5 146t137.5 377q-182 -162 -506 -162zM1025 240q-146 0 -258 71.5t-151 206.5q182 -102 409 -102t409 102q-39 -135 -151 -206.5t-258 -71.5z" glyph-name="u1F604" unicode="😄"/><glyph d="M1024 1458q328 0 560.5 -233t232.5 -561t-232.5 -561.5t-560.5 -233.5t-560.5 233.5t-232.5 562.5t232.5 561t560.5 232zM801 1069q-70 0 -115 -78t-49 -221h94q13 203 69 203t68 -203h95q-4 143 -48 221t-114 78zM1249 1069q-70 0 -114.5 -78t-49.5 -221h95 q12 203 68 203t69 -203h94q-4 143 -48 221t-114 78zM1464 827q0 -41 33 -72.5t80 -31.5t80 31.5t33 72.5t-50.5 111t-56.5 119h-12q-6 -49 -56.5 -119t-50.5 -111zM1632 834q0 -22 -15 -38t-40 -16t-40 16t-15 38t23.5 57t31.5 55q8 -20 31.5 -55t23.5 -57zM1026 502 q-324 0 -510 160q0 -231 138.5 -376t370.5 -145t369.5 146t137.5 377q-182 -162 -506 -162zM1025 240q-146 0 -258 71.5t-151 206.5q182 -102 409 -102t409 102q-39 -135 -151 -206.5t-258 -71.5z" glyph-name="u1F605" unicode="😅"/><glyph d="M1024 1458q328 0 560.5 -233t232.5 -561t-232.5 -561.5t-560.5 -233.5t-560.5 233.5t-232.5 562.5t232.5 561t560.5 232zM958 934l-249 149l-41 -108l166 -64v-8l-166 -80l41 -108l249 166v53zM1380 975l-41 108l-249 -149v-53l249 -166l41 108l-166 80v8zM1025 176 q232 0 369.5 145.5t137.5 376.5q-182 -162 -506 -162t-510 160q0 -231 138.5 -375.5t370.5 -144.5zM1025 274q-146 0 -258 72t-151 207q182 -102 409 -102t409 102q-39 -135 -151 -207t-258 -72z" glyph-name="u1F606" unicode="😆"/><glyph d="M1817 646q0 -196 -106.5 -380t-289 -290.5t-397.5 -106.5t-398.5 106.5t-289 290.5t-105.5 380q0 384 275 620q-82 47 -127 104t-45 113q0 125 200.5 220t489.5 95q188 0 349 -44t251 -116.5t90 -154.5q0 -57 -45 -114.5t-127 -102.5q275 -240 275 -620zM1591 1485 q0 88 -164.5 152.5t-403.5 64.5t-402.5 -64.5t-163.5 -150.5q0 -37 41 -75t116 -69q188 115 410 115q221 0 410 -115q157 64 157 142zM843 640.5q93 0.5 93 198.5t-93 197.5t-93 -198.5t93 -197.5zM1205 640.5q93 0.5 93 198.5t-93 197.5t-93 -198.5t93 -197.5zM1024 199 q180 0 317.5 103.5t169.5 258.5h-96q-47 -104 -153.5 -170.5t-237.5 -66.5t-237.5 66.5t-153.5 170.5h-96q33 -156 170 -259t317 -103z" glyph-name="u1F607" unicode="😇"/><glyph d="M1817 664q0 -215 -106.5 -398.5t-289 -290t-397.5 -106.5t-398.5 106.5t-289 290t-105.5 398.5q0 158 57.5 299t162.5 249v414l299 -217q133 49 274 49t274 -49l299 217v-414q102 -109 161 -250t59 -298zM760 817q0 -193 90 -192.5t90 192.5v156l-360 114l-23 -88 l203 -65v-117zM1108 817q0 -193 90 -192.5t90 192.5v117l203 65l-23 88l-360 -114v-156zM1024 199q180 0 317.5 103.5t169.5 258.5h-96q-47 -104 -153.5 -170.5t-237.5 -66.5t-237.5 66.5t-153.5 170.5h-96q33 -156 170 -259t317 -103z" glyph-name="u1F608" unicode="😈"/><glyph d="M1024 1458q328 0 560.5 -233t232.5 -561t-232.5 -561.5t-560.5 -233.5t-560.5 233.5t-232.5 562.5t232.5 561t560.5 232zM844 1076q-92 0 -92 -196t92 -196t92 196t-92 196zM1372 950l-41 99l-215 -134v-79l215 -154l41 98l-141 94zM1024 199q180 0 317.5 103.5 t169.5 258.5h-96q-47 -104 -153.5 -170.5t-237.5 -66.5t-237.5 66.5t-153.5 170.5h-96q33 -156 170 -259t317 -103z" glyph-name="u1F609" unicode="😉"/><glyph d="M1024 1458q328 0 560.5 -233t232.5 -561t-232.5 -561.5t-560.5 -233.5t-560.5 233.5t-232.5 562.5t232.5 561t560.5 232zM801 1069q-70 0 -115 -78t-49 -221h94q13 203 69 203t68 -203h95q-4 143 -48 221t-114 78zM1249 1069q-70 0 -114.5 -78t-49.5 -221h95 q12 203 68 203t69 -203h94q-4 143 -48 221t-114 78zM1024 225q180 0 317.5 103.5t169.5 259.5h-96q-47 -104 -153.5 -171t-237.5 -67t-237.5 66.5t-153.5 171.5h-96q33 -156 170 -259.5t317 -103.5z" glyph-name="u1F60A" unicode="😊"/><glyph d="M1024 1458q328 0 560.5 -233t232.5 -561t-232.5 -561.5t-560.5 -233.5t-560.5 233.5t-232.5 562.5t232.5 561t560.5 232zM801 1069q-70 0 -115 -78t-49 -221h94q13 203 69 203t68 -203h95q-4 143 -48 221t-114 78zM1249 1069q-70 0 -114.5 -78t-49.5 -221h95 q12 203 68 203t69 -203h94q-4 143 -48 221t-114 78zM1024 412q-113 0 -200 56t-113 142h-105q29 -129 145.5 -215t272.5 -86q43 0 86 8q136 -206 250 -122q59 33 66.5 95t-48.5 185q47 61 64 135h-105q-27 -86 -113.5 -142t-199.5 -56zM1321 264q-51 -37 -131 74 q74 27 131 76q31 -74 30 -105t-30 -45z" glyph-name="u1F60B" unicode="😋"/><glyph d="M1024 1458q328 0 560.5 -233t232.5 -561t-232.5 -561.5t-560.5 -233.5t-560.5 233.5t-232.5 562.5t232.5 561t560.5 232zM799 688q70 0 114.5 78t49.5 221h-95q-12 -203 -68 -203t-69 203h-94q4 -143 48 -221t114 -78zM1247 688q70 0 115 78t49 221h-94 q-13 -203 -69 -203t-68 203h-95q4 -143 48 -221t114 -78zM1024 199q180 0 317.5 103.5t169.5 258.5h-96q-47 -104 -153.5 -170.5t-237.5 -66.5t-237.5 66.5t-153.5 170.5h-96q33 -156 170 -259t317 -103z" glyph-name="u1F60C" unicode="😌"/><glyph d="M1024 1458q328 0 560.5 -233t232.5 -561t-232.5 -561.5t-560.5 -233.5t-560.5 233.5t-232.5 562.5t232.5 561t560.5 232zM694 659h105q61 0 88.5 24t46.5 77l59 162h64l57 -162q20 -53 48 -77t87 -24h105q76 0 112.5 33t57.5 105l39 125h123l-54 108h-1229l-53 -108h137 l37 -125q20 -72 57 -105t113 -33zM1024 199q180 0 317.5 103.5t169.5 258.5h-96q-47 -104 -153.5 -170.5t-237.5 -66.5t-237.5 66.5t-153.5 170.5h-96q33 -156 170 -259t317 -103z" glyph-name="u1F60E" unicode="😎"/><glyph d="M1024 1458q328 0 560.5 -233t232.5 -561t-232.5 -561.5t-560.5 -233.5t-560.5 233.5t-232.5 562.5t232.5 561t560.5 232zM932 735v123h-324v-123h324zM1438 735v123h-324v-123h324zM1024 340v-121q188 0 332.5 121t179.5 303h-123q-33 -133 -141.5 -218t-247.5 -85z" glyph-name="u1F60F" unicode="😏"/><glyph d="M1024 1458q328 0 560.5 -233t232.5 -561t-232.5 -561.5t-560.5 -233.5t-560.5 233.5t-232.5 562.5t232.5 561t560.5 232zM843 1036q-93 0 -93 -198t93 -198t93 198t-93 198zM1205 1036q-93 0 -93 -198t93 -198t93 198t-93 198zM1432 358v123h-816v-123h816z" glyph-name="u1F610" unicode="😐"/><glyph d="M1024 1458q328 0 560.5 -233t232.5 -561t-232.5 -561.5t-560.5 -233.5t-560.5 233.5t-232.5 562.5t232.5 561t560.5 232zM932 735v123h-324v-123h324zM1438 735v123h-324v-123h324zM1432 358v123h-816v-123h816z" glyph-name="u1F611" unicode="😑"/><glyph d="M1024 1458q328 0 560.5 -233t232.5 -561t-232.5 -561.5t-560.5 -233.5t-560.5 233.5t-232.5 562.5t232.5 561t560.5 232zM946 985h-414v-94h228q0 -199 93 -199t93 199v94zM1475 985h-414v-94h227q0 -199 93.5 -199t93.5 199v94zM1432 358v123h-816v-123h816z" glyph-name="u1F612" unicode="😒"/><glyph d="M1024 1458q328 0 560.5 -233t232.5 -561t-232.5 -561.5t-560.5 -233.5t-560.5 233.5t-232.5 562.5t232.5 561t560.5 232zM938 872v246l-385 -190l22 -88l183 90v-58q0 -195 90 -194.5t90 194.5zM1110 872q0 -195 90 -194.5t90 194.5v58l183 -90l24 88l-387 190v-246z M1395 567q0 -47 41 -87t100 -40t100 40t41 87t-28.5 92.5t-63.5 96.5t-41 102h-14q-8 -51 -42 -102t-63.5 -96.5t-29.5 -92.5zM1606 580q0 -28 -19.5 -47t-50.5 -19t-50.5 19.5t-19.5 47.5t30 70.5t40 67.5q12 -25 41 -68t29 -71zM1432 248v123h-816v-123h816z" glyph-name="u1F613" unicode="😓"/><glyph d="M1024 1458q328 0 560.5 -233t232.5 -561t-232.5 -561.5t-560.5 -233.5t-560.5 233.5t-232.5 562.5t232.5 561t560.5 232zM801 1008q-70 0 -115 -78t-49 -221h94q12 203 68 202q57 0 69 -202h95q-4 143 -48 221t-114 78zM1249 1008q-70 0 -114.5 -78t-49.5 -221h95 q12 203 69 202q55 0 68 -202h94q-4 143 -48 221t-114 78zM1432 317v123h-816v-123h816z" glyph-name="u1F614" unicode="😔"/><glyph d="M1024 1458q328 0 560.5 -233t232.5 -561t-232.5 -561.5t-560.5 -233.5t-560.5 233.5t-232.5 562.5t232.5 561t560.5 232zM837 1016q-81 0 -81 -174t81 -174t81 174t-81 174zM1292 911h-196v-73q0 -125 98 -125t98 125v73zM791 186q248 264 700 254l-47 129 q-453 8 -701 -256z" glyph-name="u1F615" unicode="😕"/><glyph d="M1024 1458q328 0 560.5 -233t232.5 -561t-232.5 -561.5t-560.5 -233.5t-560.5 233.5t-232.5 562.5t232.5 561t560.5 232zM985 930l-45 127l-362 -131l45 -127zM1477 926l-363 131l-47 -127l363 -131zM705 496q67 0 103 -50.5t76.5 -99.5t140.5 -49t140.5 49t75 99.5 t102.5 50.5q129 0 181 -150l98 27q-22 88 -69.5 148.5t-95.5 85t-105 26.5t-97.5 -16.5t-64 -46t-61 -74.5t-105.5 -47q-70 0 -106.5 44t-77.5 90t-142 50q-154 0 -207 -106.5t-65 -153.5l98 -27q51 150 181 150z" glyph-name="u1F616" unicode="😖"/><glyph d="M1024 1458q328 0 560.5 -233t232.5 -561t-232.5 -561.5t-560.5 -233.5t-560.5 233.5t-232.5 562.5t232.5 561t560.5 232zM843 1036q-93 0 -93 -198t93 -198t93 198t-93 198zM1205 1036q-93 0 -93 -198t93 -198t93 198t-93 198zM1430 451v102h-812v-102h170 q18 -358 236 -361q100 0 161.5 89t71.5 272h173zM1024 193q-59 0 -90 58t-43 200h264q-12 -141 -42 -199.5t-89 -58.5z" glyph-name="u1F61B" unicode="😛"/><glyph d="M1024 1458q328 0 560.5 -233t232.5 -561t-232.5 -561.5t-560.5 -233.5t-560.5 233.5t-232.5 562.5t232.5 561t560.5 232zM844 1076q-92 0 -92 -196t92 -196t92 196t-92 196zM1372 950l-41 99l-215 -134v-79l215 -154l41 98l-141 94zM1430 451v102h-812v-102h173 q16 -358 233 -361q100 0 161.5 89t71.5 272h173zM1024 193q-59 0 -90 58t-41 200h262q-12 -141 -42 -199.5t-89 -58.5z" glyph-name="u1F61C" unicode="😜"/><glyph d="M1024 1458q328 0 560.5 -233t232.5 -561t-232.5 -561.5t-560.5 -233.5t-560.5 233.5t-232.5 562.5t232.5 561t560.5 232zM958 899l-249 150l-41 -109l166 -63v-9l-166 -80l41 -108l249 166v53zM1380 940l-41 109l-249 -150v-53l249 -166l41 108l-166 80v9zM1430 451v102 h-812v-102h173q16 -358 233 -361q100 0 161.5 89t71.5 272h173zM1024 193q-59 0 -90 58t-41 200h262q-12 -141 -42 -199.5t-89 -58.5z" glyph-name="u1F61D" unicode="😝"/><glyph d="M1024 1458q328 0 560.5 -233t232.5 -561t-232.5 -561.5t-560.5 -233.5t-560.5 233.5t-232.5 562.5t232.5 561t560.5 232zM819 662q86 0 86 184v94l45 25v120l-297 -157v-127l78 43q2 -182 88 -182zM1143 846q0 -184 86 -184t88 182l78 -43v127l-297 157v-120l45 -25v-94z M1024 567q-180 0 -317.5 -103.5t-169.5 -258.5h96q47 100 153.5 163.5t237.5 63.5t237.5 -63.5t153.5 -163.5h96q-33 156 -170 259t-317 103z" glyph-name="u1F61E" unicode="😞"/><glyph d="M1024 1458q328 0 560.5 -233t232.5 -561t-232.5 -561.5t-560.5 -233.5t-560.5 233.5t-232.5 562.5t232.5 561t560.5 232zM905 887v94l45 25v120l-297 -157v-127l78 43q2 -182 86 -183q88 0 88 185zM1143 887q0 -184 88 -185q84 0 86 183l78 -43v127l-297 157v-120l45 -25 v-94zM1024 557q-178 0 -297 -81t-156 -208h103q37 78 125 126t225 48t225 -48t125 -126h103q-37 127 -156 208t-297 81zM1024 342q-68 0 -112 -41t-56 -108h70q20 68 98 67.5t98 -67.5h70q-12 68 -56 108.5t-112 40.5z" glyph-name="u1F61F" unicode="😟"/><glyph d="M1024 1458q328 0 560.5 -233t232.5 -561t-232.5 -561.5t-560.5 -233.5t-560.5 233.5t-232.5 562.5t232.5 561t560.5 232zM760 817q0 -193 90 -192.5t90 192.5v156l-360 114l-23 -88l203 -65v-117zM1108 817q0 -193 90 -192.5t90 192.5v117l203 65l-23 88l-360 -114v-156z M1024 608q-180 0 -317.5 -103.5t-169.5 -258.5h96q47 100 153.5 163.5t237.5 63.5t237.5 -63.5t153.5 -163.5h96q-33 156 -170 259t-317 103z" glyph-name="u1F620" unicode="😠"/><glyph d="M1024 1458q328 0 560.5 -233t232.5 -561t-232.5 -561.5t-560.5 -233.5t-560.5 233.5t-232.5 562.5t232.5 561t560.5 232zM760 817q0 -193 90 -192.5t90 192.5v156l-360 114l-23 -88l203 -65v-117zM1108 817q0 -193 90 -192.5t90 192.5v117l203 65l-23 88l-360 -114v-156z M1024 557q-178 0 -297 -81t-156 -208h103q37 78 125 126t225 48t225 -48t125 -126h103q-37 127 -156 208t-297 81zM1024 342q-68 0 -112 -41t-56 -108h70q20 68 98 67.5t98 -67.5h70q-12 68 -56 108.5t-112 40.5z" glyph-name="u1F621" unicode="😡"/><glyph d="M1024 1458q328 0 560.5 -233t232.5 -561t-232.5 -561.5t-560.5 -233.5t-560.5 233.5t-232.5 562.5t232.5 561t560.5 232zM811 772q74 0 118 68.5t48 197.5h-94q-12 -160 -72.5 -159.5t-75.5 159.5h-94q6 -129 51 -197.5t119 -68.5zM1248.5 469q62.5 0 104.5 42t42 82 t-9.5 64.5t-20.5 42t-31.5 45t-30.5 43.5q94 53 104 250h-94q-14 -160 -74.5 -159.5t-73.5 159.5h-94q8 -215 117 -258q-4 -6 -28.5 -39.5t-41 -63t-16.5 -77.5q0 -47 42 -89t104.5 -42zM1248.5 545q-31.5 0 -52 21.5t-20.5 49.5t30.5 72.5t40.5 71.5q12 -27 43 -72t31 -73 t-20.5 -49t-52 -21zM1024 444q-166 0 -291 -79.5t-155 -200.5h116q29 63 120 104t210 41t210 -41t120 -104h116q-31 121 -155.5 200.5t-290.5 79.5z" glyph-name="u1F622" unicode="😢"/><glyph d="M1024 1458q328 0 560.5 -233t232.5 -561t-232.5 -561.5t-560.5 -233.5t-560.5 233.5t-232.5 562.5t232.5 561t560.5 232zM958 899l-249 150l-41 -109l166 -63v-9l-166 -80l41 -108l249 166v53zM1380 940l-41 109l-249 -150v-53l249 -166l41 108l-166 80v9zM1024 608 q-180 0 -317.5 -103.5t-169.5 -258.5h96q47 100 153.5 163.5t237.5 63.5t237.5 -63.5t153.5 -163.5h96q-33 156 -170 259t-317 103z" glyph-name="u1F623" unicode="😣"/><glyph d="M231 662q0 218 105.5 400.5t289 289t398.5 106.5t397.5 -106.5t289 -289.5t106.5 -398t-107.5 -398.5t-288.5 -290.5l-96 379q55 -37 86 -88h92q-47 143 -211 215l-43 172l-41 -8l37 -145q-31 10 -63 18l-19 119l-39 -6l15 -107q-55 8 -113 8t-108 -6l14 105l-39 6 l-19 -119q-33 -6 -61 -14l35 141l-41 8l-41 -168q-172 -72 -221 -219h92q33 55 96 94l-98 -389q-184 104 -294 288.5t-110 402.5zM631 889l325 -96l27 94l-324 94zM1067 887l27 -94l323 96l-28 92zM1026 -131q-104 0 -201 25l76 524q57 10 125 10t129 -12l76 -518 q-101 -29 -205 -29zM678 -51l106 438q33 12 72 23l-78 -502q-51 16 -100 41zM1278 -88l-78 496q39 -10 72 -25l104 -430q-47 -25 -98 -41zM1376 -47l45 22l68 -264l-51 -8zM635 -29l43 -22l-60 -246l-51 8zM1231 -102l47 14l37 -231l-51 -11zM778 -92l47 -14l-32 -224 l-52 11zM834 -264l8 37q123 -55 108 -140q-10 -51 -44 -74.5t-78 -17.5t-62 37q-16 -43 -49 -61.5t-73 -11.5t-65.5 37t-25.5 77q-25 -25 -70 -16q-45 8 -69.5 43t-14.5 86q14 82 150 94l-6 -37q-25 -6 -37 -10t-28.5 -19.5t-21.5 -41.5t10 -45t41 -24t46 17l29 -12 q0 -39 20.5 -63.5t50.5 -28.5q70 -12 99 61l30 2q10 -25 37 -30t47.5 8.5t25.5 39.5q10 52 -58 93zM1505 -213l-6 37q135 -8 150 -94q10 -51 -14.5 -86t-67.5 -42t-72 13q0 -47 -25.5 -75.5t-64.5 -35.5q-90 -14 -123 74q-16 -29 -61 -37t-79 15.5t-44 74.5q-14 82 108 142 l6 -37q-66 -45 -55 -98t74 -44q25 2 35 29l30 -2q27 -71 78 -64t71.5 31.5t20.5 63.5l29 12q16 -18 44 -15t43 23t10 46q-10 52 -87 69z" glyph-name="u1F624" unicode="😤"/><glyph d="M1024 1458q328 0 560.5 -233t232.5 -561t-232.5 -561.5t-560.5 -233.5t-560.5 233.5t-232.5 562.5t232.5 561t560.5 232zM973 942l-53 90l-308 -168l52 -90zM1436 864l-308 168l-53 -90l309 -168zM1415 608q0 -47 41 -87t100.5 -40t100.5 40t41 87t-29 92t-63.5 96.5 t-40.5 102.5h-15q-8 -51 -41.5 -102.5t-63.5 -96.5t-30 -92zM1626 622q0 -28 -19.5 -47.5t-50 -19.5t-50 19.5t-19.5 47.5t29.5 70.5t39.5 67.5q12 -25 41 -67.5t29 -70.5zM1024 608q-180 0 -317.5 -103.5t-169.5 -258.5h96q47 100 153.5 163.5t237.5 63.5t237.5 -63.5 t153.5 -163.5h96q-33 156 -170 259t-317 103z" glyph-name="u1F625" unicode="😥"/><glyph d="M1024 1458q328 0 560.5 -233t232.5 -561t-232.5 -561.5t-560.5 -233.5t-560.5 233.5t-232.5 562.5t232.5 561t560.5 232zM843 1145.5q-93 -0.5 -93 -198.5t93 -197.5t93 198.5t-93 197.5zM1205 1145.5q-93 -0.5 -93 -198.5t93 -197.5t93 198.5t-93 197.5zM1024 645 q-176 0 -285.5 -115.5t-128.5 -314.5h828q-18 199 -128 314.5t-286 115.5zM1024 537q104 0 185 -56.5t100 -163.5h-570q18 106 99.5 163t185.5 57z" glyph-name="u1F626" unicode="😦"/><glyph d="M1024 1458q328 0 560.5 -233t232.5 -561t-232.5 -561.5t-560.5 -233.5t-560.5 233.5t-232.5 562.5t232.5 561t560.5 232zM938 858v246l-385 -191l22 -88l183 90v-57q0 -195 90 -194.5t90 194.5zM1110 858q0 -195 90 -194.5t90 194.5v57l183 -90l24 88l-387 191v-246z M1024 623q-209 0 -333 -138.5t-126 -357.5q180 82 459 82q143 0 276.5 -21.5t182.5 -60.5q0 219 -125 357.5t-334 138.5zM1024 510q125 0 218 -59.5t126 -176.5q-141 41 -344 41t-344 -41q33 117 126 176.5t218 59.5z" glyph-name="u1F627" unicode="😧"/><glyph d="M1024 1458q328 0 560.5 -233t232.5 -561t-232.5 -561.5t-560.5 -233.5t-560.5 233.5t-232.5 562.5t232.5 561t560.5 232zM760 1102q-86 0 -146.5 -60.5t-60.5 -146.5t60.5 -146.5t146.5 -60.5t146.5 60.5t60.5 146.5t-60.5 146.5t-146.5 60.5zM1288 1102 q-86 0 -146.5 -60.5t-60.5 -146.5t60.5 -146.5t146.5 -60.5t146.5 60.5t60.5 146.5t-60.5 146.5t-146.5 60.5zM761 1026q54 0 93 -38t39 -93t-39 -93t-93 -38t-93 38t-39 93t39 93t93 38zM1287 1026q54 0 93 -38t39 -93t-39 -93t-93 -38t-93 38t-39 93t39 93t93 38z M760.5 946q-21.5 0 -36.5 -15.5t-15 -36t15 -35.5t36.5 -15t36 15t14.5 35.5t-14.5 36t-36 15.5zM1287.5 946q-21.5 0 -36 -15.5t-14.5 -36t14.5 -35.5t36 -15t36.5 15t15 35.5t-15 36t-36.5 15.5zM1024 668q-176 0 -285.5 -116t-128.5 -314h828q-18 199 -128 314.5 t-286 115.5zM1024 559q104 0 185 -56.5t100 -162.5h-570q18 106 99.5 162.5t185.5 56.5z" glyph-name="u1F628" unicode="😨"/><glyph d="M1024 1458q328 0 560.5 -233t232.5 -561t-232.5 -561.5t-560.5 -233.5t-560.5 233.5t-232.5 562.5t232.5 561t560.5 232zM781 1036q-93 0 -93 -198t93 -198t93 198t-93 198zM1144 1036q-93 0 -93 -198t93 -198t93 198t-93 198zM1137 174q86 0 145 60.5t59 145.5 t-59 145.5t-145 60.5t-145.5 -60.5t-59.5 -145.5t59.5 -145.5t145.5 -60.5z" glyph-name="u1F62E" unicode="😮"/><glyph d="M1024 1458q328 0 560.5 -233t232.5 -561t-232.5 -561.5t-560.5 -233.5t-560.5 233.5t-232.5 562.5t232.5 561t560.5 232zM909 1104l-307 -113l43 -114l307 112zM1444 991l-307 113l-41 -115l307 -112zM541.5 778q-103.5 0 -158.5 -88h317q-55 88 -158.5 88zM1508.5 778 q-103.5 0 -160.5 -88h319q-55 88 -158.5 88zM354 594q0 -23 4 -43h365q6 20 6 43t-6 45h-363q-6 -23 -6 -45zM1321 594q0 -23 4 -43h365q6 20 6 43t-6 45h-363q-6 -23 -6 -45zM381 498q25 -41 60.5 -62.5t99.5 -29.5q118 15 159 92h-319zM1348 498q25 -41 60.5 -62.5 t98.5 -29.5q119 15 160 92h-319zM1024 156q111 0 188.5 78.5t77.5 189.5h-534q0 -111 78.5 -189.5t189.5 -78.5z" glyph-name="u1F633" unicode="😳"/><glyph d="M266 1675v-358q80 92 197 92t198.5 -86t81.5 -241t-86 -250t-192 -95q-139 0 -207 90h-4l-16 -77h-86v925h114zM451 1309q-115 0 -185 -119v-256q55 -94 183 -94q72 0 125 66.5t53 176.5q0 111 -50 168.5t-126 57.5z" glyph-name="glyph386" horiz-adv-x="903"/><glyph d="M1751 1098q152 0 258.5 -93.5t106.5 -256.5v-748h-148v709q0 139 -72.5 197.5t-185.5 58.5q-178 0 -311 -207v-758h-148v1296h-518v-1296h-151v1296h-482v138h1297v-514q80 94 164 136t190 42z" glyph-name="T_h.dlig" horiz-adv-x="2291"/><glyph d="M1456 1073v-1206q0 -147 -92 -220t-240 -73q-92 0 -151 23l26 122q45 -14 126 -14t132.5 47t51.5 160v1036h-381v-948h-148v948h-393v-948h-147v948h-162v125h162v203q0 147 80.5 219t222.5 72q90 0 157 -23l-28 -121q-49 14 -109 15q-176 0 -176 -158v-207h393v178 q0 313 340 314q100 0 161.5 -20.5t121.5 -61.5l-72 -107q-66 61 -198 62q-205 0 -205 -183v-182h528z" glyph-name="f_f_j.dlig" horiz-adv-x="1607"/><glyph d="M922 1073v-1073h-146v948h-389v-948h-147v948h-162v125h162v178q0 313 340 314q100 0 161.5 -20.5t120.5 -61.5l-71 -107q-66 61 -199 62q-205 0 -205 -183v-182h535z" glyph-name="f_i.dlig" horiz-adv-x="1071"/><glyph d="M977 1073v-1206q0 -147 -92 -220t-240 -73q-90 0 -151 23l26 122q45 -14 127 -14t132 47t50 160v1036h-442v-948h-147v948h-162v125h162v178q0 313 340 314q100 0 161.5 -20.5t120.5 -61.5l-71 -107q-66 61 -199 62q-205 0 -205 -183v-182h590z" glyph-name="f_j.dlig" horiz-adv-x="1128"/><glyph d="M973 1210v-1210h-150v1200q0 131 -52 184.5t-169 53.5t-166 -46t-49 -163v-156h272v-125h-272v-948h-147v948h-164v125h164v150q0 184 92 264t278 80t274.5 -95.5t88.5 -261.5z" glyph-name="f_l.dlig" horiz-adv-x="1167"/><glyph d="M987 213q-1 -107 101 -107q50 0 131 35l43 -112q-98 -55 -199 -56q-223 0 -223 215v760h-453v-948h-147v948h-162v125h162v203q0 147 80.5 219t222.5 72q90 0 157 -23l-28 -121q-49 14 -109 15q-176 0 -176 -158v-207h453v168l75 107h72v-275h264v-125h-264v-735z" glyph-name="f_t.dlig" horiz-adv-x="1347"/><glyph d="M856 272h-534l-95 -272h-147l424 1165h172l428 -1165h-152zM811 399l-223 635l-221 -635h444z" glyph-name="A.c2sc" horiz-adv-x="1183"/><glyph d="M629 1274h-121l151 235h205zM856 272h-534l-95 -272h-147l424 1165h172l428 -1165h-152zM811 399l-223 635l-221 -635h444z" glyph-name="Aacute.aalt" horiz-adv-x="1183"/><glyph d="M590 1274q-96 0 -170 60.5t-88 166.5h102q12 -61 54 -95t102 -34q59 0 99 34t52 95h109q-16 -106 -90 -166.5t-170 -60.5zM856 272h-534l-95 -272h-149l426 1165h172l428 -1165h-152zM811 399l-223 635l-221 -635h444z" glyph-name="Abreve.aalt" horiz-adv-x="1183"/><glyph d="M465 1294h-156l232 228h86l219 -228h-150l-116 109zM856 272h-534l-95 -272h-147l424 1165h172l428 -1165h-152zM811 399l-223 635l-221 -635h444z" glyph-name="Acircumflex.aalt" horiz-adv-x="1183"/><glyph d="M417 1317q-44 0 -69.5 25.5t-25.5 72.5t25.5 72.5t68.5 25.5t69.5 -25.5t26.5 -72.5t-25.5 -72.5t-69.5 -25.5zM756 1317q-43 0 -70 25.5t-27 72.5t27 72.5t70 25.5t68.5 -25.5t25.5 -72.5t-25.5 -72.5t-68.5 -25.5zM856 272h-534l-95 -272h-147l424 1165h172l428 -1165 h-152zM811 399l-223 635l-221 -635h444z" glyph-name="Adieresis.aalt" horiz-adv-x="1183"/><glyph d="M551 1274l-240 235h207l154 -235h-121zM856 272h-534l-95 -272h-147l424 1165h172l428 -1165h-152zM811 399l-223 635l-221 -635h444z" glyph-name="Agrave.aalt" horiz-adv-x="1183"/><glyph d="M815 1399h-450v100h450v-100zM856 272h-534l-95 -272h-147l424 1165h172l428 -1165h-152zM811 399l-223 635l-221 -635h444z" glyph-name="Amacron.aalt" horiz-adv-x="1183"/><glyph d="M1006 -203q0 -102 104 -121l-31 -96q-94 14 -144 66.5t-52 132.5q-2 121 135 221h-66l-96 272h-534l-95 -272h-147l424 1165h172l426 -1165q-57 -70 -76.5 -112t-19.5 -91zM811 399l-223 635l-221 -635h444z" glyph-name="Aogonek.aalt" horiz-adv-x="1183"/><glyph d="M588 1282q-64 0 -108 37t-44 106.5t44 107.5t108 38t108.5 -38t44.5 -107.5t-44.5 -106.5t-108.5 -37zM589 1501q-32 0 -51.5 -21.5t-19.5 -54.5t20.5 -53t51.5 -20t50 20.5t19 53t-19 54t-51 21.5zM856 272h-534l-95 -272h-147l424 1165h172l428 -1165h-152zM811 399 l-223 635l-221 -635h444z" glyph-name="Aring.aalt" horiz-adv-x="1183"/><glyph d="M479 1384q-70 0 -110 -81l-80 40q27 80 77 118t102 38t120.5 -37t99.5 -37q57 0 98 91l82 -48q-52 -157 -174 -157q-47 0 -111.5 36.5t-103.5 36.5zM856 272h-534l-95 -272h-147l424 1165h172l428 -1165h-152zM811 399l-223 635l-221 -635h444z" glyph-name="Atilde.aalt" horiz-adv-x="1183"/><glyph d="M852 1036v-372h434v-132h-434v-401h502v-131h-656v272h-342l-123 -272h-155l547 1165h729v-129h-502zM698 403v623l-282 -623h282z" glyph-name="AE.aalt" horiz-adv-x="1472"/><glyph d="M975 316q0 -138 -100.5 -227t-272.5 -89h-440v1165h366q365 0 365 -288q0 -166 -152 -256q234 -42 234 -305zM311 662h213q109 0 164 53t55 145q0 178 -219 178h-213v-376zM311 129h264q242 0 242 207q0 201 -233 201h-273v-408z" glyph-name="B.aalt" horiz-adv-x="1083"/><glyph d="M264 589q0 -234 115 -358.5t281 -124.5t319 117l68 -110q-166 -137 -387.5 -137.5t-379.5 145.5q-78 72 -123.5 191.5t-45.5 273t46 273.5q47 119 125 189q160 142 376 142t370 -125l-70 -113q-135 106 -284 107q-184 0 -297 -118t-113 -352z" glyph-name="C.aalt" horiz-adv-x="1159"/><glyph d="M676 1274h-121l152 235h204zM264 589q0 -234 115 -358.5t281 -124.5t319 117l68 -110q-166 -137 -387.5 -137.5t-379.5 145.5q-78 72 -123.5 191.5t-45.5 273t46 273.5q47 119 125 189q160 142 376 142t370 -125l-70 -113q-135 106 -284 107q-184 0 -297 -118t-113 -352z " glyph-name="Cacute.aalt" horiz-adv-x="1159"/><glyph d="M578 1290l-224 219h150l119 -120l127 120h141l-211 -219h-102zM111 585.5q0 153.5 46 273.5q47 119 125 189q160 142 376 142t370 -125l-70 -113q-135 106 -284 107q-184 0 -297 -118t-113 -352t115 -358.5t280.5 -124.5t319.5 117l68 -110q-166 -137 -388 -137 q-223 0 -379 145q-78 72 -123.5 191.5t-45.5 273z" glyph-name="Ccaron.aalt" horiz-adv-x="1159"/><glyph d="M526 -352q148 23 148 93q0 34 -17.5 50t-42.5 16t-41 -8l-63 56l74 125q-195 24 -334 172.5t-139 433.5q0 154 46 274q47 118 125 188q160 142 376 142t370 -125l-70 -113q-135 106 -284 107q-184 0 -297 -118t-113 -352t115 -358.5t281 -124.5t319 117l68 -110 q-160 -132 -373 -138l-51 -77q72 4 120 -39t48 -118t-64.5 -120t-169.5 -55z" glyph-name="Ccedilla.aalt" horiz-adv-x="1159"/><glyph d="M638 1513q42 0 71.5 -26.5t29.5 -76.5t-29.5 -75.5t-71.5 -25.5t-70.5 25.5t-28.5 75.5t28.5 76.5t70.5 26.5zM264 589q0 -234 115 -358.5t281 -124.5t319 117l68 -110q-166 -137 -387.5 -137.5t-379.5 145.5q-78 72 -123.5 191.5t-45.5 273t46 273.5q47 119 125 189 q160 142 376 142t370 -125l-70 -113q-135 106 -284 107q-184 0 -297 -118t-113 -352z" glyph-name="Cdotaccent.aalt" horiz-adv-x="1159"/><glyph d="M162 1165h340q259 0 415 -134t156 -436t-154.5 -448.5t-416.5 -146.5h-340v1165zM309 1036v-905h166q223 0 334 107.5t111 351.5t-110 345t-335 101h-166z" glyph-name="D.aalt" horiz-adv-x="1181"/><glyph d="M162 1165h340q259 0 415 -134t156 -436t-154.5 -448.5t-416.5 -146.5h-340v526h-189v129h189v510zM309 131h166q223 0 334 107.5t111 351.5t-110 345t-335 101h-166v-381h244v-129h-244v-395z" glyph-name="Eth.aalt" horiz-adv-x="1181"/><glyph d="M487 1292l-223 219h150l118 -120l127 120h142l-211 -219h-103zM162 1165h340q259 0 415 -134t156 -436t-154.5 -448.5t-416.5 -146.5h-340v1165zM309 131h166q223 0 334 107.5t111 351.5t-110 345t-335 101h-166v-905z" glyph-name="Dcaron.aalt" horiz-adv-x="1181"/><glyph d="M772 1401h-450v98h450v-98zM162 1165h340q259 0 415 -134t156 -436t-154.5 -448.5t-416.5 -146.5h-340v1165zM309 1036v-905h166q223 0 334 107.5t111 351.5t-110 345t-335 101h-166z" glyph-name="Dcroat.aalt" horiz-adv-x="1181"/><glyph d="M893 1036h-584v-370h520v-131h-520v-404h584v-131h-731v1165h731v-129z" glyph-name="E.aalt" horiz-adv-x="1011"/><glyph d="M584 1274h-123l151 235h207zM893 1036h-584v-370h520v-131h-520v-404h584v-131h-731v1165h731v-129z" glyph-name="Eacute.aalt" horiz-adv-x="1011"/><glyph d="M544 1274q-97 0 -170 60.5t-87 166.5h100q12 -61 54 -95t102.5 -34t100.5 34t52 95h107q-16 -106 -89 -166.5t-170 -60.5zM893 1036h-584v-370h520v-131h-520v-404h584v-131h-731v1165h731v-129z" glyph-name="Ebreve.aalt" horiz-adv-x="1011"/><glyph d="M483 1290l-221 219h148l120 -120l127 120h142l-211 -219h-105zM309 1036v-370h520v-131h-520v-404h584v-131h-731v1165h731v-129h-584z" glyph-name="Ecaron.aalt" horiz-adv-x="1011"/><glyph d="M420 1294h-156l232 228h84l219 -228h-148l-119 109zM309 1036v-370h520v-131h-520v-404h584v-131h-731v1165h731v-129h-584z" glyph-name="Ecircumflex.aalt" horiz-adv-x="1011"/><glyph d="M371 1513q43 0 68.5 -25.5t25.5 -72.5t-25.5 -72.5t-68.5 -25.5t-69 25.5t-26 72.5t26 72.5t69 25.5zM710 1513q44 0 68.5 -25.5t24.5 -72.5t-24.5 -72.5t-68.5 -25.5t-70 25.5t-26 72.5t26 72.5t70 25.5zM893 1036h-584v-370h520v-131h-520v-404h584v-131h-731v1165h731 v-129z" glyph-name="Edieresis.aalt" horiz-adv-x="1011"/><glyph d="M545 1513q41 0 70.5 -26.5t29.5 -76.5t-29.5 -75.5t-70.5 -25.5t-71 25.5t-30 75.5t30 76.5t71 26.5zM893 1036h-584v-370h520v-131h-520v-404h584v-131h-731v1165h731v-129z" glyph-name="Edotaccent.aalt" horiz-adv-x="1011"/><glyph d="M625 1274h-119l-242 235h207zM893 1036h-584v-370h520v-131h-520v-404h584v-131h-731v1165h731v-129z" glyph-name="Egrave.aalt" horiz-adv-x="1011"/><glyph d="M770 1399h-453v100h453v-100zM893 1036h-584v-370h520v-131h-520v-404h584v-131h-731v1165h731v-129z" glyph-name="Emacron.aalt" horiz-adv-x="1011"/><glyph d="M309 1036v-370h520v-131h-520v-404h584v-131h-252q-55 -68 -74.5 -110t-19.5 -91q0 -102 104 -121l-30 -94q-94 12 -145.5 64.5t-51.5 132.5q-2 121 131 219h-393v1165h731v-129h-584z" glyph-name="Eogonek.aalt" horiz-adv-x="1011"/><glyph d="M877 1036h-570v-430h504v-131h-504v-475h-145v1165h715v-129z" glyph-name="F.aalt" horiz-adv-x="962"/><glyph d="M654.5 1055q-185.5 0 -291 -123t-105.5 -350t109.5 -352.5t304.5 -125.5q132 0 250 79q8 5 16 14v317h-326v127h471v-506q-8 -16 -63 -50q-178 -110 -352 -110q-242 -1 -394 143q-76 72 -120.5 192t-44.5 274.5t46 273.5q47 120 125 190q159 142 384 142t395 -131 l-78 -115q-141 111 -326.5 111z" glyph-name="G.aalt" horiz-adv-x="1183"/><glyph d="M638 1274q-97 0 -170 60.5t-87 166.5h100q12 -61 54.5 -95t101.5 -34t100.5 34t53.5 95h106q-16 -106 -89 -166.5t-170 -60.5zM654.5 1055q-185.5 0 -291 -123t-105.5 -350t109.5 -352.5t304.5 -125.5q132 0 250 79q8 5 16 14v317h-326v127h471v-506q-8 -16 -63 -50 q-178 -110 -352 -110q-242 -1 -394 143q-76 72 -120.5 192t-44.5 274.5t46 273.5q47 120 125 190q159 142 384 142t395 -131l-78 -115q-141 111 -326.5 111z" glyph-name="Gbreve.aalt" horiz-adv-x="1183"/><glyph d="M654.5 1055q-185.5 0 -291 -123t-105.5 -350t109.5 -352.5t304.5 -125.5q132 0 250 79q8 5 16 14v317h-326v127h471v-506q-8 -16 -63 -50q-178 -110 -352 -110q-242 -1 -394 143q-76 72 -120.5 192t-44.5 274.5t46 273.5q47 120 125 190q159 142 384 142t395 -131 l-78 -115q-141 111 -326.5 111zM651 -412h-80l13 303h143z" glyph-name="Gcommaaccent.aalt" horiz-adv-x="1183"/><glyph d="M638 1513q42 0 71.5 -26.5t29.5 -76.5t-29.5 -75.5t-71.5 -25.5t-70.5 25.5t-28.5 75.5t28.5 76.5t70.5 26.5zM654.5 1055q-185.5 0 -291 -123t-105.5 -350t109.5 -352.5t304.5 -125.5q132 0 250 79q8 5 16 14v317h-324v127h469v-506q-8 -16 -63 -50q-178 -110 -352 -110 q-242 -1 -394 143q-76 72 -120.5 192t-44.5 274.5t46 273.5q47 120 125 190q159 142 384 142t395 -131l-78 -115q-141 111 -326.5 111z" glyph-name="Gdotaccent.aalt" horiz-adv-x="1183"/><glyph d="M1069 1165v-1165h-149v500h-611v-500h-147v1165h147v-530h611v530h149z" glyph-name="H.aalt" horiz-adv-x="1230"/><glyph d="M1174 782h-91v-782h-149v500h-608v-500h-148v782h-98v113h98v270h148v-270h608v270h149v-270h91v-113zM934 782h-608v-147h608v147z" glyph-name="Hbar.aalt" horiz-adv-x="1253"/><glyph d="M350 0h-147v1165h147v-1165z" glyph-name="I.aalt" horiz-adv-x="552"/><glyph d="M350 0h-147v1165h147v-1165z" glyph-name="dotlessi.aalt" horiz-adv-x="552"/><glyph d="M317 1274h-122l151 235h207zM350 0h-147v1165h147v-1165z" glyph-name="Iacute.aalt" horiz-adv-x="552"/><glyph d="M535 1294h-150l-119 109l-112 -109h-156l231 228h86zM203 1165h147v-1165h-147v1165z" glyph-name="Icircumflex.aalt" horiz-adv-x="552"/><glyph d="M104 1513q43 0 70 -25.5t27 -72.5t-27 -71.5t-70 -24.5t-68.5 24.5t-25.5 71.5t25.5 72.5t68.5 25.5zM444 1513q43 0 69 -25.5t26 -72.5t-26 -71.5t-70 -24.5t-69.5 24.5t-25.5 71.5t26.5 72.5t69.5 25.5zM350 0h-147v1165h147v-1165z" glyph-name="Idieresis.aalt" horiz-adv-x="552"/><glyph d="M358 1274h-118l-242 235h207zM350 0h-147v1165h147v-1165z" glyph-name="Igrave.aalt" horiz-adv-x="552"/><glyph d="M350 0h-147v1165h147v-1165zM1133 1165v-831q0 -180 -99.5 -270.5t-314.5 -90.5q-98 0 -148 19l13 125q59 -10 127 -11q145 0 210.5 58.5t65.5 183.5v817h146z" glyph-name="IJ.aalt" horiz-adv-x="1296"/><glyph d="M504 1401h-453v98h453v-98zM350 0h-147v1165h147v-1165z" glyph-name="Imacron.aalt" horiz-adv-x="552"/><glyph d="M350 0h-18q-55 -68 -73.5 -109t-18.5 -90q0 -102 102 -120l-31 -97q-92 14 -143 66.5t-53 132.5q-2 119 129 217h-41v1165h147v-1165z" glyph-name="Iogonek.aalt" horiz-adv-x="552"/><glyph d="M580 1165v-831q0 -180 -99.5 -270.5t-314.5 -90.5q-98 0 -148 19l13 125q61 -10 127 -11q145 0 210.5 58.5t65.5 183.5v817h146z" glyph-name="J.aalt" horiz-adv-x="743"/><glyph d="M309 0h-147v1165h147v-590l504 590h191l-482 -547l525 -618h-199l-420 512l-119 -135v-377z" glyph-name="K.aalt" horiz-adv-x="1087"/><glyph d="M309 0h-147v1165h147v-590l504 590h191l-482 -547l525 -618h-199l-420 512l-119 -135v-377zM479 -109h144l-76 -303h-82z" glyph-name="Kcommaaccent.aalt" horiz-adv-x="1087"/><glyph d="M309 133h584v-133h-731v1165h147v-1032z" glyph-name="L.aalt" horiz-adv-x="954"/><glyph d="M354 1274h-121l152 235h205zM309 133h584v-133h-731v1165h147v-1032z" glyph-name="Lacute.aalt" horiz-adv-x="954"/><glyph d="M309 133h584v-133h-731v1165h147v-1032zM641 862h-80l12 301h146z" glyph-name="Lcaron.aalt" horiz-adv-x="946"/><glyph d="M309 133h584v-133h-731v1165h147v-1032zM514 -412h-80l12 303h144z" glyph-name="Lcommaaccent.aalt" horiz-adv-x="954"/><glyph d="M309 133h584v-133h-731v1165h147v-1032zM575 758q51 0 87 -32t36 -94t-35.5 -94t-87.5 -32q-51 0 -87 32t-35.5 94t36 94t86.5 32z" glyph-name="Ldot.aalt" horiz-adv-x="954"/><glyph d="M942 133v-133h-731v522l-152 -55v119l152 53v526h145v-473l181 66v-119l-181 -66v-440h586z" glyph-name="Lslash.aalt" horiz-adv-x="995"/><glyph d="M1198 0v866l-387 -860h-100l-404 862v-868h-145v1165h147l453 -966l436 966h145v-1165h-145z" glyph-name="M.aalt" horiz-adv-x="1505"/><glyph d="M1116 1165v-1165h-137l-672 922v-922h-145v1165h141l668 -925v925h145z" glyph-name="N.aalt" horiz-adv-x="1280"/><glyph d="M690 1274h-121l152 235h205zM1116 1165v-1165h-137l-672 922v-922h-145v1165h141l668 -925v925h145z" glyph-name="Nacute.aalt" horiz-adv-x="1280"/><glyph d="M592 1290l-223 219h147l121 -120l127 120h141l-211 -219h-102zM1116 1165v-1165h-137l-672 922v-922h-145v1165h141l668 -925v925h145z" glyph-name="Ncaron.aalt" horiz-adv-x="1280"/><glyph d="M1116 1165v-1165h-137l-672 922v-922h-145v1165h141l668 -925v925h145zM555 -109h143l-75 -303h-80z" glyph-name="Ncommaaccent.aalt" horiz-adv-x="1280"/><glyph d="M1116 1165v-1247q0 -172 -98 -258t-311 -86q-98 0 -148 16l12 127q59 -12 127 -12q141 0 207 55.5t66 171.5v76l-664 914v-922h-145v1165h141l668 -925v925h145z" glyph-name="Eng.aalt" horiz-adv-x="1267"/><glyph d="M541 1384q-72 0 -111 -81l-80 40q25 80 76 118t103 38t120 -37t99 -37q59 0 100 91l82 -48q-52 -157 -176 -157q-45 0 -110.5 36.5t-102.5 36.5zM1116 1165v-1165h-137l-672 922v-922h-145v1165h141l668 -925v925h145z" glyph-name="Ntilde.aalt" horiz-adv-x="1280"/><glyph d="M695 1192q93 0 191.5 -36t181.5 -106.5t133 -190.5t50 -272.5t-50 -273t-175.5 -229.5t-339.5 -109t-342.5 109t-180.5 229.5t-52 258.5t34.5 239.5t92 171.5t132 118t153.5 69.5t172 21.5zM684 1059q-178 0 -300 -122t-122 -346t124 -353t298 -129t293 129t119 354 t-117 346t-295 121z" glyph-name="O.c2sc" horiz-adv-x="1361"/><glyph d="M721 1303h-123l152 235h206zM695 1192q93 0 191.5 -36t181.5 -106.5t133 -190.5t50 -272.5t-50 -273t-175.5 -229.5t-339.5 -109t-342.5 109t-180.5 229.5t-52 258.5t34.5 239.5t92 171.5t132 118t153.5 69.5t172 21.5zM684 1059q-178 0 -300 -122t-122 -346t124 -353 t298 -129t293 129t119 354t-117 346t-295 121z" glyph-name="Oacute.aalt" horiz-adv-x="1361"/><glyph d="M557 1323h-156l232 227h84l221 -227h-150l-118 109zM695 1192q93 0 191.5 -36t181.5 -106.5t133 -190.5t50 -272.5t-50 -273t-175.5 -229.5t-339.5 -109t-342.5 109t-180.5 229.5t-52 258.5t34.5 239.5t92 171.5t132 118t153.5 69.5t172 21.5zM684 109q174 0 293 129 t119 354t-117 346t-295 121t-300 -122t-122 -346t124 -353t298 -129z" glyph-name="Ocircumflex.aalt" horiz-adv-x="1361"/><glyph d="M508 1542q43 0 68.5 -25.5t25.5 -72.5t-25.5 -71.5t-68.5 -24.5t-68.5 24.5t-25.5 71.5t25.5 72.5t68.5 25.5zM847 1542q44 0 69.5 -25.5t25.5 -72.5t-25.5 -71.5t-69.5 -24.5t-69.5 24.5t-25.5 71.5t25.5 72.5t69.5 25.5zM695 1192q93 0 191.5 -36t181.5 -106.5 t133 -190.5t50 -272.5t-50 -273t-175.5 -229.5t-339.5 -109t-342.5 109t-180.5 229.5t-52 258.5t34.5 239.5t92 171.5t132 118t153.5 69.5t172 21.5zM684 1059q-178 0 -300 -122t-122 -346t124 -353t298 -129t293 129t119 354t-117 346t-295 121z" glyph-name="Odieresis.aalt" horiz-adv-x="1361"/><glyph d="M762 1303h-119l-242 235h207zM695 1192q93 0 191.5 -36t181.5 -106.5t133 -190.5t50 -272.5t-50 -273t-175.5 -229.5t-339.5 -109t-342.5 109t-180.5 229.5t-52 258.5t34.5 239.5t92 171.5t132 118t153.5 69.5t172 21.5zM684 1059q-178 0 -300 -122t-122 -346t124 -353 t298 -129t293 129t119 354t-117 346t-295 121z" glyph-name="Ograve.aalt" horiz-adv-x="1361"/><glyph d="M590 1307h-98l34 233h176zM817 1307h-100l121 233h178zM695 1192q93 0 191.5 -36t181.5 -106.5t133 -190.5t50 -272.5t-50 -273t-175.5 -229.5t-339.5 -109t-342.5 109t-180.5 229.5t-52 258.5t34.5 239.5t92 171.5t132 118t153.5 69.5t172 21.5zM684 1059 q-178 0 -300 -122t-122 -346t124 -353t298 -129t293 129t119 354t-117 346t-295 121z" glyph-name="Ohungarumlaut.aalt" horiz-adv-x="1361"/><glyph d="M907 1430h-452v98h452v-98zM695 1192q93 0 191.5 -36t181.5 -106.5t133 -190.5t50 -272.5t-50 -273t-175.5 -229.5t-339.5 -109t-342.5 109t-180.5 229.5t-52 258.5t34.5 239.5t92 171.5t132 118t153.5 69.5t172 21.5zM684 1059q-178 0 -300 -122t-122 -346t124 -353 t298 -129t293 129t119 354t-117 346t-295 121z" glyph-name="Omacron.aalt" horiz-adv-x="1361"/><glyph d="M1251 600q0 -166 -50 -286.5t-175.5 -229.5t-343.5 -109q-104 0 -205 39l-94 -196l-98 49l94 194q-123 76 -195.5 208t-72.5 317q0 348 200 477t371 129q119 0 225 -43l90 188l97 -49l-90 -188q115 -76 181 -205t66 -295zM262 588q0 -133 48 -235.5t130 -164.5l408 840 q-76 31 -166 31q-176 0 -298 -122t-122 -349zM682 109q176 0 295 129t119 350q0 260 -154 385l-405 -838q69 -26 145 -26z" glyph-name="Oslash.aalt" horiz-adv-x="1359"/><glyph d="M571 1413q-72 0 -112 -82l-78 43q25 78 76 116t103 38t120 -37t98 -37q60 0 101 90l82 -47q-53 -158 -177 -158q-45 0 -110.5 37t-102.5 37zM695 1192q93 0 191.5 -36t181.5 -106.5t133 -190.5t50 -272.5t-50 -273t-175.5 -229.5t-339.5 -109t-342.5 109t-180.5 229.5 t-52 258.5t34.5 239.5t92 171.5t132 118t153.5 69.5t172 21.5zM684 1059q-178 0 -300 -122t-122 -346t124 -353t298 -129t293 129t119 354t-117 346t-295 121z" glyph-name="Otilde.aalt" horiz-adv-x="1361"/><glyph d="M1360 1036h-504v-372h440v-132h-440v-401h504v-131h-719q-201 0 -318.5 99.5t-164.5 216t-47 269.5t47 270.5t164.5 215.5t328.5 94h709v-129zM711 1036h-56q-180 4 -287.5 -108.5t-107.5 -338.5t111.5 -347t283.5 -121h56v915z" glyph-name="OE.aalt" horiz-adv-x="1478"/><glyph d="M162 1165h389q197 0 300 -98t103 -267t-106.5 -274.5t-298.5 -105.5h-242v-420h-145v1165zM307 1036v-483h213q135 0 210 63.5t75 181t-74 178t-211 60.5h-213z" glyph-name="P.aalt" horiz-adv-x="1064"/><glyph d="M307 958h180q188 0 296 -96t108 -260t-106.5 -265t-280.5 -101h-197v-236h-145v1165h145v-207zM307 827v-465h156q135 0 206.5 63.5t71.5 173.5t-71.5 169t-206.5 59h-156z" glyph-name="Thorn.aalt" horiz-adv-x="999"/><glyph d="M1251 586q0 -227 -105.5 -375t-268.5 -203l294 -133l-84 -123l-423 223q-206 8 -330.5 116t-173.5 227.5t-49 255.5t49 279.5t200 241t322 97.5q218 0 343.5 -106.5t175.5 -226t50 -273.5zM262 591q0 -224 124 -353t298 -129t293 129t119 354t-117 346t-295 121 t-300 -122t-122 -346z" glyph-name="Q.aalt" horiz-adv-x="1347"/><glyph d="M309 440v-440h-147v1165h391q385 0 385 -346q0 -129 -56.5 -224t-166.5 -132l270 -463h-174l-248 440h-254zM309 571h232q123 0 184 61.5t61 177.5t-60 171t-185 55h-232v-465z" glyph-name="R.aalt" horiz-adv-x="1052"/><glyph d="M561 1274h-123l152 235h207zM309 440v-440h-147v1165h391q385 0 385 -346q0 -129 -56.5 -224t-166.5 -132l270 -463h-174l-248 440h-254zM309 571h232q123 0 184 61.5t61 177.5t-60 171t-185 55h-232v-465z" glyph-name="Racute.aalt" horiz-adv-x="1052"/><glyph d="M461 1290l-221 219h147l121 -120l127 120h141l-211 -219h-104zM309 440v-440h-147v1165h391q385 0 385 -346q0 -129 -56.5 -224t-166.5 -132l270 -463h-174l-248 440h-254zM309 571h232q123 0 184 61.5t61 177.5t-60 171t-185 55h-232v-465z" glyph-name="Rcaron.aalt" horiz-adv-x="1052"/><glyph d="M309 440v-440h-147v1165h391q385 0 385 -346q0 -129 -56.5 -224t-166.5 -132l270 -463h-174l-248 440h-254zM309 571h232q123 0 184 61.5t61 177.5t-60 171t-185 55h-232v-465zM457 -109h145l-78 -303h-80z" glyph-name="Rcommaaccent.aalt" horiz-adv-x="1052"/><glyph d="M505 1192q175 0 329 -109l-60 -108q-133 94 -278 94q-98 0 -156.5 -49t-58.5 -126t41 -119q41 -43 103 -71q61 -28 105 -46q197 -84 265.5 -155t68.5 -188q0 -154 -103.5 -247t-281.5 -93q-92 0 -189 29t-171 80l49 115q140 -90 284 -90q268 0 267 196q0 80 -60.5 127 t-171 93.5t-158.5 72.5q-47 26 -97 66q-94 78 -94.5 217t96 225t271.5 86z" glyph-name="S.aalt" horiz-adv-x="974"/><glyph d="M530 1274h-120l151 235h205zM505 1192q175 0 329 -109l-60 -108q-133 94 -278 94q-98 0 -156.5 -49t-58.5 -126t41 -119q41 -43 103 -71q61 -28 105 -46q197 -84 265.5 -155t68.5 -188q0 -154 -103.5 -247t-281.5 -93q-92 0 -189 29t-171 80l49 115q140 -90 284 -90 q268 0 267 196q0 80 -60.5 127t-171 93.5t-158.5 72.5q-47 26 -97 66q-94 78 -94.5 217t96 225t271.5 86z" glyph-name="Sacute.aalt" horiz-adv-x="974"/><glyph d="M432 1290l-223 219h147l121 -120l127 120h141l-210 -219h-103zM864 315q0 -154 -103.5 -247t-281.5 -93q-92 0 -189 29t-171 80l49 115q140 -90 284 -90q268 0 267 196q0 80 -60.5 127t-171 93.5t-158.5 72.5q-47 26 -97 66q-94 78 -94.5 217t96 225t271.5 86t329 -109 l-60 -108q-133 94 -278 94q-98 0 -156.5 -49t-58.5 -126t41 -119q41 -43 103 -71q61 -28 105 -46q197 -84 265.5 -155t68.5 -188z" glyph-name="Scaron.aalt" horiz-adv-x="974"/><glyph d="M383 -328q147 19 147 93q0 67 -61 67q-23 0 -39 -8l-63 53l59 100q-178 16 -307 107l49 115q140 -90 284 -90q268 0 267 196q0 80 -60.5 127t-171 93.5t-158.5 72.5q-47 26 -97 66q-94 78 -94.5 217t96 225t271.5 86t329 -109l-60 -108q-133 94 -278 94q-98 0 -156.5 -49 t-58.5 -126t41 -119q41 -43 103 -71q61 -28 105 -46q197 -84 265.5 -155t68.5 -202t-93 -223t-255 -103l-37 -55q72 6 120 -38t48 -117.5t-64.5 -118.5t-168.5 -56z" glyph-name="Scedilla.c2sc" horiz-adv-x="974"/><glyph d="M505 1192q175 0 329 -109l-60 -108q-133 94 -278 94q-98 0 -156.5 -49t-58.5 -126t41 -119q41 -43 103 -71q61 -28 105 -46q197 -84 265.5 -155t68.5 -188q0 -154 -103.5 -247t-281.5 -93q-92 0 -189 29t-171 80l49 115q140 -90 284 -90q268 0 267 196q0 80 -60.5 127 t-171 93.5t-158.5 72.5q-47 26 -97 66q-94 78 -94.5 217t96 225t271.5 86zM489 -412h-81l14 303h143z" glyph-name="Scommaaccent.aalt" horiz-adv-x="974"/><glyph d="M967 310q0 -142 -98.5 -238.5t-228.5 -96.5t-214 45l25 123q79 -37 165 -37t142.5 55.5t56.5 145.5q0 213 -315 211v100l225 234q0 92 -56.5 149.5t-147.5 57.5t-152.5 -58.5t-61.5 -171.5v-829h-145v852q0 156 104 247t262 91t251 -94.5t93 -264.5l-219 -221 q137 -12 225.5 -85t88.5 -215z" glyph-name="germandbls.aalt" horiz-adv-x="1075"/><glyph d="M985 1034h-383v-1034h-145v1034h-385v131h913v-131z" glyph-name="T.aalt" horiz-adv-x="1058"/><glyph d="M739 1399h-450v98h450v-98zM985 1034h-383v-1034h-145v1034h-385v131h913v-131z" glyph-name="Tbar.aalt" horiz-adv-x="1058"/><glyph d="M455 1288l-224 219h150l119 -121l127 121h141l-211 -219h-102zM985 1034h-383v-1034h-145v1034h-385v131h913v-131z" glyph-name="Tcaron.aalt" horiz-adv-x="1058"/><glyph d="M414 -328q147 19 147 93q0 35 -18.5 51t-43 16t-40.5 -8l-64 53l74 123h-12v1034h-385v131h913v-131h-383v-1034h-41l-53 -80q72 6 120 -38t48 -117.5t-63.5 -118.5t-168.5 -56z" glyph-name="Tcommaaccent.c2sc" horiz-adv-x="1058"/><glyph d="M985 1034h-383v-1034h-145v1034h-385v131h913v-131zM451 -109h143l-76 -303h-80z" glyph-name="uni021A.aalt" horiz-adv-x="1058"/><glyph d="M1055 1165v-755q0 -329 -177.5 -383t-269.5 -54q-186 0 -316 102t-130 335v755h147v-782q0 -121 77 -199t222 -78t223 78t78 199v782h146z" glyph-name="U.aalt" horiz-adv-x="1216"/><glyph d="M653 1274h-121l152 235h205zM1055 1165v-755q0 -329 -177.5 -383t-269.5 -54q-186 0 -316 102t-130 335v755h147v-782q0 -121 77 -199t222 -78t223 78t78 199v782h146z" glyph-name="Uacute.aalt" horiz-adv-x="1216"/><glyph d="M489 1294h-155l231 228h86l219 -228h-149l-119 109zM1055 1165v-755q0 -329 -177.5 -383t-269.5 -54q-186 0 -316 102t-130 335v755h147v-782q0 -121 77 -199t222 -78t223 78t78 199v782h146z" glyph-name="Ucircumflex.aalt" horiz-adv-x="1216"/><glyph d="M440 1513q43 0 70 -25.5t27 -72.5t-27 -72.5t-70 -25.5t-68.5 25.5t-25.5 72.5t25.5 72.5t68.5 25.5zM780 1513q43 0 68.5 -25.5t25.5 -72.5t-25.5 -72.5t-68.5 -25.5t-69.5 25.5t-26.5 72.5t26.5 72.5t69.5 25.5zM1055 1165v-755q0 -329 -177.5 -383t-269.5 -54 q-186 0 -316 102t-130 335v755h147v-782q0 -121 77 -199t222 -78t223 78t78 199v782h146z" glyph-name="Udieresis.aalt" horiz-adv-x="1216"/><glyph d="M696 1274h-121l-241 235h209zM1055 1165v-755q0 -329 -177.5 -383t-269.5 -54q-186 0 -316 102t-130 335v755h147v-782q0 -121 77 -199t222 -78t223 78t78 199v782h146z" glyph-name="Ugrave.aalt" horiz-adv-x="1216"/><glyph d="M522 1278h-98l37 233h174zM752 1278h-103l121 233h178zM1055 1165v-755q0 -329 -177.5 -383t-269.5 -54q-186 0 -316 102t-130 335v755h147v-782q0 -121 77 -199t222 -78t223 78t78 199v782h146z" glyph-name="Uhungarumlaut.aalt" horiz-adv-x="1216"/><glyph d="M840 1399h-451v100h451v-100zM1055 1165v-755q0 -329 -177.5 -383t-269.5 -54q-186 0 -316 102t-130 335v755h147v-782q0 -121 77 -199t222 -78t223 78t78 199v782h146z" glyph-name="Umacron.aalt" horiz-adv-x="1216"/><glyph d="M1055 1165v-755q0 -311 -250 -404q-49 -61 -65.5 -100t-16.5 -86q0 -102 102 -121l-30 -96q-92 14 -143.5 66t-53.5 140t82 168q-36 -4 -100 -4t-141 23.5t-177 102t-100 311.5v755h147v-782q0 -121 77 -199t222 -78t223 78t78 199v782h146z" glyph-name="Uogonek.aalt" horiz-adv-x="1216"/><glyph d="M612 1571q64 0 109 -38t45 -107.5t-44 -106.5t-109 -37t-108.5 37t-43.5 106.5t43.5 107.5t107.5 38zM613 1501q-32 0 -51 -21.5t-19 -54.5t19.5 -53t51 -20t51 20.5t19.5 53t-19.5 54t-51.5 21.5zM1055 1165v-755q0 -329 -177.5 -383t-269.5 -54q-186 0 -316 102 t-130 335v755h147v-782q0 -121 77 -199t222 -78t223 78t78 199v782h146z" glyph-name="Uring.aalt" horiz-adv-x="1216"/><glyph d="M1075 1165l-444 -1165h-148l-448 1165h164l360 -991l352 991h164z" glyph-name="V.aalt" horiz-adv-x="1112"/><glyph d="M1653 1165l-357 -1181h-133l-305 970l-307 -970h-135l-359 1181h160l272 -956l299 958h144l297 -960l276 958h148z" glyph-name="W.aalt" horiz-adv-x="1705"/><glyph d="M905 1272h-123l152 235h207zM1653 1165l-357 -1181h-133l-305 970l-307 -970h-135l-359 1181h160l272 -956l299 958h144l297 -960l276 958h148z" glyph-name="Wacute.aalt" horiz-adv-x="1705"/><glyph d="M741 1294h-155l231 228h86l219 -228h-149l-119 109zM1653 1165l-357 -1181h-133l-305 970l-307 -970h-135l-359 1181h160l272 -956l299 958h144l297 -960l276 958h148z" glyph-name="Wcircumflex.aalt" horiz-adv-x="1705"/><glyph d="M1031 1317q-44 0 -69.5 24.5t-25.5 71.5t26.5 72.5t69.5 25.5t68.5 -25.5t25.5 -72.5t-25.5 -71.5t-69.5 -24.5zM692 1317q-43 0 -68.5 24.5t-25.5 71.5t25.5 72.5t68.5 25.5t69.5 -25.5t26.5 -72.5t-26.5 -71.5t-69.5 -24.5zM1653 1165l-357 -1181h-133l-305 970 l-307 -970h-135l-359 1181h160l272 -956l299 958h144l297 -960l276 958h148z" glyph-name="Wdieresis.aalt" horiz-adv-x="1705"/><glyph d="M827 1272l-241 235h207l153 -235h-119zM1653 1165l-357 -1181h-133l-305 970l-307 -970h-135l-359 1181h160l272 -956l299 958h144l297 -960l276 958h148z" glyph-name="Wgrave.aalt" horiz-adv-x="1705"/><glyph d="M680 596l412 -596h-172l-324 481l-313 -481h-168l401 596l-391 569h174l301 -456l291 456h170z" glyph-name="X.aalt" horiz-adv-x="1196"/><glyph d="M625 0h-148v453l-414 712h162l328 -575l305 575h156l-389 -712v-453z" glyph-name="Y.aalt" horiz-adv-x="1077"/><glyph d="M582 1274h-123l151 235h205zM625 0h-148v453l-414 712h162l328 -575l305 575h156l-389 -712v-453z" glyph-name="Yacute.aalt" horiz-adv-x="1077"/><glyph d="M416 1294h-154l230 228h86l219 -228h-148l-119 109zM625 0h-148v453l-414 712h162l328 -575l305 575h156l-389 -712v-453z" glyph-name="Ycircumflex.aalt" horiz-adv-x="1077"/><glyph d="M707 1317q-43 0 -70 25.5t-27 72.5t27 72.5t70 25.5t68.5 -25.5t25.5 -72.5t-25.5 -72.5t-68.5 -25.5zM368 1317q-44 0 -70 25.5t-26 72.5t26 72.5t70 25.5t69.5 -25.5t25.5 -72.5t-25.5 -72.5t-69.5 -25.5zM625 0h-148v453l-414 712h162l328 -575l305 575h156l-389 -712 v-453z" glyph-name="ydieresis.aalt" horiz-adv-x="1077"/><glyph d="M502 1274l-240 235h207l154 -235h-121zM625 0h-148v453l-414 712h162l328 -575l305 575h156l-389 -712v-453z" glyph-name="Ygrave.aalt" horiz-adv-x="1077"/><glyph d="M956 133v-133h-827v125l621 911h-586v129h758v-125l-621 -907h655z" glyph-name="Z.aalt" horiz-adv-x="1058"/><glyph d="M592 1300h-121l152 236h204zM956 133v-133h-827v125l621 911h-586v129h758v-125l-621 -907h655z" glyph-name="Zacute.aalt" horiz-adv-x="1058"/><glyph d="M494 1319l-224 217h150l119 -121l127 121h141l-211 -217h-102zM956 133v-133h-827v125l621 911h-586v129h758v-125l-621 -907h655z" glyph-name="Zcaron.aalt" horiz-adv-x="1058"/><glyph d="M554 1540q42 0 71.5 -25.5t29.5 -75.5t-29.5 -77t-71.5 -27t-70.5 27t-28.5 77t28.5 75.5t70.5 25.5zM956 133v-133h-827v125l621 911h-586v129h758v-125l-621 -907h655z" glyph-name="Zdotaccent.aalt" horiz-adv-x="1058"/><glyph d="M656.5 1458q111.5 0 209 -45t174 -132t121.5 -234.5t45 -333.5t-45 -329.5t-121.5 -232t-174 -133.5t-266 -45t-329.5 183.5t-161 554.5q0 188 44 335.5t121.5 234.5t174 132t208 45zM656.5 1315q-181.5 0 -286 -157.5t-104.5 -443.5t105.5 -440.5t285.5 -154.5 t286 155.5t106 441.5t-105.5 442.5t-287 156.5z" glyph-name="zero.case" horiz-adv-x="1314"/><glyph d="M971 137v-137h-766v137h307v1125l-342 -164l-64 114l447 228h115v-1303h303z" glyph-name="one.case" horiz-adv-x="1132"/><glyph d="M604 1458q248 0 380 -115.5t132 -304.5q0 -117 -38 -182t-63.5 -101t-82 -93t-133.5 -125q-78 -68 -86 -76l-363 -318h809v-143h-1007v141l405 359q33 29 93.5 80t88 76.5t122.5 116t95 240.5t-95 224t-263 74q-219 0 -387 -127l-76 123q221 151 469 151z" glyph-name="two.case" horiz-adv-x="1302"/><glyph d="M600 1458q231 0 358 -96t127 -230t-72.5 -223.5t-193.5 -130.5v-6q141 -18 236.5 -113.5t95.5 -232.5q0 -199 -161 -326t-415 -127q-299 0 -503 160l84 123q182 -137 395 -137t326.5 88t113.5 221t-107.5 197.5t-328.5 64.5h-145v139h137q164 0 271.5 64.5t107.5 176.5 t-95.5 178.5t-255.5 66.5q-199 0 -372 -135l-84 108q202 170 481 170z" glyph-name="three.case" horiz-adv-x="1259"/><glyph d="M1243 522v-131h-227v-391h-152l-4 391h-737v117l760 926h133v-912h227zM866 1212l-569 -690h565z" glyph-name="four.case" horiz-adv-x="1351"/><glyph d="M1073 1294h-704v-489q129 92 321 92q278 0 381 -145.5t103 -284.5q0 -225 -148 -359.5t-416 -134.5t-426 133l74 117q140 -102 338 -102t309 92.5t111 242.5t-98 227t-264 77t-322 -115l-113 72v723h854v-146z" glyph-name="five.case" horiz-adv-x="1304"/><glyph d="M254 696q199 195 433 195q212 0 319.5 -77t149.5 -163t42 -194q0 -205 -147.5 -343.5t-366.5 -138.5q-283 0 -432.5 177.5t-149.5 543.5q0 199 53.5 350.5t188 281.5t384.5 130q251 0 419 -115l-82 -120q-154 90 -342 90t-326.5 -134.5t-142.5 -482.5zM702 750 q-275 0 -432 -209q8 -199 117 -310.5t282 -111.5t272 93.5t99 237.5t-99 222t-239 78z" glyph-name="six.case" horiz-adv-x="1406"/><glyph d="M61 1294v140h1020v-136l-653 -1298h-172l662 1294h-857z" glyph-name="seven.case" horiz-adv-x="1187"/><glyph d="M635 1458q217 0 346 -100.5t129 -257.5q0 -115 -61.5 -199t-174.5 -125q119 -27 201 -132t82 -245q0 -190 -136 -308t-388 -118t-388 117t-136 307q0 139 82.5 245t203.5 134q-111 41 -173 125t-62 199q0 158 129 258t346 100zM635 1319q-147 0 -233.5 -62.5 t-86.5 -173.5t91.5 -173t229.5 -62t227 61t89 173t-85 174.5t-232 62.5zM635 709q-164 0 -266.5 -83t-102.5 -215t95.5 -212t273.5 -80t271 78.5t93 212.5t-100 216.5t-264 82.5z" glyph-name="eight.case" horiz-adv-x="1265"/><glyph d="M565 1458q281 0 428.5 -170t147.5 -504q0 -431 -178 -620t-457 -189q-215 0 -397 107l63 125q154 -88 349 -88t331.5 147.5t136.5 476.5q-111 -98 -215 -140t-248 -42q-195 0 -324.5 118t-129.5 325t144 330.5t349 123.5zM227 1007q0 -140 82.5 -220t220.5 -80t268 55 t183 137q-8 212 -128 314t-275 102q-156 0 -253.5 -84t-97.5 -224z" glyph-name="nine.case" horiz-adv-x="1247"/><glyph d="M614 1118q215 0 361.5 -153.5t146.5 -413.5t-147.5 -421t-360.5 -161t-359 160t-146 422t145 414.5t360 152.5zM615 987q-151 0 -253 -117.5t-102 -318.5t102.5 -326t251.5 -125t253 126t104 325t-102.5 317.5t-253.5 118.5z" glyph-name="zero.oldstyle" horiz-adv-x="1230"/><glyph d="M852 127v-129h-655v129h258v762l-277 -162l-72 113l390 233h110l-2 -946h248z" glyph-name="one.oldstyle" horiz-adv-x="1013"/><glyph d="M518 1110q182 0 288.5 -95t106.5 -213t-67.5 -212t-261.5 -260l-236 -201h588v-129h-786v115l307 266q157 131 215.5 196.5t73 104.5t14.5 84q0 90 -69.5 152.5t-186.5 62.5q-174 0 -299 -119l-74 101q86 72 171 109.5t216 37.5z" glyph-name="two.oldstyle" horiz-adv-x="1079"/><glyph d="M600 1098q231 0 358 -96.5t127 -229.5t-72.5 -223t-193.5 -131v-6q141 -18 236.5 -113.5t95.5 -232.5q0 -199 -161 -326t-415 -127q-299 0 -503 160l84 123q182 -138 395 -138t326.5 88t113.5 221q0 263 -436 263h-145v139h137q164 0 271.5 64.5t107.5 176.5t-95.5 178 t-255.5 66q-199 0 -372 -135l-84 109q202 170 481 170z" glyph-name="three.oldstyle" horiz-adv-x="1259"/><glyph d="M1243 162v-131h-227v-391h-152l-4 391h-737v116l760 926h133v-911h227zM866 852l-569 -690h565z" glyph-name="four.oldstyle" horiz-adv-x="1351"/><glyph d="M1073 928h-704v-488q129 90 321 90q277 0 380.5 -144t103.5 -286q0 -223 -148 -357t-416 -134t-426 131l74 119q140 -105 338 -105t309 93.5t111 242.5t-98 227t-264 78t-322 -114l-113 69v723h854v-145z" glyph-name="five.oldstyle" horiz-adv-x="1304"/><glyph d="M254 696q199 195 433 195q212 0 319.5 -77t149.5 -163t42 -194q0 -205 -147.5 -343.5t-366.5 -138.5q-283 0 -432.5 177.5t-149.5 543.5q0 199 53.5 350.5t188 281.5t384.5 130q251 0 419 -115l-82 -120q-154 90 -342 90t-326.5 -134.5t-142.5 -482.5zM702 750 q-275 0 -432 -209q8 -199 117 -310.5t282 -111.5t272 93.5t99 237.5t-99 222t-239 78z" glyph-name="six.oldstyle" horiz-adv-x="1259"/><glyph d="M61 928v139h1020v-133l-653 -1301h-172l662 1295h-857z" glyph-name="seven.oldstyle" horiz-adv-x="1187"/><glyph d="M635 1464q217 0 346 -99t129 -259q0 -115 -61.5 -199t-174.5 -125q119 -27 201 -132t82 -242q0 -193 -136 -309.5t-388 -116.5t-388 115.5t-136 308.5q0 139 82.5 243.5t203.5 134.5q-111 39 -173 123t-62 199q0 158 129 258t346 100zM635 1327q-147 0 -233.5 -63.5 t-86.5 -173.5t91.5 -173t229.5 -63t227 62.5t89 173.5t-85 174t-232 63zM635 715q-164 0 -266.5 -83t-102.5 -215t95.5 -212t273.5 -80t271 80t93 213t-100 215t-264 82z" glyph-name="eight.oldstyle" horiz-adv-x="1265"/><glyph d="M565 1092q281 0 428.5 -169t147.5 -505q0 -217 -49.5 -377t-179.5 -296t-406 -136q-215 0 -397 106l63 127q154 -90 347 -90t331.5 147t138.5 478q-111 -98 -215 -140t-248 -42q-195 0 -324.5 117.5t-129.5 325.5t144 331t349 123zM227 640q0 -140 82.5 -219t220.5 -79 t268 54.5t183 138.5q-4 104 -40 187t-122.5 154.5t-241.5 71.5t-252.5 -84t-97.5 -224z" glyph-name="nine.oldstyle" horiz-adv-x="1245"/><glyph d="M411 528q151 0 246 -107.5t95 -318.5t-95.5 -319.5t-244.5 -108.5q-150 0 -243 108.5t-93 320.5t92 318.5t243 106.5zM412 408q-190 0 -190 -306t190 -307q197 1 197 307t-197 306z" glyph-name="zero.sinf" horiz-adv-x="825"/><glyph d="M500 -184h174v-117h-481v117h174v540l-162 -73l-51 102l256 127h90v-696z" glyph-name="one.sinf" horiz-adv-x="825"/><glyph d="M386 528q144 0 223 -67.5t79 -171.5q0 -178 -235 -361l-142 -110h400v-119h-580v106l236 191q176 143 176 278q0 61 -43 96.5t-113 35.5q-113 0 -207 -78l-67 98q129 102 273 102z" glyph-name="two.sinf" horiz-adv-x="825"/><glyph d="M729 -66q0 -115 -93 -188.5t-251 -73.5t-287 99l68 104q106 -80 214 -80t156 40.5t48 104.5t-45 96t-150 32h-80v114h64q82 0 130 30t48 87q0 109 -152 109q-111 0 -206 -84l-68 90q119 114 269 114t225 -59t75 -133t-41.5 -127.5t-111.5 -71.5q86 -14 137 -66.5 t51 -136.5z" glyph-name="three.sinf" horiz-adv-x="825"/><glyph d="M608 20h125v-110h-125v-211h-129v211h-387v108l410 496h106v-494zM479 20v297l-241 -297h241z" glyph-name="four.sinf" horiz-adv-x="825"/><glyph d="M653 393h-366v-198q55 39 141 38q121 0 202 -72.5t81 -195.5t-93.5 -202.5t-241.5 -79.5t-253 81l55 99q92 -61 190 -61t147.5 46t49.5 118t-47 113.5t-133 41.5t-143 -58l-86 39v410h497v-119z" glyph-name="five.sinf" horiz-adv-x="825"/><glyph d="M471 528q131 0 242 -77l-60 -103q-82 62 -187 62t-166.5 -69t-61.5 -226q90 90 233 90q104 0 183 -66.5t79 -188.5t-84 -200t-211 -78q-168 0 -256 102.5t-88 307.5q0 339 149.5 392.5t227.5 53.5zM448 88q-62 0 -120 -29.5t-84 -68.5q4 -94 54 -146.5t129 -52.5t123 42 t44 108t-42 106.5t-104 40.5z" glyph-name="six.sinf" horiz-adv-x="825"/><glyph d="M119 377v123h588v-99l-357 -702h-145l342 678h-428z" glyph-name="seven.sinf" horiz-adv-x="825"/><glyph d="M733 -82q0 -100 -90 -173t-230 -73t-231.5 73t-91.5 173q0 154 164 213q-127 49 -127 178q0 96 80 157.5t207 61.5t206.5 -61t79.5 -158q0 -131 -127 -178q160 -57 160 -213zM413.5 412q-65.5 0 -109.5 -31t-44 -86t42 -83t111.5 -28t111.5 28t42 83t-44 86t-109.5 31z M414 -209q86 0 131 38t45 101t-48 102.5t-128 39.5t-129 -39t-49 -103q0 -63 46 -101t132 -38z" glyph-name="eight.sinf" horiz-adv-x="823"/><glyph d="M391 528q170 0 257 -104.5t87 -304.5q0 -245 -113 -346t-262 -101t-243 78l57 98q82 -55 181 -55t168 67.5t69 223.5q-106 -92 -224 -92t-197 68.5t-79 192.5t88 199.5t211 75.5zM402 406q-77 0 -123 -40t-46 -110t38.5 -108.5t102.5 -38.5t125.5 24.5t88.5 61.5 q-4 102 -56.5 156.5t-129.5 54.5z" glyph-name="nine.sinf" horiz-adv-x="825"/><glyph d="M411 1720q151 0 246 -106.5t95 -318.5t-95.5 -320.5t-244.5 -108.5q-150 0 -243 108.5t-93 320.5t92 318.5t243 106.5zM412 1599q-190 0 -190 -306t190 -306q197 0 197 306t-197 306z" glyph-name="zero.superior" horiz-adv-x="825"/><glyph d="M500 1008h174v-117h-481v117h174v540l-162 -73l-51 102l256 127h90v-696z" glyph-name="one.superior" horiz-adv-x="825"/><glyph d="M386 1720q144 0 223 -67.5t79 -171.5q0 -178 -235 -361l-142 -110h400v-119h-580v106l236 191q176 143 176 278q0 61 -43 96t-113 35q-113 0 -207 -75l-67 96q129 102 273 102z" glyph-name="two.superior" horiz-adv-x="825"/><glyph d="M725 1126q0 -115 -92 -188.5t-251 -73.5t-286 99l68 104q104 -80 212 -80t157 40.5t49 104.5q0 130 -195 130h-80v112h64q82 0 130 31t48 86q0 109 -152 108q-111 0 -207 -83l-67 90q119 114 268 114t225 -59t76 -148q0 -61 -41.5 -113.5t-111.5 -70.5q86 -14 136 -66.5 t50 -136.5z" glyph-name="three.superior" horiz-adv-x="825"/><glyph d="M608 1212h125v-110h-125v-211h-129v211h-387v108l410 496h106v-494zM477 1212v297l-239 -297h239z" glyph-name="four.superior" horiz-adv-x="825"/><glyph d="M653 1585h-366v-199q55 39 159 39t184.5 -71.5t80.5 -195.5t-93.5 -204t-241.5 -80t-253 82l55 99q92 -61 190 -61t147.5 45.5t49.5 118.5t-47 114t-133 41t-143 -58l-86 41v408h497v-119z" glyph-name="five.superior" horiz-adv-x="825"/><glyph d="M471 1397q104 0 183 -66.5t79 -188.5t-84 -200t-211 -78q-168 0 -256 102.5t-88 328.5t110 325.5t254 99.5t255 -78l-60 -102q-82 62 -187 62t-166.5 -69t-61.5 -226q90 90 233 90zM448 1280q-62 0 -120 -29.5t-84 -68.5q4 -94 54 -146.5t129 -52.5t123 43t44 108 t-42 105.5t-104 40.5z" glyph-name="six.superior" horiz-adv-x="825"/><glyph d="M119 1569v123l588 2v-101l-357 -702h-145l342 678h-428z" glyph-name="seven.superior" horiz-adv-x="825"/><glyph d="M733 1110q0 -100 -90 -173t-230 -73t-231.5 73t-91.5 173q0 156 164 213q-127 49 -127 178q0 98 80 158.5t207 60.5t206.5 -61.5t79.5 -157.5q0 -131 -127 -178q160 -57 160 -213zM413.5 1376q153.5 0 153.5 115q0 51 -44 82t-109.5 31t-109.5 -31t-44 -82 q0 -115 153.5 -115zM414 983q86 0 131 38t45 101t-48 102.5t-128 39.5t-129 -39t-49 -103t46 -101.5t132 -37.5z" glyph-name="eight.superior" horiz-adv-x="823"/><glyph d="M389 1720q168 0 255 -103.5t87 -327.5t-113 -324.5t-262 -100.5t-243 78l57 98q82 -53 181 -53t168 67.5t69 221.5q-106 -92 -224 -92t-197 68.5t-79 193.5t88 199.5t213 74.5zM398 1597q-77 0 -122 -39.5t-45 -109.5t37.5 -107.5t101.5 -37.5t125.5 23.5t88.5 59.5 q-4 102 -56.5 156.5t-129.5 54.5z" glyph-name="nine.superior" horiz-adv-x="825"/><glyph d="M665.5 1460q110.5 0 206 -45t172 -133t120.5 -234.5t44 -333.5t-44 -331.5t-119.5 -232t-172 -132.5t-207 -45t-207 45t-172 132.5t-119.5 231.5t-44 332t44 334t121 234t172 133t205.5 45zM665.5 1317q-178.5 0 -281.5 -158.5t-103 -444.5t103 -441.5t282 -155.5 q178 0 281.5 156.5t103.5 442.5t-103.5 443.5t-282 157.5z" glyph-name="zero.tnum" horiz-adv-x="1331"/><glyph d="M1133 137v-137h-768v137h309v1125l-342 -164l-64 114l447 228h114v-1303h304z" glyph-name="one.tnum" horiz-adv-x="1331"/><glyph d="M625 1458q248 0 380 -115.5t132 -304.5q0 -116 -39 -181.5t-72.5 -114.5t-267.5 -261q-16 -12 -25 -20l-362 -318h809v-143h-1008v141l406 359q33 29 93 80t87.5 76.5t123 116.5t95.5 241q0 149 -96.5 223t-262.5 74q-219 0 -387 -127l-75 123q221 151 469 151z" glyph-name="two.tnum" horiz-adv-x="1331"/><glyph d="M649 1458q231 0 358.5 -96t127.5 -230t-73 -223.5t-194 -130.5v-6q141 -18 237.5 -113.5t96.5 -232.5q0 -199 -161.5 -326t-415.5 -127q-299 0 -504 160l84 123q182 -137 395 -137t326.5 88t113.5 221t-106.5 197.5t-329.5 64.5h-145v139h137q164 0 271.5 64.5 t107.5 176.5t-95.5 178.5t-254.5 66.5q-199 0 -373 -135l-84 108q202 170 481 170z" glyph-name="three.tnum" horiz-adv-x="1331"/><glyph d="M1227 522v-131h-226v-391h-151l-4 391h-737v117l759 926h133v-912h226zM850 1212l-569 -690h567z" glyph-name="four.tnum" horiz-adv-x="1331"/><glyph d="M1075 1294h-704v-489q129 92 321 92q278 0 381 -145.5t103 -284.5q0 -225 -148 -359.5t-416 -134.5t-426 133l72 117q142 -102 340 -102t309 92.5t111 242.5t-98 227t-264 77t-322 -115l-113 72v723h854v-146z" glyph-name="five.tnum" horiz-adv-x="1331"/><glyph d="M274 696q200 195 434 195q211 0 319 -77t150 -163t42 -194q0 -205 -147.5 -343.5t-366.5 -138.5q-283 0 -432.5 177.5t-149.5 543.5q0 199 53 350.5t188 281.5t385 130t418 -115l-82 -120q-154 90 -341 90t-326.5 -134t-143.5 -483zM724 750q-275 0 -433 -209 q8 -199 116.5 -310.5t281.5 -111.5t272.5 93.5t99.5 237.5t-98.5 222t-238.5 78z" glyph-name="six.tnum" horiz-adv-x="1331"/><glyph d="M156 1294v140h1024v-142l-658 -1292h-174l670 1294h-862z" glyph-name="seven.tnum" horiz-adv-x="1331"/><glyph d="M669 1458q216 0 345 -100.5t129 -257.5q0 -115 -61.5 -199t-172.5 -125q117 -27 200 -132t83 -245q0 -190 -137 -308t-389 -118t-388.5 117t-136.5 307q0 139 83 245t206 134q-113 41 -175 125t-62 199q0 158 130 258t346 100zM670 1319q-148 0 -234 -62.5t-86 -173.5 t90 -173t230 -62t228.5 61t88.5 173t-84.5 174.5t-232.5 62.5zM669 709q-163 0 -266.5 -83t-103.5 -215t95.5 -212t273.5 -80t271 78.5t93 212.5t-100 216.5t-263 82.5z" glyph-name="eight.tnum" horiz-adv-x="1331"/><glyph d="M625 1458q281 0 428 -170t147 -504q0 -618 -249 -713.5t-386 -95.5q-213 0 -397 107l65 125q152 -88 348 -88t332 147.5t136 476.5q-111 -98 -214.5 -140t-248.5 -42q-195 0 -325 118t-130 325t144.5 330.5t349.5 123.5zM287 1007q0 -140 83 -220t220 -80t267 55t183 137 q-8 213 -126.5 314.5t-275.5 101.5t-254 -84t-97 -224z" glyph-name="nine.tnum" horiz-adv-x="1331"/><glyph d="M666 1118q238 0 398.5 -152.5t160.5 -414.5t-161.5 -422t-397.5 -160t-396.5 160t-160.5 422t159.5 414.5t397.5 152.5zM667 981q-169 0 -283 -115.5t-114 -314.5t115 -322t282 -123t281.5 124t114.5 321t-113.5 313.5t-282.5 116.5z" glyph-name="zero.tnum.oldstyle" horiz-adv-x="1331"/><glyph d="M1038 127v-129h-653v129h256v762l-276 -162l-70 113l387 233h111l-2 -946h247z" glyph-name="one.tnum.oldstyle" horiz-adv-x="1331"/><glyph d="M649 1110q197 0 311.5 -95t114.5 -217t-75.5 -216.5t-284.5 -251.5l-254 -193h637v-137h-848v131l338 256q109 78 185.5 147.5t107 115.5t30.5 124t-74.5 138.5t-201.5 60.5q-193 0 -324 -117l-78 109q94 72 184.5 108.5t231.5 36.5z" glyph-name="two.tnum.oldstyle" horiz-adv-x="1331"/><glyph d="M655 1098q229 0 357.5 -96.5t128.5 -229.5t-74 -223t-195 -131v-6q143 -18 238.5 -113.5t95.5 -232.5q0 -199 -161.5 -326t-413.5 -127q-299 0 -504 160l82 123q184 -138 397 -138t325.5 88t112.5 221t-106.5 198t-327.5 65h-145v139h135q166 0 273.5 64.5t107.5 176.5 t-95 178t-255 66q-199 0 -375 -135l-82 109q200 170 481 170z" glyph-name="three.tnum.oldstyle" horiz-adv-x="1331"/><glyph d="M1225 162v-131h-226v-391h-151l-4 391h-738v116l760 926h133v-911h226zM850 852l-569 -690h565z" glyph-name="four.tnum.oldstyle" horiz-adv-x="1331"/><glyph d="M1079 928h-704v-488q131 90 323 90q277 0 380.5 -144t103.5 -286q0 -223 -148.5 -357t-416.5 -134t-427 131l74 119q141 -105 339 -105t308.5 93.5t110.5 242.5t-97 227t-263 78t-322 -114l-115 69v723h854v-145z" glyph-name="five.tnum.oldstyle" horiz-adv-x="1331"/><glyph d="M268 696q200 195 434 195q212 0 319 -77t150 -163t43 -194q0 -205 -148 -343.5t-368 -138.5q-281 0 -431 177.5t-150 543.5q0 199 53 350.5t187.5 281.5t384.5 130q251 0 421 -115l-84 -120q-154 90 -342 90t-326.5 -134.5t-142.5 -482.5zM716 750q-272 0 -431 -209 q10 -199 117.5 -310.5t280.5 -111.5t272.5 93.5t99.5 237.5t-99.5 222t-239.5 78z" glyph-name="six.tnum.oldstyle" horiz-adv-x="1331"/><glyph d="M158 928v139h1018v-133l-654 -1301h-170l662 1295h-856z" glyph-name="seven.tnum.oldstyle" horiz-adv-x="1331"/><glyph d="M669 1464q216 0 345 -99t129 -259q0 -115 -61.5 -199t-172.5 -125q117 -27 200 -132t83 -242q0 -193 -137 -309.5t-389 -116.5t-388.5 115.5t-136.5 308.5q0 139 83 243.5t206 134.5q-113 39 -175 123t-62 199q0 158 130 258t346 100zM670 1327q-148 0 -234 -63.5 t-86 -173.5t90 -173t230 -63t228.5 62.5t88.5 173.5t-84.5 174t-232.5 63zM669 715q-163 0 -266.5 -83t-103.5 -215t95.5 -212t273.5 -80t271 80t93 213t-100 215t-263 82z" glyph-name="eight.tnum.oldstyle" horiz-adv-x="1331"/><glyph d="M627 1092q281 0 428 -169t147 -505q0 -613 -248.5 -711t-386.5 -98q-215 0 -399 106l65 127q154 -90 347 -90t332 147t139 478q-111 -98 -215.5 -140t-249.5 -42q-193 0 -324 117.5t-131 325.5t145.5 331t350.5 123zM289 640q0 -140 83 -219t220 -79t266 54.5t184 138.5 q-4 104 -39.5 187t-123 154.5t-241.5 71.5q-155 0 -252 -84t-97 -224z" glyph-name="nine.tnum.oldstyle" horiz-adv-x="1331"/><glyph d="M411 823q151 0 246 -106.5t95 -318.5t-95.5 -320.5t-244.5 -108.5q-150 0 -243 108.5t-93 320.5t92 318.5t243 106.5zM412 705q-190 0 -191 -308q0 -307 191 -307q197 0 196 307q1 308 -196 308z" glyph-name="zero.dnom" horiz-adv-x="825"/><glyph d="M500 113h174v-119h-481v119h174v538l-162 -73l-51 102l256 127h90v-694z" glyph-name="one.dnom" horiz-adv-x="825"/><glyph d="M386 823q144 0 223 -67.5t79 -171.5q0 -178 -235 -361l-142 -108h400v-121h-580v106l236 191q176 143 176 278q0 61 -43 97t-113 36q-113 0 -207 -77l-67 96q129 102 273 102z" glyph-name="two.dnom" horiz-adv-x="825"/><glyph d="M725 216q0 -100 -92 -173.5t-251 -73.5t-286 99l68 102q104 -78 212 -78t157 39t49 103q0 130 -195 131h-80v112h64q82 0 130 31t48 88q0 106 -152 106q-111 0 -207 -84l-67 93q119 113 268 113t225 -59.5t76 -134.5t-41.5 -126.5t-111.5 -71.5q186 -30 186 -216z" glyph-name="three.dnom" horiz-adv-x="825"/><glyph d="M608 319h125v-110h-125v-211h-129v211h-387v108l410 496h106v-494zM477 319v297l-239 -297h239z" glyph-name="four.dnom" horiz-adv-x="825"/><glyph d="M653 688h-366v-196q55 37 141 36q121 0 202 -71.5t81 -194.5t-93.5 -204t-241.5 -81t-253 82l55 99q92 -60 190 -60t147.5 46t49.5 118t-47 113t-133 41t-143 -58l-86 41v408h497v-119z" glyph-name="five.dnom" horiz-adv-x="825"/><glyph d="M471 823q131 0 242 -78l-60 -100q-82 59 -187 59t-166.5 -68.5t-61.5 -225.5q90 92 233 92q104 0 183 -67.5t79 -189.5t-84 -199t-211 -77q-168 0 -256 101.5t-88 306.5q0 343 149.5 394.5t227.5 51.5zM448 383q-62 0 -120 -29.5t-84 -68.5q4 -94 54 -146.5t129 -52.5 t123 43t44 107t-42 105.5t-104 41.5z" glyph-name="six.dnom" horiz-adv-x="825"/><glyph d="M119 674v123h588v-101l-357 -702h-145l342 680h-428z" glyph-name="seven.dnom" horiz-adv-x="825"/><glyph d="M733 213q0 -98 -90 -171t-230 -73t-231.5 72t-91.5 172q0 156 164 213q-127 49 -127 178q0 98 80 159.5t207 61.5t206.5 -61.5t79.5 -159.5q0 -131 -127 -178q160 -55 160 -213zM413.5 479q153.5 0 153.5 115q0 51 -44 83t-109.5 32t-109.5 -32t-44 -83 q0 -115 153.5 -115zM414 86q86 0 131 39t45 101t-48 101.5t-128 39.5t-129 -39.5t-49 -101.5t46 -101t132 -39z" glyph-name="eight.dnom" horiz-adv-x="823"/><glyph d="M389 823q168 0 255 -103.5t87 -303.5q0 -340 -151.5 -393.5t-225.5 -53.5q-147 0 -241 76l57 100q82 -55 181 -55t168 67.5t69 221.5q-106 -92 -224 -92t-197 69.5t-79 193.5t88 198.5t213 74.5zM398 700q-77 0 -122 -38.5t-45 -109.5t37.5 -108.5t101.5 -37.5 t125.5 23.5t88.5 62.5q-4 100 -56.5 154t-129.5 54z" glyph-name="nine.dnom" horiz-adv-x="825"/><glyph d="M413 1438q151 0 245 -107.5t94 -318.5t-95.5 -319.5t-244.5 -108.5q-150 0 -243 107.5t-93 319.5t93 319.5t244 107.5zM412 1317q-190 0 -190 -306t190 -306q197 0 197 306t-197 306z" glyph-name="zero.numr" horiz-adv-x="825"/><glyph d="M500 725h174v-117h-481v117h174v541l-162 -74l-51 102l256 127h90v-696z" glyph-name="one.numr" horiz-adv-x="825"/><glyph d="M386 1438q144 0 223 -69t79 -171q0 -178 -235 -360l-142 -111h400v-119h-580v107l236 190q176 143 176 279q0 61 -43 96t-113 35q-113 0 -207 -78l-67 98q129 103 273 103z" glyph-name="two.numr" horiz-adv-x="825"/><glyph d="M725 844q0 -115 -92 -188.5t-251 -73.5t-286 98l68 104q104 -80 212 -80t157 40t49 105t-46.5 96.5t-148.5 31.5h-80v115h64q82 0 130 29.5t48 86.5q0 109 -152 109q-111 0 -207 -84l-67 90q119 115 268 115t225 -60t76 -134t-41.5 -126.5t-111.5 -70.5q86 -14 136 -66.5 t50 -136.5z" glyph-name="three.numr" horiz-adv-x="825"/><glyph d="M608 928h125v-111h-125v-209h-129v209h-387v111l410 495h106v-495zM477 928v297l-239 -297h239z" glyph-name="four.numr" horiz-adv-x="825"/><glyph d="M653 1300h-366v-196q55 39 159 39t184.5 -73.5t80.5 -195.5t-93.5 -202t-241.5 -80t-253 82l55 98q92 -61 190 -61t147.5 46t49.5 119t-47 112.5t-133 39.5t-143 -55l-86 39v409h497v-121z" glyph-name="five.numr" horiz-adv-x="825"/><glyph d="M471 1438q131 0 242 -78l-60 -103q-82 61 -187 61t-166.5 -68t-61.5 -226q90 90 233 90q104 0 183 -66.5t79 -188.5t-84 -199.5t-211 -77.5q-168 0 -256 102t-88 307q0 340 149.5 393.5t227.5 53.5zM448 995q-62 0 -120 -29.5t-84 -68.5q4 -92 54 -144.5t129 -52.5 t123 42t44 108t-42 105.5t-104 39.5z" glyph-name="six.numr" horiz-adv-x="825"/><glyph d="M119 1286v123h588v-100l-357 -701h-145l342 678h-428z" glyph-name="seven.numr" horiz-adv-x="825"/><glyph d="M733 827q0 -100 -90 -172.5t-230 -72.5t-231.5 72.5t-91.5 172.5q0 154 164 213q-127 49 -127 179q0 96 80 157.5t207 61.5t206.5 -61.5t79.5 -157.5q0 -132 -127 -179q160 -57 160 -213zM413.5 1094q153.5 0 153.5 112q0 53 -44 84t-109.5 31t-109.5 -30.5t-44 -84.5 q0 -112 153.5 -112zM414 700q86 0 131 38t45 102q0 63 -48 102t-128 39t-129 -39t-49 -102t46 -101.5t132 -38.5z" glyph-name="eight.numr" horiz-adv-x="823"/><glyph d="M389 1438q168 0 255 -104.5t87 -305.5q0 -339 -151.5 -392.5t-225.5 -53.5q-147 0 -241 77l57 99q82 -56 181 -56t168 68t69 223q-106 -92 -224 -92t-197 68.5t-79 192.5t88 200t213 76zM398 1315q-77 0 -122 -40t-45 -110t37.5 -108.5t101.5 -38.5t125.5 24.5t88.5 61.5 q-4 102 -56.5 156.5t-129.5 54.5z" glyph-name="nine.numr" horiz-adv-x="825"/><glyph d="M619 1180q103 0 193.5 -36t162.5 -106.5t112.5 -189t40.5 -268.5t-42 -268.5t-148 -228.5t-318 -110t-319.5 110t-148.5 228.5t-41 269.5t41 268.5t112.5 188t161.5 106.5t193 36zM620 1034q-160 0 -252 -118.5t-92 -335.5t91.5 -336t252 -119t252 120t91.5 336 t-91.5 334.5t-251.5 118.5z" glyph-name="zero.sc" horiz-adv-x="1239"/><glyph d="M834 137v-137h-637v137h241v848l-256 -123l-61 113l354 190h119v-1028h240z" glyph-name="one.sc" horiz-adv-x="985"/><glyph d="M504 1182q196 0 303.5 -95.5t107.5 -237.5t-74 -235t-220 -229l-263 -240h592v-145h-792v137l315 285q18 18 67.5 62t63.5 58.5t48 49.5t45.5 54.5t33 59t21.5 109.5q0 104 -72 158.5t-210 54.5t-263 -92l-74 119q175 127 371 127z" glyph-name="two.sc" horiz-adv-x="1097"/><glyph d="M472 1182q206 0 304 -80t98 -186t-54 -181.5t-144 -109.5v-4q106 -14 177 -91t71 -184q0 -162 -126 -266.5t-323 -104.5q-121 0 -226.5 37t-176.5 101l73 116q139 -106 297 -106t238 65.5t80 163.5t-75 144.5t-230 46.5h-129v131h116q121 0 196 48t75 133t-66.5 132 t-177.5 47q-156 0 -287 -102l-78 110q162 140 368 140z" glyph-name="three.sc" horiz-adv-x="1034"/><glyph d="M1014 430v-127h-172v-303h-152l-6 303h-559v113l586 741h131v-727h172zM692 946l-403 -516h399z" glyph-name="four.sc" horiz-adv-x="1124"/><glyph d="M901 1014h-539v-357q98 70 249 70t257.5 -90t106.5 -264t-118.5 -286t-328.5 -112t-344 107l64 125q119 -84 262 -84t223 69.5t80 181.5t-68.5 169t-188.5 57t-237 -92l-108 65v592h690v-151z" glyph-name="five.sc" horiz-adv-x="1105"/><glyph d="M317 578q147 147 337 147q218 0 299 -118t81 -232q0 -168 -116.5 -284t-292.5 -116q-221 0 -342 146.5t-121 443.5q0 160 40 281t142.5 226.5t302.5 105.5q199 0 352 -99l-79 -121q-117 76 -260 76t-243 -102t-100 -354zM634 590q-190 0 -304 -156q8 -143 85 -228 t197 -85t189 70.5t69 177.5q0 106 -69 163.5t-167 57.5z" glyph-name="six.sc" horiz-adv-x="1187"/><glyph d="M63 1014v143h801v-129l-485 -1028h-168l483 1014h-631z" glyph-name="seven.sc" horiz-adv-x="974"/><glyph d="M528 1178q172 0 279.5 -82t107.5 -213q0 -92 -48 -161t-130 -95q90 -29 151.5 -113t61.5 -190q0 -154 -112.5 -252.5t-309.5 -98.5t-308 97.5t-111 253.5q0 109 62 191.5t153 107.5q-80 31 -130.5 100.5t-50.5 159.5q0 131 106.5 213t278.5 82zM531 1034 q-103 0 -164.5 -45t-61.5 -125t63.5 -128t160.5 -48t161 48t64 129t-60 125t-163 44zM529 559q-114 0 -188.5 -62.5t-74.5 -158.5t70 -157.5t194 -61.5t188 60.5t64 158.5t-69.5 159.5t-183.5 61.5z" glyph-name="eight.sc" horiz-adv-x="1058"/><glyph d="M467 1182q225 0 345 -141.5t120 -422.5q0 -482 -200 -562.5t-329 -80.5t-299 88l56 125q128 -70 274 -70t243 114t99 350q-76 -74 -153.5 -108t-186.5 -34q-152 0 -258 94.5t-106 267.5t114.5 276.5t280.5 103.5zM484 1034q-110 0 -183.5 -63.5t-73.5 -165.5t61.5 -160.5 t161.5 -58.5t189.5 40t128.5 101q-8 154 -91 230.5t-193 76.5z" glyph-name="nine.sc" horiz-adv-x="1038"/><glyph d="M397 1823l84 -64q-197 -205 -197 -457t193 -454l-80 -74q-240 211 -239 531q0 160 58 284.5t181 233.5z" glyph-name="glyph602" horiz-adv-x="612"/><glyph d="M463 1305q0 -319 -242 -531l-78 74q193 202 193 454t-199 457l84 64q125 -109 183.5 -234t58.5 -284z" glyph-name="glyph603" horiz-adv-x="612"/><glyph d="M590 1305h-488v106h488v-106z" glyph-name="glyph604" horiz-adv-x="729"/><glyph d="M385 371h-125l-27 790h179zM323 219q44 0 75.5 -29.5t31.5 -83.5t-31.5 -84t-75.5 -30t-76 29.5t-32 83.5t32 84t76 30z" glyph-name="exclam.aalt" horiz-adv-x="643"/><glyph d="M317 887q-45 0 -76.5 28.5t-31.5 83.5t32.5 84t76.5 29t76 -28.5t32 -84.5q0 -55 -32 -83.5t-77 -28.5zM256 733h125l27 -790h-179z" glyph-name="exclamdown.aalt" horiz-adv-x="638"/><glyph d="M303 557q0 -449 293 -702l-53 -72q-4 4 -13 8q-371 268 -370 766q0 305 86 436t131.5 188.5t163.5 133.5l53 -72q-35 -33 -55.5 -51t-71.5 -84t-81 -133.5t-56.5 -180t-26.5 -237.5z" glyph-name="parenleft.aalt" horiz-adv-x="759"/><glyph d="M590 557q0 -498 -371 -766q-8 -4 -10 -8l-55 72q295 254 295 702q0 125 -27 237.5t-57.5 180t-82 133.5t-70.5 84t-56 51l53 72q119 -77 198 -175t131 -241t52 -342z" glyph-name="parenright.aalt" horiz-adv-x="753"/><glyph d="M410 1192q168 0 251.5 -70.5t83.5 -187.5t-69.5 -193.5t-140 -147t-70.5 -149.5v-49h-137v35q0 115 65.5 187.5t131 138t65.5 147.5q0 156 -187 156q-125 0 -229 -74l-72 105q140 102 308 102zM394 217q44 0 76 -28.5t32 -84.5q0 -55 -32 -83.5t-76 -28.5t-75.5 28.5 t-31.5 83.5t31.5 84t75.5 29z" glyph-name="question.aalt" horiz-adv-x="876"/><glyph d="M465 1130q45 0 76.5 -28.5t31.5 -81.5t-31.5 -82t-76.5 -29t-77 29t-32 82t32 81.5t77 28.5zM532 750v-35q0 -112 -64.5 -178t-129 -129.5t-64.5 -159.5q0 -49 44 -85t122 -36q141 0 238 74l78 -103q-141 -104 -332 -104q-145 0 -226 69.5t-81 179.5t68.5 181.5 t137 137.5t68.5 143v45h141z" glyph-name="questiondown.aalt" horiz-adv-x="919"/><glyph d="M133 474q0 192 98.5 305.5t266.5 133.5l-6 174h129l-9 -172q145 -10 248 -100l-59 -106q-57 43 -109.5 63.5t-130.5 20.5q-127 0 -204.5 -83t-77.5 -242t81.5 -249t212.5 -90t244 94l62 -100q-113 -106 -281 -119l6 -172h-121l6 178q-152 27 -254 149.5t-102 314.5z" glyph-name="cent.oldstyle" horiz-adv-x="1062"/><glyph d="M864 306q0 -126 -81 -215t-222 -109l6 -168h-127l6 161q-188 10 -327 109l49 115q140 -90 284 -90q268 0 267 196q0 80 -60.5 127.5t-170.5 93.5t-158.5 71.5t-120.5 85t-72 191.5t78 214.5t211 99.5l-4 170h123l-4 -168q160 -12 293 -107l-60 -108q-133 94 -278 94 q-98 0 -156.5 -49t-58.5 -126t41 -119t102.5 -70.5t105.5 -46.5q197 -84 265.5 -155t68.5 -197z" glyph-name="dollar.aalt" horiz-adv-x="1021"/><glyph d="M999 1511q309 0 501 -175t192 -488q0 -227 -111 -373.5t-280 -146.5t-230 110q-104 -106 -264 -106q-117 0 -199 86t-82 270t124 298t325 114q139 0 264 -49l-61 -422q-14 -92 19.5 -136t94.5 -44q119 0 189.5 105t70.5 294q0 266 -157.5 403.5t-427.5 137.5 q-203 0 -364 -82t-257 -250t-96 -395q0 -467 240 -540t344 -73q211 0 385 53l36 -112q-82 -29 -187 -46.5t-183 -17.5q-776 0 -776 754q0 248 115.5 437.5t317 291.5t457.5 102zM950 983q-129 0 -205.5 -85t-76.5 -210t49 -181t129 -56q119 0 196 104q1 28 5 63l47 345 q-90 20 -144 20z" glyph-name="glyph613" horiz-adv-x="1800"/><glyph d="M911 934q0 -252 -117.5 -252t-117.5 252v74l-268 86l30 116l473 -151v-125zM1372 934q0 -252 -118.5 -252t-118.5 252v125l475 151l30 -116l-268 -86v-74zM1024 496q223 0 392 -119t210 -297h-127q-57 104 -186 171.5t-289 67.5t-289 -67.5t-186 -171.5h-127 q41 178 210 297t392 119z" glyph-name="u1F620.aalt"/><glyph d="M911 989q0 -256 -119.5 -256t-119.5 256v15l-240 -119l-31 114l510 254v-264zM1376 989q0 -256 -119.5 -256t-119.5 256v264l510 -254l-29 -114l-242 119v-15zM1025 678q275 0 439 -182.5t166 -470.5q-66 49 -242 78.5t-364 29.5q-369 0 -606 -108q2 289 167 471t440 182 zM1025 528q-165 0 -288 -77.5t-168 -231.5q187 53 455 53t455 -53q-43 154 -166 231.5t-288 77.5z" glyph-name="u1F627.aalt"/><glyph d="M918 1233l53 -150l-479 -174l-54 150zM1565 909l-480 174l54 150l479 -174zM1389 434q-74 0 -116 -56t-87 -113.5t-162 -57.5q-115 0 -160 57.5t-87 113.5t-115 56q-147 0 -207 -172l-111 33q27 102 98.5 198.5t212.5 96.5q115 -4 160 -56.5t69.5 -83t59.5 -51t80 -20.5 t80 22.5t59.5 54t70 85t159.5 49.5q182 0 240.5 -122t72.5 -173l-113 -33q-59 172 -204 172z" glyph-name="u1F616.aalt"/><glyph d="M653.5 1198q108.5 0 108.5 -229t-108.5 -229.5t-108.5 229.5q0 229 108.5 229zM1255 1059v-96q0 -164 -130 -164t-130 164v96h260zM592 102l-62 170q328 348 926 336l62 -170q-598 12 -926 -336z" glyph-name="u1F615.aalt"/><glyph d="M743 877q-98 0 -157.5 90t-67.5 260h125q15 -211 78 -211t85.5 51t31.5 160h125q-8 -170 -64.5 -260t-155.5 -90zM1319 475q-82 0 -138.5 55.5t-56.5 118.5t47.5 139.5t69.5 98.5q-143 55 -156 340h123q10 -109 33 -160t66 -51t65.5 51t30.5 160h125q-10 -260 -137 -330 q14 -20 40.5 -58t54 -76t27.5 -108t-56 -125t-138 -55zM1320 575q42 0 68.5 29t26.5 66t-40 96t-56 92q-14 -33 -54 -92t-40 -96t26.5 -66t68.5 -29zM1023 444q218 0 384 -105.5t207 -264.5h-156q-37 84 -157.5 138t-277.5 54t-277.5 -54t-157.5 -138h-154q39 160 205 265 t384 105z" glyph-name="u1F622.aalt"/><glyph d="M952 1100l-409 -219l-68 116l406 222zM1565 997l-68 -116l-410 219l72 119zM1911 660q0 -62 -54.5 -115t-133 -53t-133 53t-54.5 115t39 121t84 126t55 137h19q10 -70 55 -137t84 -126t39 -121zM1632 679q0 -36 25.5 -63.5t65.5 -27.5t66 26.5t26 63.5t-38.5 93t-52.5 89 q-16 -35 -54 -90t-38 -91zM1024 598q223 0 392 -119t210 -297h-127q-57 104 -186 172t-289 68t-289 -67.5t-186 -172.5h-127q41 178 210 297t392 119z" glyph-name="u1F625.aalt"/><glyph d="M866 973q0 -244 -114 -244t-113 242l-104 -60v170l391 207v-158l-60 -34v-123zM1295 729q-114 0 -113 244v123l-60 34v158l391 -207v-170l-104 60q0 -242 -114 -242zM1024 598q223 0 392 -119t210 -297h-127q-57 104 -186 172t-289 68t-289 -67.5t-186 -172.5h-127 q41 178 210 297t392 119z" glyph-name="u1F61E.aalt"/><glyph d="M915 907h-430v150h430v-150zM1565 907h-430v150h430v-150zM1561 340h-1074v147h1074v-147z" glyph-name="u1F611.aalt"/><glyph d="M730 1268q91 0 149.5 -103.5t62.5 -292.5h-123q-8 139 -29.5 204t-62.5 65t-61.5 -64.5t-28.5 -204.5h-123q4 188 64.5 292t151.5 104zM1322 1268q91 0 149.5 -103.5t64.5 -292.5h-125q-8 139 -28.5 204t-61.5 65t-62.5 -64.5t-29.5 -204.5h-123q6 188 65.5 292 t150.5 104zM1024 264q-205 0 -359.5 114t-191.5 284h139q35 -113 150 -188t262 -75t263 75t151 188h137q-20 -96 -84 -179q74 -162 64.5 -243.5t-87.5 -126.5q-51 -27 -129 -25.5t-202 186.5q-55 -10 -113 -10zM1415 203q37 20 39 61t-39 139q-76 -63 -172 -100 q59 -82 99 -103.5t73 3.5z" glyph-name="u1F60B.aalt"/><glyph d="M791 1008q0 -256 -120 -256t-120 256v75l-240 -118l-30 114l510 254v-325zM1255 1008q0 -256 -119.5 -256t-119.5 256v325l510 -254l-29 -114l-242 118v-75zM1767 605q0 -63 -54 -115t-133 -52t-133 52.5t-54 114.5t38.5 121.5t84 127t55.5 135.5h18q10 -68 55.5 -135.5 t84 -126.5t38.5 -122zM1489 622q0 -36 25.5 -61.5t65.5 -25.5t65.5 26.5t25.5 62.5t-38 92t-52 91q-14 -33 -53 -91t-39 -94zM1440 264h-1073v150h1073v-150z" glyph-name="u1F613.aalt"/><glyph d="M516 1171l25 115l428 -123l-25 -114zM1079 1163l426 123l25 -115l-426 -122zM1026 485q-86 0 -160 -12l-139 -952l-63 14l147 928q-51 -12 -92 -29l-211 -872l-66 10l211 829q-82 -49 -123 -120h-118q31 88 102.5 161.5t179.5 118.5l54 211l51 -8l-45 -182q39 12 77 20 l25 150l51 -9l-20 -131q153 19 282 -2l-20 133l51 9l25 -152q41 -8 78 -22l-46 184l52 10l55 -217q209 -92 270 -274h-118q-39 66 -111 112l209 -821l-64 -10l-211 866q-43 18 -92 33l146 -926l-64 -14l-139 950q-78 14 -164 14zM410 -328q-31 -8 -46.5 -13t-37 -24.5 t-26.5 -52.5t14.5 -57.5t52.5 -30.5t57 23l35 -17q2 -51 27.5 -80.5t89 -40t100.5 81.5l39 4q12 -35 46 -41t61.5 11.5t32.5 50.5t-8 57.5t-25.5 33.5t-39.5 28l9 47q158 -72 139 -176q-12 -66 -56.5 -96.5t-98.5 -23.5t-81 50q-20 -55 -63 -78.5t-93 -14.5t-82 45t-34 97 q-33 -31 -88 -21t-87 54.5t-20 112.5q16 98 191 118zM1628 -283q174 -16 193 -120q12 -68 -20 -111t-86 -53t-91 18q-2 -59 -32 -95t-82 -45t-95 14.5t-65 80.5q-18 -37 -76 -48t-102 19.5t-55 94.5t28 104.5t110 75.5l9 -47q-25 -16 -38.5 -26.5t-26.5 -36t-7 -58.5 t32.5 -50.5t59.5 -8.5q33 2 47 36l39 -2q18 -47 52 -65.5t72 -12t64.5 36t28.5 78.5l35 19q20 -25 57 -23q35 6 53.5 32t14.5 50t-9 35.5t-18 24.5t-42 24.5t-42 11.5z" glyph-name="u1F624.aalt"/><glyph d="M715 1225.5q123 -0.5 123 -261.5t-123 -261.5t-123 261.5t123 261.5zM1192 1225.5q123 -0.5 123 -261.5t-123 -261.5t-123 261.5t123 261.5zM1183.5 88q-112.5 0 -192.5 79t-80 191.5t80 192.5t192.5 80t191.5 -80t79 -192.5t-79 -191.5t-191.5 -79z" glyph-name="u1F62E.aalt"/><glyph d="M785.5 1225.5q121.5 -0.5 121.5 -261.5t-121.5 -261.5t-121.5 261.5t121.5 261.5zM1263.5 1225.5q122.5 -0.5 122.5 -261.5t-122.5 -261.5t-122.5 261.5t122.5 261.5zM1559 453h-226q-14 -242 -95 -360t-215 -118t-215 118t-93 360h-226v135h1070v-135zM1024 111 q78 0 118 77t56 265h-348q14 -188 55 -265t119 -77z" glyph-name="u1F61B.aalt"/><glyph d="M938 1042v-69l-332 -219l-51 143l217 107v10l-217 84l51 143zM1493 1098l-217 -84v-10l217 -107l-51 -143l-330 219v69l330 199zM1559 453h-226q-14 -242 -95 -360t-215 -118t-215 118t-93 360h-226v135h1070v-135zM1024 111q78 0 118 77t56 265h-348q14 -188 55 -265 t119 -77z" glyph-name="u1F61D.aalt"/><glyph d="M794 1188q81 0 128 -88t53 -252h-103q-14 227 -79.5 227t-79.5 -227h-103q6 164 54.5 252t129.5 88zM1254 1188q81 0 129.5 -88t54.5 -252h-103q-12 227 -78.5 227t-80.5 -227h-101q6 164 52 252t127 88zM1898 680.5q0 -62.5 -47 -111.5q-41 -39 -96 -46t-96 18 q-63 -205 -229 -325t-406 -120t-405.5 120t-229.5 325q-41 -25 -95 -18t-97 50t-45 107.5t36 101.5t96 49.5t126.5 26.5t115.5 49l11 -12q-28 -38 -34.5 -60t-11 -35.5t-5.5 -19.5t-4 -20.5t-3 -15.5l-6 -44q229 -127 553 -127t549 127l-3 24q-3 24 -7 42t-5 23.5t-5.5 20.5 t-8.5 22.5t-10.5 25t-24.5 37.5l11 12q47 -35 115.5 -49t126.5 -26.5t96 -50.5t38 -100.5zM1792 627q25 25 24.5 56.5t-22.5 52.5t-80.5 32.5t-85.5 22.5q10 -27 22 -85t34 -80t52.5 -23t55.5 24zM258 627q25 -25 56.5 -24t53.5 23t32 79t22 86q-29 -10 -86 -21.5t-79 -33.5 t-23 -53t24 -56zM700 504q-111 33 -215 92q53 -139 215 -213v121zM1350 383q162 74 215 213q-102 -59 -215 -92v-121zM164 545l10 -13q-35 -47 -48 -114.5t-25.5 -126.5t-49.5 -97t-101.5 -37t-112.5 49t-49 112.5t37 101.5t96.5 49t127 26.5t115.5 49.5zM2261 318.5 q0 -62.5 -47 -110.5t-113.5 -50t-103.5 36t-49.5 97t-25.5 126.5t-48 114.5l12 13q47 -35 114.5 -49.5t126 -26.5t96.5 -50t38 -100.5zM1268 483q-96 -20 -203 -22v-139q111 4 203 30v131zM985 461q-106 2 -203 22v-131q94 -27 203 -30v139zM-128.5 320.5 q-0.5 -29.5 24.5 -55.5t55.5 -24.5t51.5 22.5t32.5 78.5t21.5 86.5q-29 -10 -85 -22t-78 -34t-22.5 -51.5zM1991 428q10 -27 22 -85t34 -80t52.5 -22.5t57.5 23.5q25 25 23.5 56.5t-22.5 53.5t-79.5 32t-87.5 22z" glyph-name="u1F602.aalt"/><glyph d="M677 1311q114 0 193.5 -80t79.5 -192.5t-79.5 -192.5t-193.5 -80t-194 80t-80 192.5t80 192.5t194 80zM1372.5 1311q112.5 0 193.5 -80t81 -192.5t-81 -192.5t-193.5 -80t-192.5 80t-80 192.5t80 192.5t192.5 80zM677 1212q-73 0 -124 -51t-51 -122.5t51 -123t124 -51.5 t123 51.5t50 123t-50 122.5t-123 51zM1372 1212q-72 0 -123 -51t-51 -122.5t51 -123t123 -51.5t123 51.5t51 123t-51 122.5t-123 51zM677 1106q28 0 47 -20.5t19 -48t-19 -47t-47 -19.5t-48.5 19.5t-20.5 47t20.5 48t48.5 20.5zM1373.5 1106q27.5 0 47 -20.5t19.5 -48 t-19.5 -47t-47 -19.5t-48 19.5t-20.5 47t20.5 48t48 20.5zM1025 737q232 0 376.5 -152.5t169.5 -414.5h-1092q25 262 169.5 414.5t376.5 152.5zM1024 594q-139 0 -244.5 -74t-130.5 -215h752q-25 141 -131.5 215t-245.5 74z" glyph-name="u1F628.aalt"/><glyph d="M469 1202l375 172l80 -123l-428 -176zM1124 1251l78 123l377 -172l-27 -127zM346.5 936q63.5 0 118.5 -31t88 -84h-416q35 53 90.5 84t119 31zM1701.5 936q63.5 0 119 -31t90.5 -84h-416q33 53 88 84t118.5 31zM590 695q0 -30 -6 -56h-475q-8 27 -8 57t8 58h475 q6 -29 6 -59zM1458 696q0 30 6 58h475q18 -64 0 -115h-475q-6 27 -6 57zM137 569h418q-31 -51 -78 -79.5t-131 -38.5q-84 10 -131 38.5t-78 79.5zM1493 569h418q-31 -51 -78 -79.5t-131 -38.5q-84 10 -131 38.5t-78 79.5zM1022 86q-148 0 -254 106.5t-106 256.5h718 q0 -150 -105 -256.5t-253 -106.5z" glyph-name="u1F633.aalt"/><glyph d="M784.5 1368q122.5 0 122.5 -261t-122.5 -261t-122.5 261t122.5 261zM1261.5 1368q122.5 0 122.5 -261t-122.5 -261t-122.5 261t122.5 261zM1023 709q232 0 376.5 -153t169.5 -415h-1092q25 262 169.5 415t376.5 153zM1023 565q-138 0 -244.5 -74.5t-131.5 -214.5h752 q-25 139 -131.5 214t-244.5 75z" glyph-name="u1F626.aalt"/><glyph d="M784.5 1225.5q122.5 -0.5 122.5 -261.5t-122.5 -261.5t-122.5 261.5t122.5 261.5zM1261.5 1225.5q122.5 -0.5 122.5 -261.5t-122.5 -261.5t-122.5 261.5t122.5 261.5zM299 756q266 -226 726 -226q218 0 406.5 57.5t315.5 172.5q-2 -330 -197.5 -538t-526.5 -208 t-526.5 207t-197.5 535zM442 551q57 -150 232 -229v131q-119 35 -232 98zM1608 551q-113 -61 -234 -98v-131q175 79 234 229zM1286 291v141q-102 -23 -217 -26v-150q117 4 217 35zM762 430v-141q102 -29 219 -33v150q-115 4 -219 24z" glyph-name="u1F600.aalt"/><glyph d="M729 1268q92 0 149.5 -103.5t63.5 -292.5h-125q-8 139 -28.5 204t-61.5 65t-61.5 -64.5t-28.5 -204.5h-125q6 188 65.5 292t151.5 104zM1321 1268q92 0 149.5 -103.5t63.5 -292.5h-125q-8 139 -28.5 204t-61.5 65t-61.5 -64.5t-28.5 -204.5h-125q6 188 65.5 292 t151.5 104zM299 756q266 -226 726 -226q218 0 406.5 57.5t315.5 172.5q-2 -330 -197.5 -538t-526.5 -208t-526.5 207t-197.5 535zM442 551q57 -150 232 -229v131q-119 35 -232 98zM1608 551q-113 -61 -234 -98v-131q175 79 234 229zM1286 291v141q-102 -23 -217 -26v-150 q117 4 217 35zM762 430v-141q102 -29 219 -33v150q-115 4 -219 24z" glyph-name="u1F601.aalt"/><glyph d="M786.5 1225.5q122.5 -0.5 122.5 -261.5t-122.5 -261.5t-122.5 261.5t122.5 261.5zM1263.5 1225.5q122.5 -0.5 122.5 -261.5t-122.5 -261.5t-122.5 261.5t122.5 261.5zM1561 340h-1074v147h1074v-147z" glyph-name="u1F610.aalt"/><glyph d="M727 1059q-75 0 -90 -266h-123q6 188 65.5 290.5t150.5 102.5t149.5 -102.5t64.5 -290.5h-125q-8 139 -29.5 202.5t-62.5 63.5zM1322 1186q91 0 149.5 -102.5t64.5 -290.5h-125q-8 139 -28.5 202.5t-61.5 63.5t-61.5 -63.5t-30.5 -202.5h-123q6 188 65.5 290.5 t150.5 102.5zM1561 340h-1074v147h1074v-147z" glyph-name="u1F614.aalt"/><glyph d="M938 1042v-69l-332 -219l-51 143l217 107v10l-217 84l51 143zM1493 1098l-215 -84v-10l215 -107l-51 -143l-330 219v69l330 199zM1024 598q223 0 392 -119t210 -297h-127q-57 104 -186 172t-289 68t-289 -67.5t-186 -172.5h-127q41 178 210 297t392 119z" glyph-name="u1F623.aalt"/><glyph d="M911 975q0 -252 -117.5 -252t-117.5 252v74l-268 86l30 116l473 -151v-125zM1372 975q0 -252 -118.5 -252t-118.5 252v125l475 151l30 -116l-268 -86v-74zM1023 594q241 0 398.5 -109.5t206.5 -279.5h-135q-51 104 -169 168.5t-301 64.5t-301 -64.5t-169 -168.5h-135 q49 170 206.5 279.5t398.5 109.5zM1023 303q91 0 149.5 -54t74.5 -147h-92q-29 92 -132 92.5t-132 -92.5h-92q16 92 74.5 146.5t149.5 54.5z" glyph-name="u1F621.aalt"/><glyph d="M726 766q-91 0 -148.5 102.5t-63.5 290.5h123q15 -266 90 -266q41 0 62.5 63.5t29.5 202.5h125q-6 -188 -66.5 -290.5t-151.5 -102.5zM1318 766q-91 0 -148.5 102.5t-63.5 290.5h123q10 -139 30.5 -202.5t61.5 -63.5t61.5 63.5t28.5 202.5h125q-6 -188 -66.5 -290.5 t-151.5 -102.5zM1024 119q-238 0 -419 136t-224 343h127q63 -139 202.5 -227t313.5 -88t314.5 88t201.5 227h127q-43 -207 -224 -343t-419 -136z" glyph-name="u1F60C.aalt"/><glyph d="M1023 2230q251 0 462 -65.5t330.5 -174t119.5 -231.5q0 -86 -64.5 -173t-178 -157.5t-289.5 -114.5t-381 -44t-381 44t-288.5 115.5t-176 157.5t-63.5 172q0 123 118.5 230.5t329.5 174t462 66.5zM1023 2103q-216 0 -395 -47t-279.5 -125t-100.5 -168q0 -121 215 -223 t559 -102t561 101t217 222q0 90 -101.5 168t-280.5 126t-395 48zM784.5 1225.5q122.5 -0.5 122.5 -261.5t-122.5 -261.5t-122.5 261.5t122.5 261.5zM1261.5 1225.5q122.5 -0.5 122.5 -261.5t-122.5 -261.5t-122.5 261.5t122.5 261.5zM1024 119q-238 0 -419 136t-224 343h127 q61 -139 201.5 -227t314.5 -88t313.5 88t202.5 227h127q-43 -207 -224 -343t-419 -136z" glyph-name="u1F607.aalt"/><glyph d="M268 2003l486 -352q-303 -43 -486 -209v561zM1780 2003v-561q-180 166 -486 209zM913 934q0 -252 -118.5 -252t-118.5 252v156l-268 86l30 116l475 -151v-207zM1372 934q0 -252 -117.5 -252t-117.5 252v207l473 151l30 -116l-268 -86v-156zM1024 119q-238 0 -419 136 t-224 343h127q63 -139 202.5 -227t313.5 -88t314.5 88t201.5 227h127q-43 -207 -224 -343t-419 -136z" glyph-name="u1F608.aalt"/><glyph d="M784.5 1307.5q122.5 -0.5 122.5 -261.5t-122.5 -261.5t-122.5 261.5t122.5 261.5zM1261.5 1307.5q122.5 -0.5 122.5 -261.5t-122.5 -261.5t-122.5 261.5t122.5 261.5zM1024 43q-307 0 -488.5 190.5t-183.5 495.5q246 -208 674 -210q201 -1 376 53.5t294 160.5 q-2 -307 -183.5 -498.5t-488.5 -191.5zM1025 172q194 0 341.5 95.5t198.5 273.5q-240 -135 -541 -138q-299 2 -539 138q51 -178 198.5 -273.5t341.5 -95.5z" glyph-name="u1F603.aalt"/><glyph d="M628 1268q91 0 148.5 -103.5t63.5 -292.5h-123q-10 139 -30.5 204t-61.5 65t-61.5 -64.5t-28.5 -204.5h-125q6 188 66.5 292t151.5 104zM1220 1268q91 0 148 -103.5t64 -292.5h-123q-15 269 -90 269q-41 0 -62.5 -64.5t-30.5 -204.5h-125q6 188 67 292t152 104zM1800 945 q0 -50 -43 -93t-105.5 -43t-105.5 43t-43 93t31 97.5t66.5 100.5t41.5 108h17q8 -55 44 -108t66.5 -100.5t30.5 -97.5zM1577 958q0 -28 20.5 -49.5t53 -21.5t53 21.5t20.5 50.5t-30.5 73.5t-42.5 71.5q-12 -27 -43 -72.5t-31 -73.5zM922 43q-307 0 -488.5 190.5 t-183.5 495.5q246 -208 674 -210q201 -1 375.5 53.5t293.5 160.5q-2 -307 -183 -498.5t-488 -191.5zM923 172q194 0 341 95.5t198 273.5q-240 -135 -540 -138q-299 2 -539 138q51 -178 198.5 -273.5t341.5 -95.5z" glyph-name="u1F605.aalt"/><glyph d="M730 1268q91 0 148.5 -103.5t63.5 -292.5h-123q-10 139 -30.5 204t-61.5 65t-61.5 -64.5t-28.5 -204.5h-125q6 188 66.5 292t151.5 104zM1322 1268q91 0 148.5 -103.5t63.5 -292.5h-123q-15 269 -90 269q-41 0 -62.5 -64.5t-29.5 -204.5h-125q6 188 66.5 292t151.5 104z M1024 43q-307 0 -488.5 190.5t-183.5 495.5q246 -208 674 -210q201 -1 376 53.5t294 160.5q-2 -307 -183.5 -498.5t-488.5 -191.5zM1025 172q194 0 341.5 95.5t198.5 273.5q-240 -135 -541 -138q-299 2 -539 138q51 -178 198.5 -273.5t341.5 -95.5z" glyph-name="u1F604.aalt"/><glyph d="M936 1090v-70l-330 -219l-51 143l215 105v12l-215 84l51 141zM1493 1145l-217 -84v-12l217 -105l-51 -143l-332 219v70l332 196zM1024 88q-307 0 -488.5 191.5t-183.5 496.5q123 -104 298 -157.5t376 -53.5t376 53.5t294 159.5q-2 -305 -183.5 -497.5t-488.5 -192.5z M1025 451q-300 0 -540 135q51 -178 198.5 -272.5t341.5 -94.5t341.5 94.5t198.5 272.5q-240 -135 -540 -135z" glyph-name="u1F606.aalt"/><glyph d="M727 1141q-75 0 -90 -269h-123q6 188 65.5 292t150.5 104t149.5 -103.5t64.5 -292.5h-125q-8 139 -29.5 204t-62.5 65zM1322 1268q91 0 149.5 -103.5t64.5 -292.5h-125q-8 139 -28.5 204t-61.5 65t-61.5 -64.5t-30.5 -204.5h-123q6 188 65.5 292t150.5 104zM1024 154 q-238 0 -419 136t-224 343h127q63 -139 202.5 -227.5t313.5 -88.5t314.5 88.5t201.5 227.5h127q-43 -207 -224 -343t-419 -136z" glyph-name="u1F60A.aalt"/><glyph d="M1468 727h-137q-82 0 -117.5 32t-62.5 99l-78 215h-82l-80 -215q-25 -68 -60.5 -99.5t-117.5 -31.5h-137q-100 0 -148.5 43t-74.5 139l-51 164h-179l70 144h1622l70 -144h-162l-51 -164q-29 -96 -77 -139t-147 -43zM1032.5 119q-237.5 0 -419 136t-224.5 343h127 q61 -139 201.5 -227t314.5 -88t313.5 88t202.5 227h127q-43 -207 -224 -343t-418.5 -136z" glyph-name="u1F60E.aalt"/><glyph d="M868 936h-430v147h430v-147zM1427 936h-430v147h430v-147zM934 145v160q184 0 327.5 113t186.5 287h162q-45 -240 -235.5 -400t-440.5 -160z" glyph-name="u1F60F.aalt"/><glyph d="M948 1157v-125q0 -262 -121.5 -262t-121.5 262h-302v125h545zM1645 1157v-125q0 -262 -122 -262t-122 262h-301v125h545zM1587 412h-1073v147h1073v-147z" glyph-name="u1F612.aalt"/><glyph d="M784.5 1278q122.5 0 122.5 -260t-122.5 -260t-122.5 260t122.5 260zM1261.5 1278q122.5 0 122.5 -260t-122.5 -260t-122.5 260t122.5 260zM639 172h-145q0 186 155.5 317.5t374.5 131.5t373.5 -131.5t154.5 -317.5h-145q0 119 -112.5 203t-271.5 84t-271.5 -84 t-112.5 -203z" glyph-name="uni2639.aalt"/><glyph d="M785.5 1276q121.5 0 121.5 -258t-121.5 -258t-121.5 258t121.5 258zM1483 1112l-187 -100l187 -125l-53 -129l-285 203v104l285 176zM1024 119q-238 0 -419 136t-224 343h127q63 -139 202.5 -227t313.5 -88t314.5 88t201.5 227h127q-43 -207 -224 -343t-419 -136z" glyph-name="u1F609.aalt"/><glyph d="M864 1028q0 -244 -112 -244q-113 0 -115 240l-105 -57v168l394 208v-159l-62 -33v-123zM1294 784q-113 0 -112 244v123l-60 33v159l391 -208v-168l-104 57q-2 -240 -115 -240zM1023 594q241 0 398.5 -109.5t206.5 -279.5h-135q-51 104 -169 168.5t-301 64.5t-301 -64.5 t-169 -168.5h-135q49 170 206.5 279.5t398.5 109.5zM1023 303q91 0 149.5 -54t74.5 -147h-92q-29 92 -132 92.5t-132 -92.5h-92q16 92 74.5 146.5t149.5 54.5z" glyph-name="u1F61F.aalt"/><glyph d="M465 -27q-127 0 -213 75t-86 192q0 80 43 146.5t151 141.5l35 23q-96 90 -134 148.5t-38 158.5t84 176t223 76t225.5 -71t86.5 -161t-42 -152t-120 -122l-78 -59l195 -180l123 258l131 -48l-90 -190q-31 -66 -58 -117l184 -168l-106 -102l-158 147q-68 -88 -149.5 -130 t-208.5 -42zM371 849q0 -56 33.5 -103.5t103.5 -114.5l35 24q150 100 149 209q0 53 -44 87t-119 34t-116.5 -40t-41.5 -96zM491 98q81 0 134 33t102 107l-235 223l-56 -41q-63 -49 -91 -88.5t-28 -97.5t46.5 -97t127.5 -39z" glyph-name="ampersand.aalt" horiz-adv-x="1251"/><glyph d="M133 474q0 192 98.5 305.5t266.5 133.5l-6 174h129l-9 -172q145 -10 248 -100l-59 -106q-57 43 -109.5 63.5t-130.5 20.5q-127 0 -204.5 -83t-77.5 -242t81.5 -249t212.5 -90t244 94l62 -100q-113 -106 -281 -119l6 -172h-121l6 178q-152 27 -254 149.5t-102 314.5z" glyph-name="cent.sc" horiz-adv-x="1062"/><glyph d="M315 1106q111 0 183.5 -67.5t72.5 -186.5t-71.5 -186.5t-183.5 -67.5t-185.5 67.5t-73.5 186.5t73.5 186.5t184.5 67.5zM301 0h-113l793 1087h115zM315 1010q-66 0 -101.5 -41t-35.5 -117t36 -118t101 -42q133 0 133 159t-133 159zM965.5 492q111.5 0 184.5 -68 t73 -187.5t-72.5 -187t-184.5 -67.5t-185.5 67.5t-73.5 187t73.5 187.5t185 68zM965.5 397q-64.5 0 -100.5 -43t-36 -117.5t36 -116.5t102 -42q131 0 131 160q0 76 -34 117.5t-98.5 41.5z" glyph-name="percent.aalt" horiz-adv-x="1275"/><glyph d="M315 1106q111 0 183.5 -67.5t72.5 -186.5t-72.5 -186.5t-183.5 -67.5t-184.5 67.5t-73.5 186.5t73.5 186.5t184.5 67.5zM301 0h-113l793 1087h115zM315 1010q-66 0 -101.5 -41t-35.5 -117t36 -118t101 -42q133 0 133 159t-133 159zM1560.5 492q110.5 0 183.5 -68 t73 -187.5t-71.5 -187t-183.5 -67.5t-185.5 67.5t-73.5 187t73.5 187.5t184 68zM964.5 492q110.5 0 184.5 -68t74 -187.5t-72.5 -187t-184.5 -67.5t-185.5 67.5t-73.5 187t73.5 187.5t184 68zM1561.5 397q-64.5 0 -100.5 -43t-36 -117.5t36 -116.5t100 -42q133 0 133 160 q0 76 -34 117.5t-98.5 41.5zM965.5 397q-64.5 0 -100.5 -43t-36 -117.5t35 -116.5t101 -42q133 0 133 160q0 76 -34 117.5t-98.5 41.5z" glyph-name="perthousand.aalt" horiz-adv-x="1869"/><glyph d="M785.5 1276q121.5 0 121.5 -258t-121.5 -258t-121.5 258t121.5 258zM1483 1112l-187 -100l187 -125l-53 -129l-285 203v104l285 176zM1559 453h-226q-14 -242 -95 -360t-215 -118t-215 118t-93 360h-226v135h1070v-135zM1024 111q78 0 118 77t56 265h-348 q14 -188 55 -265t119 -77z" glyph-name="u1F61C.aalt"/><glyph d="M786.5 1225.5q122.5 -0.5 122.5 -261.5t-122.5 -261.5t-122.5 261.5t122.5 261.5zM1263.5 1225.5q122.5 -0.5 122.5 -261.5t-122.5 -261.5t-122.5 261.5t122.5 261.5zM1024 119q-238 0 -419 136t-224 343h127q63 -139 202.5 -227t313.5 -88t314.5 88t201.5 227h127 q-43 -207 -224 -343t-419 -136z" glyph-name="smileface.aalt"/></font>
</defs>
</svg>
