mtllib smallbox.mtl

vn 0.577350 0.577350 0.577350
v -0.400000 -0.400000 -0.400000
vn 0.577350 0.577350 -0.577350
v -0.400000 -0.400000 0.400000
vn -0.577350 0.577350 0.577350
v 0.400000 -0.400000 -0.400000
vn -0.577350 0.577350 -0.577350
v 0.400000 -0.400000 0.400000
vn -0.577350 -0.577350 -0.577350
v 0.400000 0.400000 0.400000
vn 0.577350 -0.577350 -0.577350
v -0.400000 0.400000 0.400000
vn -0.577350 -0.577350 0.577350
v 0.400000 0.400000 -0.400000
vn 0.577350 -0.577350 0.577350
v -0.400000 0.400000 -0.400000
# 8 vertices, 0 vertices normals


usemtl material_0
vt 1.000000 1.000000
vt 1.000000 0.000000
vt 0.000000 1.000000
f 1/1/1 2/2/2 3/3/3
vt 0.000000 0.000000
f 4/4/4 3/3/3 2/2/2
f 5/2/5 6/4/6 7/1/7
f 8/3/8 7/1/7 6/4/6
f 4/2/4 2/4/2 5/1/5
f 6/3/6 5/1/5 2/4/2
f 3/2/3 4/4/4 7/1/7
f 5/3/5 7/1/7 4/4/4
f 1/2/1 3/4/3 8/1/8
f 7/3/7 8/1/8 3/4/3
f 2/2/2 1/4/1 6/1/6
f 8/3/8 6/1/6 1/4/1
# 12 faces, 4 coords texture
