<?xml version="1.0" standalone="no"?>
<!DOCTYPE svg PUBLIC "-//W3C//DTD SVG 1.1//EN" "http://www.w3.org/Graphics/SVG/1.1/DTD/svg11.dtd">
<svg xmlns="http://www.w3.org/2000/svg"><metadata>This SVG WebFont was generated by YouWorkForThem.
Copyright  2012 by Rodrigo Saiani. All rights reserved.</metadata><defs><font horiz-adv-x="2048" id="ywftsvg"><font-face ascent="1540" bbox="-315 -877 2310 2230" cap-height="1434" descent="-508" font-family="" font-stretch="normal" font-weight="700" panose-1="0 0 8 0 0 0 0 0 0 0" underline-position="0" underline-thickness="0" unicode-range="U+0020-1F633" units-per-em="2048" x-height="1073"/><missing-glyph d="M1077 0h-876v1434h876v-1434zM358 154h562v1128h-562v-1128z" horiz-adv-x="1277"/><glyph d="M643 -455q-109 0 -158 25l56 240q45 -12 88 -13q113 0 137 148l154 891h-365l-168 -963q-53 -328 -403 -328q-109 0 -158 25l55 240q45 -12 88 -13q113 0 137 148l154 891h-147l43 243h145l31 152q68 328 413 328q119 0 185 -33l-60 -226q-43 14 -106 15 q-117 0 -137 -107l-29 -129h363l30 152q68 328 414 328q118 0 184 -33l-59 -226q-43 14 -107 15q-117 0 -137 -107l-29 -129h236l-43 -243h-236l-167 -963q-53 -328 -404 -328z" glyph-name="f_f.liga" horiz-adv-x="1484" unicode="ff"/><glyph d="M1804 219q45 0 76 21l-43 -236q-81 -29 -181 -29t-163 62.5t-41 185.5l96 516q10 51 -7 74t-66 23h-236l-158 -883q-27 -168 -143.5 -261t-288.5 -93q-90 0 -164 30l64 232q82 -10 90 -11q131 0 154 132l151 854h-389l-168 -963q-53 -328 -403 -328q-109 0 -158 25 l55 240q45 -12 88 -13q113 0 137 148l154 891h-147l43 243h145l31 152q68 328 413 328q119 0 185 -33l-60 -226q-43 14 -106 15q-117 0 -137 -107l-29 -129h387l25 150q78 346 471 346q106 0 205.5 -22.5t152.5 -61.5l-119 -238q-102 78 -245.5 78t-169.5 -135l-23 -117h340 q154 0 211.5 -62.5t24.5 -230.5l-97 -499q-12 -68 43 -68z" glyph-name="f_f_i.liga" horiz-adv-x="2007" unicode="ffi"/><glyph d="M1804 219q45 0 76 21l-43 -236q-86 -29 -181 -29t-162 62.5t-42 185.5l215 1077q-51 31 -193 31t-167 -123l-25 -129h250l-43 -243h-250l-158 -883q-31 -154 -155.5 -254t-278.5 -100q-94 0 -162 24l64 238q31 -10 86 -11q135 0 158 138l151 848h-369l-165 -936 q-29 -158 -153 -256.5t-300 -98.5q-78 0 -137 23l57 242q37 -12 86 -13q135 0 158 125l160 914h-142l43 243h142l24 150q31 160 145.5 253t299.5 93q127 -2 188 -35l-94 -223q-57 14 -111 14t-87.5 -23.5t-39.5 -62.5l-28 -166h364l25 150q31 162 146.5 254t293.5 92 t301 -33t236 -135l-226 -1120q-10 -68 43 -68z" glyph-name="f_f_l.liga" horiz-adv-x="2007" unicode="ffl"/><glyph d="M1077 0h-876v1434h876v-1434zM358 154h562v1128h-562v-1128z" glyph-name=".notdef" horiz-adv-x="1277"/><glyph glyph-name="glyph1" horiz-adv-x="0"/><glyph glyph-name="glyph2" horiz-adv-x="681"/><glyph glyph-name="space" horiz-adv-x="573" unicode=" "/><glyph d="M457 477h-256l131 961h336zM291 344q78 0 129 -54t34 -148t-72.5 -136.5t-133.5 -42.5t-129 55.5t-34 149.5t72.5 135t133.5 41z" glyph-name="exclam" horiz-adv-x="671" unicode="!"/><glyph d="M377 985h-160l39 455h244zM754 985h-162l41 455h244z" glyph-name="quotedbl" horiz-adv-x="868" unicode="&quot;"/><glyph d="M1174 887l-97 -328h316l-31 -178h-338l-113 -381h-186l113 381h-277l-115 -381h-186l117 381h-264l32 178h285l100 328h-288l32 180h312l110 367h185l-111 -367h272l109 367h184l-108 -367h299l-33 -180h-319zM989 887h-274l-99 -328h275z" glyph-name="numbersign" horiz-adv-x="1382" unicode="#"/><glyph d="M756 1194q-109 0 -173.5 -44t-64.5 -112t53.5 -99t142.5 -63t124 -47q156 -59 232.5 -131.5t76.5 -197.5q0 -221 -156.5 -359.5t-406.5 -160.5l-29 -222h-227l51 224q-227 29 -371 127l144 256q178 -100 378 -101q131 0 204 47t73 123q0 43 -21.5 61.5t-51 37 t-222.5 85.5q-160 66 -243 144t-83 207q0 203 138.5 330.5t363.5 152.5l31 209h223l-45 -209q229 -22 356 -135l-172 -232q-137 109 -325 109z" glyph-name="dollar" horiz-adv-x="1236" unicode="$"/><glyph d="M520 1458q133 0 214 -79t81 -218q0 -197 -120 -314.5t-300 -117.5q-131 0 -208.5 78t-77.5 215q0 199 119.5 317.5t291.5 118.5zM281 0h-179l1229 1434h176zM496 1294q-78 0 -128.5 -66.5t-50.5 -199.5t107 -133q176 0 176 266q0 133 -104 133zM1229 707q133 0 214 -79 t81 -218q0 -197 -120 -315t-300 -118q-133 0 -211 78t-78 215q0 199 120 318t294 119zM1202 543q-78 0 -128 -67.5t-50 -200.5t109 -134q82 0 128.5 66.5t46.5 200.5t-106 135z" glyph-name="percent" horiz-adv-x="1630" unicode="%"/><glyph d="M147 278q0 138 79 240.5t245 204.5l14 10q-133 154 -133 301q0 188 135.5 310t358.5 122q162 0 259 -80.5t97 -205.5q0 -248 -291 -437l-28 -18l174 -188l188 282l211 -102l-125 -201q-45 -70 -108 -160l192 -206l-201 -183l-176 187q-201 -178 -465 -179 q-205 0 -315.5 82.5t-110.5 220.5zM924 1124q0 96 -119 97q-78 0 -122 -44t-44 -116t94 -176l29 18q162 102 162 221zM461 352q0 -51 39 -80.5t112 -29.5q121 0 252 94l-221 231l-37 -24q-145 -98 -145 -191z" glyph-name="ampersand" horiz-adv-x="1542" unicode="&amp;"/><glyph d="M463 989h-217l41 451h295z" glyph-name="quotesingle" horiz-adv-x="489" unicode="'"/><glyph d="M793 1610l114 -127q-49 -39 -71.5 -56.5t-80 -72t-185.5 -208.5t-162 -496q-33 -325 35.5 -459t103.5 -183t84 -102l-160 -127q-387 293 -324 844q64 651 646 987z" glyph-name="parenleft" horiz-adv-x="825" unicode="("/><glyph d="M250 1483l162 127q387 -287 323 -846q-16 -168 -74.5 -319.5t-126 -253t-159.5 -191.5t-154.5 -135t-132.5 -86l-115 127q457 348 504 858q47 445 -227 719z" glyph-name="parenright" horiz-adv-x="825" unicode=")"/><glyph d="M670 1313l180 117l61 -154l-186 -80l166 -82l-111 -149l-149 112l-17 -198h-176l58 198l-179 -112l-63 151l188 80l-159 90l98 137l151 -110l19 205h178z" glyph-name="asterisk" horiz-adv-x="937" unicode="*"/><glyph d="M819 799h420l-31 -176h-420l-77 -445h-179l80 445h-419l32 176h418l78 442h178z" glyph-name="plus" horiz-adv-x="1427" unicode="+"/><glyph d="M256 309q62 0 109 -53t29 -161t-94.5 -217t-193.5 -187l-92 84q125 102 195 235q-57 2 -94 50.5t-25 117.5t58 100t108 31z" glyph-name="comma" horiz-adv-x="587" unicode=","/><glyph d="M766 524h-670l31 187h672z" glyph-name="hyphen" horiz-adv-x="866" unicode="-"/><glyph d="M264 293q66 0 111 -48t32 -129t-62 -117t-115 -36t-111 50.5t-31 130.5t62 114.5t114 34.5z" glyph-name="period" horiz-adv-x="641" unicode="."/><glyph d="M225 -96h-243l792 1636h238z" glyph-name="slash" horiz-adv-x="759" unicode="/"/><glyph d="M894 1466q247 0 375 -156.5t128 -412.5q0 -162 -55.5 -324.5t-155 -298t-253 -220.5t-331.5 -85q-250 0 -379 157.5t-129 399.5t91 450t276.5 349t432.5 141zM836 1194q-102 0 -184.5 -61.5t-157 -207.5t-74.5 -356q0 -330 233 -329q131 0 230.5 109.5t143.5 249.5 t44 273q1 322 -235 322z" glyph-name="zero" horiz-adv-x="1425" unicode="0"/><glyph d="M1051 279l-54 -279h-940l52 279h319l137 798l-278 -121l-74 240l496 246h241l-205 -1163h306z" glyph-name="one" horiz-adv-x="1163" unicode="1"/><glyph d="M1219 1118q0 -156 -82 -283.5t-306 -295.5l-339 -254h630l-49 -285h-1044l45 248l506 381q164 123 224 209t60 168t-62.5 126t-168.5 44q-182 -1 -334 -95l-94 224q242 162 526 161q223 0 355.5 -96t132.5 -252z" glyph-name="two" horiz-adv-x="1255" unicode="2"/><glyph d="M1204 1130q0 -104 -75.5 -202.5t-233.5 -153.5v-6q117 -27 183.5 -110t66.5 -201q0 -201 -181.5 -341.5t-496.5 -140.5q-154 0 -285 46.5t-211 125.5l156 211q125 -106 319 -106t284.5 69.5t90.5 153.5t-60.5 119t-189.5 35h-217l41 229h170q141 0 222 56.5t81 130.5 q0 145 -198 145t-365 -111l-112 228q219 156 534 155q244 0 360.5 -92t116.5 -240z" glyph-name="three" horiz-adv-x="1251" unicode="3"/><glyph d="M1278 567l-43 -245h-205l-55 -322h-311l53 322h-672l37 210l887 912h260l-156 -877h205zM860 1051l-461 -484h373z" glyph-name="four" horiz-adv-x="1347" unicode="4"/><glyph d="M812 922q169 0 269.5 -97.5t100.5 -269.5q0 -242 -187.5 -411t-486.5 -169t-465 125l145 244q150 -92 321 -92t259 77t88 191q0 170 -207 170q-143 0 -276 -100l-183 106l134 742h946l-51 -285h-648l-51 -301q123 70 292 70z" glyph-name="five" horiz-adv-x="1298" unicode="5"/><glyph d="M939 1200q-171 0 -300 -109.5t-170 -314.5q177 148 379 148t323 -100.5t121 -282.5q0 -231 -184 -398.5t-440 -167.5t-397.5 147.5t-141.5 418.5q0 344 144.5 551.5t308.5 291.5t392 84t396 -118l-145 -230q-115 80 -286 80zM768 668q-90 0 -176 -40t-143 -108 q-10 -106 48 -188t180 -85t205 69t83 168t-53.5 140t-143.5 44z" glyph-name="six" horiz-adv-x="1398" unicode="6"/><glyph d="M1204 1188l-749 -1188h-338l739 1155h-706l51 283h1048z" glyph-name="seven" horiz-adv-x="1140" unicode="7"/><glyph d="M791 1466q225 0 352 -96t127 -256q0 -111 -70 -205t-199 -153q197 -84 197 -287t-182 -352.5t-481 -149.5q-244 0 -369 106.5t-125 264.5q0 127 84 243.5t237 176.5q-172 78 -172 263t162.5 315t438.5 130zM936 1051q0 145 -196 145q-98 0 -162 -55t-64 -127 q0 -148 194 -148q98 0 163 56.5t65 128.5zM638 637q-116 0 -191.5 -69.5t-75.5 -150.5t55 -129t174 -48t194.5 67.5t75.5 152.5t-58 131t-174 46z" glyph-name="eight" horiz-adv-x="1280" unicode="8"/><glyph d="M467 240q365 0 461 422q-94 -88 -186.5 -127t-208.5 -39t-205.5 37.5t-150 135t-52.5 242.5q12 236 185 393.5t456 157.5q541 0 504 -600q-29 -410 -251 -648.5t-583 -238.5q-246 1 -383 91l105 237q152 -63 309 -63zM720 1190q-108 0 -184.5 -65.5t-85.5 -160.5 t41 -147.5t146 -52.5t185 43t132 121q12 127 -57 194.5t-177 67.5z" glyph-name="nine" horiz-adv-x="1277" unicode="9"/><glyph d="M440 1098q74 0 120 -49.5t32 -139.5q-23 -150 -182 -149q-80 0 -126 48t-33 132t64 121t125 37zM295 307q74 0 121 -48t34 -132t-64.5 -123t-125.5 -39t-120 50.5t-32 134.5t63.5 120.5t123.5 36.5z" glyph-name="colon" horiz-adv-x="636" unicode=":"/><glyph d="M372 768q-142 0 -143 148q0 78 58.5 130t122.5 52t103.5 -35t39.5 -113t-57.5 -130t-123.5 -52zM90 150q0 70 55.5 114.5t117.5 44.5t104.5 -36.5t42.5 -112.5q0 -117 -83.5 -244t-224.5 -219l-75 72q127 102 180 231q-49 6 -83 43t-34 107z" glyph-name="semicolon" horiz-adv-x="636" unicode=";"/><glyph d="M995 1030l-688 -381l563 -403l-139 -156l-678 473l31 174l842 469z" glyph-name="less" horiz-adv-x="1028" unicode="&lt;"/><glyph d="M1096 721h-946l30 172h946zM1026 324h-946l31 170h946z" glyph-name="equal" horiz-adv-x="1179" unicode="="/><glyph d="M1014 737l-31 -174l-846 -473l-84 156l707 403l-555 381l133 176z" glyph-name="greater" horiz-adv-x="1026" unicode=">"/><glyph d="M680 1458q197 0 304.5 -82t107.5 -213q0 -167 -112 -255.5t-181.5 -138.5t-129 -123t-79.5 -161h-223q18 102 63 184.5t97.5 132.5t133 119t80.5 160q0 115 -170 115t-307 -82l-76 209q88 61 221.5 98t270.5 37zM394 -25q-158 0 -158 162q0 82 60.5 140.5t140.5 58.5 q159 0 159 -159q0 -81 -61.5 -141.5t-140.5 -60.5z" glyph-name="question" horiz-adv-x="1067" unicode="?"/><glyph d="M797 -336q-174 0 -295 35t-221.5 107.5t-156.5 200.5t-56 300q0 307 150.5 547t407.5 367t573 127t489.5 -157t173.5 -431t-160 -471t-426 -197q-160 0 -221 103q-105 -76 -233 -76t-199.5 70.5t-71.5 211.5q0 238 153.5 374t397.5 136q156 0 299 -59l-123 -406 q-33 -151 57 -151q119 0 202 126.5t83 320.5t-120 299.5t-351 105.5q-360 0 -599 -218t-239 -579q0 -229 135.5 -351t368.5 -122q166 0 332 55l33 -198q-209 -70 -383 -70zM1034 721q-111 0 -178.5 -83t-67.5 -198q0 -61 28 -94t71 -33q84 0 151 72l101 320q-41 16 -105 16z " glyph-name="at" horiz-adv-x="1886" unicode="@"/><glyph d="M1004 272h-547l-140 -272h-331l790 1434h311l302 -1434h-340zM961 518l-95 559l-284 -559h379z" glyph-name="A" horiz-adv-x="1525" unicode="A"/><glyph d="M821 1434q444 0 445 -304q0 -102 -58.5 -201.5t-195.5 -162.5q219 -68 219 -273t-153.5 -349t-446.5 -144h-594l252 1434h532zM702 840q121 0 178.5 61.5t57.5 136.5q0 133 -184 133h-197l-57 -331h202zM645 262q129 0 192.5 56.5t63.5 146.5q0 143 -188 143h-254 l-62 -346h248z" glyph-name="B" horiz-adv-x="1312" unicode="B"/><glyph d="M682 -33q-260 0 -426 159.5t-166 447.5t122 491t315.5 302t426.5 99q307 0 455 -135l-186 -246q-119 95 -313 95t-339 -147.5t-145 -407.5q0 -186 92 -278.5t242 -92.5q188 2 356 125l115 -225q-100 -82 -246.5 -134.5t-302.5 -52.5z" glyph-name="C" horiz-adv-x="1347" unicode="C"/><glyph d="M758 1434q291 0 465 -154t174 -442q0 -356 -239.5 -597t-643.5 -241h-477l252 1434h469zM567 281q225 0 359.5 160.5t134.5 381.5q0 328 -340 328h-166l-154 -870h166z" glyph-name="D" horiz-adv-x="1423" unicode="D"/><glyph d="M1212 1167h-659l-57 -311h569l-47 -266h-567l-56 -322h660l-47 -268h-971l252 1434h971z" glyph-name="E" horiz-adv-x="1239" unicode="E"/><glyph d="M1157 1165h-606l-66 -372h529l-49 -267h-527l-92 -526h-309l252 1432h915z" glyph-name="F" horiz-adv-x="1148" unicode="F"/><glyph d="M690 -31q-249 0 -377.5 103.5t-177.5 220.5t-49 273t55.5 314t157.5 291.5t270 215t373 81.5q307 0 496 -165l-185 -228q-133 103 -311 103t-350 -128.5t-172 -443.5q0 -174 82 -261t236 -87t263 92l48 232h-324l45 249h621l-111 -645q-240 -217 -590 -217z" glyph-name="G" horiz-adv-x="1472" unicode="G"/><glyph d="M1290 0h-311l104 584h-632l-105 -584h-309l252 1434h309l-102 -584h634l103 584h309z" glyph-name="H" horiz-adv-x="1513" unicode="H"/><glyph d="M346 0h-309l252 1434h309z" glyph-name="I" horiz-adv-x="571" unicode="I"/><glyph d="M217 -37q-180 0 -280 37l65 258q76 -16 192 -16t191.5 58t97.5 204l164 930h316l-164 -934q-92 -537 -582 -537z" glyph-name="J" horiz-adv-x="935" unicode="J"/><glyph d="M811 799l487 -799h-399l-315 590l-150 -135l-80 -455h-309l252 1434h309l-100 -580l586 580h417z" glyph-name="K" horiz-adv-x="1443" unicode="K"/><glyph d="M395 279h660l-47 -279h-971l252 1434h309z" glyph-name="L" horiz-adv-x="1128" unicode="L"/><glyph d="M1815 1434l-252 -1434h-297l145 842l-518 -797h-180l-234 797l-147 -842h-295l252 1434h278l301 -1018l645 1018h302z" glyph-name="M" horiz-adv-x="1787" unicode="M"/><glyph d="M1278 0h-262l-512 893l-158 -893h-309l252 1434h262l504 -902l157 902h318z" glyph-name="N" horiz-adv-x="1501" unicode="N"/><glyph d="M948 1466q303 0 457.5 -170t148.5 -426t-115.5 -457.5t-306 -323.5t-454.5 -122t-424 164t-166 455q0 164 58.5 319.5t164 281.5t271 202.5t366.5 76.5zM903 1176q-152 0 -267.5 -93.5t-166.5 -220t-51 -272.5t86 -239t234 -93t262 93t167.5 226t53.5 281t-83 233 t-235 85z" glyph-name="O" horiz-adv-x="1576" unicode="O"/><glyph d="M795 1434q240 0 360.5 -105.5t120.5 -298.5t-109.5 -321.5t-240.5 -182t-301 -53.5h-195l-84 -473h-309l252 1434h506zM666 739q141 0 207.5 81t66.5 179q0 168 -203 168h-184l-76 -428h189z" glyph-name="P" horiz-adv-x="1261" unicode="P"/><glyph d="M694 -33q-274 0 -440 164t-166 455q0 164 58.5 319.5t164 281.5t271.5 202.5t366 76.5q303 0 458.5 -170t147.5 -443t-151 -496.5t-377 -323.5l363 -178l-187 -234l-502 346h-6zM738 258q148 0 262 93t167.5 226t53.5 281t-83 233t-235 85t-267.5 -93.5t-166.5 -220 t-51 -272.5t86 -239t234 -93z" glyph-name="Q" horiz-adv-x="1591" unicode="Q"/><glyph d="M827 1434q510 0 510 -381q0 -164 -91 -304.5t-269 -211.5l242 -537h-347l-202 477h-240l-84 -477h-309l252 1434h538zM688 745q158 0 233.5 79t75.5 170t-54 132t-179 41h-211l-76 -422h211z" glyph-name="R" horiz-adv-x="1374" unicode="R"/><glyph d="M186 993q0 195 148.5 330t444.5 135t468 -145l-168 -228q-129 104 -309 105q-121 0 -188.5 -46t-67.5 -113t59.5 -99.5t144.5 -61t122 -43.5q162 -66 231.5 -150.5t69.5 -199.5q0 -201 -166 -351t-466 -150t-501 135l133 254q174 -98 379 -99q139 0 210 50.5t71 118.5 t-55.5 97t-141.5 60t-131 49q-139 59 -213 137t-74 215z" glyph-name="S" horiz-adv-x="1234" unicode="S"/><glyph d="M1366 1167h-430l-205 -1167h-311l205 1167h-432l47 267h1173z" glyph-name="T" horiz-adv-x="1335" unicode="T"/><glyph d="M552 -33q-185 0 -332 130.5t-93 422.5l162 914h309l-160 -908q-23 -131 37 -201.5t191 -70.5t215 70.5t106 201.5l160 908h311l-160 -914q-76 -414 -318.5 -483.5t-427.5 -69.5z" glyph-name="U" horiz-adv-x="1431" unicode="U"/><glyph d="M811 0h-324l-294 1434h344l178 -1074l553 1074h344z" glyph-name="V" horiz-adv-x="1480" unicode="V"/><glyph d="M2216 1434l-705 -1434h-219l-170 969l-512 -969h-219l-205 1434h297l129 -938l482 938h219l162 -928l419 928h322z" glyph-name="W" horiz-adv-x="2086" unicode="W"/><glyph d="M893 737l430 -737h-367l-249 512l-410 -512h-383l666 733l-377 701h356l217 -486l371 486h381z" glyph-name="X" horiz-adv-x="1449" unicode="X"/><glyph d="M842 569l-101 -569h-313l100 571l-346 863h361l202 -562l404 562h342z" glyph-name="Y" horiz-adv-x="1357" unicode="Y"/><glyph d="M1358 1243l-887 -975h758l-47 -268h-1145l35 199l866 968h-659l47 267h1067z" glyph-name="Z" horiz-adv-x="1380" unicode="Z"/><glyph d="M741 1403h-223l-262 -1462h223l-39 -211h-458l337 1884h459z" glyph-name="bracketleft" horiz-adv-x="657" unicode="["/><glyph d="M635 -96h-229l-189 1636h227z" glyph-name="backslash" horiz-adv-x="827" unicode="\"/><glyph d="M387 -270h-461l39 211h221l256 1462h-221l37 211h461z" glyph-name="bracketright" horiz-adv-x="651" unicode="]"/><glyph d="M1022 831l-215 424l-363 -424h-315l623 719h215l368 -719h-313z" glyph-name="asciicircum" horiz-adv-x="1361" unicode="^"/><glyph d="M1253 -250h-1179l43 244h1179z" glyph-name="underscore" horiz-adv-x="1425" unicode="_"/><glyph d="M721 1247h-174l-242 293h338z" glyph-name="grave" horiz-adv-x="716" unicode="`"/><glyph d="M446 -25q-164 0 -267 118t-103 323q0 283 182 485.5t442 202.5q94 0 252 -37h244l-145 -813q-12 -72 46 -72q28 0 46 2l-37 -174q-68 -29 -166 -28q-178 0 -164 194q-113 -201 -330 -201zM723 858q-156 0 -246 -126t-90 -288q0 -223 178 -223q92 0 159.5 77t90.5 208 l55 323q-63 29 -147 29z" glyph-name="a" horiz-adv-x="1251" unicode="a"/><glyph d="M831 1104q156 0 245 -102.5t89 -270.5q0 -217 -73.5 -360.5t-148.5 -221t-191.5 -126t-259.5 -48.5q-248 0 -439 72l256 1489h299l-104 -600q109 168 327 168zM524 242q109 0 215.5 102.5t106.5 304.5q0 90 -42 142.5t-123 52.5t-148 -65.5t-87 -190.5l-59 -326 q66 -20 137 -20z" glyph-name="b" horiz-adv-x="1191" unicode="b"/><glyph d="M564 -33q-236 0 -359 134.5t-123 349.5q0 164 70.5 310t219 245.5t364.5 99.5t356 -129l-144 -205q-88 78 -236 78t-239.5 -109t-91.5 -243t64.5 -204.5t184.5 -70.5t242 96l101 -200q-173 -152 -409 -152z" glyph-name="c" horiz-adv-x="1069" unicode="c"/><glyph d="M1102 182q33 0 49 2l-37 -174q-68 -28 -159 -28t-131 47t-36 147q-96 -203 -337 -203q-170 0 -270.5 119t-100.5 324q0 252 112.5 407.5t238 217t259.5 61.5t219 -35l82 473h295l-227 -1284q-12 -74 43 -74zM715 844q-141 0 -227.5 -109t-86.5 -247q0 -250 166 -250 q90 0 159.5 74.5t92.5 203.5l49 297q-61 31 -153 31z" glyph-name="d" horiz-adv-x="1261" unicode="d"/><glyph d="M569 -33q-231 0 -362 129t-127 350q4 272 187.5 465t484.5 193q166 0 262 -69.5t94 -198.5t-154 -273.5t-563 -144.5h-22q20 -195 252 -195q188 0 311 109l100 -201q-178 -164 -463 -164zM846 768q0 78 -118 78t-210 -69.5t-129 -182.5q199 2 328 49t129 125z" glyph-name="e" horiz-adv-x="1130" unicode="e"/><glyph d="M-16 -455q-109 0 -158 25l55 240q45 -12 88 -13q113 0 137 148l154 891h-147l43 243h145l31 152q68 328 413 328q119 0 185 -33l-60 -226q-43 14 -106 15q-117 0 -137 -107l-29 -129h236l-43 -243h-236l-168 -963q-53 -328 -403 -328z" glyph-name="f" horiz-adv-x="788" unicode="f"/><glyph d="M446 39q-143 0 -252.5 112.5t-109.5 313.5q0 258 176 449.5t442 191.5q160 0 265 -39l231 -6l-186 -1055q-84 -461 -596 -461q-106 0 -215 29t-174 76l88 235q137 -86 309 -86q260 0 303 221l37 193q-119 -174 -318 -174zM705 848q-135 0 -217 -101.5t-82 -252.5 q0 -100 44 -152.5t124 -52.5t149.5 62t89.5 177l49 287q-61 33 -157 33z" glyph-name="g" horiz-adv-x="1198" unicode="g"/><glyph d="M1117 197q19 0 57 6l-41 -195q-63 -25 -162 -24q-203 0 -203 172q0 35 10 82l84 428q35 178 -106 178q-121 0 -209 -121t-127 -334l-72 -389h-297l228 1243q12 63 -50 64q-30 -1 -55 -11l49 232q53 23 150 22q229 0 180 -266l-72 -405h13q66 113 165 169t211 56 q174 0 247 -93t42 -270l-86 -477l-2 -18q0 -20 13.5 -34.5t32.5 -14.5z" glyph-name="h" horiz-adv-x="1292" unicode="h"/><glyph d="M499 1583q81 0 119.5 -38.5t34.5 -108.5t-63.5 -123t-140.5 -53t-116.5 36.5t-31.5 108.5t60.5 125t137.5 53zM446 190q18 0 62 7l-37 -197q-59 -25 -168 -25q-252 0 -197 256l150 842h303l-149 -817q-6 -29 6 -47.5t30 -18.5z" glyph-name="i" horiz-adv-x="612" unicode="i"/><glyph d="M487 1583q81 0 119.5 -39.5t35.5 -107.5t-63.5 -122t-142.5 -54t-116.5 36.5t-30.5 108.5t60.5 125t137.5 53zM-92 -455q-121 0 -176 35l57 230q43 -12 107 -12q135 -1 157 134l203 1141h295l-215 -1204q-29 -158 -143.5 -241t-284.5 -83z" glyph-name="j" horiz-adv-x="622" unicode="j"/><glyph d="M891 -25q-172 0 -238 152l-98 213l-141 -51l-54 -289h-297l222 1243q12 63 -43 64q-14 0 -52 -9l39 226q92 27 160 26q121 0 164 -70.5t12 -232.5l-57 -309q137 166 338 166q143 0 220 -76t77 -199q0 -246 -305 -385l82 -165q42 -79 88 -79t77 27l60 -174 q-82 -78 -254 -78zM831 748q0 39 -25.5 63.5t-72.5 24.5q-82 0 -160.5 -82t-119.5 -248l147 49q231 78 231 193z" glyph-name="k" horiz-adv-x="1239" unicode="k"/><glyph d="M399 1559q236 0 181 -277l-189 -1006q-12 -57 43 -57q16 0 47 6l-43 -229q-216 -53 -299.5 23.5t-58.5 207.5l194 1024q6 31 -8 47.5t-34 16.5t-56 -8l41 227q80 25 182 25z" glyph-name="l" horiz-adv-x="602" unicode="l"/><glyph d="M869 1104q249 0 266 -232q131 231 374 232q166 0 245 -103.5t38 -287.5l-96 -459q-6 -29 8 -47.5t36 -18.5t52 5l-39 -193q-55 -25 -172 -25q-240 0 -184 256l90 443q34 170 -120 170q-79 0 -151.5 -78t-105.5 -250l-92 -516h-287l121 692q14 70 -14.5 111t-98.5 41 q-209 0 -284 -408l-80 -436h-297l151 823q14 72 -51 72q-35 0 -55 -10l35 192q198 52 260.5 -10.5t58.5 -157.5l-6 -30h6q86 127 180.5 176t211.5 49z" glyph-name="m" horiz-adv-x="1912" unicode="m"/><glyph d="M916 1104q150 0 229.5 -96.5t44.5 -268.5l-92 -475q-6 -29 7 -47t37.5 -18t49.5 4l-39 -193q-59 -25 -168 -24q-233 0 -184 256l84 430q37 172 -119 172q-106 0 -191.5 -104.5t-121.5 -303.5l-78 -436h-297l155 823q12 72 -51 72q-33 0 -57 -10l33 192 q198 52 260.5 -10.5t58.5 -157.5l-12 -59h4q90 139 193.5 196.5t253.5 57.5z" glyph-name="n" horiz-adv-x="1312" unicode="n"/><glyph d="M719 1096q207 0 340 -121t133 -344q0 -264 -173 -459t-460 -195q-213 0 -345 127t-132 342q0 270 171 460t466 190zM684 844q-139 0 -221 -112t-82 -244q0 -260 203 -259q139 0 224 112t85 269q0 234 -209 234z" glyph-name="o" horiz-adv-x="1232" unicode="o"/><glyph d="M180 895q-31 0 -55 -10l33 192q82 21 162 21t127 -50.5t42 -150.5l-6 -33h4q135 233 373 234q168 0 260 -118t92 -306t-69.5 -343t-208.5 -259.5t-300 -104.5t-245 68l-80 -457h-297l221 1245q12 72 -53 72zM913 625q0 211 -175 211q-87 0 -159.5 -70t-95.5 -207 l-53 -295q53 -55 154 -55q150 0 239.5 122t89.5 294z" glyph-name="p" horiz-adv-x="1249" unicode="p"/><glyph d="M446 -25q-158 0 -263 121t-105 334q0 279 181 476.5t443 197.5q96 0 252 -37h244l-260 -1485h-264l102 594q-57 -102 -133 -151.5t-197 -49.5zM725 858q-156 0 -246 -121t-90 -278q0 -106 46 -172t135 -66t156.5 77t90.5 208l55 323q-66 29 -147 29z" glyph-name="q" horiz-adv-x="1228" unicode="q"/><glyph d="M788 1104q78 0 134 -31l-54 -274q-51 23 -123 22q-106 0 -184 -95t-108 -261l-86 -465h-297l147 791q14 70 -43 69q-29 0 -57 -8l43 225q78 23 164 23q170 0 153 -180l-8 -58h12q111 242 307 242z" glyph-name="r" horiz-adv-x="880" unicode="r"/><glyph d="M401 219q92 0 145.5 33t53.5 79t-37 62.5t-166 52t-193.5 108.5t-64.5 167q0 174 136.5 279.5t360.5 105.5t355 -111l-123 -200q-125 80 -272 79q-76 0 -121 -28.5t-45 -73.5t40 -66.5t98 -37.5t71 -21q129 -39 196.5 -98.5t67.5 -163.5q0 -190 -148.5 -299t-375.5 -109 q-115 0 -215.5 30t-155.5 75l111 225q115 -88 282 -88z" glyph-name="s" horiz-adv-x="978" unicode="s"/><glyph d="M408 -23q-152 0 -214.5 68t-37.5 215l100 559h-160l45 254h160l21 115l155 158h170l-47 -273h262l-45 -254h-262l-86 -495q-16 -90 66 -91q59 0 143 27l35 -211q-153 -72 -305 -72z" glyph-name="t" horiz-adv-x="872" unicode="t"/><glyph d="M338 1104q236 0 184 -254l-84 -440q-31 -172 128 -172q77 0 154 69.5t103 220.5l99 551h297l-154 -843q-8 -61 37 -62q29 0 61 4l-37 -174q-61 -29 -154 -29t-138.5 35t-36.5 131l12 62h-8q-102 -227 -361 -228q-170 0 -256 99.5t-47 304.5l86 450q12 68 -51 68 q-28 0 -59 -8l37 188q74 27 188 27z" glyph-name="u" horiz-adv-x="1269" unicode="u"/><glyph d="M121 897q-18 0 -51 -8l36 188q68 27 158 27t132 -40t62 -125t51.5 -287.5t43.5 -354.5l381 776h305l-600 -1079h-264l-193 835q-14 68 -61 68z" glyph-name="v" horiz-adv-x="1167" unicode="v"/><glyph d="M119 897q-20 0 -49 -8l36 188q68 27 158 27t131 -40t62 -120q31 -131 63 -598l330 727h246l98 -700l340 700h307l-571 -1079h-262l-95 700l-331 -700h-254l-148 835q-12 68 -61 68z" glyph-name="w" horiz-adv-x="1769" unicode="w"/><glyph d="M974 195q38 0 73 12l-25 -203q-61 -27 -150 -27q-127 0 -206 148l-123 211l-230 -336h-354l2 16l461 535l-131 244q-47 80 -107 79q-43 0 -67 -8l30 209q51 21 135 21t139.5 -42t104.5 -139l84 -165l236 323h346l-2 -12l-459 -522l168 -285q37 -59 75 -59z" glyph-name="x" horiz-adv-x="1124" unicode="x"/><glyph d="M207 -453q-133 0 -236 54l74 217q72 -29 127 -29q96 0 170 152l49 100l-221 780q-10 39 -22.5 53.5t-38.5 14.5q-27 0 -50 -6l37 188q68 27 156 27t132 -40t62 -120l136 -614l346 749h313l-643 -1229q-80 -156 -169 -226.5t-222 -70.5z" glyph-name="y" horiz-adv-x="1155" unicode="y"/><glyph d="M1038 868l-626 -624h528l-43 -244h-899l33 195l606 624h-465l45 254h858z" glyph-name="z" horiz-adv-x="1052" unicode="z"/><glyph d="M981 1647l-29 -172q-98 -8 -161.5 -60.5t-79.5 -146.5l-62 -342q-12 -76 -72.5 -132.5t-121.5 -72.5l-4 -4q55 -18 97 -77.5t30 -131.5l-62 -344q-16 -92 28 -144.5t138 -60.5l-27 -172q-205 0 -302 96.5t-68 263.5l49 281q35 186 -154 197l31 184q193 18 227 203l47 276 q29 166 162 262.5t334 96.5z" glyph-name="braceleft" horiz-adv-x="821" unicode="{"/><glyph d="M160 -205h-180l335 1895h181z" glyph-name="bar" horiz-adv-x="473" unicode="|"/><glyph d="M270 1475l35 172q201 0 298 -96.5t67 -262.5l-49 -276q-18 -94 25.5 -144.5t127.5 -58.5l-35 -184q-188 -10 -223 -197l-51 -281q-29 -166 -163 -263t-337 -97l35 172q205 16 240 205l61 344q12 72 74.5 131t124.5 78v4q-57 16 -97.5 72.5t-25.5 132.5l61 342 q16 94 -28 146.5t-140 60.5z" glyph-name="braceright" horiz-adv-x="821" unicode="}"/><glyph d="M801 467q-61 0 -180 37t-181 37t-116 -80h-222q57 168 155.5 247.5t215.5 79.5q66 0 179.5 -36.5t160.5 -36.5t88 24.5t57 57.5h246q-61 -170 -171.5 -250t-231.5 -80z" glyph-name="asciitilde" horiz-adv-x="1275" unicode="~"/><glyph d="M425 1104q79 0 128 -54.5t34 -147.5t-71.5 -135t-133.5 -42t-129 55.5t-35 147.5t72.5 134t134.5 42zM352 -371h-340l211 963h258z" glyph-name="exclamdown" horiz-adv-x="671" unicode="¡"/><glyph d="M104 639q0 240 149.5 431.5t410.5 219.5l26 209h182l-49 -209q176 -20 291 -125l-143 -204q-87 77 -235 77t-240.5 -109.5t-92.5 -242.5t64.5 -203.5t184.5 -70.5t243 96l100 -201q-147 -129 -356 -147l-21 -189h-182l45 191q-180 29 -278.5 158t-98.5 319z" glyph-name="cent" horiz-adv-x="1114" unicode="¢"/><glyph d="M876 1194q-112 0 -167.5 -48t-73.5 -161l-35 -192h369l-29 -160h-369l-30 -176q-16 -90 -41 -139.5t-86 -84.5q107 22 211.5 8t176.5 -14t165 19l6 -242q-111 -37 -231 -37t-225 13.5t-207 13.5t-212 -25l-37 197q80 51 117 97t49 124l43 246h-120l28 160h121l43 239 q37 213 180.5 322.5t343.5 109.5q248 0 400 -106l-183 -236q-95 72 -207 72z" glyph-name="sterling" horiz-adv-x="1247" unicode="£"/><glyph d="M1282 805q0 -236 -139 -397l137 -166l-152 -129l-139 170q-154 -86 -338 -86t-305 92l-205 -176l-106 129l205 174q-45 90 -45 209q0 248 153 411l-141 170l151 127l148 -178q150 78 324 78t294 -88l219 186l107 -129l-217 -184q49 -94 49 -213zM710 461q110 0 191.5 83 t81.5 222q0 94 -53 148.5t-146 54.5q-131 0 -210.5 -84t-79.5 -223q0 -94 53 -147.5t163 -53.5z" glyph-name="currency" horiz-adv-x="1417" unicode="¤"/><glyph d="M942 786h277l-29 -161h-375l-2 -2l-22 -129h374l-26 -162h-377l-60 -332h-311l60 332h-381l26 162h383l23 131h-381l29 161h280l-285 648h357l205 -582l409 582h338z" glyph-name="yen" horiz-adv-x="1282" unicode="¥"/><glyph d="M420 1315l-205 -1151h-180l205 1151h180z" glyph-name="brokenbar" horiz-adv-x="454" unicode="¦"/><glyph d="M434 199q205 0 205 112q0 47 -44 64.5t-119 36.5t-120 32q-188 57 -188 220q0 94 54 169.5t149 110.5q-115 64 -115 204t124 229t330 89t341 -67l-111 -205q-109 43 -248 43q-178 0 -178 -109q0 -72 236 -124q117 -29 180 -82.5t63 -147.5q0 -184 -213 -278 q66 -27 103 -78t37 -115q0 -143 -134.5 -238.5t-363.5 -95.5t-381 92l113 207q45 -31 125.5 -50t154.5 -19zM745 727q0 127 -150 127q-77 0 -130 -44t-53 -118q0 -113 143 -112q88 0 139 41t51 106z" glyph-name="section" horiz-adv-x="1089" unicode="§"/><glyph d="M391 1507q61 0 95 -37.5t22 -108.5q-22 -132 -146 -132q-61 0 -97 38t-23 109q24 131 149 131zM788 1507q61 0 94 -37.5t22 -107.5t-51 -101.5t-97 -31.5t-92 38t-23 109q22 131 147 131z" glyph-name="dieresis" horiz-adv-x="851" unicode="¨"/><glyph d="M995 1462q272 0 450.5 -171t178.5 -439t-130 -471t-333 -308.5t-430 -105.5q-272 0 -450.5 170.5t-178.5 440.5t130 471.5t332 307t431 105.5zM969 1303q-289 0 -495 -195t-206 -494q0 -223 135.5 -355t356.5 -132q291 0 493.5 193.5t202.5 498.5q0 221 -134 352.5 t-353 131.5zM649 704q0 -210 201 -210q96 0 186 63l51 -135q-125 -90 -276 -90t-240.5 85t-89.5 234q0 217 134.5 337t305.5 120t263 -80l-86 -131q-80 61 -188 61t-184.5 -73t-76.5 -181z" glyph-name="copyright" horiz-adv-x="1665" unicode="©"/><glyph d="M406 1272q276 0 237 -223l-47 -254q-4 -51 41 -52h29l-41 -159q-45 -16 -107 -16t-98.5 27.5t-40.5 76.5q-81 -104 -185 -104t-155 59t-34 154t90 151.5t181 56.5t134 -2l6 43q8 51 -87 51q-96 0 -153 -45l-80 125q127 111 310 111zM305 848q-74 0 -86 -60 q-10 -59 49 -59q52 0 107 51l10 64q-57 4 -80 4z" glyph-name="ordfeminine" horiz-adv-x="776" unicode="ª"/><glyph d="M586 795l-285 -275l188 -276l-165 -138l-279 412l404 416zM1040 795l-284 -275l188 -276l-164 -138l-280 412l407 416z" glyph-name="guillemotleft" horiz-adv-x="1099" unicode="«"/><glyph d="M1108 272h-164l70 398h-873l31 174h1038z" glyph-name="logicalnot" horiz-adv-x="1271" unicode="¬"/><glyph d="M995 1462q272 0 450.5 -171t178.5 -439t-130 -471t-333 -308.5t-430 -105.5q-272 0 -450.5 170.5t-178.5 440.5t130 471.5t332 307t431 105.5zM969 1303q-289 0 -495 -195t-206 -494q0 -223 135.5 -355t356.5 -132q291 0 493.5 193.5t202.5 498.5q0 221 -134 352.5 t-353 131.5zM950 1100q113 0 171.5 -52.5t58.5 -135.5t-47.5 -144t-122.5 -92l114 -318h-172l-88 275h-123l-49 -275h-147l131 742h274zM883 764q59 0 93 32.5t34 86.5q0 74 -99 73h-110l-35 -192h117z" glyph-name="registered" horiz-adv-x="1665" unicode="®"/><glyph d="M965 1286h-578l25 148h577z" glyph-name="macron" horiz-adv-x="1087" unicode="¯"/><glyph d="M575 1440q121 0 205 -70t84 -201q0 -180 -123 -280.5t-263 -100.5t-223 70t-83 199q0 182 121.5 282.5t281.5 100.5zM541 1251q-70 0 -114 -44.5t-44 -108.5q0 -122 109 -121q72 0 117.5 44t45.5 120q1 110 -114 110z" glyph-name="degree" horiz-adv-x="833" unicode="°"/><glyph d="M782 989h420l-28 -174h-420l-78 -444h-176l78 444h-420l28 174h420l80 445h176zM1032 14h-1016l29 174h1016z" glyph-name="plusminus" horiz-adv-x="1204" unicode="±"/><glyph d="M590 1210h-176l180 293h338z" glyph-name="acute" horiz-adv-x="1042" unicode="´"/><glyph d="M217 1024q0 178 108.5 294t364.5 116h408l-252 -1434h-176l219 1253h-123l-221 -1253h-176l129 725q-133 25 -207 101.5t-74 197.5z" glyph-name="paragraph" horiz-adv-x="1062" unicode="¶"/><glyph d="M421 797q77 0 127 -55.5t34 -144.5t-70.5 -130t-131.5 -41t-127 55.5t-34 143.5t70.5 130t131.5 42z" glyph-name="periodcentered" horiz-adv-x="532" unicode="·"/><glyph d="M266 -94q68 0 104 -35t36 -90q0 -92 -84 -169t-236 -89l-31 123q96 16 130 42.5t34 62.5t-35 36q-20 0 -41 -12l-84 84l101 147h143l-74 -104q29 4 37 4z" glyph-name="cedilla" horiz-adv-x="716" unicode="¸"/><glyph d="M437 1266q138 0 224.5 -89.5t55.5 -257t-147 -258t-254 -90.5t-221 90.5t-52 259.5t143.5 257t250.5 88zM400 1059q-46 0 -80 -38t-46 -100t8.5 -102.5t67.5 -40.5t82 37t47 101t-10.5 103.5t-68.5 39.5z" glyph-name="ordmasculine" horiz-adv-x="813" unicode="º"/><glyph d="M592 518l-410 -412l-129 138l285 276l-188 275l169 139zM1047 518l-410 -412l-129 138l285 276l-189 275l172 139z" glyph-name="guillemotright" horiz-adv-x="1097" unicode="»"/><glyph d="M713 -283h-168l942 1860h164zM791 784l-31 -176h-574l31 176h178l78 437l-160 -52l-32 156l294 117h152l-115 -658h179zM2120 332l-29 -168h-129l-31 -170h-202l28 170h-381l27 160l485 503h191l-88 -495h129zM1784 332l43 239l-221 -239h178z" glyph-name="onequarter" horiz-adv-x="2230" unicode="¼"/><glyph d="M713 -283h-168l942 1860h164zM791 784l-31 -176h-574l31 176h178l78 437l-160 -52l-32 156l294 117h152l-115 -658h179zM1766 643q-106 0 -212 -61l-57 161q169 101 325 101t230 -61.5t68 -164.5q-10 -180 -265 -337l-159 -99h366l-34 -190h-633l30 176l269 180 q162 111 172 203q6 92 -100 92z" glyph-name="onehalf" horiz-adv-x="2230" unicode="½"/><glyph d="M713 -283h-168l942 1860h164zM548 1460q165 0 239.5 -53t70.5 -132q-8 -166 -176 -222q143 -41 137 -173t-120.5 -213t-286.5 -81t-291 80l78 165q131 -55 219 -55q168 0 174 103q4 41 -26.5 61.5t-100.5 20.5h-127l27 153h110q63 0 99 25.5t40 65.5q8 79 -98 80 q-106 0 -221 -66l-57 141q145 100 310 100zM2120 332l-29 -168h-129l-31 -170h-202l28 170h-381l27 160l485 503h191l-88 -495h129zM1784 332l43 239l-221 -239h178z" glyph-name="threequarters" horiz-adv-x="2230" unicode="¾"/><glyph d="M868 1106q158 0 158 -162q0 -82 -60.5 -140.5t-140.5 -58.5q-159 0 -159 159q0 81 61 141.5t141 60.5zM582 -377q-197 0 -304.5 82t-107.5 213q0 170 111.5 257t181 137t129 123t80.5 161h223q-18 -102 -63.5 -184t-97.5 -132.5t-133 -120t-81 -159.5q0 -115 170 -115 t307 82l76 -209q-88 -61 -221 -98t-270 -37z" glyph-name="questiondown" horiz-adv-x="1105" unicode="¿"/><glyph d="M1075 1608h-174l-242 293h338zM457 272l-140 -272h-331l790 1434h311l302 -1434h-340l-45 272h-547zM866 1077l-284 -559h379z" glyph-name="Agrave" horiz-adv-x="1525" unicode="À"/><glyph d="M1024 1565h-176l180 293h338zM457 272l-140 -272h-331l790 1434h311l302 -1434h-340l-45 272h-547zM866 1077l-284 -559h379z" glyph-name="Aacute" horiz-adv-x="1525" unicode="Á"/><glyph d="M856 1585h-233l292 285h172l183 -285h-226l-75 113zM1389 0h-340l-45 272h-547l-140 -272h-331l790 1434h311zM961 518l-95 559l-284 -559h379z" glyph-name="Acircumflex" horiz-adv-x="1525" unicode="Â"/><glyph d="M1079 1597q-57 0 -126.5 39t-104.5 39q-72 0 -119 -92l-131 78q39 100 106.5 149.5t133.5 49.5t135 -40t94 -40q58 0 117 100l145 -68q-96 -215 -250 -215zM457 272l-140 -272h-331l790 1434h311l302 -1434h-340l-45 272h-547zM866 1077l-284 -559h379z" glyph-name="Atilde" horiz-adv-x="1525" unicode="Ã"/><glyph d="M788 1868q61 0 95.5 -38t22.5 -109q-23 -132 -146 -132q-61 0 -97 38t-24 110q24 131 149 131zM1186 1868q61 0 94.5 -38t21.5 -108t-52 -101.5t-97 -31.5t-92 38t-23 110q23 131 148 131zM457 272l-140 -272h-331l790 1434h311l302 -1434h-340l-45 272h-547zM866 1077 l-284 -559h379z" glyph-name="Adieresis" horiz-adv-x="1525" unicode="Ä"/><glyph d="M1016 1901q80 0 122 -48.5t28 -122.5t-72 -121.5t-137.5 -47.5t-121.5 48t-30 122q14 74 72.5 122t138.5 48zM999 1804q-74 0 -86 -73q-4 -31 10.5 -52.5t48.5 -21.5t58.5 22.5t28.5 52.5t-11.5 51t-48.5 21zM457 272l-140 -272h-331l790 1434h311l302 -1434h-340 l-45 272h-547zM866 1077l-284 -559h379z" glyph-name="Aring" horiz-adv-x="1525" unicode="Å"/><glyph d="M1372 1155l-51 -299h506l-49 -274h-508l-56 -318h592l-47 -264h-903l43 240h-418l-157 -240h-357l996 1434h1042l-51 -279h-582zM944 502l107 600l-396 -600h289z" glyph-name="AE" horiz-adv-x="1990" unicode="Æ"/><glyph d="M725 -94q68 0 103.5 -35t35.5 -90q0 -92 -84 -169t-235 -89l-31 123q96 16 130 42.5t34 62.5t-35 36q-20 0 -41 -12l-84 84l78 112q-227 27 -366.5 185t-139.5 432t122 477t315.5 302t426.5 99q307 0 455 -135l-186 -246q-119 95 -313 95t-339 -147.5t-145 -407.5 q0 -186 92 -278.5t242 -92.5q188 2 356 125l115 -225q-207 -166 -496 -185l-47 -67q29 4 37 4z" glyph-name="Ccedilla" horiz-adv-x="1347" unicode="Ç"/><glyph d="M901 1608h-174l-242 293h338zM553 1167l-57 -311h569l-47 -266h-567l-56 -322h660l-47 -268h-971l252 1434h971l-48 -267h-659z" glyph-name="Egrave" horiz-adv-x="1239" unicode="È"/><glyph d="M852 1565h-176l180 293h338zM553 1167l-57 -311h569l-47 -266h-567l-56 -322h660l-47 -268h-971l252 1434h971l-48 -267h-659z" glyph-name="Eacute" horiz-adv-x="1239" unicode="É"/><glyph d="M684 1585h-233l292 285h172l183 -285h-226l-75 113zM553 1167l-57 -311h569l-47 -266h-567l-56 -322h660l-47 -268h-971l252 1434h971l-48 -267h-659z" glyph-name="Ecircumflex" horiz-adv-x="1239" unicode="Ê"/><glyph d="M616 1868q61 0 95 -38t22 -109q-22 -132 -145 -132q-61 0 -97 38t-24 110q24 131 149 131zM1014 1868q61 0 94.5 -38t21.5 -108t-52 -101.5t-97 -31.5t-92 38t-23 110q23 131 148 131zM553 1167l-57 -311h569l-47 -266h-567l-56 -322h660l-47 -268h-971l252 1434h971 l-48 -267h-659z" glyph-name="Edieresis" horiz-adv-x="1239" unicode="Ë"/><glyph d="M592 1608h-174l-242 293h338zM37 0l252 1434h309l-252 -1434h-309z" glyph-name="Igrave" horiz-adv-x="571" unicode="Ì"/><glyph d="M541 1565h-176l180 293h338zM37 0l252 1434h309l-252 -1434h-309z" glyph-name="Iacute" horiz-adv-x="571" unicode="Í"/><glyph d="M373 1585h-234l293 285h172l182 -285h-225l-76 113zM289 1434h309l-252 -1434h-309z" glyph-name="Icircumflex" horiz-adv-x="571" unicode="Î"/><glyph d="M305 1868q61 0 95 -38t22 -109q-22 -132 -146 -132q-61 0 -97 38t-23 110q24 131 149 131zM702 1868q61 0 94 -38t22 -108t-51 -101.5t-97 -31.5t-92 38t-23 110q22 131 147 131zM37 0l252 1434h309l-252 -1434h-309z" glyph-name="Idieresis" horiz-adv-x="571" unicode="Ï"/><glyph d="M862 1434q291 0 465 -154t174 -442q0 -356 -239.5 -597t-643.5 -241h-477l109 618h-197l37 211h197l106 605h469zM672 281q225 0 359 160.5t134 381.5q0 328 -340 328h-166l-57 -322h211l-37 -211h-211l-59 -337h166z" glyph-name="Eth" horiz-adv-x="1521" unicode="Ð"/><glyph d="M1071 1597q-57 0 -127 39t-104 39q-72 0 -119 -92l-131 78q39 100 106.5 149.5t132.5 49.5t135 -40t95 -40q58 0 117 100l145 -68q-96 -215 -250 -215zM1016 0l-512 893l-158 -893h-309l252 1434h262l504 -902l157 902h318l-252 -1434h-262z" glyph-name="Ntilde" horiz-adv-x="1501" unicode="Ñ"/><glyph d="M1090 1618h-175l-241 293h338zM948 1466q303 0 457.5 -170t148.5 -426t-115.5 -457.5t-306 -323.5t-454.5 -122t-424 164t-166 455q0 164 58.5 319.5t164 281.5t271 202.5t366.5 76.5zM903 1176q-152 0 -267.5 -93.5t-166.5 -220t-51 -272.5t86 -239t234 -93t262 93 t167.5 226t53.5 281t-83 233t-235 85z" glyph-name="Ograve" horiz-adv-x="1576" unicode="Ò"/><glyph d="M1038 1573h-176l180 293h338zM948 1466q303 0 457.5 -170t148.5 -426t-115.5 -457.5t-306 -323.5t-454.5 -122t-424 164t-166 455q0 164 58.5 319.5t164 281.5t271 202.5t366.5 76.5zM903 1176q-152 0 -267.5 -93.5t-166.5 -220t-51 -272.5t86 -239t234 -93t262 93 t167.5 226t53.5 281t-83 233t-235 85z" glyph-name="Oacute" horiz-adv-x="1576" unicode="Ó"/><glyph d="M870 1595h-233l293 285h172l182 -285h-225l-76 113zM948 1466q303 0 457.5 -170t148.5 -426t-115.5 -457.5t-306 -323.5t-454.5 -122t-424 164t-166 455q0 164 58.5 319.5t164 281.5t271 202.5t366.5 76.5zM738 258q148 0 262 93t167.5 226t53.5 281t-83 233t-235 85 t-267.5 -93.5t-166.5 -220t-51 -272.5t86 -239t234 -93z" glyph-name="Ocircumflex" horiz-adv-x="1576" unicode="Ô"/><glyph d="M1094 1608q-57 0 -127 39t-105 39q-72 0 -119 -93l-131 78q39 100 106.5 149.5t133.5 49.5t135.5 -40t93.5 -40q58 0 117 100l145 -67q-96 -215 -249 -215zM948 1466q303 0 457.5 -170t148.5 -426t-115.5 -457.5t-306 -323.5t-454.5 -122t-424 164t-166 455 q0 164 58.5 319.5t164 281.5t271 202.5t366.5 76.5zM903 1176q-152 0 -267.5 -93.5t-166.5 -220t-51 -272.5t86 -239t234 -93t262 93t167.5 226t53.5 281t-83 233t-235 85z" glyph-name="Otilde" horiz-adv-x="1576" unicode="Õ"/><glyph d="M803 1878q61 0 95 -38t22 -109q-22 -132 -146 -132q-61 0 -97 38t-24 110q25 131 150 131zM1200 1878q61 0 94 -38t22 -108t-51 -101.5t-97 -31.5t-92.5 38t-22.5 110q22 131 147 131zM948 1466q303 0 457.5 -170t148.5 -426t-115.5 -457.5t-306 -323.5t-454.5 -122 t-424 164t-166 455q0 164 58.5 319.5t164 281.5t271 202.5t366.5 76.5zM903 1176q-152 0 -267.5 -93.5t-166.5 -220t-51 -272.5t86 -239t234 -93t262 93t167.5 226t53.5 281t-83 233t-235 85z" glyph-name="Odieresis" horiz-adv-x="1576" unicode="Ö"/><glyph d="M1094 150l-170 -144l-320 391l-459 -389l-116 142l456 391l-321 391l170 141l319 -391l459 391l119 -143l-459 -389z" glyph-name="multiply" horiz-adv-x="1259" unicode="×"/><glyph d="M694 -33q-158 0 -280 56l-197 -265l-143 99l194 262q-180 164 -180 467q0 164 58.5 319.5t164 281.5t271.5 202.5t345 76.5t304 -51l166 223l149 -82l-170 -231q184 -164 178 -473q-6 -238 -115.5 -439.5t-306 -323.5t-438.5 -122zM418 608q0 -129 55 -215l565 762 q-66 20 -133 21q-154 0 -269.5 -93.5t-166.5 -219.5t-51 -255zM735 258q150 0 264.5 93t167.5 226.5t53 263.5t-49 208l-567 -766q57 -25 131 -25z" glyph-name="Oslash" horiz-adv-x="1576" unicode="Ø"/><glyph d="M1016 1608h-174l-242 293h338zM552 -33q-185 0 -332 130.5t-93 422.5l162 914h309l-160 -908q-23 -131 37 -201.5t191 -70.5t215 70.5t106 201.5l160 908h311l-160 -914q-76 -414 -318.5 -483.5t-427.5 -69.5z" glyph-name="Ugrave" horiz-adv-x="1431" unicode="Ù"/><glyph d="M965 1565h-177l181 293h338zM552 -33q-185 0 -332 130.5t-93 422.5l162 914h309l-160 -908q-23 -131 37 -201.5t191 -70.5t215 70.5t106 201.5l160 908h311l-160 -914q-76 -414 -318.5 -483.5t-427.5 -69.5z" glyph-name="Uacute" horiz-adv-x="1431" unicode="Ú"/><glyph d="M797 1585h-234l293 285h172l182 -285h-225l-76 113zM552 -33q-185 0 -332 130.5t-93 422.5l162 914h309l-160 -908q-23 -131 37 -201.5t191 -70.5t215 70.5t106 201.5l160 908h311l-160 -914q-76 -414 -318.5 -483.5t-427.5 -69.5z" glyph-name="Ucircumflex" horiz-adv-x="1431" unicode="Û"/><glyph d="M729 1868q61 0 95 -38t22 -109q-22 -132 -146 -132q-61 0 -97 38t-23 110q24 131 149 131zM1126 1868q61 0 94 -38t22 -108t-51 -101.5t-97 -31.5t-92 38t-23 110q22 131 147 131zM552 -33q-185 0 -332 130.5t-93 422.5l162 914h309l-160 -908q-23 -131 37 -201.5 t191 -70.5t215 70.5t106 201.5l160 908h311l-160 -914q-76 -414 -318.5 -483.5t-427.5 -69.5z" glyph-name="Udieresis" horiz-adv-x="1431" unicode="Ü"/><glyph d="M930 1573h-176l180 293h338zM741 0h-313l100 571l-346 863h361l202 -562l404 562h342l-649 -865z" glyph-name="Yacute" horiz-adv-x="1357" unicode="Ý"/><glyph d="M772 1212q213 0 319.5 -105.5t106.5 -286.5t-101.5 -307t-220 -178t-270.5 -52h-205l-49 -283h-315l252 1434h315l-37 -222h205zM618 549q117 0 179.5 68.5t62.5 164.5q0 154 -174 154h-170l-67 -387h169z" glyph-name="Thorn" horiz-adv-x="1220" unicode="Þ"/><glyph d="M895 1131q-1 133 -147 133q-68 0 -123.5 -43t-69.5 -129l-193 -1092h-305l197 1122q72 403 532 404q203 0 313.5 -78t110.5 -217t-68 -217t-168 -152q-48 -34 -46 -56q0 -22 37 -42q123 -74 161 -113q84 -86 84 -243t-85 -255t-186 -138t-230 -40t-224 45l58 224 q88 -37 169 -37t138 51.5t57 149.5t-45 140t-101 66t-65 29q-61 29 -61 105t59 122q16 14 69 56t92.5 90t39.5 115z" glyph-name="germandbls" horiz-adv-x="1308" unicode="ß"/><glyph d="M889 1253h-174l-242 293h338zM446 -25q-164 0 -267 118t-103 323q0 283 182 485.5t442 202.5q94 0 252 -37h244l-145 -813q-12 -72 46 -72q28 0 46 2l-37 -174q-68 -29 -166 -28q-178 0 -164 194q-113 -201 -330 -201zM723 858q-156 0 -246 -126t-90 -288 q0 -223 178 -223q92 0 159.5 77t90.5 208l55 323q-63 29 -147 29z" glyph-name="agrave" horiz-adv-x="1251" unicode="à"/><glyph d="M838 1210h-176l180 293h338zM446 -25q-164 0 -267 118t-103 323q0 283 182 485.5t442 202.5q94 0 252 -37h244l-145 -813q-12 -72 46 -72q28 0 46 2l-37 -174q-68 -29 -166 -28q-178 0 -164 194q-113 -201 -330 -201zM723 858q-156 0 -246 -126t-90 -288q0 -223 178 -223 q92 0 159.5 77t90.5 208l55 323q-63 29 -147 29z" glyph-name="aacute" horiz-adv-x="1251" unicode="á"/><glyph d="M670 1231h-234l293 285h172l182 -285h-225l-76 112zM446 -25q-164 0 -267 118t-103 323q0 283 182 485.5t442 202.5q94 0 252 -37h244l-145 -813q-12 -72 46 -72q28 0 46 2l-37 -174q-68 -29 -166 -28q-178 0 -164 194q-113 -201 -330 -201zM723 858q-156 0 -246 -126 t-90 -288q0 -223 178 -223q92 0 159.5 77t90.5 208l55 323q-63 29 -147 29z" glyph-name="acircumflex" horiz-adv-x="1251" unicode="â"/><glyph d="M893 1243q-57 0 -127 39t-104 39q-72 0 -119 -92l-131 78q39 100 106.5 149t132.5 49t135 -40t95 -40q57 1 116 101l146 -68q-96 -215 -250 -215zM446 -25q-164 0 -267 118t-103 323q0 283 182 485.5t442 202.5q94 0 252 -37h244l-145 -813q-12 -72 46 -72q28 0 46 2 l-37 -174q-68 -29 -166 -28q-178 0 -164 194q-113 -201 -330 -201zM723 858q-156 0 -246 -126t-90 -288q0 -223 178 -223q92 0 159.5 77t90.5 208l55 323q-63 29 -147 29z" glyph-name="atilde" horiz-adv-x="1251" unicode="ã"/><glyph d="M602 1513q61 0 95 -37.5t22 -108.5q-22 -132 -146 -132q-61 0 -97 38t-23 109q24 131 149 131zM999 1513q61 0 94 -37.5t22 -107.5t-51 -101.5t-97 -31.5t-92 38t-23 109q22 131 147 131zM446 -25q-164 0 -267 118t-103 323q0 283 182 485.5t442 202.5q94 0 252 -37h244 l-145 -813q-12 -72 46 -72q28 0 46 2l-37 -174q-68 -29 -166 -28q-178 0 -164 194q-113 -201 -330 -201zM723 858q-156 0 -246 -126t-90 -288q0 -223 178 -223q92 0 159.5 77t90.5 208l55 323q-63 29 -147 29z" glyph-name="adieresis" horiz-adv-x="1251" unicode="ä"/><glyph d="M831.5 1546q79.5 0 121.5 -48t29 -122t-71.5 -122t-138.5 -48t-122 48t-28 122t72 122t137.5 48zM815 1450q-74 0 -86 -74q-4 -31 10.5 -52t48.5 -21t58 22.5t28 52.5t-11 51t-48 21zM446 -25q-164 0 -267 118t-103 323q0 283 182 485.5t442 202.5q94 0 252 -37h244 l-145 -813q-12 -72 46 -72q28 0 46 2l-37 -174q-68 -29 -166 -28q-178 0 -164 194q-113 -201 -330 -201zM723 858q-156 0 -246 -126t-90 -288q0 -223 178 -223q92 0 159.5 77t90.5 208l55 323q-63 29 -147 29z" glyph-name="aring" horiz-adv-x="1251" unicode="å"/><glyph d="M1438 1104q156 0 248 -73t90 -193t-72 -203.5t-236.5 -150.5t-416.5 -50q2 -102 61 -165.5t176 -63.5q184 0 316 112l84 -198q-162 -152 -439 -152q-324 0 -395 246q-137 -246 -483 -246q-150 0 -240 74t-90 209q0 178 129 283.5t365 105.5q127 0 219 -18l8 51 q18 104 -26 149t-144 45q-164 0 -297 -94l-80 186q205 147 461 148q141 0 216 -49t95 -168q158 215 451 215zM1396 846q-118 0 -209 -68.5t-128 -179.5q180 2 317 43t137 129q1 76 -117 76zM465 186q94 0 173 73t99 179q-98 23 -197 23t-156.5 -44t-57.5 -114 q0 -117 139 -117z" glyph-name="ae" horiz-adv-x="1802" unicode="æ"/><glyph d="M580 -94q68 0 103.5 -35t35.5 -90q0 -92 -84 -169t-236 -89l-30 123q96 16 129.5 42.5t33.5 62.5t-34 36q-18 0 -41 -12l-84 84l80 116q-178 29 -274.5 158t-96.5 305t70.5 322.5t219 246t364.5 99.5t356 -129l-144 -205q-88 78 -236 78t-239.5 -109t-91.5 -243 t64.5 -204.5t184.5 -70.5t242 96l101 -200q-160 -137 -383 -150l-47 -67q29 4 37 4z" glyph-name="ccedilla" horiz-adv-x="1069" unicode="ç"/><glyph d="M883 1253h-174l-242 293h338zM569 -33q-231 0 -362 129t-127 350q4 272 187.5 465t484.5 193q166 0 262 -69.5t94 -198.5t-154 -273.5t-563 -144.5h-22q20 -195 252 -195q188 0 311 109l100 -201q-178 -164 -463 -164zM846 768q0 78 -118 78t-210 -69.5t-129 -182.5 q199 2 328 49t129 125z" glyph-name="egrave" horiz-adv-x="1130" unicode="è"/><glyph d="M834 1210h-177l181 293h338zM569 -33q-231 0 -362 129t-127 350q4 272 187.5 465t484.5 193q166 0 262 -69.5t94 -198.5t-154 -273.5t-563 -144.5h-22q20 -195 252 -195q188 0 311 109l100 -201q-178 -164 -463 -164zM846 768q0 78 -118 78t-210 -69.5t-129 -182.5 q199 2 328 49t129 125z" glyph-name="eacute" horiz-adv-x="1130" unicode="é"/><glyph d="M666 1231h-234l293 285h172l182 -285h-225l-76 112zM569 -33q-231 0 -362 129t-127 350q4 272 187.5 465t484.5 193q166 0 262 -69.5t94 -198.5t-154 -273.5t-563 -144.5h-22q20 -195 252 -195q188 0 311 109l100 -201q-178 -164 -463 -164zM846 768q0 78 -118 78 t-210 -69.5t-129 -182.5q199 2 328 49t129 125z" glyph-name="ecircumflex" horiz-adv-x="1130" unicode="ê"/><glyph d="M598 1513q61 0 95 -37.5t22 -108.5q-22 -132 -146 -132q-61 0 -97 38t-23 109q24 131 149 131zM995 1513q61 0 94 -37.5t22 -107.5t-51 -101.5t-97 -31.5t-92 38t-23 109q22 131 147 131zM569 -33q-231 0 -362 129t-127 350q4 272 187.5 465t484.5 193q166 0 262 -69.5 t94 -198.5t-154 -273.5t-563 -144.5h-22q20 -195 252 -195q188 0 311 109l100 -201q-178 -164 -463 -164zM846 768q0 78 -118 78t-210 -69.5t-129 -182.5q199 2 328 49t129 125z" glyph-name="edieresis" horiz-adv-x="1130" unicode="ë"/><glyph d="M526 1247h-174l-241 293h338zM440 219q35 0 56 4l-43 -227q-68 -20 -165 -20t-159.5 61t-40.5 190l152 846h301l-144 -797q-10 -57 43 -57z" glyph-name="igrave" horiz-adv-x="610" unicode="ì"/><glyph d="M477 1204h-176l180 293h338zM440 219q35 0 56 4l-43 -227q-68 -20 -165 -20t-159.5 61t-40.5 190l152 846h301l-144 -797q-10 -57 43 -57z" glyph-name="iacute" horiz-adv-x="610" unicode="í"/><glyph d="M309 1225h-233l293 284h172l182 -284h-225l-76 112zM440 219q35 0 56 4l-43 -227q-68 -20 -165 -20t-159.5 61t-40.5 190l152 846h301l-144 -797q-10 -57 43 -57z" glyph-name="icircumflex" horiz-adv-x="610" unicode="î"/><glyph d="M242 1507q61 0 94.5 -37.5t21.5 -108.5q-23 -132 -145 -132q-61 0 -97 38t-24 109q25 131 150 131zM639 1507q61 0 94 -37.5t22 -107.5t-51 -101.5t-98 -31.5t-92.5 38t-21.5 109q22 131 147 131zM440 219q35 0 56 4l-43 -227q-68 -20 -165 -20t-159.5 61t-40.5 190 l152 846h301l-144 -797q-10 -57 43 -57z" glyph-name="idieresis" horiz-adv-x="610" unicode="ï"/><glyph d="M537 -33q-227 0 -346 137.5t-100 385.5t182 432t415 184q166 0 254 -123q-27 145 -123 260l-221 -94l-41 106l172 74q-55 45 -117 78l195 156q94 -57 172 -127l197 86l38 -109l-153 -65q239 -298 151.5 -672.5t-200.5 -493.5t-225.5 -167t-249.5 -48zM687 840 q-116 0 -196.5 -92.5t-94.5 -228.5t35.5 -211t167.5 -75t196 102t91 232t-35 201.5t-164 71.5z" glyph-name="eth" horiz-adv-x="1241" unicode="ð"/><glyph d="M885 1243q-57 0 -127 39t-105 39q-72 0 -118 -92l-132 78q39 100 107 149t133 49t135 -40t94 -40q58 1 117 101l146 -68q-96 -215 -250 -215zM916 1104q150 0 229.5 -96.5t44.5 -268.5l-92 -475q-6 -29 7 -47t37.5 -18t49.5 4l-39 -193q-59 -25 -168 -24q-233 0 -184 256 l84 430q37 172 -119 172q-106 0 -191.5 -104.5t-121.5 -303.5l-78 -436h-297l155 823q12 72 -51 72q-33 0 -57 -10l33 192q198 52 260.5 -10.5t58.5 -157.5l-12 -59h4q90 139 193.5 196.5t253.5 57.5z" glyph-name="ntilde" horiz-adv-x="1312" unicode="ñ"/><glyph d="M868 1247h-174l-241 293h338zM719 1096q207 0 340 -121t133 -344q0 -264 -173 -459t-460 -195q-213 0 -345 127t-132 342q0 270 171 460t466 190zM684 844q-139 0 -221 -112t-82 -244q0 -260 203 -259q139 0 224 112t85 269q0 234 -209 234z" glyph-name="ograve" horiz-adv-x="1232" unicode="ò"/><glyph d="M817 1204h-176l180 293h338zM719 1096q207 0 340 -121t133 -344q0 -264 -173 -459t-460 -195q-213 0 -345 127t-132 342q0 270 171 460t466 190zM684 844q-139 0 -221 -112t-82 -244q0 -260 203 -259q139 0 224 112t85 269q0 234 -209 234z" glyph-name="oacute" horiz-adv-x="1232" unicode="ó"/><glyph d="M649 1225h-233l293 284h172l182 -284h-225l-76 112zM719 1096q207 0 340 -121t133 -344q0 -264 -173 -459t-460 -195q-213 0 -345 127t-132 342q0 270 171 460t466 190zM584 229q139 0 224 112t85 269q0 233 -209 234q-139 0 -221 -112t-82 -244q0 -260 203 -259z" glyph-name="ocircumflex" horiz-adv-x="1232" unicode="ô"/><glyph d="M872 1237q-57 0 -126.5 39t-104.5 39q-72 0 -119 -92l-131 77q39 100 106 149.5t133 49.5t136 -40t94 -40q58 1 117 101l145 -68q-96 -215 -250 -215zM719 1096q207 0 340 -121t133 -344q0 -264 -173 -459t-460 -195q-213 0 -345 127t-132 342q0 270 171 460t466 190z M684 844q-139 0 -221 -112t-82 -244q0 -260 203 -259q139 0 224 112t85 269q0 234 -209 234z" glyph-name="otilde" horiz-adv-x="1232" unicode="õ"/><glyph d="M582 1507q61 0 94.5 -37.5t21.5 -108.5q-23 -132 -145 -132q-61 0 -97 38t-24 109q25 131 150 131zM979 1507q61 0 94 -37.5t22 -107.5t-51 -101.5t-98 -31.5t-92.5 38t-22.5 109q23 131 148 131zM719 1096q207 0 340 -121t133 -344q0 -264 -173 -459t-460 -195 q-213 0 -345 127t-132 342q0 270 171 460t466 190zM684 844q-139 0 -221 -112t-82 -244q0 -260 203 -259q139 0 224 112t85 269q0 234 -209 234z" glyph-name="odieresis" horiz-adv-x="1232" unicode="ö"/><glyph d="M641 797q-129 1 -129 129q0 68 51 111.5t111 43.5q128 1 129 -127q0 -68 -51.5 -112.5t-110.5 -44.5zM1059 453h-957l31 174h957zM503 8q-130 0 -130 128q0 68 51.5 112.5t111.5 44.5q126 -1 126 -129q0 -68 -49.5 -112t-109.5 -44z" glyph-name="divide" horiz-adv-x="1189" unicode="÷"/><glyph d="M1192 612q0 -246 -173 -440.5t-460 -194.5q-117 0 -205 37l-157 -221l-123 82l162 209q-154 131 -154 362q0 270 171 460t466 190q117 0 215 -41l151 221l129 -72l-165 -219q143 -127 143 -373zM381 467q0 -91 33 -148l364 508q-43 16 -94 17q-139 0 -221 -111.5 t-82 -265.5zM893 610q0 78 -25 129l-356 -499q35 -10 72 -11q139 0 224 112t85 269z" glyph-name="oslash" horiz-adv-x="1247" unicode="ø"/><glyph d="M866 1247h-174l-241 293h337zM338 1104q236 0 184 -254l-84 -440q-31 -172 128 -172q77 0 154 69.5t103 220.5l99 551h297l-154 -843q-8 -61 37 -62q29 0 61 4l-37 -174q-61 -29 -154 -29t-138.5 35t-36.5 131l12 62h-8q-102 -227 -361 -228q-170 0 -256 99.5t-47 304.5 l86 450q12 68 -51 68q-28 0 -59 -8l37 188q74 27 188 27z" glyph-name="ugrave" horiz-adv-x="1269" unicode="ù"/><glyph d="M817 1204h-176l180 293h338zM338 1104q236 0 184 -254l-84 -440q-31 -172 128 -172q77 0 154 69.5t103 220.5l99 551h297l-154 -843q-8 -61 37 -62q29 0 61 4l-37 -174q-61 -29 -154 -29t-138.5 35t-36.5 131l12 62h-8q-102 -227 -361 -228q-170 0 -256 99.5t-47 304.5 l86 450q12 68 -51 68q-28 0 -59 -8l37 188q74 27 188 27z" glyph-name="uacute" horiz-adv-x="1269" unicode="ú"/><glyph d="M649 1225h-233l293 284h172l182 -284h-225l-76 112zM972 -25q-93 0 -138.5 35t-36.5 131l12 62h-8q-102 -227 -361 -228q-170 0 -256 99.5t-47 304.5l86 450q12 68 -51 68q-29 0 -59 -8l37 188q74 27 188 27q236 0 184 -254l-84 -440q-31 -172 128 -172q77 0 154 69.5 t103 220.5l99 551h297l-154 -843q-8 -61 37 -62q29 0 61 4l-37 -174q-61 -29 -154 -29z" glyph-name="ucircumflex" horiz-adv-x="1269" unicode="û"/><glyph d="M582 1507q61 0 94.5 -37.5t21.5 -108.5q-23 -132 -145 -132q-61 0 -97 38t-24 109q25 131 150 131zM979 1507q61 0 94 -37.5t22 -107.5t-51 -101.5t-98 -31.5t-92.5 38t-22.5 109q23 131 148 131zM338 1104q236 0 184 -254l-84 -440q-31 -172 128 -172q77 0 154 69.5 t103 220.5l99 551h297l-154 -843q-8 -61 37 -62q29 0 61 4l-37 -174q-61 -29 -154 -29t-138.5 35t-36.5 131l12 62h-8q-102 -227 -361 -228q-170 0 -256 99.5t-47 304.5l86 450q12 68 -51 68q-28 0 -59 -8l37 188q74 27 188 27z" glyph-name="udieresis" horiz-adv-x="1269" unicode="ü"/><glyph d="M752 1210h-177l181 293h338zM207 -453q-133 0 -236 54l74 217q72 -29 127 -29q96 0 170 152l49 100l-221 780q-10 39 -22.5 53.5t-38.5 14.5q-27 0 -50 -6l37 188q68 27 156 27t132 -40t62 -120l136 -614l346 749h313l-643 -1229q-80 -156 -169 -226.5t-222 -70.5z" glyph-name="yacute" horiz-adv-x="1155" unicode="ý"/><glyph d="M856 1098q160 0 248 -118t88 -306t-69.5 -343t-208 -259.5t-298.5 -104.5t-245 68l-82 -457h-297l346 1962h280l-114 -643h6q111 201 346 201zM569 209q141 0 232.5 122t91.5 292q0 213 -168 213q-92 0 -164.5 -67t-95.5 -200l-55 -305q55 -55 159 -55z" glyph-name="thorn" horiz-adv-x="1234" unicode="þ"/><glyph d="M516 1513q61 0 95 -37.5t22 -108.5q-22 -132 -146 -132q-61 0 -97 38t-23 109q24 131 149 131zM913 1513q61 0 94 -37.5t22 -107.5t-51 -101.5t-97 -31.5t-92 38t-23 109q22 131 147 131zM207 -453q-133 0 -236 54l74 217q72 -29 127 -29q96 0 170 152l49 100l-221 780 q-10 39 -22.5 53.5t-38.5 14.5q-27 0 -50 -6l37 188q68 27 156 27t132 -40t62 -120l136 -614l346 749h313l-643 -1229q-80 -156 -169 -226.5t-222 -70.5z" glyph-name="ydieresis" horiz-adv-x="1155" unicode="ÿ"/><glyph d="M1249 1647h-577l24 147h578zM457 272l-140 -272h-331l790 1434h311l302 -1434h-340l-45 272h-547zM866 1077l-284 -559h379z" glyph-name="Amacron" horiz-adv-x="1525" unicode="Ā"/><glyph d="M1065 1292h-578l25 148h578zM446 -25q-164 0 -267 118t-103 323q0 283 182 485.5t442 202.5q94 0 252 -37h244l-145 -813q-12 -72 46 -72q28 0 46 2l-37 -174q-68 -29 -166 -28q-178 0 -164 194q-113 -201 -330 -201zM723 858q-156 0 -246 -126t-90 -288q0 -223 178 -223 q92 0 159.5 77t90.5 208l55 323q-63 29 -147 29z" glyph-name="amacron" horiz-adv-x="1251" unicode="ā"/><glyph d="M949 1585q-122 0 -196.5 69.5t-62.5 209.5h141q0 -55 37 -88t111 -33q139 0 188 121h140q-37 -139 -136.5 -209t-221.5 -70zM457 272l-140 -272h-331l790 1434h311l302 -1434h-340l-45 272h-547zM866 1077l-284 -559h379z" glyph-name="Abreve" horiz-adv-x="1525" unicode="Ă"/><glyph d="M765 1231q-122 0 -196.5 69.5t-62.5 208.5h141q0 -55 37 -87.5t111 -32.5q139 -1 188 120h139q-37 -139 -136 -208.5t-221 -69.5zM446 -25q-164 0 -267 118t-103 323q0 283 182 485.5t442 202.5q94 0 252 -37h244l-145 -813q-12 -72 46 -72q28 0 46 2l-37 -174 q-68 -29 -166 -28q-178 0 -164 194q-113 -201 -330 -201zM723 858q-156 0 -246 -126t-90 -288q0 -223 178 -223q92 0 159.5 77t90.5 208l55 323q-63 29 -147 29z" glyph-name="abreve" horiz-adv-x="1251" unicode="ă"/><glyph d="M1389 0h-76q-143 -104 -144 -195q0 -78 105 -92l-74 -166q-240 31 -239 209q0 129 182 244h-94l-45 272h-547l-140 -272h-331l790 1434h311zM961 518l-95 559l-284 -559h379z" glyph-name="Aogonek" horiz-adv-x="1525" unicode="Ą"/><glyph d="M963 -184q0 -78 104 -92l-74 -166q-240 31 -239 209q0 117 143 219q-133 23 -121 190q-113 -201 -330 -201q-164 0 -267 118t-103 323q0 283 182 485.5t442 202.5q94 0 252 -37h244l-145 -813q-12 -72 46 -72q28 0 46 2l-37 -174q-143 -104 -143 -194zM723 858 q-156 0 -246 -126t-90 -288q0 -223 178 -223q92 0 159.5 77t90.5 208l55 323q-63 29 -147 29z" glyph-name="aogonek" horiz-adv-x="1251" unicode="ą"/><glyph d="M1055 1581h-176l180 293h338zM682 -33q-260 0 -426 159.5t-166 447.5t122 491t315.5 302t426.5 99q307 0 455 -135l-186 -246q-119 95 -313 95t-339 -147.5t-145 -407.5q0 -186 92 -278.5t242 -92.5q188 2 356 125l115 -225q-100 -82 -246.5 -134.5t-302.5 -52.5z" glyph-name="Cacute" horiz-adv-x="1347" unicode="Ć"/><glyph d="M805 1204h-176l180 293h338zM564 -33q-236 0 -359 134.5t-123 349.5q0 164 70.5 310t219 245.5t364.5 99.5t356 -129l-144 -205q-88 78 -236 78t-239.5 -109t-91.5 -243t64.5 -204.5t184.5 -70.5t242 96l101 -200q-173 -152 -409 -152z" glyph-name="cacute" horiz-adv-x="1069" unicode="ć"/><glyph d="M1036.5 1896q63.5 0 101.5 -36.5t26 -109.5t-63 -109.5t-115 -36.5t-101 36.5t-25 109.5t62.5 109.5t114 36.5zM682 -33q-260 0 -426 159.5t-166 447.5t122 491t315.5 302t426.5 99q307 0 455 -135l-186 -246q-119 95 -313 95t-339 -147.5t-145 -407.5q0 -186 92 -278.5 t242 -92.5q188 2 356 125l115 -225q-100 -82 -246.5 -134.5t-302.5 -52.5z" glyph-name="Cdotaccent" horiz-adv-x="1347" unicode="Ċ"/><glyph d="M786.5 1518q63.5 0 101.5 -37t26 -110t-63 -109.5t-115 -36.5t-101 36.5t-25 109.5t62.5 110t114 37zM564 -33q-236 0 -359 134.5t-123 349.5q0 164 70.5 310t219 245.5t364.5 99.5t356 -129l-144 -205q-88 78 -236 78t-239.5 -109t-91.5 -243t64.5 -204.5t184.5 -70.5 t242 96l101 -200q-173 -152 -409 -152z" glyph-name="cdotaccent" horiz-adv-x="1069" unicode="ċ"/><glyph d="M893 1604l-191 278h230l76 -117l118 117h222l-277 -278h-178zM426 625q0 -186 92 -278.5t242 -92.5q188 2 356 125l115 -225q-100 -82 -246.5 -134.5t-302.5 -52.5q-260 0 -426 159.5t-166 447.5t122 491t315.5 302t426.5 99q308 0 455 -135l-186 -246q-119 95 -313 95 t-339 -147.5t-145 -407.5z" glyph-name="Ccaron" horiz-adv-x="1347" unicode="Č"/><glyph d="M641 1225l-190 278h229l76 -117l118 117h222l-277 -278h-178zM712 850q-148 0 -239.5 -109t-91.5 -243t64.5 -204.5t184.5 -70.5t242 96l101 -200q-173 -152 -409 -152t-359 134.5t-123 349.5q0 164 70.5 310t219 245.5t364.5 99.5t356 -129l-144 -205q-88 78 -236 78z " glyph-name="ccaron" horiz-adv-x="1069" unicode="č"/><glyph d="M709 1585l-191 279h230l75 -117l119 117h221l-276 -279h-178zM758 1434q291 0 465 -154t174 -442q0 -356 -239.5 -597t-643.5 -241h-477l252 1434h469zM567 281q225 0 359.5 160.5t134.5 381.5q0 328 -340 328h-166l-154 -870h166z" glyph-name="Dcaron" horiz-adv-x="1423" unicode="Ď"/><glyph d="M1102 182q33 0 49 2l-37 -174q-68 -28 -159 -28t-131 47t-36 147q-96 -203 -337 -203q-170 0 -270.5 119t-100.5 324q0 252 112.5 407.5t238 217t259.5 61.5t219 -35l82 473h295l-227 -1284q-12 -74 43 -74zM1487 1196h-129l65 344h228zM715 844q-141 0 -227.5 -109 t-86.5 -247q0 -250 166 -250q90 0 159.5 74.5t92.5 203.5l49 297q-61 31 -153 31z" glyph-name="dcaron" horiz-adv-x="1261" unicode="ď"/><glyph d="M1096 1647h-578l25 147h577zM758 1434q291 0 465 -154t174 -442q0 -356 -239.5 -597t-643.5 -241h-477l252 1434h469zM567 281q225 0 359.5 160.5t134.5 381.5q0 328 -340 328h-166l-154 -870h166z" glyph-name="Dcroat" horiz-adv-x="1423" unicode="Đ"/><glyph d="M1102 182q33 0 49 2l-37 -174q-68 -28 -159 -28t-131 47t-36 147q-96 -203 -337 -203q-170 0 -270.5 119t-100.5 324q0 252 112.5 407.5t238 217t259.5 61.5t219 -35l27 156h-170l25 145h170l30 172h295l-31 -172h154l-25 -145h-153l-172 -967q-12 -74 43 -74zM715 844 q-141 0 -227.5 -109t-86.5 -247q0 -250 166 -250q90 0 159.5 74.5t92.5 203.5l49 297q-61 31 -153 31z" glyph-name="dcroat" horiz-adv-x="1257" unicode="đ"/><glyph d="M1077 1647h-577l24 147h578zM553 1167l-57 -311h569l-47 -266h-567l-56 -322h660l-47 -268h-971l252 1434h971l-48 -267h-659z" glyph-name="Emacron" horiz-adv-x="1239" unicode="Ē"/><glyph d="M1059 1292h-578l25 148h577zM569 -33q-231 0 -362 129t-127 350q4 272 187.5 465t484.5 193q166 0 262 -69.5t94 -198.5t-154 -273.5t-563 -144.5h-22q20 -195 252 -195q188 0 311 109l100 -201q-178 -164 -463 -164zM846 768q0 78 -118 78t-210 -69.5t-129 -182.5 q199 2 328 49t129 125z" glyph-name="emacron" horiz-adv-x="1130" unicode="ē"/><glyph d="M777 1585q-122 0 -196.5 69.5t-62.5 209.5h141q0 -55 37 -88t111 -33q139 0 188 121h140q-37 -139 -136.5 -209t-221.5 -70zM553 1167l-57 -311h569l-47 -266h-567l-56 -322h660l-47 -268h-971l252 1434h971l-48 -267h-659z" glyph-name="Ebreve" horiz-adv-x="1239" unicode="Ĕ"/><glyph d="M759 1231q-122 0 -197 69.5t-62 208.5h141q0 -55 37 -87.5t110 -32.5q140 -1 189 120h139q-37 -139 -136 -208.5t-221 -69.5zM569 -33q-231 0 -362 129t-127 350q4 272 187.5 465t484.5 193q166 0 262 -69.5t94 -198.5t-154 -273.5t-563 -144.5h-22q20 -195 252 -195 q188 0 311 109l100 -201q-178 -164 -463 -164zM846 768q0 78 -118 78t-210 -69.5t-129 -182.5q199 2 328 49t129 125z" glyph-name="ebreve" horiz-adv-x="1130" unicode="ĕ"/><glyph d="M833.5 1878q63.5 0 101.5 -37t26 -109t-63.5 -109.5t-115.5 -37.5t-100.5 37t-24.5 110t62.5 109.5t114 36.5zM553 1167l-57 -311h569l-47 -266h-567l-56 -322h660l-47 -268h-971l252 1434h971l-48 -267h-659z" glyph-name="Edotaccent" horiz-adv-x="1239" unicode="Ė"/><glyph d="M815.5 1524q63.5 0 101 -37t25.5 -110t-63.5 -109.5t-114.5 -36.5t-100 37.5t-25 109.5t62.5 109t114 37zM569 -33q-231 0 -362 129t-127 350q4 272 187.5 465t484.5 193q166 0 262 -69.5t94 -198.5t-154 -273.5t-563 -144.5h-22q20 -195 252 -195q188 0 311 109 l100 -201q-178 -164 -463 -164zM846 768q0 78 -118 78t-210 -69.5t-129 -182.5q199 2 328 49t129 125z" glyph-name="edotaccent" horiz-adv-x="1130" unicode="ė"/><glyph d="M535 -195q0 -78 104 -92l-74 -166q-240 31 -239 209q0 129 182 244h-471l252 1434h971l-48 -267h-659l-57 -311h569l-47 -266h-567l-56 -322h660l-47 -268h-330q-143 -104 -143 -195z" glyph-name="Eogonek" horiz-adv-x="1239" unicode="Ę"/><glyph d="M512 -188q0 86 70 155h-13q-231 0 -362 129t-127 350q4 272 187.5 465t484.5 193q166 0 262 -69.5t94 -198.5t-154 -273.5t-563 -144.5h-22q20 -195 252 -195q188 0 311 109l100 -201q-100 -92 -237 -133q-74 -72 -74 -137q0 -78 104 -92l-73 -166q-240 31 -240 209z M846 768q0 78 -118 78t-210 -69.5t-129 -182.5q199 2 328 49t129 125z" glyph-name="eogonek" horiz-adv-x="1130" unicode="ę"/><glyph d="M690 1585l-190 279h229l76 -117l119 117h221l-277 -279h-178zM553 1167l-57 -311h569l-47 -266h-567l-56 -322h660l-47 -268h-971l252 1434h971l-48 -267h-659z" glyph-name="Ecaron" horiz-adv-x="1239" unicode="Ě"/><glyph d="M672 1231l-191 278h230l75 -116l119 116h221l-276 -278h-178zM569 -33q-231 0 -362 129t-127 350q4 272 187.5 465t484.5 193q166 0 262 -69.5t94 -198.5t-154 -273.5t-563 -144.5h-22q20 -195 252 -195q188 0 311 109l100 -201q-178 -164 -463 -164zM846 768 q0 78 -118 78t-210 -69.5t-129 -182.5q199 2 328 49t129 125z" glyph-name="ecaron" horiz-adv-x="1130" unicode="ě"/><glyph d="M931 1595q-122 0 -197 70t-62 209h141q0 -55 37 -88t111 -33q139 0 188 121h139q-37 -139 -136 -209t-221 -70zM690 -31q-249 0 -377.5 103.5t-177.5 220.5t-49 273t55.5 314t157.5 291.5t270 215t373 81.5q307 0 496 -165l-185 -228q-133 103 -311 103t-350 -128.5 t-172 -443.5q0 -174 82 -261t236 -87t263 92l48 232h-324l45 249h621l-111 -645q-240 -217 -590 -217z" glyph-name="Gbreve" horiz-adv-x="1472" unicode="Ğ"/><glyph d="M752 1231q-122 0 -196.5 69.5t-61.5 208.5h141q0 -55 37 -87.5t110 -32.5q140 -1 189 120h139q-37 -139 -136.5 -208.5t-221.5 -69.5zM446 39q-143 0 -252.5 112.5t-109.5 313.5q0 258 176 449.5t442 191.5q160 0 265 -39l231 -6l-186 -1055q-84 -461 -596 -461 q-106 0 -215 29t-174 76l88 235q137 -86 309 -86q260 0 303 221l37 193q-119 -174 -318 -174zM705 848q-135 0 -217 -101.5t-82 -252.5q0 -100 44 -152.5t124 -52.5t149.5 62t89.5 177l49 287q-61 33 -157 33z" glyph-name="gbreve" horiz-adv-x="1198" unicode="ğ"/><glyph d="M985.5 1888q63.5 0 101 -36.5t25.5 -109.5t-63.5 -110t-114.5 -37t-100 37t-25 110t62.5 109.5t114 36.5zM690 -31q-249 0 -377.5 103.5t-177.5 220.5t-49 273t55.5 314t157.5 291.5t270 215t373 81.5q307 0 496 -165l-185 -228q-133 103 -311 103t-350 -128.5 t-172 -443.5q0 -174 82 -261t236 -87t263 92l48 232h-324l45 249h621l-111 -645q-240 -217 -590 -217z" glyph-name="Gdotaccent" horiz-adv-x="1472" unicode="Ġ"/><glyph d="M808.5 1524q63.5 0 101.5 -37t26 -110t-63.5 -109.5t-114.5 -36.5t-100 37.5t-25 109.5t62 109t113.5 37zM446 39q-143 0 -252.5 112.5t-109.5 313.5q0 258 176 449.5t442 191.5q160 0 265 -39l231 -6l-186 -1055q-84 -461 -596 -461q-106 0 -215 29t-174 76l88 235 q137 -86 309 -86q260 0 303 221l37 193q-119 -174 -318 -174zM705 848q-135 0 -217 -101.5t-82 -252.5q0 -100 44 -152.5t124 -52.5t149.5 62t89.5 177l49 287q-61 33 -157 33z" glyph-name="gdotaccent" horiz-adv-x="1198" unicode="ġ"/><glyph d="M690 -31q-249 0 -377.5 103.5t-177.5 220.5t-49 273t55.5 314t157.5 291.5t270 215t373 81.5q307 0 496 -165l-185 -228q-133 103 -311 103t-350 -128.5t-172 -443.5q0 -174 82 -261t236 -87t263 92l48 232h-324l45 249h621l-111 -645q-240 -217 -590 -217zM625 -453 h-129l65 344h227z" glyph-name="Gcommaaccent" horiz-adv-x="1472" unicode="Ģ"/><glyph d="M446 39q-143 0 -252.5 112.5t-109.5 313.5q0 258 176 449.5t442 191.5q160 0 265 -39l231 -6l-186 -1055q-84 -461 -596 -461q-106 0 -215 29t-174 76l88 235q137 -86 309 -86q260 0 303 221l37 193q-119 -174 -318 -174zM705 848q-135 0 -217 -101.5t-82 -252.5 q0 -100 44 -152.5t124 -52.5t149.5 62t89.5 177l49 287q-61 33 -157 33zM371 -877h-129l65 345h228z" glyph-name="gcommaaccent" horiz-adv-x="1198" unicode="ģ"/><glyph d="M1737 1036h-133l-183 -1036h-311l104 584h-634l-103 -584h-311l182 1036h-129l31 183h131l37 215h311l-37 -215h635l37 215h309l-37 -215h131zM1294 1036h-635l-32 -186h635z" glyph-name="Hbar" horiz-adv-x="1777" unicode="Ħ"/><glyph d="M1117 197q19 0 57 6l-41 -195q-63 -25 -162 -24q-203 0 -203 172q0 35 10 82l84 428q35 178 -106 178q-121 0 -209 -121t-127 -334l-72 -389h-297l193 1057h-168l24 147h172l7 39q12 63 -50 64q-31 0 -55 -11l49 232q53 23 150 22q229 0 180 -266l-14 -80h43l-25 -147 h-45l-31 -178h13q66 113 165 169t211 56q174 0 247 -93.5t42 -269.5l-86 -477l-2 -18q0 -20 13.5 -34.5t32.5 -14.5z" glyph-name="hbar" horiz-adv-x="1255" unicode="ħ"/><glyph d="M766 1647h-578l25 147h578zM37 0l252 1434h309l-252 -1434h-309z" glyph-name="Imacron" horiz-adv-x="571" unicode="Ī"/><glyph d="M702 1286h-577l25 148h577zM440 219q35 0 56 4l-43 -227q-68 -20 -165 -20t-159.5 61t-40.5 190l152 846h301l-144 -797q-10 -57 43 -57z" glyph-name="imacron" horiz-adv-x="610" unicode="ī"/><glyph d="M160 -193q0 -78 104 -92l-74 -166q-240 31 -239 209q0 129 178 242h-92l252 1434h309l-252 -1434h-45q-141 -104 -141 -193z" glyph-name="Iogonek" horiz-adv-x="571" unicode="Į"/><glyph d="M499 1583q81 0 119.5 -38.5t34.5 -108.5t-63.5 -123t-140.5 -53t-116.5 36.5t-31.5 108.5t60.5 125t137.5 53zM446 190q18 0 62 7l-37 -197q-10 -4 -39 -12q-121 -92 -121 -176q0 -78 105 -93l-74 -165q-240 31 -240 208q0 117 142 218q-184 29 -138 251l150 842h303 l-149 -817q-6 -29 6 -47.5t30 -18.5z" glyph-name="iogonek" horiz-adv-x="612" unicode="į"/><glyph d="M522.5 1878q63.5 0 101.5 -37t26 -109t-63 -109.5t-115 -37.5t-101 37t-25 110t62.5 109.5t114 36.5zM37 0l252 1434h309l-252 -1434h-309z" glyph-name="Idotaccent" horiz-adv-x="571" unicode="İ"/><glyph d="M440 219q35 0 56 4l-43 -227q-68 -20 -165 -20t-159.5 61t-40.5 190l152 846h301l-144 -797q-10 -57 43 -57z" glyph-name="dotlessi" horiz-adv-x="610" unicode="ı"/><glyph d="M37 0l252 1434h309l-252 -1434h-309zM788 -37q-180 0 -280 37l65 258q76 -16 192 -16t191.5 58t98.5 204l164 930h315l-164 -934q-92 -537 -582 -537z" glyph-name="IJ" horiz-adv-x="1507" unicode="Ĳ"/><glyph d="M499 1583q81 0 119.5 -38.5t34.5 -108.5t-63.5 -123t-140.5 -53t-116.5 36.5t-31.5 108.5t60.5 125t137.5 53zM1099 1583q81 0 119.5 -39.5t35.5 -107.5t-63.5 -122t-142.5 -54t-116.5 36.5t-30.5 108.5t60.5 125t137.5 53zM446 190q18 0 62 7l-37 -197q-59 -25 -168 -25 q-252 0 -197 256l150 842h303l-149 -817q-6 -29 6 -47.5t30 -18.5zM520 -455q-121 0 -176 35l57 230q43 -12 107 -12q134 -1 158 134l202 1141h295l-215 -1204q-29 -158 -143.5 -241t-284.5 -83z" glyph-name="ij" horiz-adv-x="1234" unicode="ĳ"/><glyph d="M1298 0h-399l-315 590l-150 -135l-80 -455h-309l252 1434h309l-100 -580l586 580h417l-698 -635zM565 -453h-129l66 344h227z" glyph-name="Kcommaaccent" horiz-adv-x="1443" unicode="Ķ"/><glyph d="M891 -25q-172 0 -238 152l-98 213l-141 -51l-54 -289h-297l222 1243q12 63 -43 64q-14 0 -52 -9l39 226q92 27 160 26q121 0 164 -70.5t12 -232.5l-57 -309q137 166 338 166q143 0 220 -76t77 -199q0 -246 -305 -385l82 -165q42 -79 88 -79t77 27l60 -174 q-82 -78 -254 -78zM831 748q0 39 -25.5 63.5t-72.5 24.5q-82 0 -160.5 -82t-119.5 -248l147 49q231 78 231 193zM475 -453h-129l66 344h227z" glyph-name="kcommaaccent" horiz-adv-x="1239" unicode="ķ"/><glyph d="M569 1565h-176l180 293h338zM1055 279l-47 -279h-971l252 1434h309l-203 -1155h660z" glyph-name="Lacute" horiz-adv-x="1128" unicode="Ĺ"/><glyph d="M528 1671h-176l180 293h338zM399 1559q236 0 181 -277l-189 -1006q-12 -57 43 -57q16 0 47 6l-43 -229q-216 -53 -299.5 23.5t-58.5 207.5l194 1024q6 31 -8 47.5t-34 16.5t-56 -8l41 227q80 25 182 25z" glyph-name="lacute" horiz-adv-x="602" unicode="ĺ"/><glyph d="M1055 279l-47 -279h-971l252 1434h309l-203 -1155h660zM492 -453h-130l66 344h227z" glyph-name="Lcommaaccent" horiz-adv-x="1128" unicode="Ļ"/><glyph d="M399 1559q236 0 181 -277l-189 -1006q-12 -57 43 -57q16 0 47 6l-43 -229q-216 -53 -299.5 23.5t-58.5 207.5l194 1024q6 31 -8 47.5t-34 16.5t-56 -8l41 227q80 25 182 25zM180 -453h-129l66 344h227z" glyph-name="lcommaaccent" horiz-adv-x="602" unicode="ļ"/><glyph d="M1055 279l-47 -279h-971l252 1434h309l-203 -1155h660zM889 1090h-129l65 344h228z" glyph-name="Lcaron" horiz-adv-x="1128" unicode="Ľ"/><glyph d="M399 1559q236 0 181 -277l-189 -1006q-12 -57 43 -57q16 0 47 6l-43 -229q-216 -53 -299.5 23.5t-58.5 207.5l194 1024q6 31 -8 47.5t-34 16.5t-56 -8l41 227q80 25 182 25zM774 1196h-129l66 344h227z" glyph-name="lcaron" horiz-adv-x="802" unicode="ľ"/><glyph d="M1055 279l-47 -279h-971l252 1434h309l-203 -1155h660zM871 997q77 0 127 -55t34 -144t-71 -130t-131 -41t-126 55.5t-34 143.5t70 129.5t131 41.5z" glyph-name="Ldot" horiz-adv-x="1128" unicode="Ŀ"/><glyph d="M399 1559q236 0 181 -277l-189 -1006q-12 -57 43 -57q16 0 47 6l-43 -229q-216 -53 -299.5 23.5t-58.5 207.5l194 1024q6 31 -8 47.5t-34 16.5t-56 -8l41 227q80 25 182 25zM777 977q77 0 127 -55.5t34 -144.5t-70.5 -130t-131.5 -41t-126.5 55.5t-33.5 143.5t70 130 t131 42z" glyph-name="ldot" horiz-adv-x="843" unicode="ŀ"/><glyph d="M526 954l275 107l-41 -234l-277 -108l-77 -440h616l-49 -279h-926l100 584l-180 -74l41 233l182 74l109 617h309z" glyph-name="Lslash" horiz-adv-x="1148" unicode="Ł"/><glyph d="M471 219q16 0 47 6l-43 -229q-216 -53 -299.5 23.5t-58.5 207.5l88 469l-176 -63l41 198l174 62l67 358q6 31 -7.5 47.5t-33.5 16.5t-57 -8l41 227q80 25 182 25q236 0 180 -277l-51 -274l217 77l-43 -200l-211 -76l-100 -533q-12 -57 43 -57z" glyph-name="lslash" horiz-adv-x="704" unicode="ł"/><glyph d="M1016 1565h-176l180 293h338zM1016 0l-512 893l-158 -893h-309l252 1434h262l504 -902l157 902h318l-252 -1434h-262z" glyph-name="Nacute" horiz-adv-x="1501" unicode="Ń"/><glyph d="M829 1210h-176l181 293h337zM916 1104q150 0 229.5 -96.5t44.5 -268.5l-92 -475q-6 -29 7 -47t37.5 -18t49.5 4l-39 -193q-59 -25 -168 -24q-233 0 -184 256l84 430q37 172 -119 172q-106 0 -191.5 -104.5t-121.5 -303.5l-78 -436h-297l155 823q12 72 -51 72 q-33 0 -57 -10l33 192q198 52 260.5 -10.5t58.5 -157.5l-12 -59h4q90 139 193.5 196.5t253.5 57.5z" glyph-name="nacute" horiz-adv-x="1312" unicode="ń"/><glyph d="M1016 0l-512 893l-158 -893h-309l252 1434h262l504 -902l157 902h318l-252 -1434h-262zM653 -453h-129l66 344h227z" glyph-name="Ncommaaccent" horiz-adv-x="1501" unicode="Ņ"/><glyph d="M916 1104q150 0 229.5 -96.5t44.5 -268.5l-92 -475q-6 -29 7 -47t37.5 -18t49.5 4l-39 -193q-59 -25 -168 -24q-233 0 -184 256l84 430q37 172 -119 172q-106 0 -191.5 -104.5t-121.5 -303.5l-78 -436h-297l155 823q12 72 -51 72q-33 0 -57 -10l33 192 q198 52 260.5 -10.5t58.5 -157.5l-12 -59h4q90 139 193.5 196.5t253.5 57.5zM518 -453h-129l66 344h227z" glyph-name="ncommaaccent" horiz-adv-x="1312" unicode="ņ"/><glyph d="M854 1585l-190 279h229l76 -117l118 117h222l-277 -279h-178zM1530 1434l-252 -1434h-262l-512 893l-158 -893h-309l252 1434h262l504 -902l157 902h318z" glyph-name="Ncaron" horiz-adv-x="1501" unicode="Ň"/><glyph d="M668 1231l-191 278h230l75 -116l119 116h221l-276 -278h-178zM1142.5 199q24.5 0 49.5 4l-39 -193q-59 -25 -168 -24q-233 0 -184 256l84 430q37 172 -119 172q-106 0 -191.5 -104.5t-121.5 -303.5l-78 -436h-297l155 823q12 72 -51 72q-33 0 -57 -10l33 192 q198 52 260.5 -10.5t58.5 -157.5l-12 -59h4q90 139 193.5 196.5t253.5 57.5t229.5 -96.5t44.5 -268.5l-92 -475q-6 -29 7 -47t37.5 -18z" glyph-name="ncaron" horiz-adv-x="1312" unicode="ň"/><glyph d="M707 -471q-180 0 -281 37l66 258q76 -16 192 -16t191 58t98 204v4l-469 819l-158 -893h-309l252 1434h262l504 -902l157 902h318l-252 -1434h-2q-111 -471 -569 -471z" glyph-name="Eng" horiz-adv-x="1501" unicode="Ŋ"/><glyph d="M912 1104q150 0 229.5 -96.5t46.5 -268.5l-156 -870q-29 -162 -142.5 -243t-287.5 -81q-117 0 -172 35l57 230q43 -12 107 -12q134 -1 158 134l131 740q31 172 -119 172q-109 0 -194 -104.5t-119 -303.5l-80 -436h-295l147 791q12 70 -53 69q-33 0 -57 -8l43 225 q194 54 258.5 -9.5t58.5 -158.5l-10 -59h4q88 139 191.5 196.5t253.5 57.5z" glyph-name="eng" horiz-adv-x="1259" unicode="ŋ"/><glyph d="M1266 1657h-578l25 147h577zM948 1466q303 0 457.5 -170t148.5 -426t-115.5 -457.5t-306 -323.5t-454.5 -122t-424 164t-166 455q0 164 58.5 319.5t164 281.5t271 202.5t366.5 76.5zM903 1176q-152 0 -267.5 -93.5t-166.5 -220t-51 -272.5t86 -239t234 -93t262 93 t167.5 226t53.5 281t-83 233t-235 85z" glyph-name="Omacron" horiz-adv-x="1576" unicode="Ō"/><glyph d="M1042 1286h-577l24 148h578zM719 1096q207 0 340 -121t133 -344q0 -264 -173 -459t-460 -195q-213 0 -345 127t-132 342q0 270 171 460t466 190zM684 844q-139 0 -221 -112t-82 -244q0 -260 203 -259q139 0 224 112t85 269q0 234 -209 234z" glyph-name="omacron" horiz-adv-x="1232" unicode="ō"/><glyph d="M848 1618h-168l129 293h264zM1206 1618h-190l198 293h277zM948 1466q303 0 457.5 -170t148.5 -426t-115.5 -457.5t-306 -323.5t-454.5 -122t-424 164t-166 455q0 164 58.5 319.5t164 281.5t271 202.5t366.5 76.5zM903 1176q-152 0 -267.5 -93.5t-166.5 -220t-51 -272.5 t86 -239t234 -93t262 93t167.5 226t53.5 281t-83 233t-235 85z" glyph-name="Ohungarumlaut" horiz-adv-x="1576" unicode="Ő"/><glyph d="M625 1247h-168l129 293h264zM983 1247h-190l198 293h277zM719 1096q207 0 340 -121t133 -344q0 -264 -173 -459t-460 -195q-213 0 -345 127t-132 342q0 270 171 460t466 190zM684 844q-139 0 -221 -112t-82 -244q0 -260 203 -259q139 0 224 112t85 269q0 234 -209 234z " glyph-name="ohungarumlaut" horiz-adv-x="1232" unicode="ő"/><glyph d="M743 0q-338 0 -521 186.5t-124 538.5q63 350 310 529.5t585 179.5h867l-50 -281h-569l-53 -303h504l-43 -250h-506l-56 -319h570l-49 -281h-865zM911 1171q-188 0 -317 -116.5t-167 -329.5t49 -332t278 -119h14l158 897h-15z" glyph-name="OE" horiz-adv-x="1839" unicode="Œ"/><glyph d="M1221 -23q-291 0 -361 209q-152 -209 -397 -209q-178 0 -283.5 118t-105.5 313q0 293 173 495.5t421 202.5q139 0 217 -58.5t108 -181.5q74 109 186.5 173.5t252.5 64.5t226.5 -68.5t86.5 -187.5q0 -193 -180.5 -309.5t-431.5 -116.5q-23 0 -72 4q-4 -201 186 -201 q160 0 334 94l53 -215q-197 -127 -413 -127zM1481 772q0 74 -98 74t-181.5 -64.5t-122.5 -179.5q45 -4 68 -4q137 0 235.5 50t98.5 124zM535 229q123 0 205.5 120t82.5 282q0 102 -43 157.5t-123 55.5q-125 0 -205.5 -120t-80.5 -278q0 -100 43 -158.5t121 -58.5z" glyph-name="oe" horiz-adv-x="1792" unicode="œ"/><glyph d="M881 1565h-176l180 293h338zM827 1434q510 0 510 -381q0 -164 -91 -304.5t-269 -211.5l242 -537h-347l-202 477h-240l-84 -477h-309l252 1434h538zM688 745q158 0 233.5 79t75.5 170t-54 132t-179 41h-211l-76 -422h211z" glyph-name="Racute" horiz-adv-x="1374" unicode="Ŕ"/><glyph d="M635 1204h-176l180 293h338zM788 1104q78 0 134 -31l-54 -274q-51 23 -123 22q-106 0 -184 -95t-108 -261l-86 -465h-297l147 791q14 70 -43 69q-29 0 -57 -8l43 225q78 23 164 23q170 0 153 -180l-8 -58h12q111 242 307 242z" glyph-name="racute" horiz-adv-x="880" unicode="ŕ"/><glyph d="M827 1434q510 0 510 -381q0 -164 -91 -304.5t-269 -211.5l242 -537h-347l-202 477h-240l-84 -477h-309l252 1434h538zM688 745q158 0 233.5 79t75.5 170t-54 132t-179 41h-211l-76 -422h211zM526 -453h-129l66 344h227z" glyph-name="Rcommaaccent" horiz-adv-x="1374" unicode="Ŗ"/><glyph d="M788 1104q78 0 134 -31l-54 -274q-51 23 -123 22q-106 0 -184 -95t-108 -261l-86 -465h-297l147 791q14 70 -43 69q-29 0 -57 -8l43 225q78 23 164 23q170 0 153 -180l-8 -58h12q111 242 307 242zM170 -453h-129l65 344h228z" glyph-name="rcommaaccent" horiz-adv-x="880" unicode="ŗ"/><glyph d="M719 1585l-191 279h230l76 -117l118 117h222l-277 -279h-178zM827 1434q510 0 510 -381q0 -164 -91 -304.5t-269 -211.5l242 -537h-347l-202 477h-240l-84 -477h-309l252 1434h538zM688 745q158 0 233.5 79t75.5 170t-54 132t-179 41h-211l-76 -422h211z" glyph-name="Rcaron" horiz-adv-x="1374" unicode="Ř"/><glyph d="M473 1225l-190 278h229l76 -117l119 117h221l-277 -278h-178zM788 1104q78 0 134 -31l-54 -274q-51 23 -123 22q-106 0 -184 -95t-108 -261l-86 -465h-297l147 791q14 70 -43 69q-29 0 -57 -8l43 225q78 23 164 23q170 0 153 -180l-8 -58h12q111 242 307 242z" glyph-name="rcaron" horiz-adv-x="880" unicode="ř"/><glyph d="M864 1565h-176l180 293h338zM186 993q0 195 148.5 330t444.5 135t468 -145l-168 -228q-129 104 -309 105q-121 0 -188.5 -46t-67.5 -113t59.5 -99.5t144.5 -61t122 -43.5q162 -66 231.5 -150.5t69.5 -199.5q0 -201 -166 -351t-466 -150t-501 135l133 254q174 -98 379 -99 q139 0 210 50.5t71 118.5t-55.5 97t-141.5 60t-131 49q-139 59 -213 137t-74 215z" glyph-name="Sacute" horiz-adv-x="1234" unicode="Ś"/><glyph d="M715 1210h-176l180 293h338zM401 219q92 0 145.5 33t53.5 79t-37 62.5t-166 52t-193.5 108.5t-64.5 167q0 174 136.5 279.5t360.5 105.5t355 -111l-123 -200q-125 80 -272 79q-76 0 -121 -28.5t-45 -73.5t40 -66.5t98 -37.5t71 -21q129 -39 196.5 -98.5t67.5 -163.5 q0 -190 -148.5 -299t-375.5 -109q-115 0 -215.5 30t-155.5 75l111 225q115 -88 282 -88z" glyph-name="sacute" horiz-adv-x="978" unicode="ś"/><glyph d="M1141 477q0 -182 -139.5 -326.5t-393.5 -170.5l-55 -78q29 4 37 4q68 0 103.5 -35t35.5 -90q0 -92 -84 -169t-235 -89l-31 123q96 16 130 42.5t34 62.5t-35 36q-20 0 -41 -12l-84 84l80 116q-270 14 -455 136l133 254q174 -98 379 -99q139 0 210 50.5t71 118.5t-55.5 97 t-141.5 60t-131 49q-139 59 -213 137t-74 215q0 195 148.5 330t444.5 135t468 -145l-168 -228q-129 104 -309 105q-121 0 -188.5 -46t-67.5 -113t59.5 -99.5t144.5 -61t122 -43.5q162 -66 231.5 -150.5t69.5 -199.5z" glyph-name="Scedilla" horiz-adv-x="1234" unicode="Ş"/><glyph d="M430 772q0 -45 40 -66.5t98 -37.5t71 -21q129 -39 196.5 -98.5t67.5 -163.5q0 -166 -115.5 -271.5t-304.5 -129.5l-57 -82q29 4 37 4q68 0 103.5 -35t35.5 -90q0 -92 -84 -169t-235 -89l-31 123q96 16 130 42.5t34 62.5t-35 36q-20 0 -41 -12l-84 84l82 121 q-102 4 -190.5 32.5t-139.5 69.5l111 225q115 -88 282 -88q92 0 145.5 33t53.5 79t-37 62.5t-166 52t-193.5 108.5t-64.5 167q0 174 136.5 279.5t360.5 105.5t355 -111l-123 -200q-125 80 -272 79q-76 0 -121 -28.5t-45 -73.5z" glyph-name="scedilla" horiz-adv-x="978" unicode="ş"/><glyph d="M702 1585l-190 279h229l76 -117l119 117h221l-276 -279h-179zM1141 477q0 -201 -166 -351.5t-466 -150.5t-501 136l133 254q174 -98 379 -99q139 0 210 50.5t71 118.5t-55.5 97t-141.5 60t-131 49q-139 59 -213 137t-74 215q0 195 148.5 330t444.5 135t468 -145 l-168 -228q-129 104 -309 105q-121 0 -188.5 -46t-67.5 -113t59.5 -99.5t144.5 -61t122 -43.5q162 -66 231.5 -150.5t69.5 -199.5z" glyph-name="Scaron" horiz-adv-x="1234" unicode="Š"/><glyph d="M553 1231l-191 278h230l76 -116l118 116h222l-277 -278h-178zM430 772q0 -45 40 -66.5t98 -37.5t71 -21q129 -39 196.5 -98.5t67.5 -163.5q0 -190 -148.5 -299t-375.5 -109q-115 0 -215.5 30t-155.5 75l111 225q115 -88 282 -88q92 0 145.5 33t53.5 79t-37 62.5t-166 52 t-193.5 108.5t-64.5 167q0 174 136.5 279.5t360.5 105.5t355 -111l-123 -200q-125 80 -272 79q-76 0 -121 -28.5t-45 -73.5z" glyph-name="scaron" horiz-adv-x="978" unicode="š"/><glyph d="M606 -94q68 0 103.5 -35t35.5 -90q0 -92 -83.5 -169t-235.5 -89l-31 123q96 16 130 42.5t34 62.5t-35 36q-20 0 -41 -12l-84 84l97 141h-76l205 1167h-432l47 267h1173l-47 -267h-430l-205 -1167h-92l-70 -98q29 4 37 4z" glyph-name="Tcommaaccent" horiz-adv-x="1335" unicode="Ţ"/><glyph d="M430 -94q68 0 103.5 -35t35.5 -90q0 -92 -84 -169t-235 -89l-31 123q96 16 130 42.5t34 62.5t-35 36q-20 0 -41 -12l-84 84l86 127q-195 37 -153 274l100 559h-160l45 254h160l21 115l155 158h170l-47 -273h262l-45 -254h-262l-86 -495q-16 -90 66 -91q59 0 143 27 l35 -211q-127 -61 -264 -69l-56 -78q29 4 37 4z" glyph-name="tcommaaccent" horiz-adv-x="872" unicode="ţ"/><glyph d="M743 1585l-190 279h229l76 -117l119 117h221l-276 -279h-179zM1413 1434l-47 -267h-430l-205 -1167h-311l205 1167h-432l47 267h1173z" glyph-name="Tcaron" horiz-adv-x="1335" unicode="Ť"/><glyph d="M829 1159h-129l66 344h227zM408 -23q-152 0 -214.5 68t-37.5 215l100 559h-160l45 254h160l21 115l155 158h170l-47 -273h262l-45 -254h-262l-86 -495q-16 -90 66 -91q59 0 143 27l35 -211q-153 -72 -305 -72z" glyph-name="tcaron" horiz-adv-x="872" unicode="ť"/><glyph d="M1133 1647h-578l25 147h577zM936 1167l-205 -1167h-311l205 1167h-432l47 267h1173l-47 -267h-430z" glyph-name="Tbar" horiz-adv-x="1335" unicode="Ŧ"/><glyph d="M408 -23q-152 0 -214.5 68t-37.5 215l51 283h-121l25 147h122l23 129h-160l45 254h160l21 115l155 158h170l-47 -273h262l-45 -254h-262l-23 -129h156l-24 -147h-156l-39 -219q-16 -90 66 -91q59 0 143 27l35 -211q-153 -72 -305 -72z" glyph-name="tbar" horiz-adv-x="872" unicode="ŧ"/><glyph d="M1192 1647h-578l25 147h578zM552 -33q-185 0 -332 130.5t-93 422.5l162 914h309l-160 -908q-23 -131 37 -201.5t191 -70.5t215 70.5t106 201.5l160 908h311l-160 -914q-76 -414 -318.5 -483.5t-427.5 -69.5z" glyph-name="Umacron" horiz-adv-x="1431" unicode="Ū"/><glyph d="M1042 1286h-577l24 148h578zM338 1104q236 0 184 -254l-84 -440q-31 -172 128 -172q77 0 154 69.5t103 220.5l99 551h297l-154 -843q-8 -61 37 -62q29 0 61 4l-37 -174q-61 -29 -154 -29t-138.5 35t-36.5 131l12 62h-8q-102 -227 -361 -228q-170 0 -256 99.5t-47 304.5 l86 450q12 68 -51 68q-28 0 -59 -8l37 188q74 27 188 27z" glyph-name="umacron" horiz-adv-x="1269" unicode="ū"/><glyph d="M956.5 1901q79.5 0 121.5 -48.5t29 -122.5t-71.5 -121.5t-138.5 -47.5t-122 48t-30 122q14 74 73 122t138.5 48zM940 1804q-74 0 -86 -73q-4 -31 10 -52.5t48 -21.5t58.5 22.5t28.5 52.5t-11 51t-48 21zM552 -33q-185 0 -332 130.5t-93 422.5l162 914h309l-160 -908 q-23 -131 37 -201.5t191 -70.5t215 70.5t106 201.5l160 908h311l-160 -914q-76 -414 -318.5 -483.5t-427.5 -69.5z" glyph-name="Uring" horiz-adv-x="1431" unicode="Ů"/><glyph d="M809 1540q80 0 122.5 -48t28.5 -122t-72.5 -122t-138 -48t-121.5 48t-30 122q14 74 72.5 122t138.5 48zM793 1444q-74 0 -86 -74q-4 -31 10 -52.5t48 -21.5t58.5 22.5t28.5 52.5t-11 51.5t-48 21.5zM338 1104q236 0 184 -254l-84 -440q-31 -172 128 -172q77 0 154 69.5 t103 220.5l99 551h297l-154 -843q-8 -61 37 -62q29 0 61 4l-37 -174q-61 -29 -154 -29t-138.5 35t-36.5 131l12 62h-8q-102 -227 -361 -228q-170 0 -256 99.5t-47 304.5l86 450q12 68 -51 68q-28 0 -59 -8l37 188q74 27 188 27z" glyph-name="uring" horiz-adv-x="1269" unicode="ů"/><glyph d="M772 1608h-168l129 293h264zM1130 1608h-190l199 293h276zM552 -33q-185 0 -332 130.5t-93 422.5l162 914h309l-160 -908q-23 -131 37 -201.5t191 -70.5t215 70.5t106 201.5l160 908h311l-160 -914q-76 -414 -318.5 -483.5t-427.5 -69.5z" glyph-name="Uhungarumlaut" horiz-adv-x="1431" unicode="Ű"/><glyph d="M625 1247h-168l129 293h264zM983 1247h-190l198 293h277zM338 1104q236 0 184 -254l-84 -440q-31 -172 128 -172q77 0 154 69.5t103 220.5l99 551h297l-154 -843q-8 -61 37 -62q29 0 61 4l-37 -174q-61 -29 -154 -29t-138.5 35t-36.5 131l12 62h-8q-102 -227 -361 -228 q-170 0 -256 99.5t-47 304.5l86 450q12 68 -51 68q-28 0 -59 -8l37 188q74 27 188 27z" glyph-name="uhungarumlaut" horiz-adv-x="1269" unicode="ű"/><glyph d="M772 -174q0 -78 105 -92l-74 -166q-240 31 -240 209q0 104 109 192l-58 -2q-247 0 -394 130.5t-93 422.5l162 914h309l-160 -908q-23 -131 37 -201.5t191 -70.5t215 70.5t106 201.5l160 908h311l-160 -914q-68 -375 -383 -500q-143 -104 -143 -194z" glyph-name="Uogonek" horiz-adv-x="1431" unicode="Ų"/><glyph d="M972 -25q-93 0 -138.5 35t-36.5 131l12 62h-8q-39 -84 -101 -140l64 -28q-143 -104 -143 -195q0 -78 104 -92l-74 -166q-240 31 -239 209q0 104 106 191q-37 -6 -78 -7q-170 0 -256 99.5t-47 304.5l86 450q12 68 -51 68q-29 0 -59 -8l37 188q74 27 188 27q236 0 184 -254 l-84 -440q-31 -172 128 -172q77 0 154 69.5t103 220.5l99 551h297l-154 -843q-8 -61 37 -62q29 0 61 4l-37 -174q-61 -29 -154 -29z" glyph-name="uogonek" horiz-adv-x="1269" unicode="ų"/><glyph d="M1143 1595h-234l293 285h172l182 -285h-225l-76 113zM2216 1434l-705 -1434h-219l-170 969l-512 -969h-219l-205 1434h297l129 -938l482 938h219l162 -928l419 928h322z" glyph-name="Wcircumflex" horiz-adv-x="2086" unicode="Ŵ"/><glyph d="M760 1231h-234l293 285h172l183 -285h-226l-76 112zM119 897q-20 0 -49 -8l36 188q68 27 158 27t131 -40t62 -120q31 -131 63 -598l330 727h246l98 -700l340 700h307l-571 -1079h-262l-95 700l-331 -700h-254l-148 835q-12 68 -61 68z" glyph-name="wcircumflex" horiz-adv-x="1769" unicode="ŵ"/><glyph d="M762 1595h-234l293 285h172l183 -285h-226l-76 113zM1491 1434l-649 -865l-101 -569h-313l100 571l-346 863h361l202 -562l404 562h342z" glyph-name="Ycircumflex" horiz-adv-x="1357" unicode="Ŷ"/><glyph d="M584 1231h-234l293 285h172l182 -285h-225l-76 112zM207 -453q-133 0 -236 54l74 217q72 -29 127 -29q96 0 170 152l49 100l-221 780q-10 39 -22.5 53.5t-38.5 14.5q-27 0 -50 -6l37 188q68 27 156 27t132 -40t62 -120l136 -614l346 749h313l-643 -1229 q-80 -156 -169 -226.5t-222 -70.5z" glyph-name="ycircumflex" horiz-adv-x="1155" unicode="ŷ"/><glyph d="M694 1878q61 0 95 -38t22 -109q-22 -132 -145 -132q-61 0 -97.5 38t-23.5 110q24 131 149 131zM1092 1878q61 0 94.5 -38t21.5 -108t-52 -101.5t-97 -31.5t-92 38t-23 110q23 131 148 131zM741 0h-313l100 571l-346 863h361l202 -562l404 562h342l-649 -865z" glyph-name="Ydieresis" horiz-adv-x="1357" unicode="Ÿ"/><glyph d="M952 1565h-176l180 293h338zM471 268h758l-47 -268h-1145l35 199l866 968h-659l47 267h1067l-35 -191z" glyph-name="Zacute" horiz-adv-x="1380" unicode="Ź"/><glyph d="M741 1210h-176l180 293h338zM412 244h528l-43 -244h-899l33 195l606 624h-465l45 254h858l-37 -205z" glyph-name="zacute" horiz-adv-x="1052" unicode="ź"/><glyph d="M933.5 1878q63.5 0 101.5 -37t26 -109t-63.5 -109.5t-114.5 -37.5t-100 37t-25 110t62 109.5t113.5 36.5zM471 268h758l-47 -268h-1145l35 199l866 968h-659l47 267h1067l-35 -191z" glyph-name="Zdotaccent" horiz-adv-x="1380" unicode="Ż"/><glyph d="M722.5 1524q63.5 0 101.5 -37t26 -110t-63.5 -109.5t-114.5 -36.5t-100 37.5t-25 109.5t62 109t113.5 37zM412 244h528l-43 -244h-899l33 195l606 624h-465l45 254h858l-37 -205z" glyph-name="zdotaccent" horiz-adv-x="1052" unicode="ż"/><glyph d="M791 1585l-191 279h229l76 -117l119 117h221l-276 -279h-178zM1358 1243l-887 -975h758l-47 -268h-1145l35 199l866 968h-659l47 267h1067z" glyph-name="Zcaron" horiz-adv-x="1380" unicode="Ž"/><glyph d="M580 1231l-191 278h229l76 -116l119 116h221l-276 -278h-178zM1038 868l-626 -624h528l-43 -244h-899l33 195l606 624h-465l45 254h858z" glyph-name="zcaron" horiz-adv-x="1052" unicode="ž"/><glyph d="M899 1559q115 0 209 -35l-94 -230q-137 40 -187.5 0.5t-58.5 -92.5l-25 -127h240l-43 -250h-240l-122 -700q-29 -160 -139.5 -253t-260.5 -93t-233 43l90 219q63 -18 109 -18t87 30.5t52 96.5l118 675h-139l45 250h137l27 137q29 170 139.5 258.5t288.5 88.5z" glyph-name="florin" horiz-adv-x="1024" unicode="ƒ"/><glyph d="M186 993q0 195 148.5 330t444.5 135t468 -145l-168 -228q-129 104 -309 105q-121 0 -188.5 -46t-67.5 -113t59.5 -99.5t144.5 -61t122 -43.5q162 -66 231.5 -150.5t69.5 -199.5q0 -201 -166 -351t-466 -150t-501 135l133 254q174 -98 379 -99q139 0 210 50.5t71 118.5 t-55.5 97t-141.5 60t-131 49q-139 59 -213 137t-74 215zM479 -453h-129l66 344h227z" glyph-name="Scommaaccent" horiz-adv-x="1234" unicode="Ș"/><glyph d="M401 219q92 0 145.5 33t53.5 79t-37 62.5t-166 52t-193.5 108.5t-64.5 167q0 174 136.5 279.5t360.5 105.5t355 -111l-123 -200q-125 80 -272 79q-76 0 -121 -28.5t-45 -73.5t40 -66.5t98 -37.5t71 -21q129 -39 196.5 -98.5t67.5 -163.5q0 -190 -148.5 -299t-375.5 -109 q-115 0 -215.5 30t-155.5 75l111 225q115 -88 282 -88zM352 -453h-129l66 344h227z" glyph-name="scommaaccent" horiz-adv-x="978" unicode="ș"/><glyph d="M936 1167l-205 -1167h-311l205 1167h-432l47 267h1173l-47 -267h-430zM496 -453h-129l65 344h227z" glyph-name="uni021A" horiz-adv-x="1335" unicode="Ț"/><glyph d="M408 -23q-152 0 -214.5 68t-37.5 215l100 559h-160l45 254h160l21 115l155 158h170l-47 -273h262l-45 -254h-262l-86 -495q-16 -90 66 -91q59 0 143 27l35 -211q-153 -72 -305 -72zM319 -453h-129l66 344h227z" glyph-name="uni021B" horiz-adv-x="872" unicode="ț"/><glyph d="M594 1225l-76 112l-112 -112h-234l293 284h172l182 -284h-225z" glyph-name="circumflex" horiz-adv-x="747" unicode="ˆ"/><glyph d="M866 1503l-276 -278h-178l-191 278h230l75 -117l119 117h221z" glyph-name="caron" horiz-adv-x="747" unicode="ˇ"/><glyph d="M452 1225q-122 0 -197 69.5t-62 208.5h141q0 -55 37 -88t110 -33q140 0 189 121h139q-37 -139 -136 -208.5t-221 -69.5z" glyph-name="breve" horiz-adv-x="661" unicode="˘"/><glyph d="M563.5 1518q63.5 0 101 -37t25.5 -110t-63.5 -109.5t-114.5 -36.5t-100 36.5t-25 109.5t62.5 110t114 37z" glyph-name="dotaccent" horiz-adv-x="782" unicode="˙"/><glyph d="M555 1540q80 0 122 -48t29 -122t-72 -122t-138.5 -48t-121.5 48t-30 122q14 74 72.5 122t138.5 48zM539 1444q-74 0 -86 -74q-4 -31 10 -52.5t48 -21.5t58.5 22.5t28.5 52.5t-11 51.5t-48 21.5z" glyph-name="ring" horiz-adv-x="747" unicode="˚"/><glyph d="M104 -244q0 78 59.5 145.5t196.5 141.5l97 -43q-143 -104 -144 -195q0 -78 105 -92l-74 -166q-240 31 -240 209z" glyph-name="ogonek" horiz-adv-x="716" unicode="˛"/><glyph d="M870 1237q-57 0 -126.5 39t-104.5 39q-72 0 -119 -92l-131 77q39 100 106 149.5t133 49.5t136 -40t94 -40q58 1 117 101l145 -68q-96 -215 -250 -215z" glyph-name="tilde" horiz-adv-x="1216" unicode="˜"/><glyph d="M365 1247h-168l129 293h264zM723 1247h-191l199 293h277z" glyph-name="hungarumlaut" horiz-adv-x="892" unicode="˝"/><glyph d="M186 -453h-129l66 344h227z" glyph-name="uni0326" horiz-adv-x="0" unicode="̦"/><glyph d="M475 -25q-117 0 -178 56l-70 -412h-290l256 1454h292l-110 -631q-16 -104 30 -152t134 -48q143 0 254 161l118 670h297l-188 -1073h-205l-29 141q-152 -166 -311 -166z" glyph-name="mu" horiz-adv-x="1212" unicode="μ"/><glyph d="M1360 1618h-174l-242 293h338zM1511 0h-219l-170 969l-512 -969h-219l-205 1434h297l129 -938l482 938h219l162 -928l419 928h322z" glyph-name="Wgrave" horiz-adv-x="2086" unicode="Ẁ"/><glyph d="M977 1253h-174l-242 293h338zM119 897q-20 0 -49 -8l36 188q68 27 158 27t131 -40t62 -120q31 -131 63 -598l330 727h246l98 -700l340 700h307l-571 -1079h-262l-95 700l-331 -700h-254l-148 835q-12 68 -61 68z" glyph-name="wgrave" horiz-adv-x="1769" unicode="ẁ"/><glyph d="M1311 1573h-176l180 293h338zM1511 0h-219l-170 969l-512 -969h-219l-205 1434h297l129 -938l482 938h219l162 -928l419 928h322z" glyph-name="Wacute" horiz-adv-x="2086" unicode="Ẃ"/><glyph d="M928 1210h-176l180 293h338zM119 897q-20 0 -49 -8l36 188q68 27 158 27t131 -40t62 -120q31 -131 63 -598l330 727h246l98 -700l340 700h307l-571 -1079h-262l-95 700l-331 -700h-254l-148 835q-12 68 -61 68z" glyph-name="wacute" horiz-adv-x="1769" unicode="ẃ"/><glyph d="M1075 1878q61 0 95 -38t22 -109q-22 -132 -145 -132q-61 0 -97.5 38t-23.5 110q24 131 149 131zM1473 1878q61 0 93.5 -38t21.5 -108t-51 -101.5t-97 -31.5t-92 38t-23 110q23 131 148 131zM1511 0h-219l-170 969l-512 -969h-219l-205 1434h297l129 -938l482 938h219 l162 -928l419 928h322z" glyph-name="Wdieresis" horiz-adv-x="2086" unicode="Ẅ"/><glyph d="M692 1513q61 0 95 -37.5t22 -108.5q-22 -132 -145 -132q-61 0 -97.5 38t-23.5 109q24 131 149 131zM1090 1513q61 0 94.5 -37.5t21.5 -107.5t-52 -101.5t-97 -31.5t-92 38t-23 109q23 131 148 131zM119 897q-20 0 -49 -8l36 188q68 27 158 27t131 -40t62 -120 q31 -131 63 -598l330 727h246l98 -700l340 700h307l-571 -1079h-262l-95 700l-331 -700h-254l-148 835q-12 68 -61 68z" glyph-name="wdieresis" horiz-adv-x="1769" unicode="ẅ"/><glyph d="M1270 442q0 -207 -146.5 -339t-382.5 -132q-168 0 -245 41l88 264q74 -36 162 -36t148 59t60 141q0 164 -284 178l28 164l244 209q16 90 -29 136.5t-142 46.5t-169 -65t-92 -185l-164 -924h-311l170 963q43 244 220 369.5t407 125.5t348 -136t75 -376l-251 -209 q266 -59 266 -295z" glyph-name="uni1E9E" horiz-adv-x="1363" unicode="ẞ"/><glyph d="M981 1618h-174l-242 293h338zM741 0h-313l100 571l-346 863h361l202 -562l404 562h342l-649 -865z" glyph-name="Ygrave" horiz-adv-x="1357" unicode="Ỳ"/><glyph d="M803 1253h-174l-242 293h338zM207 -453q-133 0 -236 54l74 217q72 -29 127 -29q96 0 170 152l49 100l-221 780q-10 39 -22.5 53.5t-38.5 14.5q-27 0 -50 -6l37 188q68 27 156 27t132 -40t62 -120l136 -614l346 749h313l-643 -1229q-80 -156 -169 -226.5t-222 -70.5z" glyph-name="ygrave" horiz-adv-x="1155" unicode="ỳ"/><glyph glyph-name="uni2009" horiz-adv-x="26" unicode=" "/><glyph d="M1044 408h-944l45 258h945z" glyph-name="endash" horiz-adv-x="1187" unicode="–"/><glyph d="M1655 408h-1530l45 258h1530z" glyph-name="emdash" horiz-adv-x="1824" unicode="—"/><glyph d="M314 897q-81 0 -130 64.5t-30 175.5q31 190 262 346l135 -66q-104 -88 -139 -162q129 -33 104 -194q-12 -78 -66.5 -121t-135.5 -43z" glyph-name="quoteleft" horiz-adv-x="528" unicode="‘"/><glyph d="M432 1477q82 0 130 -64.5t30 -175.5q-33 -192 -260 -346l-137 65q104 88 141 164q-135 37 -108 193q13 76 67.5 120t136.5 44z" glyph-name="quoteright" horiz-adv-x="561" unicode="’"/><glyph d="M217 336q82 0 131 -63.5t31 -176.5q-37 -192 -260 -344l-137 66q92 76 149 168q-66 4 -98.5 55t-18.5 125q28 170 203 170z" glyph-name="quotesinglbase" horiz-adv-x="536" unicode="‚"/><glyph d="M365 858q-81 0 -125.5 49t-42.5 137q10 250 297 418l114 -37q-117 -98 -164 -206q55 -2 94.5 -40t37.5 -121t-66 -141.5t-145 -58.5zM811 858q-80 0 -125 50t-43 136q10 248 295 418l117 -37q-113 -94 -162 -204q55 -4 93 -43t36 -121t-66.5 -140.5t-144.5 -58.5z" glyph-name="quotedblleft" horiz-adv-x="978" unicode="“"/><glyph d="M386 1462q81 0 126 -50t43 -136q-10 -246 -295 -418l-117 39q117 96 164 203q-55 2 -94 42t-35 109q2 96 64.5 153.5t143.5 57.5zM834 1462q80 0 125 -50t42 -136q-9 -246 -294 -418l-117 39q119 98 162 205q-55 4 -93 41t-36 121t66.5 141t144.5 57z" glyph-name="quotedblright" horiz-adv-x="978" unicode="”"/><glyph d="M39 166q28 170 203 170q82 0 131 -63.5t30 -176.5q-37 -192 -260 -344l-137 66q104 90 139 162q-63 18 -89.5 68t-16.5 118zM691 336q81 0 132 -64.5t31 -175.5q-33 -188 -262 -344l-135 66q100 86 139 162q-63 18 -91 68t-16 126t66.5 119t135.5 43z" glyph-name="quotedblbase" horiz-adv-x="1036" unicode="„"/><glyph d="M877 838h-244l-148 -838h-268l148 838h-244l39 237h248l63 359h268l-63 -359h242z" glyph-name="dagger" horiz-adv-x="890" unicode="†"/><glyph d="M649 891l-35 -199h230l-43 -237h-228l-79 -455h-273l80 455h-227l43 237h225l35 199h-225l43 239h225l53 304h272l-53 -304h228l-43 -239h-228z" glyph-name="daggerdbl" horiz-adv-x="903" unicode="‡"/><glyph d="M388 748q64 0 109 -47.5t31 -124.5t-61 -111.5t-111 -34.5t-106.5 48t-28.5 125t58.5 111t108.5 34z" glyph-name="bullet" horiz-adv-x="487" unicode="•"/><glyph d="M394 344q77 0 128 -54t35 -148t-71.5 -136.5t-133.5 -42.5t-129 55.5t-34 149.5t72.5 135t132.5 41zM959 344q77 0 128 -54t35 -148t-72 -136.5t-132 -42.5t-127 56.5t-35 149.5t71 134t132 41zM1527 344q77 0 129 -54t35 -148t-73.5 -136.5t-133.5 -42.5t-129 56.5 t-35 149.5t73.5 134t133.5 41z" glyph-name="ellipsis" horiz-adv-x="1824" unicode="…"/><glyph d="M530 1458q133 0 214 -79t81 -218q0 -197 -120.5 -314.5t-301.5 -117.5q-129 0 -207.5 78t-78.5 215q0 199 120.5 317.5t292.5 118.5zM291 0h-178l1228 1434h177zM504 1294q-78 0 -127 -66.5t-49 -199.5t106 -133q176 0 176 266q0 133 -106 133zM1239 707q133 0 214 -79 t81 -218q0 -197 -121 -315t-301 -118q-131 0 -209 78t-78 215q0 199 120 318t294 119zM2015 707q133 0 214 -79t81 -218q0 -199 -119.5 -316t-302.5 -117q-131 0 -208.5 78t-77.5 215q0 199 119.5 318t293.5 119zM1212 543q-78 0 -128 -66.5t-50 -200.5t107 -135 q176 0 176 269q-1 133 -105 133zM1989 543q-78 0 -127.5 -66.5t-49.5 -200.5t107 -135q176 0 176 269q0 133 -106 133z" glyph-name="perthousand" horiz-adv-x="2418" unicode="‰"/><glyph d="M584 821l-303 -301l196 -301l-153 -113l-279 412l404 416z" glyph-name="guilsinglleft" horiz-adv-x="636" unicode="‹"/><glyph d="M588 512l-418 -414l-121 125l303 295l-196 295l153 119z" glyph-name="guilsinglright" horiz-adv-x="641" unicode="›"/><glyph d="M791 1577l-938 -1860h-168l942 1860h164z" glyph-name="fraction" horiz-adv-x="509" unicode="⁄"/><glyph d="M868 254q188 0 359 121l114 -201q-94 -84 -238.5 -140.5t-309.5 -56.5q-225 0 -379 131.5t-178 378.5h-166l28 162h135q6 70 19 139h-129l29 160h143q96 248 306 379t476 131q147 0 265 -42t184 -111l-199 -213q-123 96 -293 96q-125 0 -230.5 -61.5t-168.5 -178.5h614 l-61 -160h-608q-12 -53 -17 -139h572l-62 -162h-491q29 -111 104.5 -172t181.5 -61z" glyph-name="Euro" horiz-adv-x="1486" unicode="€"/><glyph d="M827 1212h-245v-665h-236v665h-240v222h721v-222zM1819 547h-234v463l-190 -283h-82l-189 279v-459h-225v887h203l260 -400l301 400h156v-887z" glyph-name="trademark" horiz-adv-x="1886" unicode="™"/><glyph d="M713 -283h-168l942 1860h164zM791 784l-31 -176h-574l31 176h178l78 437l-160 -52l-32 156l294 117h152l-115 -658h179zM1698 -31q-154 0 -241 72.5t-63 202.5t165 192q-96 60 -77 170t123.5 176t247.5 66t226 -67t64 -179t-148 -166q127 -66 105 -195t-135 -200.5 t-267 -71.5zM1794 502q119 0 135 94q8 39 -21.5 63.5t-82.5 24.5t-90 -24.5t-45 -66.5t21.5 -66.5t82.5 -24.5zM1769.5 369q-61.5 0 -105.5 -32t-53 -82t23 -81t96 -31t105 31t50 81t-22.5 82t-93 32z" glyph-name="oneeighth" horiz-adv-x="2222" unicode="⅛"/><glyph d="M713 -283h-168l942 1860h164zM548 1460q165 0 239.5 -53t70.5 -132q-8 -166 -176 -222q143 -41 137 -173t-120.5 -213t-286.5 -81t-291 80l78 165q131 -55 219 -55q168 0 174 103q4 41 -26.5 61.5t-100.5 20.5h-127l27 153h110q63 0 99 25.5t40 65.5q8 79 -98 80 q-106 0 -221 -66l-57 141q145 100 310 100zM1698 -31q-154 0 -241 72.5t-63 202.5t165 192q-96 60 -77 170t123.5 176t247.5 66t226 -67t64 -179t-148 -166q127 -66 105 -195t-135 -200.5t-267 -71.5zM1794 502q119 0 135 94q8 39 -21.5 63.5t-82.5 24.5t-90 -24.5 t-45 -66.5t21.5 -66.5t82.5 -24.5zM1769.5 369q-61.5 0 -105.5 -32t-53 -82t23 -81t96 -31t105 31t50 81t-22.5 82t-93 32z" glyph-name="threeeighths" horiz-adv-x="2222" unicode="⅜"/><glyph d="M713 -283h-168l942 1860h164zM612 1135q104 0 164 -70.5t37 -194.5t-134 -204t-279 -80t-277 71l80 158q111 -47 197 -47q167 0 188 117q8 49 -18.5 75.5t-92.5 26.5t-133 -53l-133 55l80 449h565l-33 -191h-354l-27 -145q66 33 170 33zM1698 -31q-154 0 -241 72.5 t-63 202.5t165 192q-96 60 -77 170t123.5 176t247.5 66t226 -67t64 -179t-148 -166q127 -66 105 -195t-135 -200.5t-267 -71.5zM1794 502q119 0 135 94q8 39 -21.5 63.5t-82.5 24.5t-90 -24.5t-45 -66.5t21.5 -66.5t82.5 -24.5zM1769.5 369q-61.5 0 -105.5 -32t-53 -82 t23 -81t96 -31t105 31t50 81t-22.5 82t-93 32z" glyph-name="fiveeighths" horiz-adv-x="2222" unicode="⅝"/><glyph d="M713 -283h-168l942 1860h164zM475 608h-231l395 635h-408l35 195h647l-30 -178zM1698 -31q-154 0 -241 72.5t-63 202.5t165 192q-96 60 -77 170t123.5 176t247.5 66t226 -67t64 -179t-148 -166q127 -66 105 -195t-135 -200.5t-267 -71.5zM1794 502q119 0 135 94 q8 39 -21.5 63.5t-82.5 24.5t-90 -24.5t-45 -66.5t21.5 -66.5t82.5 -24.5zM1769.5 369q-61.5 0 -105.5 -32t-53 -82t23 -81t96 -31t105 31t50 81t-22.5 82t-93 32z" glyph-name="seveneighths" horiz-adv-x="2222" unicode="⅞"/><glyph d="M1194 500h-991l33 172h989z" glyph-name="minus" horiz-adv-x="1413" unicode="−"/><glyph d="M817 721l-123 -227h428l-30 -170h-490l-143 -263h-176l143 263h-281l31 170h342l123 227h-426l31 172h489l144 262h176l-144 -262h281l-31 -172h-344z" glyph-name="notequal" horiz-adv-x="1363" unicode="≠"/><glyph d="M1024 608q180 0 317.5 -103.5t169.5 -258.5h-96q-47 100 -152.5 163.5t-238.5 63.5t-238.5 -63.5t-152.5 -163.5h-96q33 156 170 259t317 103z" glyph-name="uni2322" unicode="⌢"/><glyph d="M1024 199q-180 0 -317.5 103.5t-169.5 258.5h96q47 -104 152.5 -170.5t238.5 -66.5t238.5 66.5t152.5 170.5h96q-33 -156 -170 -259t-317 -103z" glyph-name="uni2323" unicode="⌣"/><glyph d="M1023 1458q329 0 561.5 -233t232.5 -561t-232.5 -561.5t-560.5 -233.5t-560.5 232.5t-232.5 562t231.5 562t560.5 232.5zM843 1077q-93 1 -93 -197t93 -198t93 198t-93 197zM1205 1077q-93 1 -93 -197t93 -198t93 198t-93 197zM733 219q0 106 85 181t206 75t206 -74.5 t85 -181.5h110q0 156 -117.5 267.5t-283.5 111.5t-283.5 -111.5t-117.5 -267.5h110z" glyph-name="uni2639" unicode="☹"/><glyph d="M1023 1458q329 0 561.5 -233t232.5 -561t-232.5 -561.5t-560.5 -233.5t-560.5 232.5t-232.5 562t231.5 562t560.5 232.5zM843 1036q-93 0 -93 -198t93 -197q93 -1 93 197t-93 198zM1205 1036q-93 0 -93 -198t93 -197q93 -1 93 197t-93 198zM1024 324q-133 0 -238.5 66.5 t-152.5 170.5h-96q33 -156 170 -259t317 -103t317.5 103.5t169.5 258.5h-96q-47 -104 -152.5 -170.5t-238.5 -66.5z" glyph-name="smileface" unicode="☺"/><glyph d="M997 0h-940l52 279h319l137 798l-278 -121l-74 240l496 246h241l-205 -1163h306z" glyph-name="uniF6DC" horiz-adv-x="1163" unicode=""/><glyph d="M1169 496h-1079l47 260h1080z" glyph-name="uniF6DE" horiz-adv-x="1275" unicode=""/><glyph d="M1023 1458q329 0 561.5 -233t232.5 -561t-232.5 -561.5t-560.5 -233.5t-560.5 232.5t-232.5 562t231.5 562t560.5 232.5zM843 1036q-93 0 -93 -198t93 -197q93 -1 93 197t-93 198zM1205 1036q-93 0 -93 -198t93 -197q93 -1 93 197t-93 198zM1026 510q-348 0 -551 172 q2 -250 149.5 -405.5t399.5 -155.5t399.5 156.5t149.5 406.5q-199 -174 -547 -174zM760 352q-131 59 -176 174q88 -49 176 -73v-101zM1290 453q88 25 176 73q-45 -115 -176 -174v101zM1225 328q-72 -20 -166 -27v115q86 4 166 20v-108zM825 434q86 -16 166 -18v-115 q-92 6 -166 27v106z" glyph-name="u1F600" unicode="😀"/><glyph d="M1023 1458q329 0 561.5 -233t232.5 -561t-232.5 -561.5t-560.5 -233.5t-560.5 232.5t-232.5 562t231.5 562t560.5 232.5zM800 973q56 0 68 -203h95q-4 143 -48.5 221t-114.5 78t-114.5 -78t-48.5 -221h94q13 203 69 203zM1248 973q56 0 69 -203h94q-4 143 -48 221 t-114 78t-114.5 -78t-49.5 -221h95q12 203 68 203zM1026 510q-348 0 -551 172q2 -250 149.5 -405.5t399.5 -155.5t399.5 156.5t149.5 406.5q-199 -174 -547 -174zM760 352q-131 59 -176 174q88 -49 176 -73v-101zM1290 453q88 25 176 73q-45 -115 -176 -174v101zM1225 328 q-72 -20 -166 -27v115q86 4 166 20v-108zM825 434q86 -16 166 -18v-115q-92 6 -166 27v106z" glyph-name="u1F601" unicode="😁"/><glyph d="M1023 -131q-257 0 -462 149.5t-287 387.5q-4 -16 -14 -81t-43 -100t-88 -33.5t-94 40t-40 94t36 88.5q29 31 113.5 46t107.5 23q-20 82 -21 181q0 330 231.5 562t560.5 232t561.5 -232.5t232.5 -561.5q0 -98 -21 -181q23 -8 107.5 -23t117.5 -47t32 -87.5t-40 -94 t-94 -40t-88 33.5t-43 99.5t-14 81.5q-82 -236 -288 -386.5t-463 -150.5zM832 1051q-66 0 -107 -74t-45 -211h84q12 188 66 188t67 -188h86q-6 137 -45.5 211t-105.5 74zM1215 1051q-67 0 -105.5 -74t-44.5 -211h86q13 188 67 188t66 -188h84q-4 137 -45 211t-108 74z M297 626q0 -54 36 -90t82 -41.5t81 15.5q53 -170 191 -269.5t337 -99.5t337 99.5t191 269.5q35 -20 81 -15t82 42t36 90t-34 88t-132 50t-145 50l-10 -8q35 -45 53 -162q-183 -109 -455 -107t-463 107q18 117 53 162l-8 8q-47 -35 -146 -50t-133 -50t-34 -89zM385 584 q-20 20 -19 45t18 43t65.5 28.5t72.5 18.5q-8 -23 -18 -71t-28 -65t-43 -18t-48 19zM1526 719q27 -10 74 -18.5t64 -26.5t18.5 -44t-20.5 -46t-47.5 -20t-42.5 18t-27.5 66t-18.5 71zM756 479v-100q-137 63 -181 176q89 -47 181 -76zM1294 379v100q98 31 181 76 q-46 -115 -181 -176zM823 354v109q86 -18 168 -19v-116q-94 3 -168 26zM1059 328v116q98 4 168 19v-109q-74 -22 -168 -26zM176 281q16 16 24.5 63t18.5 74q-23 -8 -71 -18.5t-65 -27.5t-18.5 -44t19.5 -47q43 -45 92 0zM1964 281q20 20 20 46.5t-16 42.5t-35.5 21.5 t-49.5 11t-54 15.5q10 -27 18 -74t25 -63q49 -45 92 0z" glyph-name="u1F602" unicode="😂"/><glyph d="M1023 1458q329 0 561.5 -233t232.5 -561t-232.5 -561.5t-560.5 -233.5t-560.5 232.5t-232.5 562t231.5 562t560.5 232.5zM843 1098q-93 0 -93 -198t93 -198t93 198t-93 198zM1205 1098q-93 0 -93 -198t93 -198t93 198t-93 198zM1027 502q-325 0 -511 160 q2 -231 138.5 -376t369.5 -145t370.5 146t137.5 377q-180 -162 -505 -162zM1025 240q-146 0 -258 71.5t-151 206.5q178 -102 409 -102t409 102q-39 -135 -151 -206.5t-258 -71.5z" glyph-name="u1F603" unicode="😃"/><glyph d="M1023 1458q329 0 561.5 -233t232.5 -561t-232.5 -561.5t-560.5 -233.5t-560.5 232.5t-232.5 562t231.5 562t560.5 232.5zM800 973q56 0 68 -203h95q-4 143 -48.5 221t-114.5 78t-114.5 -78t-48.5 -221h94q13 203 69 203zM1248 973q56 0 69 -203h94q-4 143 -48 221 t-114 78t-114.5 -78t-49.5 -221h95q12 203 68 203zM1027 502q-325 0 -511 160q2 -231 138.5 -376t369.5 -145t370.5 146t137.5 377q-180 -162 -505 -162zM1025 240q-146 0 -258 71.5t-151 206.5q178 -102 409 -102t409 102q-39 -135 -151 -206.5t-258 -71.5z" glyph-name="u1F604" unicode="😄"/><glyph d="M1023 1458q329 0 561.5 -233t232.5 -561t-232.5 -561.5t-560.5 -233.5t-560.5 232.5t-232.5 562t231.5 562t560.5 232.5zM800 973q56 0 68 -203h95q-4 143 -48.5 221t-114.5 78t-114.5 -78t-48.5 -221h94q13 203 69 203zM1248 973q56 0 69 -203h94q-4 143 -48 221 t-114 78t-114.5 -78t-49.5 -221h95q12 203 68 203zM1464 827q0 -41 33 -72.5t80 -31.5t80 31.5t33 72.5t-49.5 110t-57.5 120h-12q-8 -51 -57.5 -120t-49.5 -110zM1632 836q0 -20 -15 -37t-40 -17t-40 17t-15 37t22.5 53.5t32.5 56.5q10 -23 32.5 -56.5t22.5 -53.5z M1027 502q-325 0 -511 160q2 -231 138.5 -376t369.5 -145t370.5 146t137.5 377q-180 -162 -505 -162zM1025 240q-146 0 -258 71.5t-151 206.5q178 -102 409 -102t409 102q-39 -135 -151 -206.5t-258 -71.5z" glyph-name="u1F605" unicode="😅"/><glyph d="M1023 1458q329 0 561.5 -233t232.5 -561t-232.5 -561.5t-560.5 -233.5t-560.5 232.5t-232.5 562t231.5 562t560.5 232.5zM958 934l-249 149l-41 -108l166 -64v-8l-166 -80l41 -108l249 166v53zM1380 975l-41 108l-249 -149v-53l249 -166l41 108l-166 80v8zM1024 176 q233 0 370.5 145.5t137.5 376.5q-180 -162 -505 -162t-511 160q2 -231 138.5 -375.5t369.5 -144.5zM1025 274q-146 0 -258 72t-151 207q178 -102 409 -102t409 102q-39 -135 -151 -207t-258 -72z" glyph-name="u1F606" unicode="😆"/><glyph d="M1817 664q0 -328 -232.5 -561.5t-560.5 -233.5t-560.5 232.5t-232.5 562.5q0 178 73 334.5t202 267.5q-172 98 -172 220t200.5 217t488.5 95t489.5 -95t201.5 -218t-172 -219q129 -111 202 -267.5t73 -334.5zM457 1487q0 -37 41 -75t116 -66q190 112 410 112t410 -115 q158 63 157 142q0 88 -163.5 152.5t-403.5 64.5t-403.5 -63.5t-163.5 -151.5zM750 838q0 -198 93 -197q93 0 93 198t-92 197q-94 0 -94 -198zM1112 838q0 -198 93 -197q93 0 93 198t-94 197q-92 0 -92 -198zM1024 199q180 0 317.5 103.5t169.5 258.5h-96 q-47 -104 -152.5 -170.5t-238.5 -66.5t-238.5 66.5t-152.5 170.5h-96q33 -156 170 -259t317 -103z" glyph-name="u1F607" unicode="😇"/><glyph d="M1024 -131q-328 0 -560.5 232.5t-232.5 556.5t220 554v414l299 -217q129 49 274 49t274 -49l299 217v-414q219 -232 219 -554t-232 -555.5t-560 -233.5zM760 817q0 -193 90 -192.5t90 192.5v156l-360 114l-23 -88l203 -65v-117zM1108 817q0 -193 90 -192.5t90 192.5v117 l203 65l-23 88l-360 -114v-156zM1024 199q180 0 317.5 103.5t169.5 258.5h-96q-47 -104 -152.5 -170.5t-238.5 -66.5t-238.5 66.5t-152.5 170.5h-96q33 -156 170 -259t317 -103z" glyph-name="u1F608" unicode="😈"/><glyph d="M1023 1458q329 0 561.5 -233t232.5 -561t-232.5 -561.5t-560.5 -233.5t-560.5 232.5t-232.5 562t231.5 562t560.5 232.5zM844 1076q-92 0 -92 -196t92 -196t92 196t-92 196zM1372 950l-41 101l-215 -136v-79l215 -154l41 98l-141 94zM1024 324q-133 0 -238.5 66.5 t-152.5 170.5h-96q33 -156 170 -259t317 -103t317.5 103.5t169.5 258.5h-96q-47 -104 -152.5 -170.5t-238.5 -66.5z" glyph-name="u1F609" unicode="😉"/><glyph d="M1023 1458q329 0 561.5 -233t232.5 -561t-232.5 -561.5t-560.5 -233.5t-560.5 232.5t-232.5 562t231.5 562t560.5 232.5zM800 973q56 0 68 -203h95q-4 143 -48.5 221t-114.5 78t-114.5 -78t-48.5 -221h94q13 203 69 203zM1248 973q56 0 69 -203h94q-4 143 -48 221 t-114 78t-114.5 -78t-49.5 -221h95q12 203 68 203zM1024 350q-133 0 -238.5 66.5t-152.5 171.5h-96q33 -156 170 -259.5t317 -103.5t317.5 103.5t169.5 259.5h-96q-47 -104 -152.5 -171t-238.5 -67z" glyph-name="u1F60A" unicode="😊"/><glyph d="M1023 1458q329 0 561.5 -233t232.5 -561t-232.5 -561.5t-560.5 -233.5t-560.5 232.5t-232.5 562t231.5 562t560.5 232.5zM800 973q56 0 68 -203h95q-4 143 -48.5 221t-114.5 78t-114.5 -78t-48.5 -221h94q13 203 69 203zM1248 973q56 0 69 -203h94q-4 143 -48 221 t-114 78t-114.5 -78t-49.5 -221h95q12 203 68 203zM1024 412q-113 0 -200 56t-113 142h-105q29 -131 145.5 -216t272.5 -85q47 0 86 8q129 -193 250 -123t18 281q49 66 64 135h-105q-27 -86 -113.5 -142t-199.5 -56zM1321 264q-51 -37 -131 74q68 25 131 76q31 -76 30 -105 t-30 -45z" glyph-name="u1F60B" unicode="😋"/><glyph d="M1023 1458q329 0 561.5 -233t232.5 -561t-232.5 -561.5t-560.5 -233.5t-560.5 232.5t-232.5 562t231.5 562t560.5 232.5zM800 784q-56 0 -69 203h-94q4 -143 48 -221t114 -78t114.5 78t49.5 221h-95q-12 -203 -68 -203zM1248 784q-56 0 -68 203h-95q4 -143 48.5 -221 t114.5 -78t114.5 78t48.5 221h-94q-13 -203 -69 -203zM1024 324q-133 0 -238.5 66.5t-152.5 170.5h-96q33 -156 170 -259t317 -103t317.5 103.5t169.5 258.5h-96q-47 -104 -152.5 -170.5t-238.5 -66.5z" glyph-name="u1F60C" unicode="😌"/><glyph d="M1023 1458q329 0 561.5 -233t232.5 -561t-232.5 -561.5t-560.5 -233.5t-560.5 232.5t-232.5 562t231.5 562t560.5 232.5zM694 659h105q61 0 88.5 24t46.5 77l59 162h64l57 -162q20 -53 48 -77t87 -24h105q76 0 111.5 33t58.5 105l39 125h123l-54 108h-1229l-53 -108h137 l37 -125q23 -72 58.5 -105t111.5 -33zM1024 324q-133 0 -238.5 66.5t-152.5 170.5h-96q33 -156 170 -259t317 -103t317.5 103.5t169.5 258.5h-96q-47 -104 -152.5 -170.5t-238.5 -66.5z" glyph-name="u1F60E" unicode="😎"/><glyph d="M1023 1458q329 0 561.5 -233t232.5 -561t-232.5 -561.5t-560.5 -233.5t-560.5 232.5t-232.5 562t231.5 562t560.5 232.5zM934 735v123h-328v-123h328zM1440 735v123h-328v-123h328zM1024 340v-121q188 0 332.5 121t179.5 303h-123q-33 -131 -141.5 -217t-247.5 -86z" glyph-name="u1F60F" unicode="😏"/><glyph d="M1023 1458q329 0 561.5 -233t232.5 -561t-232.5 -561.5t-560.5 -233.5t-560.5 232.5t-232.5 562t231.5 562t560.5 232.5zM843 1036q-93 0 -93 -198t93 -197q93 -1 93 197t-93 198zM1205 1036q-93 0 -93 -198t93 -197q93 -1 93 197t-93 198zM1432 358v123h-816v-123h816z " glyph-name="u1F610" unicode="😐"/><glyph d="M1023 1458q329 0 561.5 -233t232.5 -561t-232.5 -561.5t-560.5 -233.5t-560.5 232.5t-232.5 562t231.5 562t560.5 232.5zM934 735v123h-328v-123h328zM1440 735v123h-328v-123h328zM1432 358v123h-816v-123h816z" glyph-name="u1F611" unicode="😑"/><glyph d="M1023 1458q329 0 561.5 -233t232.5 -561t-232.5 -561.5t-560.5 -233.5t-560.5 232.5t-232.5 562t231.5 562t560.5 232.5zM946 985h-414v-94h228q0 -199 93 -199t93 199v94zM1475 985h-414v-94h227q0 -199 93 -199t94 199v94zM1432 358v123h-816v-123h816z" glyph-name="u1F612" unicode="😒"/><glyph d="M1023 1458q329 0 561.5 -233t232.5 -561t-232.5 -561.5t-560.5 -233.5t-560.5 232.5t-232.5 562t231.5 562t560.5 232.5zM758 872q0 -195 90 -194.5t90 194.5v246l-385 -190l22 -88l183 90v-58zM1110 872q0 -195 90 -194.5t90 194.5v58l183 -90l22 88l-385 190v-246z M1395 572q0 -52 41 -92t100 -40t100 40t41 91t-62.5 137.5t-70.5 149.5h-16q-8 -63 -70.5 -148.5t-62.5 -137.5zM1606 582q0 -26 -19.5 -47t-50.5 -21t-50.5 20.5t-19.5 47.5t30 68.5t40 68.5q10 -27 40 -69t30 -68zM1432 248v123h-816v-123h816z" glyph-name="u1F613" unicode="😓"/><glyph d="M1023 1458q329 0 561.5 -233t232.5 -561t-232.5 -561.5t-560.5 -233.5t-560.5 232.5t-232.5 562t231.5 562t560.5 232.5zM800 1008q-70 0 -114.5 -78t-48.5 -221h94q12 203 68 202q57 0 69 -202h95q-4 143 -48.5 221t-114.5 78zM1249 1008q-70 0 -114.5 -78t-49.5 -221 h95q12 203 69 202q55 0 68 -202h94q-4 143 -48 221t-114 78zM1432 317v123h-816v-123h816z" glyph-name="u1F614" unicode="😔"/><glyph d="M1023 1458q329 0 561.5 -233t232.5 -561t-232.5 -561.5t-560.5 -233.5t-560.5 232.5t-232.5 562t231.5 562t560.5 232.5zM837 1016q-81 0 -81 -174t81 -174t81 174t-81 174zM1292 911h-196v-73q0 -125 98 -125t98 125v73zM791 186q248 264 700 254l-47 129 q-451 8 -701 -256z" glyph-name="u1F615" unicode="😕"/><glyph d="M1023 1458q329 0 561.5 -233t232.5 -561t-232.5 -561.5t-560.5 -233.5t-560.5 232.5t-232.5 562t231.5 562t560.5 232.5zM985 930l-45 127l-362 -131l45 -127zM1477 926l-363 131l-47 -127l363 -131zM705 496q66 0 102.5 -49.5t76.5 -99.5t140 -50q66 0 113 30.5 t68.5 68.5t57 69t80.5 31q129 0 181 -150l98 27q-74 258 -272 260q-102 4 -142.5 -42t-62 -74t-51 -48t-70.5 -20t-70.5 18t-51 44t-61 72t-143.5 50q-199 0 -272 -260l98 -27q51 150 181 150z" glyph-name="u1F616" unicode="😖"/><glyph d="M1023 1458q329 0 561.5 -233t232.5 -561t-232.5 -561.5t-560.5 -233.5t-560.5 232.5t-232.5 562t231.5 562t560.5 232.5zM843 1036q-93 0 -93 -198t93 -197q93 -1 93 197t-93 198zM1205 1036q-93 0 -93 -198t93 -197q93 -1 93 197t-93 198zM1430 451v102h-812v-102h173 q18 -356 233 -361q213 0 233 361h173zM1024 193q-59 0 -90 58t-41 200h262q-12 -141 -42 -199.5t-89 -58.5z" glyph-name="u1F61B" unicode="😛"/><glyph d="M1023 1458q329 0 561.5 -233t232.5 -561t-232.5 -561.5t-560.5 -233.5t-560.5 232.5t-232.5 562t231.5 562t560.5 232.5zM844 1076q-92 0 -92 -196t92 -196t92 196t-92 196zM1372 950l-41 101l-215 -136v-79l215 -154l41 98l-141 94zM1430 451v102h-812v-102h173 q18 -356 233 -361q213 0 233 361h173zM1024 193q-59 0 -90 58t-41 200h262q-12 -141 -42 -199.5t-89 -58.5z" glyph-name="u1F61C" unicode="😜"/><glyph d="M1023 1458q329 0 561.5 -233t232.5 -561t-232.5 -561.5t-560.5 -233.5t-560.5 232.5t-232.5 562t231.5 562t560.5 232.5zM958 899l-249 150l-41 -109l166 -63v-9l-166 -80l41 -108l249 166v53zM1380 940l-41 109l-249 -150v-53l249 -166l41 108l-166 80v9zM1430 451v102 h-812v-102h173q18 -356 233 -361q213 0 233 361h173zM1024 193q-59 0 -90 58t-41 200h262q-12 -141 -42 -199.5t-89 -58.5z" glyph-name="u1F61D" unicode="😝"/><glyph d="M1023 1458q329 0 561.5 -233t232.5 -561t-232.5 -561.5t-560.5 -233.5t-560.5 232.5t-232.5 562t231.5 562t560.5 232.5zM819 662q86 0 86 184v94l45 25v120l-297 -157v-127l78 43q2 -182 88 -182zM1143 846q0 -184 86 -184t88 182l78 -43v127l-297 157v-120l45 -25v-94z M1024 432q133 0 238.5 -63.5t152.5 -163.5h96q-33 156 -170 259t-317 103t-317.5 -103.5t-169.5 -258.5h96q47 100 152.5 163.5t238.5 63.5z" glyph-name="u1F61E" unicode="😞"/><glyph d="M1023 1458q329 0 561.5 -233t232.5 -561t-232.5 -561.5t-560.5 -233.5t-560.5 232.5t-232.5 562t231.5 562t560.5 232.5zM905 887v94l45 25v120l-297 -157v-127l78 43q2 -182 86 -183q88 0 88 185zM1143 887q0 -184 88 -185q84 0 86 183l78 -43v127l-297 157v-120l45 -25 v-94zM1024 451q250 0 324 -162h94q-35 119 -143.5 193.5t-274.5 74.5t-274.5 -74.5t-143.5 -193.5h94q74 162 324 162zM1024 356q-63 0 -104 -36.5t-52 -100.5h64q18 63 92 63.5t92 -63.5h64q-10 63 -51.5 100t-104.5 37z" glyph-name="u1F61F" unicode="😟"/><glyph d="M1023 1458q329 0 561.5 -233t232.5 -561t-232.5 -561.5t-560.5 -233.5t-560.5 232.5t-232.5 562t231.5 562t560.5 232.5zM760 817q0 -193 90 -192.5t90 192.5v156l-360 114l-23 -88l203 -65v-117zM1108 817q0 -193 90 -192.5t90 192.5v117l203 65l-23 88l-360 -114v-156z M1024 473q133 0 238.5 -63.5t152.5 -163.5h96q-33 156 -170 259t-317 103t-317.5 -103.5t-169.5 -258.5h96q47 100 152.5 163.5t238.5 63.5z" glyph-name="u1F620" unicode="😠"/><glyph d="M1023 1458q329 0 561.5 -233t232.5 -561t-232.5 -561.5t-560.5 -233.5t-560.5 232.5t-232.5 562t231.5 562t560.5 232.5zM760 817q0 -193 90 -192.5t90 192.5v156l-360 114l-23 -88l203 -65v-117zM1108 817q0 -193 90 -192.5t90 192.5v117l203 65l-23 88l-360 -114v-156z M1024 451q250 0 324 -162h94q-35 119 -143.5 193.5t-274.5 74.5t-274.5 -74.5t-143.5 -193.5h94q74 162 324 162zM1024 356q-63 0 -104 -36.5t-52 -100.5h64q18 63 92 63.5t92 -63.5h64q-10 63 -51.5 100t-104.5 37z" glyph-name="u1F621" unicode="😡"/><glyph d="M1023 1458q329 0 561.5 -233t232.5 -561t-232.5 -561.5t-560.5 -233.5t-560.5 232.5t-232.5 562t231.5 562t560.5 232.5zM812 772q75 0 118 68.5t47 197.5h-94q-12 -160 -74 -159q-59 0 -74 159h-94q6 -129 51 -197.5t120 -68.5zM1248 469q62 0 104.5 42t42.5 92 t-28.5 93t-63.5 92q96 53 104 250h-94q-12 -160 -73.5 -159.5t-74.5 159.5h-94q10 -217 117 -258q-8 -12 -28.5 -41.5t-39 -57.5t-18.5 -78t42 -92t104 -42zM1248 545q-32 0 -52 20.5t-20 50.5t29.5 74.5t41.5 69.5q12 -27 43 -72t31 -74t-20.5 -49t-52.5 -20zM1024 309 q119 0 210 -41t120 -104h116q-29 121 -155.5 200.5t-290.5 79.5t-290 -79.5t-156 -200.5h116q29 63 120 104t210 41z" glyph-name="u1F622" unicode="😢"/><glyph d="M1023 1458q329 0 561.5 -233t232.5 -561t-232.5 -561.5t-560.5 -233.5t-560.5 232.5t-232.5 562t231.5 562t560.5 232.5zM958 899l-249 150l-41 -109l166 -63v-9l-166 -80l41 -108l249 166v53zM1380 940l-41 109l-249 -150v-53l249 -166l41 108l-166 80v9zM1024 473 q133 0 238.5 -63.5t152.5 -163.5h96q-33 156 -170 259t-317 103t-317.5 -103.5t-169.5 -258.5h96q47 100 152.5 163.5t238.5 63.5z" glyph-name="u1F623" unicode="😣"/><glyph d="M231 664q0 330 231.5 562t560.5 232t561.5 -232.5t232.5 -561.5q0 -215 -107.5 -398.5t-288.5 -290.5l-96 379q51 -33 86 -88h92q-47 145 -211 215l-43 172l-41 -8l37 -145q-8 4 -63 18l-19 119l-39 -6l15 -107q-47 8 -109 8t-112 -6l14 105l-39 6l-19 -119 q-35 -6 -61 -14l35 141l-41 8l-41 -168q-170 -67 -221 -219h92q33 55 96 94l-100 -389q-182 104 -292 288.5t-110 404.5zM631 889l325 -96l27 94l-324 94zM1067 887l27 -94l323 96l-26 92zM1026 -131q-104 0 -201 25l76 524q61 10 125 10t129 -10l78 -520q-103 -29 -207 -29 zM678 -51l106 438q41 14 72 23l-80 -502q-65 25 -98 41zM1278 -88l-78 496q25 -6 72 -25l104 -430q-51 -27 -98 -41zM1376 -47l45 22l68 -264l-51 -8zM633 -29l45 -22l-60 -246l-51 8zM1233 -102l45 14l37 -231l-49 -11zM776 -92l49 -14l-32 -224l-52 11zM834 -264l8 37 q123 -55 108 -140q-8 -51 -43 -74.5t-78 -17.5t-63 37q-35 -90 -123 -72q-41 6 -65.5 36t-24.5 77q-27 -25 -71 -17t-67.5 43.5t-15.5 86.5q14 82 150 94l-6 -37q-25 -6 -37 -10t-28.5 -19.5t-20.5 -41.5t11 -45t40 -23t45 16l29 -12q2 -80 71.5 -92.5t98.5 61.5l30 2 q10 -25 35 -31q63 -10 76 52q9 47 -59 90zM1505 -213l-6 37q133 -8 150 -94q10 -51 -14.5 -86t-66.5 -42t-73 13q0 -45 -24.5 -74.5t-65.5 -36.5q-90 -14 -123 74q-16 -29 -61 -37t-80 15.5t-43 74.5q-14 82 108 142l6 -37q-66 -45 -56 -98t75 -44q23 2 35 29l30 -2 q29 -74 98.5 -61.5t71.5 92.5l29 12q16 -18 44 -15t43 23t10 46q-10 52 -87 69z" glyph-name="u1F624" unicode="😤"/><glyph d="M1023 1458q329 0 561.5 -233t232.5 -561t-232.5 -561.5t-560.5 -233.5t-560.5 232.5t-232.5 562t231.5 562t560.5 232.5zM973 942l-53 90l-308 -168l52 -88zM1436 864l-308 168l-53 -90l309 -166zM1415 612q0 -52 41 -91.5t100.5 -39.5t100.5 40t41 91t-62.5 137.5 t-70.5 149.5h-17q-8 -63 -70.5 -149t-62.5 -138zM1626 622q0 -26 -19.5 -46.5t-50 -20.5t-50 20.5t-19.5 47.5t29.5 68.5t39.5 68.5q10 -27 40 -69.5t30 -68.5zM1024 473q133 0 238.5 -63.5t152.5 -163.5h96q-33 156 -170 259t-317 103t-317.5 -103.5t-169.5 -258.5h96 q47 100 152.5 163.5t238.5 63.5z" glyph-name="u1F625" unicode="😥"/><glyph d="M1023 1458q329 0 561.5 -233t232.5 -561t-232.5 -561.5t-560.5 -233.5t-560.5 232.5t-232.5 562t231.5 562t560.5 232.5zM936 948q0 198 -93 197q-93 0 -93 -198t94 -197q92 0 92 198zM1298 948q0 198 -93 197q-93 0 -93 -198t92 -197q94 0 94 198zM1024 645 q-176 0 -285.5 -115.5t-128.5 -314.5h828q-18 199 -128 314.5t-286 115.5zM1024 537q104 0 185 -56.5t100 -163.5h-570q18 106 99.5 163t185.5 57z" glyph-name="u1F626" unicode="😦"/><glyph d="M1023 1458q329 0 561.5 -233t232.5 -561t-232.5 -561.5t-560.5 -233.5t-560.5 232.5t-232.5 562t231.5 562t560.5 232.5zM758 858q0 -195 90 -194.5t90 194.5v246l-385 -191l22 -88l183 90v-57zM1110 858q0 -195 90 -194.5t90 194.5v57l183 -90l22 88l-385 191v-246z M1024 623q-209 0 -333 -139.5t-126 -356.5q180 82 459 82q141 0 275.5 -21.5t183.5 -60.5q-2 217 -126 356.5t-333 139.5zM1024 510q125 0 218 -59.5t126 -176.5q-139 41 -344 41t-344 -41q33 117 126 176.5t218 59.5z" glyph-name="u1F627" unicode="😧"/><glyph d="M1023 1458q329 0 561.5 -233t232.5 -561t-232.5 -561.5t-560.5 -233.5t-560.5 232.5t-232.5 562t231.5 562t560.5 232.5zM760 1102q-86 0 -146.5 -60.5t-60.5 -146.5t60.5 -146.5t146.5 -60.5t146.5 60.5t60.5 146.5t-60.5 146.5t-146.5 60.5zM1288 1102 q-86 0 -146.5 -60.5t-60.5 -146.5t60.5 -146.5t146.5 -60.5t146.5 60.5t60.5 146.5t-60.5 146.5t-146.5 60.5zM761 1026q54 0 93 -38t39 -93t-39 -93t-93 -38t-93 38t-39 93t39 93t93 38zM1287 1026q54 0 93 -38t39 -93t-39 -93t-93 -38t-93 38t-39 93t39 93t93 38z M759.5 946q-22.5 0 -36.5 -14t-14 -37t14 -37t36.5 -14t37 14t14.5 37t-14.5 37t-37 14zM1288.5 946q-22.5 0 -37 -14t-14.5 -37t14.5 -37t37 -14t36.5 14t14 37t-14 37t-36.5 14zM1024 668q-176 0 -285.5 -116t-128.5 -314h828q-18 199 -128 314.5t-286 115.5zM1024 559 q104 0 185 -56.5t100 -162.5h-570q18 106 99.5 162.5t185.5 56.5z" glyph-name="u1F628" unicode="😨"/><glyph d="M1023 1458q329 0 561.5 -233t232.5 -561t-232.5 -561.5t-560.5 -233.5t-560.5 232.5t-232.5 562t231.5 562t560.5 232.5zM781 1036q-93 0 -93 -198t93 -197q93 -1 93 197t-93 198zM1144 1036q-93 0 -93 -198t93 -197q93 -1 93 197t-93 198zM1137 174q84 0 144 60.5 t60 145.5t-60 145.5t-144 60.5t-144.5 -60.5t-60.5 -145.5t60.5 -145.5t144.5 -60.5z" glyph-name="u1F62E" unicode="😮"/><glyph d="M1023 1458q329 0 561.5 -233t232.5 -561t-232.5 -561.5t-560.5 -233.5t-560.5 232.5t-232.5 562t231.5 562t560.5 232.5zM909 1104l-307 -113l43 -114l307 112zM1444 991l-307 113l-41 -115l307 -112zM542 778q-101 0 -159 -88h317q-57 88 -158 88zM1508 778 q-102 0 -160 -88h319q-57 88 -159 88zM354 598q0 -22 4 -47h365q6 18 6 42t-6 46h-363q-6 -19 -6 -41zM1321 598q0 -22 4 -47h365q6 18 6 42.5t-6 45.5h-363q-6 -19 -6 -41zM381 498q45 -76 160 -92q117 16 161 92h-321zM1348 498q45 -76 159 -92q115 16 160 92h-319z M756 424q0 -111 78.5 -189.5t189.5 -78.5t188.5 78.5t77.5 189.5h-534z" glyph-name="u1F633" unicode="😳"/><glyph d="M784 1331q-123 0 -139 -106l-27 -146h234l-43 -243h-236l-200 -1117h-293l199 1117h-148l43 243h148l28 168q61 328 414 328q137 0 213 -33l-82 -225q-43 14 -111 14z" glyph-name="f.salt" horiz-adv-x="849"/><glyph d="M840 1104q168 0 241.5 -96.5t38.5 -266.5l-94 -485q-12 -66 56 -66q32 0 53 5l-41 -193q-59 -25 -160 -25q-252 0 -199 256l90 433q39 178 -106 178q-121 0 -209 -121t-127 -334l-74 -389h-295l275 1540h272l-115 -655h11q133 219 383 219z" glyph-name="h.salt" horiz-adv-x="1243"/><glyph d="M934 -23q-252 0 -199 256l90 433q39 178 -106 178q-121 0 -209 -121t-127 -334l-74 -389h-295l211 1182h-137l27 145h135l39 213h272l-37 -213h156l-23 -145h-159l-52 -297h11q133 219 383 219q168 0 241.5 -96.5t38.5 -266.5l-94 -485q-12 -66 56 -66q32 0 53 5 l-41 -193q-59 -25 -160 -25z" glyph-name="hbar.salt" horiz-adv-x="1243"/><glyph d="M741 635l342 -635h-346l-219 426l-129 -119l-55 -307h-297l272 1540h297l-155 -881l401 414h360z" glyph-name="k.salt" horiz-adv-x="1183"/><glyph d="M1083 0h-346l-219 426l-129 -119l-55 -307h-297l272 1540h297l-155 -881l401 414h360l-471 -438zM455 -453h-129l65 344h227z" glyph-name="kcommaaccent.salt" horiz-adv-x="1183"/><glyph d="M690 1462q108 0 175 -69.5t67 -192.5t-38 -214t-129 -169t-220 -78t-183 92h-4l-47 -77h-151l166 932h213l-54 -308q97 84 205 84zM525 928q78 0 129 65t51 143q0 144 -103 144q-88 0 -149 -86l-37 -209q31 -57 109 -57z" glyph-name="glyph391" horiz-adv-x="935"/><glyph d="M838 1575q256 0 395 -84l-82 -234q-139 74 -287 74t-174 -123l-24 -129h342q147 0 208.5 -52t38.5 -169l-110 -571q-12 -68 43 -68q45 0 76 21l-43 -236q-85 -29 -181 -29t-162.5 62.5t-43.5 185.5l102 533q10 45 -5.5 62.5t-70.5 17.5h-237l-168 -936 q-29 -158 -153 -256.5t-300 -98.5q-76 0 -135 23l57 242q37 -12 84 -13q135 0 158 125l162 914h-174l45 243h170l24 150q31 160 145.5 253t299.5 93z" glyph-name="f_i.dlig" horiz-adv-x="1390"/><glyph d="M799 1575q346 0 565 -143l-225 -1145q-12 -68 43 -68q43 0 75 21l-43 -236q-88 -29 -183 -29t-161.5 62.5t-42.5 185.5l215 1075q-49 33 -211 33t-184 -123l-24 -129h249l-43 -243h-251l-156 -883q-29 -158 -153 -257t-300 -99q-72 0 -137 24l57 240q51 -10 86 -11 q135 0 158 123l152 863h-174l43 243h172l24 150q31 160 146.5 253t302.5 93z" glyph-name="f_l.dlig" horiz-adv-x="1384"/><glyph d="M1804 219q45 0 76 21l-43 -236q-86 -29 -181 -29t-162 62.5t-42 185.5l215 1077q-51 31 -193 31t-167 -123l-25 -129h250l-43 -243h-250l-205 -1117h-289l199 1117h-369l-202 -1117h-289l197 1117h-142l43 243h142l24 150q31 160 145.5 253t299.5 93q127 -2 188 -35 l-94 -223q-57 14 -111 14t-87.5 -23.5t-39.5 -62.5l-28 -166h364l25 150q31 162 146.5 254t293.5 92t301 -33t236 -135l-226 -1120q-10 -68 43 -68z" glyph-name="f_f_l.liga.salt" horiz-adv-x="2007"/><glyph d="M1804 219q45 0 76 21l-43 -236q-81 -29 -181 -29t-163 62.5t-41 185.5l96 516q10 51 -7 74t-66 23h-236l-197 -1117h-288l190 1117h-371l-200 -1117h-293l199 1117h-148l43 243h148l28 168q61 328 414 328q137 0 213 -33l-82 -225q-43 14 -111 14q-123 0 -139 -106 l-27 -146h367l25 150q78 346 471 346q106 0 205.5 -22.5t152.5 -61.5l-119 -238q-102 78 -245.5 78t-169.5 -135l-23 -117h340q154 0 211.5 -62.5t24.5 -230.5l-97 -499q-12 -68 43 -68z" glyph-name="f_f_i.liga.salt" horiz-adv-x="2007"/><glyph d="M1452 1331q-123 0 -139 -106l-27 -146h234l-43 -243h-236l-201 -1117h-292l198 1117h-373l-200 -1117h-293l199 1117h-148l43 243h148l28 168q61 328 414 328q137 0 213 -33l-82 -225q-43 14 -111 14q-123 0 -139 -106l-27 -146h371l29 168q61 328 414 328q137 0 213 -33 l-82 -225q-43 14 -111 14z" glyph-name="f_f.liga.salt" horiz-adv-x="1521"/><glyph d="M838 1575q256 0 395 -84l-82 -234q-139 74 -287 74t-174 -123l-24 -129h342q147 0 208.5 -52t38.5 -169l-110 -571q-12 -68 43 -68q45 0 76 21l-43 -236q-85 -29 -181 -29t-162.5 62.5t-43.5 185.5l102 533q10 45 -5.5 62.5t-70.5 17.5h-237l-201 -1117h-293l199 1117 h-174l45 243h170l24 150q31 160 145.5 253t299.5 93z" glyph-name="f_i.dlig.salt" horiz-adv-x="1390"/><glyph d="M831 1331q-162 0 -184 -123l-24 -129h249l-43 -243h-251l-201 -1117h-291l199 1117h-174l43 243h172l24 150q31 160 146.5 253t302.5 93q346 0 565 -143l-225 -1145q-12 -68 43 -68q43 0 75 21l-43 -236q-88 -29 -183 -29t-162 62.5t-42 185.5l215 1075q-49 33 -211 33z " glyph-name="f_l.dlig.salt" horiz-adv-x="1384"/><glyph d="M811 203h-455l-104 -203h-285l633 1167h299l229 -1167h-282zM776 416l-78 456l-233 -456h311z" glyph-name="A.c2sc" horiz-adv-x="1245"/><glyph d="M838 1288h-176l180 293h338zM356 203l-104 -203h-285l633 1167h299l229 -1167h-282l-35 203h-455zM698 872l-233 -456h311z" glyph-name="Aacute.aalt" horiz-adv-x="1245"/><glyph d="M765 1309q-122 0 -196.5 69.5t-62.5 208.5h141q0 -55 37 -88t111 -33q139 0 188 121h139q-37 -139 -136 -208.5t-221 -69.5zM356 203l-104 -203h-285l633 1167h299l229 -1167h-282l-35 203h-455zM698 872l-233 -456h311z" glyph-name="Abreve.aalt" horiz-adv-x="1245"/><glyph d="M670 1309h-234l293 284h172l182 -284h-225l-76 112zM1128 0h-282l-35 203h-455l-104 -203h-285l633 1167h299zM776 416l-78 456l-233 -456h311z" glyph-name="Acircumflex.aalt" horiz-adv-x="1245"/><glyph d="M602 1591q61 0 95 -37.5t22 -108.5q-22 -132 -146 -132q-61 0 -97 38t-23 109q24 131 149 131zM999 1591q61 0 94 -37.5t22 -107.5t-51 -101.5t-97 -31.5t-92 38t-23 109q22 131 147 131zM356 203l-104 -203h-285l633 1167h299l229 -1167h-282l-35 203h-455zM698 872 l-233 -456h311z" glyph-name="Adieresis.aalt" horiz-adv-x="1245"/><glyph d="M889 1331h-174l-242 293h338zM356 203l-104 -203h-285l633 1167h299l229 -1167h-282l-35 203h-455zM698 872l-233 -456h311z" glyph-name="Agrave.aalt" horiz-adv-x="1245"/><glyph d="M1065 1370h-578l25 148h578zM356 203l-104 -203h-285l633 1167h299l229 -1167h-282l-35 203h-455zM698 872l-233 -456h311z" glyph-name="Amacron.aalt" horiz-adv-x="1245"/><glyph d="M1128 0h-198q-143 -104 -144 -195q0 -78 105 -92l-74 -166q-240 31 -239 209q0 78 59 145.5t197 141.5l6 -2l-29 162h-455l-104 -203h-285l633 1167h299zM776 416l-78 456l-233 -456h311z" glyph-name="Aogonek.aalt" horiz-adv-x="1245"/><glyph d="M831.5 1624q79.5 0 121.5 -48t29 -122t-71.5 -122t-138.5 -48t-122 48t-29 122q14 74 72.5 122t138 48zM815 1528q-74 0 -86 -74q-4 -31 10.5 -52.5t48.5 -21.5t58 22.5t28 52.5t-11 51.5t-48 21.5zM356 203l-104 -203h-285l633 1167h299l229 -1167h-282l-35 203h-455z M698 872l-233 -456h311z" glyph-name="Aring.aalt" horiz-adv-x="1245"/><glyph d="M893 1321q-57 0 -127 39t-104 39q-72 0 -119 -92l-131 77q39 100 106.5 149.5t132.5 49.5t135 -40t95 -40q57 1 116 101l146 -68q-96 -215 -250 -215zM356 203l-104 -203h-285l633 1167h299l229 -1167h-282l-35 203h-455zM698 872l-233 -456h311z" glyph-name="Atilde.aalt" horiz-adv-x="1245"/><glyph d="M1176 928l-35 -211h407l-41 -240h-407l-39 -237h475l-41 -240h-776l35 205h-334l-131 -205h-322l809 1167h922l-45 -239h-477zM793 444l75 455l-293 -455h218z" glyph-name="AE.aalt" horiz-adv-x="1677"/><glyph d="M725 1167q352 0 352 -241q0 -100 -53 -186.5t-160 -135.5q182 -45 182 -226t-130 -279.5t-338 -98.5h-529l207 1167h469zM776 836q0 96 -119 96h-159l-45 -254h159q78 2 121 45t43 113zM547 223q100 0 144 42t44 130q0 102 -135 103h-178l-49 -275h174z" glyph-name="B.aalt" horiz-adv-x="1159"/><glyph d="M82 469q0 342 208 531.5t501 189.5q231 0 368 -125l-164 -203q-84 74 -213 74q-166 0 -273.5 -109.5t-107.5 -318.5q0 -135 71 -208t197 -73t257 84l84 -200q-176 -135 -435 -136q-219 0 -356 127t-137 367z" glyph-name="C.aalt" horiz-adv-x="1140"/><glyph d="M958 1286h-176l181 293h337zM82 469q0 342 208 531.5t501 189.5q231 0 368 -125l-164 -203q-84 74 -213 74q-166 0 -273.5 -109.5t-107.5 -318.5q0 -135 71 -208t197 -73t257 84l84 -200q-176 -135 -435 -136q-219 0 -356 127t-137 367z" glyph-name="Cacute.aalt" horiz-adv-x="1140"/><glyph d="M797 1307l-191 278h230l75 -117l119 117h221l-276 -278h-178zM782 936q-166 0 -273.5 -109.5t-107.5 -318.5q0 -135 71 -208t197 -73t257 84l84 -200q-176 -135 -435 -136q-219 0 -356 127t-137 367q0 342 208 531.5t501 189.5q231 0 368 -125l-164 -203q-84 74 -213 74z " glyph-name="Ccaron.aalt" horiz-adv-x="1140"/><glyph d="M588 -102q68 0 103.5 -35t35.5 -90q0 -92 -84 -169t-235 -89l-31 123q96 16 130 42.5t34 62.5t-35 36q-18 0 -41 -12l-84 83l90 134q-176 29 -282.5 152.5t-106.5 332.5q0 342 208 531.5t501 189.5q231 0 368 -125l-164 -203q-84 74 -213 74q-166 0 -273.5 -109.5 t-107.5 -318.5q0 -135 71 -208t197 -73t257 84l84 -200q-160 -123 -402 -136l-57 -81q29 4 37 4z" glyph-name="Ccedilla.aalt" horiz-adv-x="1140"/><glyph d="M940.5 1599q63.5 0 101 -36.5t25.5 -109.5t-63.5 -109.5t-114.5 -36.5t-100 36.5t-25 109.5t62.5 109.5t114 36.5zM82 469q0 342 208 531.5t501 189.5q231 0 368 -125l-164 -203q-84 74 -213 74q-166 0 -273.5 -109.5t-107.5 -318.5q0 -135 71 -208t197 -73t257 84 l84 -200q-176 -135 -435 -136q-219 0 -356 127t-137 367z" glyph-name="Cdotaccent.aalt" horiz-adv-x="1140"/><glyph d="M696 1167q238 0 373 -113.5t135 -340.5q0 -346 -196.5 -529.5t-515.5 -183.5h-443l207 1167h440zM508 240q197 0 294 112.5t97 321.5q0 252 -270 252h-119l-121 -686h119z" glyph-name="D.aalt" horiz-adv-x="1269"/><glyph d="M696 1167q238 0 373 -113.5t135 -340.5q0 -346 -196.5 -529.5t-515.5 -183.5h-443l88 496h-174l31 186h176l86 485h440zM508 240q197 0 294 112.5t97 321.5q0 252 -270 252h-119l-43 -244h199l-33 -186h-199l-45 -256h119z" glyph-name="Eth.aalt" horiz-adv-x="1269"/><glyph d="M641 1311l-190 278h229l76 -116l118 116h222l-277 -278h-178zM696 1167q238 0 373 -113.5t135 -340.5q0 -346 -196.5 -529.5t-515.5 -183.5h-443l207 1167h440zM508 240q197 0 294 112.5t97 321.5q0 252 -270 252h-119l-121 -686h119z" glyph-name="Dcaron.aalt" horiz-adv-x="1269"/><glyph d="M1028 1372h-577l24 148h578zM696 1167q238 0 373 -113.5t135 -340.5q0 -346 -196.5 -529.5t-515.5 -183.5h-443l207 1167h440zM508 240q197 0 294 112.5t97 321.5q0 252 -270 252h-119l-121 -686h119z" glyph-name="Dcroat.aalt" horiz-adv-x="1269"/><glyph d="M1016 928h-508l-37 -217h440l-41 -240h-440l-39 -231h510l-43 -240h-805l203 1167h805z" glyph-name="E.aalt" horiz-adv-x="1042"/><glyph d="M739 1288h-176l180 293h338zM508 928l-37 -217h440l-41 -240h-440l-39 -231h510l-43 -240h-805l203 1167h805l-45 -239h-508z" glyph-name="Eacute.aalt" horiz-adv-x="1042"/><glyph d="M664 1309q-122 0 -196.5 69.5t-61.5 208.5h141q0 -55 37 -88t110 -33q140 0 189 121h139q-37 -139 -136.5 -208.5t-221.5 -69.5zM508 928l-37 -217h440l-41 -240h-440l-39 -231h510l-43 -240h-805l203 1167h805l-45 -239h-508z" glyph-name="Ebreve.aalt" horiz-adv-x="1042"/><glyph d="M575 1309l-190 278h229l76 -117l119 117h221l-276 -278h-179zM508 928l-37 -217h440l-41 -240h-440l-39 -231h510l-43 -240h-805l203 1167h805l-45 -239h-508z" glyph-name="Ecaron.aalt" horiz-adv-x="1042"/><glyph d="M569 1309h-233l293 284h172l182 -284h-225l-76 112zM508 928l-37 -217h440l-41 -240h-440l-39 -231h510l-43 -240h-805l203 1167h805l-45 -239h-508z" glyph-name="Ecircumflex.aalt" horiz-adv-x="1042"/><glyph d="M502 1591q61 0 94.5 -37.5t21.5 -108.5q-23 -132 -145 -132q-61 0 -97 38t-24 109q25 131 150 131zM899 1591q61 0 94 -37.5t22 -107.5t-51 -101.5t-98 -31.5t-92.5 38t-21.5 109q22 131 147 131zM508 928l-37 -217h440l-41 -240h-440l-39 -231h510l-43 -240h-805 l203 1167h805l-45 -239h-508z" glyph-name="Edieresis.aalt" horiz-adv-x="1042"/><glyph d="M720.5 1602q63.5 0 101.5 -37t26 -110t-63.5 -109.5t-114.5 -36.5t-100.5 36.5t-25.5 109.5t62.5 110t114 37zM508 928l-37 -217h440l-41 -240h-440l-39 -231h510l-43 -240h-805l203 1167h805l-45 -239h-508z" glyph-name="Edotaccent.aalt" horiz-adv-x="1042"/><glyph d="M788 1331h-174l-241 293h338zM508 928l-37 -217h440l-41 -240h-440l-39 -231h510l-43 -240h-805l203 1167h805l-45 -239h-508z" glyph-name="Egrave.aalt" horiz-adv-x="1042"/><glyph d="M965 1370h-578l25 148h577zM508 928l-37 -217h440l-41 -240h-440l-39 -231h510l-43 -240h-805l203 1167h805l-45 -239h-508z" glyph-name="Emacron.aalt" horiz-adv-x="1042"/><glyph d="M594 -193q0 -78 104 -92l-73 -166q-240 31 -240 209q0 129 178 242h-510l203 1167h805l-45 -239h-508l-37 -217h440l-41 -240h-440l-39 -231h510l-43 -240h-123q-141 -104 -141 -193z" glyph-name="Eogonek.aalt" horiz-adv-x="1042"/><glyph d="M999 928h-505l-48 -299h443l-45 -240h-443l-65 -389h-283l203 1167h788z" glyph-name="F.aalt" horiz-adv-x="991"/><glyph d="M567 -25q-221 0 -353 120t-132 386q0 174 58.5 312.5t211.5 268.5t441 130q233 0 397 -121l-168 -221q-104 84 -271 84t-269.5 -113.5t-102.5 -306.5q0 -283 244 -283q131 0 208 64l31 180h-250l37 207h514l-90 -498q-76 -92 -209 -150.5t-297 -58.5z" glyph-name="G.aalt" horiz-adv-x="1214"/><glyph d="M804 1307q-122 0 -197 69.5t-62 208.5h141q0 -55 37 -88t111 -33q139 0 188 121h139q-37 -139 -136 -208.5t-221 -69.5zM567 -25q-221 0 -353 120t-132 386q0 174 58.5 312.5t211.5 268.5t441 130q233 0 397 -121l-168 -221q-104 84 -271 84t-269.5 -113.5t-102.5 -306.5 q0 -283 244 -283q131 0 208 64l31 180h-250l37 207h514l-90 -498q-76 -92 -209 -150.5t-297 -58.5z" glyph-name="Gbreve.aalt" horiz-adv-x="1214"/><glyph d="M567 -25q-221 0 -353 120t-132 386q0 174 58.5 312.5t211.5 268.5t441 130q233 0 397 -121l-168 -221q-104 84 -271 84t-269.5 -113.5t-102.5 -306.5q0 -283 244 -283q131 0 208 64l31 180h-250l37 207h514l-90 -498q-76 -92 -209 -150.5t-297 -58.5zM563 -459h-129 l66 344h227z" glyph-name="Gcommaaccent.aalt" horiz-adv-x="1214"/><glyph d="M860.5 1599q63.5 0 101 -36.5t25.5 -109.5t-63.5 -109.5t-114.5 -36.5t-100 36.5t-25 109.5t62.5 109.5t114 36.5zM567 -25q-221 0 -353 120t-132 386q0 174 58.5 312.5t211.5 268.5t441 130q233 0 397 -121l-168 -221q-104 84 -271 84t-269.5 -113.5t-102.5 -306.5 q0 -283 244 -283q131 0 208 64l31 180h-250l37 207h514l-90 -498q-76 -92 -209 -150.5t-297 -58.5z" glyph-name="Gdotaccent.aalt" horiz-adv-x="1214"/><glyph d="M1313 1167l-203 -1167h-305l78 446h-455l-78 -446h-297l203 1167h297l-82 -467h455l82 467h305z" glyph-name="H.aalt" horiz-adv-x="1351"/><glyph d="M1391 821h-131l-144 -821h-305l78 446h-455l-78 -446h-297l144 821h-47l26 162h47l33 184h297l-33 -184h455l33 184h305l-33 -184h133zM952 821h-454l-21 -121h455z" glyph-name="Hbar.aalt" horiz-adv-x="1331"/><glyph d="M336 0h-283l203 1167h283z" glyph-name="dotlessi.aalt" horiz-adv-x="575"/><glyph d="M489 1290h-176l181 293h337zM336 0h-283l203 1167h283z" glyph-name="Iacute.aalt" horiz-adv-x="575"/><glyph d="M322 1311h-234l293 284h172l182 -284h-225l-76 112zM256 1167h283l-203 -1167h-283z" glyph-name="Icircumflex.aalt" horiz-adv-x="575"/><glyph d="M254 1593q61 0 95 -37.5t22 -108.5q-22 -132 -146 -132q-61 0 -97 38t-24 109q25 131 150 131zM651 1593q61 0 94 -37.5t22 -107.5t-51 -101.5t-97 -31.5t-92 38t-23 109q22 131 147 131zM336 0h-283l203 1167h283z" glyph-name="Idieresis.aalt" horiz-adv-x="575"/><glyph d="M539 1333h-174l-242 293h338zM336 0h-283l203 1167h283z" glyph-name="Igrave.aalt" horiz-adv-x="575"/><glyph d="M715 1372h-578l25 148h577zM336 0h-283l203 1167h283z" glyph-name="Imacron.aalt" horiz-adv-x="575"/><glyph d="M336 0h-107q-115 -92 -114 -172q0 -78 104 -92l-74 -166q-240 31 -239 209q0 119 147 221l203 1167h283z" glyph-name="Iogonek.aalt" horiz-adv-x="575"/><glyph d="M129 -37q-139 0 -215 37l94 246q61 -18 135 -19q186 0 215 174l134 764h282l-139 -807q-68 -395 -506 -395z" glyph-name="J.aalt" horiz-adv-x="808"/><glyph d="M719 627l403 -627h-350l-266 430l-100 -92l-60 -338h-297l207 1167h297l-82 -469l475 469h359z" glyph-name="K.aalt" horiz-adv-x="1220"/><glyph d="M1122 0h-350l-266 430l-100 -92l-60 -338h-297l207 1167h297l-82 -469l475 469h359l-586 -540zM487 -453h-129l66 344h227z" glyph-name="Kcommaaccent.aalt" horiz-adv-x="1220"/><glyph d="M383 254h510l-45 -254h-795l203 1167h285z" glyph-name="L.aalt" horiz-adv-x="980"/><glyph d="M516 1288h-176l180 293h338zM893 254l-45 -254h-795l203 1167h285l-158 -913h510z" glyph-name="Lacute.aalt" horiz-adv-x="980"/><glyph d="M893 254l-45 -254h-795l203 1167h285l-158 -913h510zM889 801h-129l65 344h228z" glyph-name="Lcaron.aalt" horiz-adv-x="1042"/><glyph d="M893 254l-45 -254h-795l203 1167h285l-158 -913h510zM410 -453h-129l65 344h227z" glyph-name="Lcommaaccent.aalt" horiz-adv-x="980"/><glyph d="M893 254l-45 -254h-795l203 1167h285l-158 -913h510zM770 852q66 0 109 -48t29 -125t-60.5 -113t-113.5 -36t-110.5 47.5t-29.5 124.5t62 113.5t114 36.5z" glyph-name="Ldot.aalt" horiz-adv-x="980"/><glyph d="M993 254l-45 -254h-794l90 514l-162 -47l35 180l157 47l82 473h285l-68 -385l179 52l-35 -181l-174 -51l-60 -348h510z" glyph-name="Lslash.aalt" horiz-adv-x="1142"/><glyph d="M1546 1167l-203 -1167h-282l102 600l-379 -547h-151l-193 555l-104 -608h-283l203 1167h260l262 -770l510 770h258z" glyph-name="M.aalt" horiz-adv-x="1585"/><glyph d="M1303 1167l-203 -1167h-246l-403 692l-115 -692h-283l203 1167h244l397 -714l123 714h283z" glyph-name="N.aalt" horiz-adv-x="1339"/><glyph d="M862 1288h-176l180 293h338zM1100 0h-246l-403 692l-115 -692h-283l203 1167h244l397 -714l123 714h283z" glyph-name="Nacute.aalt" horiz-adv-x="1339"/><glyph d="M700 1309l-190 278h229l76 -117l119 117h221l-276 -278h-179zM1303 1167l-203 -1167h-246l-403 692l-115 -692h-283l203 1167h244l397 -714l123 714h283z" glyph-name="Ncaron.aalt" horiz-adv-x="1339"/><glyph d="M1100 0h-246l-403 692l-115 -692h-283l203 1167h244l397 -714l123 714h283zM565 -453h-129l66 344h227z" glyph-name="Ncommaaccent.aalt" horiz-adv-x="1339"/><glyph d="M606 -473q-160 0 -237 35l92 245q67 -16 149 -16q175 0 201 174l14 80l-372 647l-117 -692h-283l203 1167h244l397 -714l121 714h285l-216 -1245q-68 -395 -481 -395z" glyph-name="Eng.aalt" horiz-adv-x="1339"/><glyph d="M918 1321q-57 0 -127 39t-105 39q-72 0 -119 -92l-131 77q39 100 106.5 149.5t133.5 49.5t135.5 -40t93.5 -40q58 1 117 101l145 -68q-96 -215 -249 -215zM1100 0h-246l-403 692l-115 -692h-283l203 1167h244l397 -714l123 714h283z" glyph-name="Ntilde.aalt" horiz-adv-x="1339"/><glyph d="M803 1192q213 0 363.5 -129t150.5 -373q0 -176 -66.5 -317.5t-229.5 -270.5t-427 -129q-217 0 -364.5 129t-147.5 371q0 178 63.5 319.5t222 270.5t435.5 129zM756 920q-154 0 -259.5 -107.5t-105.5 -292.5q0 -129 69.5 -201.5t180.5 -72.5q152 0 260.5 111.5 t108.5 295.5q0 129 -69.5 198t-184.5 69z" glyph-name="O.c2sc" horiz-adv-x="1380"/><glyph d="M893 1284h-176l180 293h338zM803 1192q213 0 363.5 -129t150.5 -373q0 -176 -66.5 -317.5t-229.5 -270.5t-427 -129q-217 0 -364.5 129t-147.5 371q0 178 63.5 319.5t222 270.5t435.5 129zM756 920q-154 0 -259.5 -107.5t-105.5 -292.5q0 -129 69.5 -201.5t180.5 -72.5 q152 0 260.5 111.5t108.5 295.5q0 129 -69.5 198t-184.5 69z" glyph-name="Oacute.aalt" horiz-adv-x="1380"/><glyph d="M725 1305h-233l292 284h172l183 -284h-226l-75 112zM803 1192q213 0 363.5 -129t150.5 -373q0 -176 -66.5 -317.5t-229.5 -270.5t-427 -129q-217 0 -364.5 129t-147.5 371q0 178 63.5 319.5t222 270.5t435.5 129zM641 246q152 0 260.5 111.5t108.5 295.5q0 129 -70 198 t-184 69q-154 0 -259.5 -107.5t-105.5 -292.5q0 -129 69.5 -201.5t180.5 -72.5z" glyph-name="Ocircumflex.aalt" horiz-adv-x="1380"/><glyph d="M657 1587q61 0 95 -38.5t22 -108.5q-22 -132 -145 -131q-61 0 -97 37.5t-24 109.5q24 131 149 131zM1055 1587q61 0 94 -38t21 -107t-51.5 -101t-96.5 -32t-92 37.5t-23 109.5q23 131 148 131zM803 1192q213 0 363.5 -129t150.5 -373q0 -176 -66.5 -317.5t-229.5 -270.5 t-427 -129q-217 0 -364.5 129t-147.5 371q0 178 63.5 319.5t222 270.5t435.5 129zM756 920q-154 0 -259.5 -107.5t-105.5 -292.5q0 -129 69.5 -201.5t180.5 -72.5q152 0 260.5 111.5t108.5 295.5q0 129 -69.5 198t-184.5 69z" glyph-name="Odieresis.aalt" horiz-adv-x="1380"/><glyph d="M942 1327h-174l-242 293h338zM803 1192q213 0 363.5 -129t150.5 -373q0 -176 -66.5 -317.5t-229.5 -270.5t-427 -129q-217 0 -364.5 129t-147.5 371q0 178 63.5 319.5t222 270.5t435.5 129zM756 920q-154 0 -259.5 -107.5t-105.5 -292.5q0 -129 69.5 -201.5t180.5 -72.5 q152 0 260.5 111.5t108.5 295.5q0 129 -69.5 198t-184.5 69z" glyph-name="Ograve.aalt" horiz-adv-x="1380"/><glyph d="M700 1327h-168l130 293h264zM1059 1327h-191l199 293h276zM803 1192q213 0 363.5 -129t150.5 -373q0 -176 -66.5 -317.5t-229.5 -270.5t-427 -129q-217 0 -364.5 129t-147.5 371q0 178 63.5 319.5t222 270.5t435.5 129zM756 920q-154 0 -259.5 -107.5t-105.5 -292.5 q0 -129 69.5 -201.5t180.5 -72.5q152 0 260.5 111.5t108.5 295.5q0 129 -69.5 198t-184.5 69z" glyph-name="Ohungarumlaut.aalt" horiz-adv-x="1380"/><glyph d="M1118 1366h-577l24 147h578zM803 1192q213 0 363.5 -129t150.5 -373q0 -176 -66.5 -317.5t-229.5 -270.5t-427 -129q-217 0 -364.5 129t-147.5 371q0 178 63.5 319.5t222 270.5t435.5 129zM756 920q-154 0 -259.5 -107.5t-105.5 -292.5q0 -129 69.5 -201.5t180.5 -72.5 q152 0 260.5 111.5t108.5 295.5q0 129 -69.5 198t-184.5 69z" glyph-name="Omacron.aalt" horiz-adv-x="1380"/><glyph d="M1317 690q0 -176 -66.5 -317.5t-229.5 -270.5t-427 -129q-94 0 -164 23l-129 -207l-151 68l131 206q-199 133 -199 410q0 178 63.5 319.5t222 270.5t435.5 129q96 0 178 -27l133 209l139 -55l-135 -219q199 -135 199 -410zM451 330l370 583q-31 6 -65 7 q-154 0 -259.5 -107.5t-105.5 -292.5q1 -114 60 -190zM641 246q152 0 260.5 111.5t108.5 295.5q-1 115 -58 185l-364 -588q33 -4 53 -4z" glyph-name="Oslash.aalt" horiz-adv-x="1380"/><glyph d="M948 1317q-57 0 -126.5 39t-104.5 39q-72 0 -119 -92l-131 77q39 100 106 149.5t133 49.5t135.5 -40t94.5 -40q58 0 117 100l145 -67q-96 -215 -250 -215zM803 1192q213 0 363.5 -129t150.5 -373q0 -176 -66.5 -317.5t-229.5 -270.5t-427 -129q-217 0 -364.5 129 t-147.5 371q0 178 63.5 319.5t222 270.5t435.5 129zM756 920q-154 0 -259.5 -107.5t-105.5 -292.5q0 -129 69.5 -201.5t180.5 -72.5q152 0 260.5 111.5t108.5 295.5q0 129 -69.5 198t-184.5 69z" glyph-name="Otilde.aalt" horiz-adv-x="1380"/><glyph d="M625 0q-240 0 -392.5 118t-152.5 359q0 176 63.5 312.5t226.5 257t457 120.5h758l-43 -239h-455l-36 -215h389l-43 -240h-389l-41 -233h454l-41 -240h-755zM750 928q-160 0 -268.5 -113t-108.5 -299q0 -131 69.5 -205.5t188.5 -74.5h53l121 692h-55z" glyph-name="OE.aalt" horiz-adv-x="1564"/><glyph d="M705 1167q201 0 297 -91t96 -242q0 -219 -151.5 -355.5t-393.5 -136.5h-160l-59 -342h-285l207 1167h449zM582 582q102 0 162.5 56t60.5 150q0 139 -164 140h-145l-60 -346h146z" glyph-name="P.aalt" horiz-adv-x="1132"/><glyph d="M729 1004q231 0 323.5 -113t60.5 -299t-176 -299t-349 -113h-129l-31 -180h-285l203 1169h283l-27 -165h127zM610 420q88 0 144.5 46t69.5 128t-27.5 126t-128.5 44h-111l-57 -344h110z" glyph-name="Thorn.aalt" horiz-adv-x="1091"/><glyph d="M594 -27q-217 0 -364.5 129t-147.5 371q0 178 63.5 319.5t222 270.5t435.5 129q213 0 363.5 -129t150.5 -363t-104.5 -395.5t-272.5 -247.5l285 -178l-209 -205l-346 303q-49 -4 -76 -4zM391 520q0 -129 69.5 -201.5t180.5 -72.5q152 0 260.5 111.5t108.5 295.5 q0 129 -70 198t-184 69q-154 0 -259.5 -108t-105.5 -292z" glyph-name="Q.aalt" horiz-adv-x="1427"/><glyph d="M737 1167q211 0 305.5 -86.5t94.5 -232.5t-73 -261.5t-200 -174.5l180 -412h-335l-129 362h-170l-64 -362h-297l207 1167h481zM623 602q98 0 152 54.5t54 144.5q0 127 -149 127h-172l-57 -326h172z" glyph-name="R.aalt" horiz-adv-x="1189"/><glyph d="M791 1288h-177l181 293h338zM737 1167q211 0 305.5 -86.5t94.5 -232.5t-73 -261.5t-200 -174.5l180 -412h-335l-129 362h-170l-64 -362h-297l207 1167h481zM623 602q98 0 152 54.5t54 144.5q0 127 -149 127h-172l-57 -326h172z" glyph-name="Racute.aalt" horiz-adv-x="1189"/><glyph d="M629 1309l-191 278h230l75 -117l119 117h221l-276 -278h-178zM737 1167q211 0 305.5 -86.5t94.5 -232.5t-73 -261.5t-200 -174.5l180 -412h-335l-129 362h-170l-64 -362h-297l207 1167h481zM623 602q98 0 152 54.5t54 144.5q0 127 -149 127h-172l-57 -326h172z" glyph-name="Rcaron.aalt" horiz-adv-x="1189"/><glyph d="M737 1167q211 0 305.5 -86.5t94.5 -232.5t-73 -261.5t-200 -174.5l180 -412h-335l-129 362h-170l-64 -362h-297l207 1167h481zM623 602q98 0 152 54.5t54 144.5q0 127 -149 127h-172l-57 -326h172zM377 -453h-129l65 344h228z" glyph-name="Rcommaaccent.aalt" horiz-adv-x="1189"/><glyph d="M428 227q98 0 150.5 35t52.5 94q0 32 -16.5 46t-28 22t-44.5 22t-139.5 50.5t-174.5 109t-68 174.5q0 188 139 299t350 111q119 0 217.5 -34t149.5 -83l-150 -203q-104 88 -250 88q-78 0 -122.5 -33.5t-44.5 -84.5t35.5 -71.5t56 -29t72 -27t77.5 -28.5 q121 -47 179.5 -107.5t58.5 -164.5q0 -203 -150 -321t-380 -118t-382 109l119 227q141 -82 293 -82z" glyph-name="S.aalt" horiz-adv-x="1026"/><glyph d="M743 1276h-176l181 293h337zM428 227q98 0 150.5 35t52.5 94q0 32 -16.5 46t-28 22t-44.5 22t-139.5 50.5t-174.5 109t-68 174.5q0 188 139 299t350 111q119 0 217.5 -34t149.5 -83l-150 -203q-104 88 -250 88q-78 0 -122.5 -33.5t-44.5 -84.5t35.5 -71.5t56 -29t72 -27 t77.5 -28.5q121 -47 179.5 -107.5t58.5 -164.5q0 -203 -150 -321t-380 -118t-382 109l119 227q141 -82 293 -82z" glyph-name="Sacute.aalt" horiz-adv-x="1026"/><glyph d="M582 1298l-191 279h230l75 -117l119 117h221l-276 -279h-178zM616 958q-78 0 -122.5 -33.5t-44.5 -84.5t35.5 -71.5t56 -29t72 -27t77.5 -28.5q121 -47 179.5 -107.5t58.5 -164.5q0 -203 -150 -321t-380 -118t-382 109l119 227q141 -82 293 -82q98 0 150.5 35t52.5 94 q0 32 -16.5 46t-28 22t-44.5 22t-139.5 50.5t-174.5 109t-68 174.5q0 188 139 299t350 111q119 0 217.5 -34t149.5 -83l-150 -203q-104 88 -250 88z" glyph-name="Scaron.aalt" horiz-adv-x="1026"/><glyph d="M616 958q-78 0 -122.5 -33.5t-44.5 -84.5t35.5 -71.5t56 -29t72 -27t77.5 -28.5q121 -47 179.5 -107.5t58.5 -164.5q0 -178 -121 -293t-313 -139l-56 -78q29 4 37 4q68 0 103.5 -35t35.5 -90q0 -92 -84 -169t-235 -89l-31 123q96 16 130 42.5t34 62.5t-35 36 q-20 0 -41 -12l-84 84l80 116q-203 14 -332 107l119 227q141 -82 293 -82q98 0 150.5 35t52.5 94q0 32 -16.5 46t-28 22t-44.5 22t-139.5 50.5t-174.5 109t-68 174.5q0 188 139 299t350 111q119 0 217.5 -34t149.5 -83l-150 -203q-104 88 -250 88z" glyph-name="Scedilla.c2sc" horiz-adv-x="1026"/><glyph d="M428 227q98 0 150.5 35t52.5 94q0 32 -16.5 46t-28 22t-44.5 22t-139.5 50.5t-174.5 109t-68 174.5q0 188 139 299t350 111q119 0 217.5 -34t149.5 -83l-150 -203q-104 88 -250 88q-78 0 -122.5 -33.5t-44.5 -84.5t35.5 -71.5t56 -29t72 -27t77.5 -28.5 q121 -47 179.5 -107.5t58.5 -164.5q0 -203 -150 -321t-380 -118t-382 109l119 227q141 -82 293 -82zM365 -453h-129l65 344h227z" glyph-name="Scommaaccent.aalt" horiz-adv-x="1026"/><glyph d="M645 -25q-129 0 -205 33l78 236q59 -27 127 -27t113 44t45 110q0 119 -215 125l24 139l181 164q8 61 -26.5 98t-106.5 37t-127.5 -50t-69.5 -139l-131 -745h-283l137 778q37 207 186.5 310.5t341.5 103.5t291 -102.5t64 -286.5l-207 -191q227 -43 228 -239 q0 -174 -128 -286t-317 -112z" glyph-name="germandbls.aalt" horiz-adv-x="1202"/><glyph d="M1104 913h-338l-158 -913h-284l155 913h-338l47 254h963z" glyph-name="T.aalt" horiz-adv-x="1101"/><glyph d="M979 1370h-578l25 148h578zM766 913l-158 -913h-284l155 913h-338l47 254h963l-47 -254h-338z" glyph-name="Tbar.aalt" horiz-adv-x="1101"/><glyph d="M590 1309l-191 278h230l76 -117l118 117h221l-276 -278h-178zM1151 1167l-47 -254h-338l-158 -913h-284l155 913h-338l47 254h963z" glyph-name="Tcaron.aalt" horiz-adv-x="1101"/><glyph d="M541 -94q68 0 103.5 -35t35.5 -90q0 -92 -84 -169t-236 -89l-30 123q96 16 130 42.5t34 62.5t-35 36q-20 0 -41 -12l-84 84l96 141h-106l155 913h-338l47 254h963l-47 -254h-338l-158 -913h-35l-69 -98q29 4 37 4z" glyph-name="Tcommaaccent.c2sc" horiz-adv-x="1101"/><glyph d="M766 913l-158 -913h-284l155 913h-338l47 254h963l-47 -254h-338zM430 -453h-129l66 344h227z" glyph-name="uni021A.aalt" horiz-adv-x="1101"/><glyph d="M539 -25q-215 0 -332 124t-76 358l125 710h285l-129 -729q-16 -92 28.5 -146t145 -54t163 55t78.5 145l129 729h285l-125 -710q-41 -233 -201.5 -357.5t-375.5 -124.5z" glyph-name="U.aalt" horiz-adv-x="1273"/><glyph d="M831 1288h-176l181 293h338zM539 -25q-215 0 -332 124t-76 358l125 710h285l-129 -729q-16 -92 28.5 -146t145 -54t163 55t78.5 145l129 729h285l-125 -710q-41 -233 -201.5 -357.5t-375.5 -124.5z" glyph-name="Uacute.aalt" horiz-adv-x="1273"/><glyph d="M662 1309h-234l293 284h172l182 -284h-225l-76 112zM539 -25q-215 0 -332 124t-76 358l125 710h285l-129 -729q-16 -92 28.5 -146t145 -54t163 55t78.5 145l129 729h285l-125 -710q-41 -233 -201.5 -357.5t-375.5 -124.5z" glyph-name="Ucircumflex.aalt" horiz-adv-x="1273"/><glyph d="M596 1591q61 0 95 -37.5t22 -108.5q-22 -132 -146 -132q-61 0 -97 38t-24 109q25 131 150 131zM993 1591q61 0 94 -37.5t22 -107.5t-51 -101.5t-97 -31.5t-92 38t-23 109q22 131 147 131zM539 -25q-215 0 -332 124t-76 358l125 710h285l-129 -729q-16 -92 28.5 -146 t145 -54t163 55t78.5 145l129 729h285l-125 -710q-41 -233 -201.5 -357.5t-375.5 -124.5z" glyph-name="Udieresis.aalt" horiz-adv-x="1273"/><glyph d="M881 1331h-174l-242 293h338zM539 -25q-215 0 -332 124t-76 358l125 710h285l-129 -729q-16 -92 28.5 -146t145 -54t163 55t78.5 145l129 729h285l-125 -710q-41 -233 -201.5 -357.5t-375.5 -124.5z" glyph-name="Ugrave.aalt" horiz-adv-x="1273"/><glyph d="M639 1331h-168l129 293h264zM997 1331h-190l199 293h276zM539 -25q-215 0 -332 124t-76 358l125 710h285l-129 -729q-16 -92 28.5 -146t145 -54t163 55t78.5 145l129 729h285l-125 -710q-41 -233 -201.5 -357.5t-375.5 -124.5z" glyph-name="Uhungarumlaut.aalt" horiz-adv-x="1273"/><glyph d="M1057 1370h-578l25 148h577zM539 -25q-215 0 -332 124t-76 358l125 710h285l-129 -729q-16 -92 28.5 -146t145 -54t163 55t78.5 145l129 729h285l-125 -710q-41 -233 -201.5 -357.5t-375.5 -124.5z" glyph-name="Umacron.aalt" horiz-adv-x="1273"/><glyph d="M539 -174q0 -76 104 -90l-74 -166q-240 31 -239 209q0 109 121 203q-176 25 -266.5 145.5t-53.5 329.5l125 710h285l-129 -729q-16 -92 28.5 -146t145 -54t163 55t78.5 145l129 729h285l-125 -710q-37 -207 -169 -328t-316 -147q-92 -80 -92 -156z" glyph-name="Uogonek.aalt" horiz-adv-x="1273"/><glyph d="M823 1624q80 0 122 -48t29 -122t-71.5 -122t-138.5 -48t-122 48t-30 122q14 74 72.5 122t138.5 48zM807 1528q-74 0 -86 -74q-4 -31 10 -52.5t48 -21.5t58.5 22.5t28.5 52.5t-11 51.5t-48 21.5zM539 -25q-215 0 -332 124t-76 358l125 710h285l-129 -729 q-16 -92 28.5 -146t145 -54t163 55t78.5 145l129 729h285l-125 -710q-41 -233 -201.5 -357.5t-375.5 -124.5z" glyph-name="Uring.aalt" horiz-adv-x="1273"/><glyph d="M1303 1167l-660 -1167h-305l-225 1167h323l125 -829l436 829h306z" glyph-name="V.aalt" horiz-adv-x="1196"/><glyph d="M1806 1167l-571 -1171h-229l-117 743l-377 -743h-229l-156 1171h307l66 -749l362 743h219l105 -733l334 739h286z" glyph-name="W.aalt" horiz-adv-x="1722"/><glyph d="M1067 1286h-176l180 293h338zM1235 -4h-229l-117 743l-377 -743h-229l-156 1171h307l66 -749l362 743h219l105 -733l334 739h286z" glyph-name="Wacute.aalt" horiz-adv-x="1722"/><glyph d="M899 1307h-233l292 284h172l183 -284h-226l-75 112zM1806 1167l-571 -1171h-229l-117 743l-377 -743h-229l-156 1171h307l66 -749l362 743h219l105 -733l334 739h286z" glyph-name="Wcircumflex.aalt" horiz-adv-x="1722"/><glyph d="M831 1589q61 0 95 -38.5t22 -108.5q-23 -132 -145 -131q-61 0 -97 37.5t-24 109.5q24 131 149 131zM1229 1589q61 0 94 -38t21 -107t-51.5 -101t-96.5 -32t-92 37.5t-23 109.5q23 131 148 131zM1235 -4h-229l-117 743l-377 -743h-229l-156 1171h307l66 -749l362 743h219 l105 -733l334 739h286z" glyph-name="Wdieresis.aalt" horiz-adv-x="1722"/><glyph d="M1118 1329h-174l-242 293h338zM1235 -4h-229l-117 743l-377 -743h-229l-156 1171h307l66 -749l362 743h219l105 -733l334 739h286z" glyph-name="Wgrave.aalt" horiz-adv-x="1722"/><glyph d="M774 598l344 -598h-338l-188 383l-291 -383h-352l512 594l-336 573h348l178 -372l281 372h338z" glyph-name="X.aalt" horiz-adv-x="1200"/><glyph d="M1212 1167l-520 -710l-80 -467h-284l80 467l-297 710h311l178 -467l320 467h292z" glyph-name="Y.aalt" horiz-adv-x="1101"/><glyph d="M743 1288h-176l181 293h337zM692 457l-80 -467h-284l80 467l-297 710h311l178 -467l320 467h292z" glyph-name="Yacute.aalt" horiz-adv-x="1101"/><glyph d="M575 1309h-233l293 284h172l182 -284h-225l-76 112zM1212 1167l-520 -710l-80 -467h-284l80 467l-297 710h311l178 -467l320 467h292z" glyph-name="Ycircumflex.aalt" horiz-adv-x="1101"/><glyph d="M508 1591q61 0 95 -37.5t22 -108.5q-22 -132 -146 -132q-61 0 -97 38t-24 109q25 131 150 131zM905 1591q61 0 94 -37.5t22 -107.5t-51 -101.5t-97 -31.5t-92.5 38t-22.5 109q22 131 147 131zM692 457l-80 -467h-284l80 467l-297 710h311l178 -467l320 467h292z" glyph-name="ydieresis.aalt" horiz-adv-x="1101"/><glyph d="M795 1331h-174l-242 293h338zM692 457l-80 -467h-284l80 467l-297 710h311l178 -467l320 467h292z" glyph-name="Ygrave.aalt" horiz-adv-x="1101"/><glyph d="M1034 971l-651 -717h551l-45 -254h-887l35 203l622 715h-491l47 249h856z" glyph-name="Z.aalt" horiz-adv-x="1040"/><glyph d="M735 1288h-176l180 293h338zM383 254h551l-45 -254h-887l35 203l622 715h-491l47 249h856l-37 -196z" glyph-name="Zacute.aalt" horiz-adv-x="1040"/><glyph d="M573 1309l-190 278h229l76 -117l119 117h221l-276 -278h-179zM1034 971l-651 -717h551l-45 -254h-887l35 203l622 715h-491l47 249h856z" glyph-name="Zcaron.aalt" horiz-adv-x="1040"/><glyph d="M716.5 1602q63.5 0 101.5 -37t26 -110t-63.5 -109.5t-114.5 -36.5t-100.5 36.5t-25.5 109.5t62.5 110t114 37zM383 254h551l-45 -254h-887l35 203l622 715h-491l47 249h856l-37 -196z" glyph-name="Zdotaccent.aalt" horiz-adv-x="1040"/><glyph d="M336 0h-283l203 1167h283z" glyph-name="I.aalt" horiz-adv-x="575"/><glyph d="M424 528q172 0 260 -111.5t52 -319.5t-163 -321.5t-300 -113.5t-257 112.5t-47 322.5t160 320.5t295 110.5zM395 352q-153 0 -197 -257t106 -257t198 258q25 137 -2 196.5t-105 59.5z" glyph-name="zero.sinf" horiz-adv-x="860"/><glyph d="M436 -139h178l-30 -176h-574l31 176h178l78 436l-160 -51l-33 155l295 117h152z" glyph-name="one.sinf" horiz-adv-x="860"/><glyph d="M137 274l-57 162q170 100 326 100t229.5 -61t66.5 -164q-10 -180 -264 -338l-159 -98h366l-35 -190h-633l31 176l268 180q162 111 173 203q6 92 -100 92t-212 -62z" glyph-name="two.sinf" horiz-adv-x="860"/><glyph d="M392 528q166 0 240 -53t70 -132q-9 -164 -176 -222q144 -41 138 -173t-121 -213t-287 -81t-291 80l78 166q131 -55 219 -56q168 0 174 103q4 41 -26.5 61.5t-100.5 20.5h-127l27 153h110q63 0 99.5 25.5t40.5 65.5t-22.5 59.5t-84.5 19.5q-98 1 -213 -65l-57 141 q144 100 310 100z" glyph-name="three.sinf" horiz-adv-x="860"/><glyph d="M565 20h129l-28 -167h-129l-31 -170h-203l29 170h-381l26 159l486 504h190zM180 20h178l43 240z" glyph-name="four.sinf" horiz-adv-x="860"/><glyph d="M452 221q103 0 163.5 -69.5t37.5 -194.5t-134 -205t-279 -80t-277 72l80 158q111 -47 197 -47q166 0 188 116q8 49 -19 76t-93 27t-132 -54l-133 56l80 448h565l-32 -190h-355l-26 -146q66 33 169 33z" glyph-name="five.sinf" horiz-adv-x="860"/><glyph d="M473 369q-186 0 -233 -222q88 68 207 68t183 -66.5t42 -189.5t-120.5 -205t-258.5 -82t-240 103t-42 327t173 334t298 110t247 -63l-92 -159q-66 45 -164 45zM369 55q-86 0 -156 -75q-4 -66 25.5 -102t85.5 -36t93.5 32t45.5 77t-17.5 74.5t-76.5 29.5z" glyph-name="six.sinf" horiz-adv-x="860"/><glyph d="M719 336l-408 -651h-231l395 634h-407l34 195h648z" glyph-name="seven.sinf" horiz-adv-x="860"/><glyph d="M272 -338q-154 0 -240.5 71.5t-66.5 192.5q27 141 168 203q-96 59 -77 169t124 176.5t248 66.5t226 -66.5t64 -178.5t-149 -167q127 -66 105 -195t-135 -200.5t-267 -71.5zM369 195q119 0 135 94q8 39 -21.5 63.5t-83 24.5t-90.5 -24.5t-45 -66.5t21.5 -66.5t83.5 -24.5z M344.5 61q-61.5 0 -105 -31.5t-53.5 -81.5t22 -81t96 -31t105.5 31t50.5 81t-22.5 81.5t-93 31.5z" glyph-name="eight.sinf" horiz-adv-x="851"/><glyph d="M236 -143q199 0 237 200q-102 -65 -219 -65t-177.5 74.5t-40.5 200.5t125 204t249 78q186 0 256.5 -111.5t40.5 -292.5q-84 -469 -478 -469q-164 1 -260 60l84 164q74 -43 183 -43zM386 360q-54 0 -92 -28.5t-47 -77.5t15.5 -76.5t73.5 -27.5q104 0 158 59 q8 72 -23 111.5t-85 39.5z" glyph-name="nine.sinf" horiz-adv-x="860"/><glyph d="M639 1745q172 0 260 -111.5t52 -319.5t-162.5 -321.5t-300.5 -113.5t-257.5 112.5t-46.5 322.5t160 320.5t295 110.5zM610 1569q-152 0 -196 -257t106 -257t197 258q25 137 -2 196.5t-105 59.5z" glyph-name="zero.superior" horiz-adv-x="860"/><glyph d="M647 1069h178l-30 -176h-574l31 176h178l78 436l-160 -51l-33 156l295 116h152z" glyph-name="one.superior" horiz-adv-x="860"/><glyph d="M612 1745q154 0 228.5 -61.5t68.5 -163.5q-10 -180 -264 -338l-160 -99h367l-35 -190h-633l31 176l268 180q162 111 172 203q7 92 -99 92t-212 -61l-57 162q171 100 325 100z" glyph-name="two.superior" horiz-adv-x="860"/><glyph d="M597 1745q165 0 239.5 -53.5t70.5 -132.5q-8 -164 -176 -222q143 -41 137 -173t-120.5 -213t-286.5 -81t-291 80l78 166q131 -55 219 -55q168 0 174 102q4 41 -26.5 61.5t-100.5 20.5h-127l27 154h110q63 0 99.5 25.5t40.5 65.5q9 79 -98 79t-222 -66l-57 142 q145 100 310 100z" glyph-name="three.superior" horiz-adv-x="860"/><glyph d="M780 1231h129l-28 -168h-129l-31 -170h-203l29 170h-381l27 160l485 503h190zM395 1231h178l43 239z" glyph-name="four.superior" horiz-adv-x="860"/><glyph d="M663 1419q103 0 163.5 -69.5t37.5 -194.5t-134.5 -205t-279.5 -80t-276 72l80 158q112 -47 198 -47q166 0 187 116q8 49 -18.5 76t-92.5 27t-133 -53l-133 55l80 448h565l-33 -190h-354l-26 -146q66 33 169 33z" glyph-name="five.superior" horiz-adv-x="860"/><glyph d="M684 1567q-186 0 -233 -221q90 68 208 68t181.5 -67t41.5 -190t-120 -205t-258 -82t-240 103t-42 327t173 334t298 110t247 -63l-92 -159q-66 45 -164 45zM580 1253q-86 0 -156 -75q-4 -66 25 -102t85 -36t94 32t46 77t-17.5 74.5t-76.5 29.5z" glyph-name="six.superior" horiz-adv-x="860"/><glyph d="M932 1544l-408 -651h-231l395 635h-407l34 194h648z" glyph-name="seven.superior" horiz-adv-x="860"/><glyph d="M485 870q-154 0 -240.5 72t-66.5 193q27 141 168 202q-96 59 -77 169t124 176.5t248 66.5t226 -66.5t64 -178.5t-149 -167q127 -67 105 -195t-135 -200t-267 -72zM582 1403q119 0 135 94q8 39 -21.5 63.5t-83 24.5t-90.5 -24.5t-45 -66.5t21.5 -66.5t83.5 -24.5z M557 1270q-61 0 -105 -32t-54 -82t22.5 -81t96.5 -31t105.5 31t50.5 81t-23 82t-93 32z" glyph-name="eight.superior" horiz-adv-x="851"/><glyph d="M446 1051q199 0 238 200q-102 -65 -219 -65t-177 74.5t-40 200.5t124.5 204t248.5 78q186 0 256.5 -111.5t40.5 -292.5q-84 -469 -478 -469q-164 1 -260 60l84 164q74 -43 182 -43zM597 1554q-54 0 -92 -28.5t-47 -77.5t15.5 -77t73.5 -28q104 0 158 60q8 72 -23 111.5 t-85 39.5z" glyph-name="nine.superior" horiz-adv-x="860"/><glyph d="M774 1114q203 0 341 -122t138 -347q0 -162 -60 -295t-213 -259t-409 -126q-207 0 -349 126t-142 353q0 162 61.5 293t217.5 254t415 123zM723 850q-141 0 -240.5 -98.5t-99.5 -272.5q0 -119 63.5 -185.5t165.5 -66.5q137 0 238.5 103.5t101.5 275.5q0 117 -64.5 180.5 t-164.5 63.5z" glyph-name="zero.tnum.oldstyle" horiz-adv-x="1331"/><glyph d="M1036 231l-43 -241h-757l43 241h229l100 543l-250 -115l-73 209l456 207h224l-160 -844h231z" glyph-name="one.tnum.oldstyle" horiz-adv-x="1331"/><glyph d="M756 1122q199 0 312.5 -80.5t113.5 -234.5q0 -119 -80 -216t-277 -210l-235 -133h524l-45 -248h-928l43 233l408 222q158 96 218 152.5t60 127.5q0 137 -200 137q-149 0 -301 -92l-93 197q127 72 234.5 108.5t245.5 36.5z" glyph-name="two.tnum.oldstyle" horiz-adv-x="1331"/><glyph d="M733 1102q244 0 360.5 -92t116.5 -240q0 -104 -75.5 -202.5t-233.5 -153.5v-6q117 -27 183.5 -110t66.5 -202q0 -201 -181.5 -341t-496.5 -140q-154 0 -285 46t-211 126l156 211q125 -106 319 -106t284.5 69.5t90.5 153.5t-60 118.5t-189 34.5h-218l41 230h170 q141 0 222 56t81 130q0 146 -198 146t-365 -111l-112 227q219 156 534 156z" glyph-name="three.tnum.oldstyle" horiz-adv-x="1331"/><glyph d="M1182 -39h-205l-55 -321h-312l54 321h-672l37 211l886 911h261l-156 -876h205zM346 207h373l88 483z" glyph-name="four.tnum.oldstyle" horiz-adv-x="1331"/><glyph d="M1135 195q0 -242 -187.5 -411t-486.5 -169t-465 125l145 244q150 -92 321 -92t259 76.5t88 191.5q0 170 -207 170q-143 0 -276 -101l-183 107l133 741h947l-52 -284h-647l-51 -301q121 70 291 69.5t270.5 -97.5t100.5 -269z" glyph-name="five.tnum.oldstyle" horiz-adv-x="1331"/><glyph d="M904 1200q-171 0 -300 -109.5t-170 -314.5q178 148 380 148t322.5 -100.5t120.5 -282.5q0 -231 -184.5 -398.5t-440.5 -167.5t-397 147.5t-141 418.5q0 342 144.5 550.5t308.5 292.5t392 84t396 -118l-145 -230q-115 80 -286 80zM733 668q-90 0 -176 -40t-143 -108 q-10 -106 48 -188t180 -85t205 69t83 168t-53.5 140t-143.5 44z" glyph-name="six.tnum.oldstyle" horiz-adv-x="1331"/><glyph d="M492 -356h-338l739 1155h-707l52 282h1048l-45 -250z" glyph-name="seven.tnum.oldstyle" horiz-adv-x="1331"/><glyph d="M813 1466q225 0 352 -96t127 -256q0 -111 -69.5 -205t-198.5 -153q197 -84 197 -287t-182.5 -352.5t-481.5 -149.5q-244 0 -369 106.5t-125 264.5q0 127 84 243.5t238 176.5q-172 78 -172 263t162 315t438 130zM958 1051q0 145 -196 145q-98 0 -161.5 -55t-63.5 -127 q1 -148 195 -148q98 0 162 56.5t64 128.5zM662 637q-116 0 -192.5 -69.5t-76.5 -150.5t55.5 -129t173.5 -48t194.5 67.5t76.5 152.5t-57.5 131t-173.5 46z" glyph-name="eight.tnum.oldstyle" horiz-adv-x="1331"/><glyph d="M496 135q-116 0 -205.5 38t-150 135.5t-52.5 242.5q12 236 185 393.5t456 157.5q541 0 504 -600q-29 -410 -251 -648.5t-583 -238.5q-246 0 -383 90l105 238q152 -63 309 -64q365 0 461 422q-94 -88 -186.5 -127t-208.5 -39zM684 829q-108 0 -185 -65.5t-86 -160.5 t41 -147.5t146 -52.5t185 43t133 121q12 127 -57 194.5t-177 67.5z" glyph-name="nine.tnum.oldstyle" horiz-adv-x="1331"/><glyph d="M713 1114q190 0 315 -131t111 -367q-16 -305 -206 -478t-423 -173q-195 0 -323 135.5t-113 376.5q16 299 209.5 468t429.5 169zM652 852q-102 0 -188.5 -94t-98.5 -238t41.5 -218.5t155.5 -74.5t188 96.5t98 258.5q14 125 -40 197.5t-156 72.5z" glyph-name="zero.oldstyle" horiz-adv-x="1210"/><glyph d="M913 231l-43 -241h-757l43 241h229l100 543l-249 -115l-74 209l456 207h224l-160 -844h231z" glyph-name="one.oldstyle" horiz-adv-x="1128"/><glyph d="M539 874q-142 0 -273 -92l-98 183q213 158 465 157q186 0 292.5 -83t98.5 -224q-6 -111 -71.5 -200t-227.5 -205l-227 -164h452l-43 -246h-850l29 176l356 264q152 111 208.5 170.5t61.5 123.5t-43 102t-130 38z" glyph-name="two.oldstyle" horiz-adv-x="1159"/><glyph d="M686 1102q244 0 360.5 -92t116.5 -240q0 -104 -75.5 -202.5t-233.5 -153.5v-6q117 -27 183.5 -110t66.5 -202q0 -201 -181.5 -341t-496.5 -140q-154 0 -285 46t-211 126l156 211q126 -106 320 -106t284 69.5t90 153.5t-60.5 118.5t-189.5 34.5h-217l41 230h170 q141 0 222 56t81 130q1 146 -197 146t-366 -111l-112 227q219 156 534 156z" glyph-name="three.oldstyle" horiz-adv-x="1251"/><glyph d="M1190 -39h-205l-55 -321h-312l54 321h-672l37 211l887 911h260l-156 -876h205zM354 207h373l88 483z" glyph-name="four.oldstyle" horiz-adv-x="1347"/><glyph d="M1118 195q0 -242 -187.5 -411t-486.5 -169t-464 125l145 244q150 -92 321 -92t259 76.5t88 191.5q0 170 -207 170q-143 0 -277 -101l-182 107l133 741h946l-51 -284h-647l-51 -301q121 70 291 69.5t270 -97.5t100 -269z" glyph-name="five.oldstyle" horiz-adv-x="1298"/><glyph d="M939 1200q-171 0 -300 -109.5t-170 -314.5q177 148 379 148t323 -100.5t121 -282.5q0 -231 -184 -398.5t-440 -167.5t-397.5 147.5t-141.5 418.5q0 344 144.5 551.5t308.5 291.5t392 84t396 -118l-145 -230q-115 80 -286 80zM768 668q-90 0 -176 -40t-143 -108 q-10 -106 48 -188t180 -85t205 69t83 168t-53.5 140t-143.5 44z" glyph-name="six.oldstyle" horiz-adv-x="1398"/><glyph d="M391 -360h-338l740 1155h-707l51 282h1049l-45 -250z" glyph-name="seven.oldstyle" horiz-adv-x="1140"/><glyph d="M791 1466q225 0 352 -96t127 -256q0 -111 -70 -205t-199 -153q197 -84 197 -287t-182 -352.5t-481 -149.5q-244 0 -369 106.5t-125 264.5q0 127 84 243.5t237 176.5q-172 78 -172 263t162.5 315t438.5 130zM936 1051q0 145 -196 145q-98 0 -162 -55t-64 -127 q0 -148 194 -148q98 0 163 56.5t65 128.5zM638 637q-116 0 -191.5 -69.5t-75.5 -150.5t55 -129t174 -48t194.5 67.5t75.5 152.5t-58 131t-174 46z" glyph-name="eight.oldstyle" horiz-adv-x="1280"/><glyph d="M470 135q-116 0 -206 38t-150.5 135.5t-52.5 242.5q12 236 185.5 393.5t455.5 157.5q541 0 504 -600q-29 -410 -251 -648.5t-582 -238.5q-246 0 -383 90l104 238q152 -63 309 -64q365 0 461 422q-94 -88 -186 -127t-208 -39zM656 829q-108 0 -184.5 -65.5t-85.5 -160.5 t41 -147.5t146 -52.5t185.5 43t132.5 121q12 127 -57.5 194.5t-177.5 67.5z" glyph-name="nine.oldstyle" horiz-adv-x="1277"/><glyph d="M894 1464q247 0 375 -156.5t128 -412.5q0 -162 -55.5 -324.5t-155 -298t-253 -220.5t-331.5 -85q-250 0 -379 157.5t-129 399.5t91 450t276.5 349t432.5 141zM836 1192q-102 0 -184.5 -61.5t-157 -207.5t-74.5 -356q0 -330 233 -329q131 0 230.5 109.5t143.5 249.5 t44 273q1 322 -235 322z" glyph-name="zero.case" horiz-adv-x="1552"/><glyph d="M997 0h-940l52 279h319l137 798l-278 -121l-74 240l496 246h241l-205 -1163h306z" glyph-name="one.case" horiz-adv-x="1230"/><glyph d="M1219 1118q0 -156 -82 -283.5t-306 -295.5l-339 -254h630l-49 -285h-1044l45 248l506 381q164 123 224 209t60 168t-62.5 126t-168.5 44q-182 -1 -334 -95l-94 224q242 162 526 161q223 0 355.5 -96t132.5 -252z" glyph-name="two.case" horiz-adv-x="1308"/><glyph d="M1204 1130q0 -104 -75.5 -202.5t-233.5 -153.5v-6q117 -27 183.5 -110t66.5 -201q0 -201 -181.5 -341.5t-496.5 -140.5q-154 0 -285 46.5t-211 125.5l156 211q125 -106 319 -106t284.5 69.5t90.5 153.5t-60.5 119t-189.5 35h-217l41 229h170q141 0 222 56.5t81 130.5 q0 145 -198 145t-365 -111l-112 228q219 156 534 155q244 0 360.5 -92t116.5 -240z" glyph-name="three.case" horiz-adv-x="1251"/><glyph d="M1235 322h-205l-55 -322h-311l53 322h-672l37 210l887 912h260l-156 -877h205zM399 567h373l88 484z" glyph-name="four.case" horiz-adv-x="1347"/><glyph d="M812 922q169 0 269.5 -97.5t100.5 -269.5q0 -242 -187.5 -411t-486.5 -169t-465 125l145 244q150 -92 321 -92t259 77t88 191q0 170 -207 170q-143 0 -276 -100l-183 106l134 742h946l-51 -285h-648l-51 -301q123 70 292 70z" glyph-name="five.case" horiz-adv-x="1298"/><glyph d="M939 1200q-171 0 -300 -109.5t-170 -314.5q177 148 379 148t323 -100.5t121 -282.5q0 -231 -184 -398.5t-440 -167.5t-397.5 147.5t-141.5 418.5q0 344 144.5 551.5t308.5 291.5t392 84t396 -118l-145 -230q-115 80 -286 80zM768 668q-90 0 -176 -40t-143 -108 q-10 -106 48 -188t180 -85t205 69t83 168t-53.5 140t-143.5 44z" glyph-name="six.case" horiz-adv-x="1402"/><glyph d="M455 0h-338l739 1155h-706l51 283h1048l-45 -250z" glyph-name="seven.case" horiz-adv-x="1140"/><glyph d="M791 1466q225 0 352 -96t127 -256q0 -111 -70 -205t-199 -153q197 -84 197 -287t-182 -352.5t-481 -149.5q-244 0 -369 106.5t-125 264.5q0 127 84 243.5t237 176.5q-172 78 -172 263t162.5 315t438.5 130zM936 1051q0 145 -196 145q-98 0 -162 -55t-64 -127 q0 -148 194 -148q98 0 163 56.5t65 128.5zM638 637q-116 0 -191.5 -69.5t-75.5 -150.5t55 -129t174 -48t194.5 67.5t75.5 152.5t-58 131t-174 46z" glyph-name="eight.case" horiz-adv-x="1280"/><glyph d="M467 240q365 0 461 422q-94 -88 -186.5 -127t-208.5 -39t-205.5 37.5t-150 135t-52.5 242.5q12 236 185 393.5t456 157.5q541 0 504 -600q-29 -410 -251 -648.5t-583 -238.5q-246 1 -383 91l105 237q152 -63 309 -63zM720 1190q-108 0 -184.5 -65.5t-85.5 -160.5 t41 -147.5t146 -52.5t185 43t132 121q12 127 -57 194.5t-177 67.5z" glyph-name="nine.case" horiz-adv-x="1277"/><glyph d="M837 1466q227 0 344 -156t117 -392t-87 -447t-261 -357.5t-401 -146.5t-345 156.5t-118 398.5t87 452t262 351t402 141zM772 1186q-109 0 -190.5 -104.5t-118.5 -244t-37 -278.5q0 -311 186 -311q106 0 190.5 109.5t121.5 248.5t37 271q-1 309 -189 309z" glyph-name="zero.tnum" horiz-adv-x="1331"/><glyph d="M1061 0h-940l51 279h320l137 798l-279 -121l-74 240l496 246h242l-205 -1163h305z" glyph-name="one.tnum" horiz-adv-x="1331"/><glyph d="M1235 1118q0 -156 -82 -283.5t-305 -295.5l-340 -254h631l-49 -285h-1045l45 248l506 381q164 123 224.5 209t60.5 168t-62.5 126t-169.5 44q-182 -1 -334 -95l-94 224q242 162 527 161q223 0 355 -96t132 -252z" glyph-name="two.tnum" horiz-adv-x="1333"/><glyph d="M1229 1130q0 -104 -76 -202.5t-233 -153.5v-6q117 -27 183 -110t66 -201q0 -201 -181 -341.5t-496 -140.5q-154 0 -285 46.5t-211 125.5l156 211q125 -106 319 -106t284.5 69.5t90.5 153.5t-60.5 119t-189.5 35h-217l41 229h170q141 0 222 56.5t81 130.5q1 145 -197 145 t-366 -111l-113 228q219 156 535 155q244 0 360.5 -92t116.5 -240z" glyph-name="three.tnum" horiz-adv-x="1331"/><glyph d="M1204 322h-205l-55 -322h-311l53 322h-672l37 210l887 912h260l-156 -877h205zM369 567h372l88 484z" glyph-name="four.tnum" horiz-adv-x="1331"/><glyph d="M817 922q170 0 270.5 -97.5t100.5 -269.5q0 -242 -187.5 -411t-486.5 -169t-465 125l146 244q151 -92 321 -92t258 77t88 191q0 170 -207 170q-143 0 -276 -100l-182 106l133 742h946l-51 -285h-647l-52 -301q121 70 291 70z" glyph-name="five.tnum" horiz-adv-x="1331"/><glyph d="M900 1200q-171 0 -300 -109.5t-170 -314.5q178 148 380 148t322.5 -100.5t120.5 -282.5q0 -231 -184.5 -398.5t-440.5 -167.5t-397 147.5t-141 418.5q0 344 144.5 551.5t308.5 291.5t392 84t396 -118l-145 -230q-115 80 -286 80zM729 668q-90 0 -176 -40t-143 -108 q-10 -106 48 -188t180 -85t205 69t83 168t-53.5 140t-143.5 44z" glyph-name="six.tnum" horiz-adv-x="1331"/><glyph d="M1333 1137l-798 -1137h-381l839 1155h-788l49 283h1126z" glyph-name="seven.tnum" horiz-adv-x="1331"/><glyph d="M805 1466q225 0 352 -96t127 -256q0 -111 -69.5 -205t-198.5 -153q196 -84 196 -287t-182 -352.5t-481 -149.5q-244 0 -369 106.5t-125 264.5q0 127 84 243.5t238 176.5q-172 78 -172 263t162 315t438 130zM950 1051q0 145 -196 145q-98 0 -162 -55t-64 -127 q0 -148 196 -148q98 0 162 56.5t64 128.5zM654 637q-116 0 -192.5 -69.5t-76.5 -150.5t55.5 -129t173.5 -48t194.5 67.5t76.5 152.5t-57.5 131t-173.5 46z" glyph-name="eight.tnum" horiz-adv-x="1331"/><glyph d="M465 240q365 0 461 422q-94 -88 -186.5 -127t-208.5 -39t-205.5 37.5t-150 135t-52.5 242.5q12 236 185 393.5t456 157.5q541 0 504 -600q-29 -410 -251 -648.5t-583 -238.5q-246 1 -383 91l105 237q152 -63 309 -63zM718 1190q-108 0 -184 -65.5t-86 -160.5t40.5 -147.5 t146.5 -52.5t185 43t132 121q12 127 -57 194.5t-177 67.5z" glyph-name="nine.tnum" horiz-adv-x="1331"/><glyph d="M479 844q172 0 260.5 -111.5t52.5 -319.5t-163 -322t-300 -114t-257 113t-47 323t159.5 320.5t294.5 110.5zM451 668q-152 0 -199 -256q-42 -258 108 -258t197 258q25 137 -1.5 196.5t-104.5 59.5z" glyph-name="zero.dnom" horiz-adv-x="860"/><glyph d="M664 168l-31 -176h-574l31 176h178l78 436l-160 -51l-32 156l295 116h151l-115 -657h179z" glyph-name="one.dnom" horiz-adv-x="860"/><glyph d="M396 643q-106 0 -212 -61l-57 161q171 101 325 101t229 -61.5t69 -164.5q-10 -180 -265 -337l-159 -99h366l-35 -190h-632l30 176l269 180q162 111 172 203q6 92 -100 92z" glyph-name="two.dnom" horiz-adv-x="860"/><glyph d="M301 -31q-172 0 -291 80l78 166q131 -55 219 -55q168 0 174 102q4 41 -26.5 61.5t-100.5 20.5h-127l27 154h111q63 0 99 25.5t40 65.5t-22.5 59.5t-104.5 19.5t-193 -66l-57 141q145 101 311 101t240 -53.5t70 -132.5q-8 -164 -177 -222q143 -41 137 -173t-120.5 -213 t-286.5 -81z" glyph-name="three.dnom" horiz-adv-x="860"/><glyph d="M750 332l-29 -168h-129l-31 -170h-203l29 170h-381l27 160l485 503h191l-88 -495h129zM414 332l43 239l-221 -239h178z" glyph-name="four.dnom" horiz-adv-x="860"/><glyph d="M503 518q103 0 163 -69.5t38 -194.5t-133.5 -205t-279.5 -80t-277 72l80 158q112 -47 198 -47q166 0 187 116q8 49 -18.5 76t-92.5 27t-132 -54l-134 56l80 448h566l-33 -190h-355l-26 -146q66 33 169 33z" glyph-name="five.dnom" horiz-adv-x="860"/><glyph d="M522 666q-186 0 -233 -222q88 68 207 68t182.5 -66.5t41.5 -189.5t-120 -205t-258 -82t-240 103.5t-42 327.5t174 334t298 110t246 -64l-92 -159q-66 45 -164 45zM418 352q-86 0 -156 -76q-4 -66 25 -101.5t85 -35.5t94 32t46 77t-17.5 74.5t-76.5 29.5z" glyph-name="six.dnom" horiz-adv-x="860"/><glyph d="M365 -8h-232l395 635h-407l35 194h647l-31 -178z" glyph-name="seven.dnom" horiz-adv-x="860"/><glyph d="M328 -31q-154 0 -241 72t-67 192q27 141 168 203q-96 60 -76 170t124 176t247 66t226 -67t64 -179t-148 -166q127 -66 105 -195t-135 -200.5t-267 -71.5zM424 502q119 0 135 94q8 39 -21.5 63.5t-83 24.5t-90.5 -24.5t-45 -66.5t22 -66.5t83 -24.5zM399.5 369 q-61.5 0 -105.5 -32t-53 -82t22.5 -81t95.5 -31t105.5 31t50.5 81t-22.5 82t-93 32z" glyph-name="eight.dnom" horiz-adv-x="851"/><glyph d="M287 150q199 0 237 200q-102 -66 -219 -66t-177 75t-40 201t124.5 204t248.5 78q186 0 256.5 -112t40.5 -292q-84 -469 -477 -469q-165 1 -261 60l84 164q74 -43 183 -43zM437 653q-54 0 -92 -28.5t-47 -77.5t15.5 -77t73.5 -28q104 0 158 60q8 72 -23 111.5t-85 39.5z " glyph-name="nine.dnom" horiz-adv-x="860"/><glyph d="M588 1458q172 0 260 -111.5t52 -319.5t-163 -321.5t-300 -113.5t-257 112.5t-47 322.5t160 320.5t295 110.5zM559 1282q-152 0 -199 -256q-43 -258 108 -258t198 258q25 137 -2 196.5t-105 59.5z" glyph-name="zero.numr" horiz-adv-x="860"/><glyph d="M791 784l-31 -176h-574l31 176h178l78 437l-160 -52l-32 156l294 117h152l-115 -658h179z" glyph-name="one.numr" horiz-adv-x="860"/><glyph d="M562 1460q154 0 229 -61.5t69 -163.5q-10 -180 -264 -338l-160 -98h367l-35 -191h-633l31 176l268 181q162 111 172 202q6 92 -100 92t-211 -61l-57 162q170 100 324 100z" glyph-name="two.numr" horiz-adv-x="860"/><glyph d="M548 1460q165 0 239.5 -53t70.5 -132q-8 -166 -176 -222q143 -41 137 -173t-120.5 -213t-286.5 -81t-291 80l78 165q131 -55 219 -55q168 0 174 103q4 41 -26.5 61.5t-100.5 20.5h-127l27 153h110q63 0 99 25.5t40 65.5q8 79 -98 80q-106 0 -221 -66l-57 141 q145 100 310 100z" glyph-name="three.numr" horiz-adv-x="860"/><glyph d="M858 946l-29 -168h-129l-30 -170h-203l29 170h-381l26 160l486 504h190l-88 -496h129zM522 946l43 240l-221 -240h178z" glyph-name="four.numr" horiz-adv-x="860"/><glyph d="M612 1135q104 0 164 -70.5t37 -194.5t-134 -204t-279 -80t-277 71l80 158q111 -47 197 -47q167 0 188 117q8 49 -18.5 75.5t-92.5 26.5t-133 -53l-133 55l80 449h565l-33 -191h-354l-27 -145q66 33 170 33z" glyph-name="five.numr" horiz-adv-x="860"/><glyph d="M633 1282q-186 0 -234 -221q88 67 207 67t183.5 -67t41.5 -189t-121 -204t-258 -82t-239.5 103.5t-41.5 326.5t173 333.5t320 110.5q141 0 225 -63l-92 -160q-66 45 -164 45zM528 969q-86 0 -155 -76q-4 -66 25.5 -101.5t84.5 -35.5t93 31.5t46.5 76.5t-17.5 75t-77 30z " glyph-name="six.numr" horiz-adv-x="860"/><glyph d="M475 608h-231l395 635h-408l35 195h647l-30 -178z" glyph-name="seven.numr" horiz-adv-x="860"/><glyph d="M452 586q-154 0 -240.5 71.5t-66.5 192.5q27 141 168 203q-97 59 -77 169t124.5 176t247.5 66t226 -66t64 -178t-148 -167q126 -66 104 -195t-135 -200.5t-267 -71.5zM549 1118q119 0 135 94q8 39 -21.5 63.5t-83 24.5t-90.5 -24.5t-45 -66.5t22 -66.5t83 -24.5z M524.5 985q-61.5 0 -105.5 -31.5t-53 -81.5t22.5 -81t95.5 -31t105.5 30.5t50.5 80.5t-22.5 82t-93 32z" glyph-name="eight.numr" horiz-adv-x="851"/><glyph d="M395 766q199 0 238 201q-102 -66 -219 -66t-177.5 74.5t-40.5 200.5t125 204t248 78q186 0 257 -111.5t40 -291.5q-84 -469 -477 -469q-164 0 -260 59l84 164q74 -43 182 -43zM546 1270q-54 0 -92 -29t-47 -78t15 -76.5t74 -27.5q104 0 157 59q8 72 -22.5 112t-84.5 40z " glyph-name="nine.numr" horiz-adv-x="860"/><glyph d="M750 1182q199 0 320.5 -120t121.5 -366q0 -328 -200.5 -526.5t-469.5 -198.5q-201 0 -321.5 122t-120.5 372q0 328 200 522.5t470 194.5zM698 940q-156 0 -241.5 -135t-85.5 -322q0 -266 200 -266q156 0 243 137.5t87 321.5q0 264 -203 264z" glyph-name="zero.sc" horiz-adv-x="1265"/><glyph d="M883 242l-43 -242h-752l43 242h248l113 624l-252 -96l-56 199l422 202h199l-168 -929h246z" glyph-name="one.sc" horiz-adv-x="1036"/><glyph d="M599 1194q216 0 317.5 -96.5t72.5 -259.5q-18 -113 -95 -205t-237 -215l-233 -172h491l-43 -246h-827l37 213l364 283q92 70 132 102.5t77 82t47 115.5t-41 106t-167 40t-230 -74l-74 195q193 131 409 131z" glyph-name="two.sc" horiz-adv-x="1103"/><glyph d="M574 1190q234 0 319.5 -81t62.5 -204q-14 -84 -76.5 -159.5t-158.5 -114.5v-8q104 -20 152.5 -95t29.5 -174q-31 -172 -178 -274.5t-354 -102.5q-129 0 -236.5 37t-167.5 103l144 190q100 -90 270 -90q109 0 175.5 42t79.5 112t-35 100.5t-159 30.5h-176l35 196h148 q203 0 227 136q10 53 -31 86.5t-127 33.5q-149 0 -278 -82l-80 189q180 129 414 129z" glyph-name="three.sc" horiz-adv-x="1036"/><glyph d="M1014 465l-39 -211h-160l-47 -254h-258l45 254h-528l30 180l707 733h215l-127 -702h162zM666 821l-344 -356h278z" glyph-name="four.sc" horiz-adv-x="1114"/><glyph d="M404 -23q-226 0 -353 105l125 211q114 -76 236 -76t193 46t85 125t-30 120t-140 41t-209 -82l-145 90l108 614h764l-45 -249h-514l-45 -236q94 62 241 62t229.5 -94.5t49.5 -272.5t-178.5 -291t-371.5 -113z" glyph-name="five.sc" horiz-adv-x="1107"/><glyph d="M696 756q162 0 256.5 -95.5t63.5 -270.5t-175.5 -294t-338.5 -119q-231 0 -338.5 148.5t-53.5 448.5t229 455t409 155t362 -103l-152 -194q-102 67 -229 67q-273 -1 -348 -311q153 113 315 113zM600 535q-131 0 -238 -99q-10 -102 34 -162.5t130 -60.5t145.5 46t72 120 t-28.5 115t-115 41z" glyph-name="six.sc" horiz-adv-x="1136"/><glyph d="M936 926l-586 -926h-276l583 922h-553l46 247h831z" glyph-name="seven.sc" horiz-adv-x="942"/><glyph d="M645 1184q188 0 292.5 -85t78.5 -233q-16 -90 -73.5 -158.5t-137.5 -95.5q80 -39 121 -114.5t24 -171.5q-29 -158 -172 -256.5t-349 -98.5t-311.5 97.5t-76.5 257.5q18 98 87 176t161 112q-70 29 -108 97.5t-21 154.5q27 147 162 232.5t323 85.5zM604 952q-72 0 -122 -33 t-59 -89t30 -89.5t108.5 -33.5t120.5 33.5t59 88.5q10 55 -27.5 89t-109.5 34zM524 510q-82 0 -143.5 -42t-72.5 -109t32 -110.5t130 -43.5t144.5 43.5t68.5 111.5t-33 109t-126 41z" glyph-name="eight.sc" horiz-adv-x="1067"/><glyph d="M367 207q133 0 228 80t132 243q-135 -133 -315 -133q-143 0 -242.5 83t-87.5 251q10 205 156.5 332t356.5 127t318.5 -124t92.5 -378q-10 -190 -74 -332.5t-207 -260.5t-387 -118q-189 0 -324 80l97 199q123 -49 256 -49zM558 954q-87 0 -146.5 -50t-66.5 -126 q-14 -151 157 -151q70 0 139.5 30.5t103.5 83.5q10 104 -45 158.5t-142 54.5z" glyph-name="nine.sc" horiz-adv-x="1052"/><glyph d="M688 1868l146 -123q-213 -164 -267 -467q-47 -264 99 -438l-158 -90q-215 203 -150 571q62 340 330 547z" glyph-name="glyph607" horiz-adv-x="600"/><glyph d="M444 1757l158 98q211 -217 150 -571t-328 -547l-150 119q220 190 270 468t-100 433z" glyph-name="glyph608" horiz-adv-x="600"/><glyph d="M1163 1221h-565l41 227h563z" glyph-name="glyph609" horiz-adv-x="1368"/><glyph d="M416 422h-209l80 743h311zM242 -14q-134 0 -133 141q0 74 52.5 121t116.5 47q136 1 136 -137q0 -74 -55 -123t-117 -49z" glyph-name="exclam.aalt" horiz-adv-x="661"/><glyph d="M494 1157q134 0 135 -141q0 -74 -52.5 -121t-116.5 -47q-136 0 -136 137q0 74 54 123t116 49zM530 721l-79 -744h-312l183 744h208z" glyph-name="exclamdown.aalt" horiz-adv-x="659"/><glyph d="M84 364.5q0 67.5 10 159.5t40 192.5t64.5 175.5t88 147.5t117 142.5t247.5 196l84 -129q-139 -111 -260 -297t-143 -446q-25 -213 27.5 -380t134.5 -255l-129 -129q-84 77 -120 125.5t-59.5 89.5t-41 81t-32 93t-21.5 109.5t-7 124z" glyph-name="parenleft.aalt" horiz-adv-x="667"/><glyph d="M684 739q0 -602 -573 -997l-84 129q162 127 288.5 364.5t126.5 509.5q0 324 -172 504l129 129q59 -53 97.5 -95t113 -160.5t74.5 -383.5z" glyph-name="parenright.aalt" horiz-adv-x="749"/><glyph d="M594 1186q158 0 250 -66.5t92 -183.5q0 -80 -35 -144.5t-86 -106.5t-142 -104.5t-108 -134.5l-12 -51h-240l13 54q14 70 63 128t99.5 89.5t91.5 79t41 100.5q-1 88 -131 88t-228 -66l-74 203q176 115 406 115zM366 -18q-138 0 -139 140q0 75 55.5 123t119.5 48 q136 1 137 -139q0 -76 -54.5 -124t-118.5 -48z" glyph-name="question.aalt" horiz-adv-x="956"/><glyph d="M640 1165q64 0 102 -35.5t36 -109.5t-56 -119t-118 -45t-100.5 35t-34.5 109t54.5 119.5t116.5 45.5zM516 233q131 0 229 66l76 -205q-172 -113 -407 -112q-160 0 -252 71.5t-86 192.5q4 74 40 135t86 101t137.5 100t104.5 129l11 47h239l-12 -56q-14 -66 -61.5 -121 t-96.5 -85.5t-90 -77t-45 -92.5t31 -69.5t96 -23.5z" glyph-name="questiondown.aalt" horiz-adv-x="946"/><glyph d="M471 393q0 -178 181 -178q93 0 177 68l74 -179q-51 -45 -135 -79.5t-166 -42.5l-22 -201h-199l49 217q-117 35 -185.5 131t-68.5 240q0 205 112.5 341t299.5 171l26 217h203l-51 -207q150 -12 238 -82l-127 -203q-72 51 -171 51t-167 -67.5t-68 -196.5z" glyph-name="cent.oldstyle" horiz-adv-x="1257"/><glyph d="M616 958q-78 0 -122.5 -33.5t-44.5 -84.5t35.5 -71.5t56 -29t72 -27t77.5 -28.5q121 -47 179.5 -107.5t58.5 -164.5q0 -176 -117 -290t-303 -140l-47 -199h-234l70 197q-172 25 -281 102l119 227q141 -82 293 -82q98 0 150.5 35t52.5 94q0 32 -16.5 46t-28 22t-44.5 22 t-139.5 50.5t-174.5 109t-68 174.5q0 164 108.5 271.5t280.5 132.5l33 176h241l-55 -180q168 -29 248 -107l-150 -203q-104 88 -250 88z" glyph-name="dollar.aalt" horiz-adv-x="1054"/><glyph d="M383 -35q-150 0 -235 68.5t-85 181.5t67 188.5t210 165.5l6 4q-121 131 -121 248q0 152 117 252.5t295 100.5q131 0 214 -63t83 -169t-60.5 -185t-185.5 -171l-18 -13l129 -135l170 236l184 -80l-182 -258l-33 -43l156 -164l-185 -149l-129 137q-176 -152 -397 -152z M587 963q-50 0 -85 -33t-35 -85t76 -138q145 100 145 176q0 33 -25.5 56.5t-75.5 23.5zM326 260q0 -84 112 -84t207 84l-168 178q-84 -59 -117.5 -98t-33.5 -80z" glyph-name="ampersand.aalt" horiz-adv-x="1280"/><glyph d="M471 393q0 -178 181 -178q93 0 177 68l74 -179q-51 -45 -135 -79.5t-166 -42.5l-22 -201h-199l49 217q-117 35 -185.5 131t-68.5 240q0 205 112.5 341t299.5 171l26 217h203l-51 -207q150 -12 238 -82l-127 -203q-72 51 -171 51t-167 -67.5t-68 -196.5z" glyph-name="cent.sc" horiz-adv-x="1257"/><glyph d="M438 1174q134 0 204.5 -67t70.5 -187q0 -164 -102.5 -262.5t-260.5 -98.5q-113 0 -181.5 65.5t-68.5 180.5q0 168 102 268.5t236 100.5zM276 0h-143l1018 1153h141zM432 1022q-59 0 -97 -52t-38 -156t80 -103q135 0 135 213q0 98 -80 98zM1054 596q136 0 206.5 -65.5 t70.5 -186.5q0 -166 -103.5 -263t-262.5 -97q-115 0 -181.5 64.5t-66.5 180.5q0 168 100.5 267.5t236.5 99.5zM1049 446q-61 0 -98.5 -53t-37.5 -155t80 -103q133 0 133 213q1 98 -77 98z" glyph-name="percent.aalt" horiz-adv-x="1417"/><glyph d="M440 1174q134 0 203.5 -67t69.5 -187q0 -164 -102.5 -262.5t-260.5 -98.5q-113 0 -181.5 65.5t-68.5 180.5q0 168 103 268.5t237 100.5zM276 0h-143l1018 1153h141zM432 1022q-59 0 -97 -52t-38 -156t82 -103q135 0 135 213q0 98 -82 98zM1054 596q136 0 206.5 -65.5 t70.5 -186.5q0 -166 -103.5 -263t-262.5 -97q-113 0 -179.5 64.5t-66.5 180.5q0 168 99.5 267.5t235.5 99.5zM1722 596q134 0 203.5 -65.5t69.5 -186.5q0 -166 -103.5 -263t-261.5 -97q-113 0 -180.5 65.5t-67.5 179.5q0 168 103 267.5t237 99.5zM1049 446q-61 0 -98.5 -53 t-37.5 -155t80 -103q133 0 133 213q1 98 -77 98zM1714 446q-61 0 -98 -53t-37 -155t80 -103q135 0 135 213q0 98 -80 98z" glyph-name="perthousand.aalt" horiz-adv-x="2082"/><glyph d="M911 934q1 -252 -117 -252t-118 252v74l-268 86l30 116l473 -151v-125zM1372 934q0 -252 -118.5 -252t-118.5 252v125l475 151l30 -116l-268 -86v-74zM1024 496q223 0 392 -119t210 -297h-127q-57 104 -186 171.5t-289 67.5t-289 -67.5t-186 -171.5h-127q41 178 210 297 t392 119z" glyph-name="u1F620.aalt"/><glyph d="M911 989q1 -256 -119 -256t-120 256v15l-240 -119l-31 114l510 254v-264zM1376 989q0 -256 -120 -256t-119 256v264l510 -254l-29 -114l-242 119v-15zM1024 678q276 0 440 -182.5t166 -470.5q-68 49 -244 78.5t-362 29.5q-365 0 -606 -108q4 289 167 471t439 182z M1025 528q-165 0 -288 -77.5t-168 -231.5q185 53 455 53t455 -53q-43 154 -166 231.5t-288 77.5z" glyph-name="u1F627.aalt"/><glyph d="M918 1233l53 -150l-479 -174l-54 150zM1565 909l-480 174l54 150l479 -174zM1389 434q-51 0 -92.5 -36t-65 -77.5t-77.5 -77.5t-129 -36t-128 36t-77.5 77.5t-65.5 77.5t-92 36q-147 0 -207 -172l-111 33q33 119 107.5 208t196.5 86t167 -55.5t87.5 -103.5t109.5 -51 t109 33.5t66.5 73.5t77 73t128.5 31q129 -2 204.5 -90t108.5 -205l-113 -33q-59 172 -204 172z" glyph-name="u1F616.aalt"/><glyph d="M653.5 1198q108.5 0 108.5 -229.5t-108.5 -229.5t-108.5 229.5t108.5 229.5zM1255 1059v-96q0 -164 -130 -164t-130 164v96h260zM592 102l-62 170q330 348 926 336l62 -170q-596 12 -926 -336z" glyph-name="u1F615.aalt"/><glyph d="M742 1016q81 0 96 211h125q-8 -170 -64.5 -260t-155 -90t-158 90t-67.5 260h125q18 -211 99 -211zM1319 475q-82 0 -138.5 56.5t-56.5 118.5t23.5 101.5t54.5 81t39 54.5q-143 53 -156 340h123q18 -211 100 -211t95 211h125q-12 -260 -137 -330q14 -23 40.5 -59.5 t54 -74.5t27.5 -107t-56 -125t-138 -56zM1319 575q41 0 68.5 29t27.5 66t-41 96t-55 92q-14 -33 -54 -91t-40 -96t26.5 -67t67.5 -29zM1024 444q217 0 383 -105.5t207 -264.5h-156q-35 84 -155.5 138t-277.5 54t-278.5 -54t-158.5 -138h-154q41 160 207 265t383 105z" glyph-name="u1F622.aalt"/><glyph d="M952 1100l-409 -219l-68 116l406 222zM1565 997l-68 -116l-410 219l72 119zM1911 660q0 -62 -54.5 -115t-132 -53t-132 53t-54.5 119t82 181t94 199h19q10 -70 55 -137t84 -126t39 -121zM1632 679q0 -36 25.5 -63.5t66.5 -27.5t66 26.5t25 62.5t-38.5 93t-52.5 90 q-14 -35 -53 -90t-39 -91zM1024 598q223 0 392 -119t210 -297h-127q-57 104 -186 172t-289 68t-289 -68t-186 -172h-127q41 178 210 297t392 119z" glyph-name="u1F625.aalt"/><glyph d="M866 973q0 -244 -114 -244t-113 242l-104 -60v170l391 207v-158l-60 -34v-123zM1295 729q-114 0 -113 244v123l-60 34v158l391 -207v-170l-104 60q0 -242 -114 -242zM1024 598q223 0 392 -119t210 -297h-127q-57 104 -186 172t-289 68t-289 -68t-186 -172h-127 q41 178 210 297t392 119z" glyph-name="u1F61E.aalt"/><glyph d="M915 907h-430v150h430v-150zM1565 907h-430v150h430v-150zM1561 340h-1074v147h1074v-147z" glyph-name="u1F611.aalt"/><glyph d="M730 1268q91 0 148.5 -103.5t63.5 -292.5h-123q-10 141 -30.5 205t-61.5 64t-60.5 -64t-29.5 -205h-123q6 188 65.5 292t150.5 104zM1322 1268q91 0 149.5 -103.5t64.5 -292.5h-125q-14 268 -90 269q-41 0 -61.5 -64t-30.5 -205h-123q6 190 65.5 293t150.5 103zM1024 264 q-205 0 -359.5 114t-191.5 284h139q35 -113 150 -188t262 -75t262 74t152 189h137q-23 -98 -84 -179q135 -283 -23 -370q-152 -104 -331 161q-61 -10 -113 -10zM1415 203q37 20 39 60t-39 140q-70 -61 -172 -100q59 -82 99 -103.5t73 3.5z" glyph-name="u1F60B.aalt"/><glyph d="M791 1008q0 -256 -120 -256t-120 256v75l-240 -118l-30 114l510 254v-325zM1255 1008q1 -256 -119 -256t-120 256v325l510 -254l-29 -114l-242 118v-75zM1767 611q0 -67 -54 -120t-132 -53t-133 53.5t-55 119.5t83 181t95 197h18q12 -82 95 -196.5t83 -181.5zM1489 622 q0 -34 25.5 -60.5t65.5 -26.5t65.5 26.5t25.5 62.5t-38 93t-52 90q-14 -33 -53 -92t-39 -93zM1440 264h-1073v150h1073v-150z" glyph-name="u1F613.aalt"/><glyph d="M516 1171l25 115l428 -123l-25 -114zM1079 1163l426 123l25 -115l-426 -122zM1028 485q-92 0 -162 -12l-139 -952l-63 14l147 928q-45 -10 -92 -29l-211 -872l-66 10l211 829q-82 -51 -123 -120h-118q31 88 102.5 161.5t179.5 118.5l54 211l51 -10l-45 -180q25 8 77 20 l25 150l51 -9l-20 -131q164 15 282 -2l-20 133l51 9l25 -152q53 -12 78 -22l-46 184l52 10l55 -217q207 -90 270 -274h-118q-39 66 -111 112l209 -821l-64 -10l-211 866q-35 14 -92 33l146 -926l-64 -14l-139 950q-70 14 -162 14zM410 -328q-31 -8 -46.5 -13t-37 -24.5 t-26.5 -52.5t14.5 -57.5t52.5 -30.5t57 23l35 -17q2 -100 92 -116q88 -14 125 77l39 4q12 -35 46 -41t61.5 11.5t32.5 50.5t-8 57.5t-25.5 34.5t-39.5 27l9 47q156 -72 139 -176q-12 -66 -56.5 -96.5t-98.5 -23.5t-81 50q-20 -55 -63 -78.5t-93 -14.5t-82 45t-34 97 q-33 -31 -88 -21t-87 54.5t-20 112.5q16 98 191 118zM1628 -283q176 -18 193 -120q12 -68 -20 -111t-85 -53t-92 18q-2 -121 -115 -139q-115 -23 -159 94q-18 -37 -76 -48t-102 19.5t-56 96.5q-18 102 139 178l9 -47q-82 -53 -72 -117q6 -37 32.5 -54.5t61.5 -8.5 q31 2 45 36l39 -2q16 -47 51 -65.5t74 -12t64.5 36t27.5 78.5l35 19q20 -25 57 -23q33 6 52.5 32t15.5 50t-8 35.5t-21 28.5t-47.5 23.5t-34.5 8.5z" glyph-name="u1F624.aalt"/><glyph d="M715 1225.5q123 -0.5 123 -261.5t-123 -261.5t-123 261.5t123 261.5zM1192 1225.5q123 -0.5 123 -261.5t-123 -261.5t-123 261.5t123 261.5zM1183.5 88q-112.5 0 -192.5 79t-80 191.5t80 192.5t192.5 80t191.5 -80t79 -192.5t-79 -191.5t-191.5 -79z" glyph-name="u1F62E.aalt"/><glyph d="M663 964q0 262 122 261q122 0 122 -261t-121 -262q-123 0 -123 262zM1263.5 1225.5q122.5 -0.5 122.5 -261.5t-122.5 -261.5t-122.5 261.5t122.5 261.5zM1559 453h-226q-14 -242 -95 -360t-214 -118q-285 0 -309 478h-226v135h1070v-135zM1024 111q78 0 118 77t56 265 h-348q14 -188 55 -265t119 -77z" glyph-name="u1F61B.aalt"/><glyph d="M938 1042v-69l-332 -219l-51 143l217 107v10l-217 84l51 143zM1493 1098l-217 -84v-10l217 -107l-51 -143l-330 219v69l330 199zM1559 453h-226q-14 -242 -95 -360t-214 -118q-285 0 -309 478h-226v135h1070v-135zM1024 111q78 0 118 77t56 265h-348q14 -188 55 -265 t119 -77z" glyph-name="u1F61D.aalt"/><glyph d="M792.5 1075q-63.5 0 -79.5 -227h-103q6 164 55.5 252t129 88t127 -87t53.5 -253h-103q-16 227 -79.5 227zM1256 1075q-67 0 -78 -227h-103q6 164 52.5 252t126.5 88t129 -88t55 -252h-103q-12 227 -79 227zM1896 680.5q0 -62.5 -43 -107.5t-98 -52t-96 20 q-63 -205 -229 -325t-405 -120t-405.5 120t-230.5 325q-41 -27 -95 -20t-98 51t-45 108.5t39 104.5t159.5 59.5t176.5 62.5l13 -12q-43 -57 -66 -195q229 -127 554 -127t548 127q-23 139 -64 195l13 12q57 -43 174.5 -62.5t157.5 -60.5t40 -103.5zM231.5 682 q-0.5 -30 25.5 -55t56.5 -24t52.5 23t33 79t23 86q-29 -10 -87.5 -21.5t-80.5 -34.5t-22.5 -53zM1815.5 682.5q0.5 30.5 -19.5 50.5t-43.5 26.5t-59.5 13.5t-65 18q10 -29 21.5 -86.5t31.5 -77.5q56 -53 109 0q25 25 25.5 55.5zM700 504q-104 31 -215 92q53 -141 215 -213 v121zM1350 383q164 72 217 213q-113 -61 -217 -92v-121zM164 545l10 -13q-41 -55 -60.5 -174.5t-60.5 -160.5t-104.5 -40t-112.5 48q-47 49 -49 113.5t39 104.5t161 59.5t177 62.5zM2259 318.5q0 -62.5 -47 -110.5t-113.5 -50t-106.5 39t-57.5 159.5t-60.5 175.5l12 13 q57 -43 174 -62.5t158 -60.5t41 -103.5zM985 461q-111 4 -203 22v-131q94 -29 203 -30v139zM1270 483q-92 -18 -203 -22v-139q109 2 203 30v131zM59 428q-29 -10 -87 -21t-80 -33t-22.5 -53.5t24 -56t57.5 -23.5t53 22t31.5 77.5t23.5 87.5zM2179.5 319.5 q0.5 30.5 -19.5 50.5t-43.5 26.5t-60 14t-65.5 17.5q10 -29 21 -86t33 -79t53.5 -22.5t56 24t25 55z" glyph-name="u1F602.aalt"/><glyph d="M675.5 1311q112.5 0 193.5 -80t81 -192.5t-79.5 -192.5t-193.5 -80t-194 80t-80 192.5t80 192.5t192.5 80zM1372.5 1311q112.5 0 193.5 -80t81 -192.5t-80 -192.5t-194 -80t-193.5 80t-79.5 192.5t80 192.5t192.5 80zM676 1212q-72 0 -123 -51t-51 -122.5t51 -123 t123 -51.5t123 51.5t51 123t-51 122.5t-123 51zM1372 1212q-72 0 -123 -51t-51 -122.5t51 -123t123 -51.5t123 51.5t51 123t-51 122.5t-123 51zM676 1106q29 0 48 -19.5t19 -48t-19 -48t-48 -19.5t-48.5 20.5t-19.5 47t19.5 47t48.5 20.5zM1372 1106q29 0 48.5 -20.5 t19.5 -47t-19.5 -47t-48.5 -20.5t-48 20.5t-19 47t19 47t48 20.5zM1024 737q233 0 377.5 -152.5t169.5 -414.5h-1092q23 262 167.5 414.5t377.5 152.5zM1025 594q-138 0 -244.5 -75t-131.5 -214h752q-25 139 -131.5 214t-244.5 75z" glyph-name="u1F628.aalt"/><glyph d="M469 1202l375 172l80 -123l-428 -176zM1124 1251l78 123l377 -172l-27 -127zM346 936q135 0 207 -115h-416q74 115 209 115zM1702 936q135 0 209 -115h-416q72 115 207 115zM590 696q0 -29 -6 -57h-475q-8 37 -8 57t8 58h475q6 -29 6 -58zM1458 696q0 28 6 58h475 q13 -61 0 -115h-475q-6 29 -6 57zM137 569h418q-59 -100 -209 -118q-150 18 -209 118zM1493 569h418q-59 -100 -209 -118q-150 18 -209 118zM662 449h718q0 -150 -105 -256.5t-253 -106.5t-254 106.5t-106 256.5z" glyph-name="u1F633.aalt"/><glyph d="M784.5 1368q122.5 0 122.5 -261t-122.5 -261t-122.5 261t122.5 261zM1261.5 1368q122.5 0 122.5 -261t-122.5 -261t-122.5 261t122.5 261zM1024 709q233 0 376.5 -153t168.5 -415h-1092q25 262 169.5 415t377.5 153zM1023 565q-138 0 -244.5 -75t-131.5 -214h752 q-25 139 -131.5 214t-244.5 75z" glyph-name="u1F626.aalt"/><glyph d="M784.5 1225.5q122.5 -0.5 122.5 -261.5t-122.5 -261.5t-122.5 261.5t122.5 261.5zM1261.5 1225.5q122.5 -0.5 122.5 -261.5t-122.5 -261.5t-122.5 261.5t122.5 261.5zM1025 14q-331 0 -526.5 207t-199.5 535q268 -225 730 -225t718 229q-2 -330 -196.5 -538t-525.5 -208z M674 322v131q-117 35 -232 98q58 -149 232 -229zM1374 453v-131q174 78 234 229q-123 -65 -234 -98zM1286 291v141q-104 -23 -217 -26v-150q113 2 217 35zM762 430v-141q111 -31 219 -33v150q-108 4 -219 24z" glyph-name="u1F600.aalt"/><glyph d="M729 1268q92 0 149.5 -103.5t63.5 -292.5h-125q-14 268 -92 269q-74 -1 -88 -269h-125q6 188 65.5 292t151.5 104zM1321 1268q92 0 149.5 -103.5t63.5 -292.5h-125q-14 268 -88 269q-78 -1 -92 -269h-125q6 188 65.5 292t151.5 104zM1025 14q-331 0 -526.5 207 t-199.5 535q268 -225 730 -225t718 229q-2 -330 -196.5 -538t-525.5 -208zM674 322v131q-117 35 -232 98q58 -149 232 -229zM1374 453v-131q174 78 234 229q-123 -65 -234 -98zM1286 291v141q-104 -23 -217 -26v-150q113 2 217 35zM762 430v-141q111 -31 219 -33v150 q-108 4 -219 24z" glyph-name="u1F601.aalt"/><glyph d="M786.5 1225.5q122.5 -0.5 122.5 -261.5t-122.5 -261.5t-122.5 261.5t122.5 261.5zM1263.5 1225.5q122.5 -0.5 122.5 -261.5t-122.5 -261.5t-122.5 261.5t122.5 261.5zM1561 340h-1074v147h1074v-147z" glyph-name="u1F610.aalt"/><glyph d="M730 1186q91 0 149.5 -103.5t64.5 -289.5h-125q-14 266 -92 266q-72 0 -90 -266h-123q6 188 65.5 290.5t150.5 102.5zM1322 1186q91 0 149.5 -103.5t64.5 -289.5h-125q-14 266 -90 266q-41 0 -61.5 -63.5t-30.5 -202.5h-123q6 188 65.5 290.5t150.5 102.5zM1561 340 h-1074v147h1074v-147z" glyph-name="u1F614.aalt"/><glyph d="M938 1042v-69l-332 -219l-51 143l217 107v10l-217 84l51 143zM1493 1098l-215 -84v-10l215 -107l-51 -143l-330 219v69l330 199zM1024 598q223 0 392 -119t210 -297h-127q-57 104 -186 172t-289 68t-289 -68t-186 -172h-127q41 178 210 297t392 119z" glyph-name="u1F623.aalt"/><glyph d="M911 975q1 -252 -117 -252t-118 252v74l-268 86l30 116l473 -151v-125zM1372 975q0 -252 -118.5 -252t-118.5 252v125l475 151l30 -116l-268 -86v-74zM1023 594q241 0 398.5 -109.5t206.5 -279.5h-135q-49 104 -168 168.5t-302 64.5t-301 -64.5t-169 -168.5h-135 q49 170 206.5 279.5t398.5 109.5zM1023 303q91 0 149.5 -54t74.5 -147h-92q-29 92 -132 92t-132 -92h-92q16 92 74.5 146.5t149.5 54.5z" glyph-name="u1F621.aalt"/><glyph d="M726 766q-91 0 -148.5 102.5t-63.5 290.5h123q18 -266 90 -266q78 0 92 266h125q-6 -188 -66.5 -290.5t-151.5 -102.5zM1318 766q-91 0 -148.5 102.5t-63.5 290.5h123q10 -139 30.5 -202.5t61.5 -63.5q76 0 90 266h125q-6 -188 -66.5 -290.5t-151.5 -102.5zM1024 119 q-238 0 -419 136t-224 343h127q63 -139 202.5 -227t313.5 -88t314.5 88t201.5 227h127q-43 -207 -224 -343t-419 -136z" glyph-name="u1F60C.aalt"/><glyph d="M1022 2230q252 0 464 -66.5t330.5 -174t118.5 -230.5q0 -186 -255 -337.5t-658.5 -151.5t-656 152.5t-252.5 338.5t265 327.5t644 141.5zM1022 2103q-326 0 -550 -101t-224 -239q0 -121 215 -223t559 -102t561 101t217 222q0 137 -226 239.5t-552 102.5zM784.5 1225.5 q122.5 -0.5 122.5 -261.5t-122.5 -261.5t-122.5 261.5t122.5 261.5zM1261.5 1225.5q122.5 -0.5 122.5 -261.5t-122.5 -261.5t-122.5 261.5t122.5 261.5zM1024 119q-238 0 -419 136t-224 343h127q63 -139 202.5 -227t313.5 -88t313.5 88t202.5 227h127q-43 -207 -224 -343 t-419 -136z" glyph-name="u1F607.aalt"/><glyph d="M268 2003l486 -352q-303 -43 -486 -209v561zM1780 2003v-561q-182 166 -486 209zM913 934q0 -252 -118.5 -252t-118.5 252v156l-268 86l30 116l475 -151v-207zM1372 934q0 -252 -118 -252t-117 252v207l473 151l30 -116l-268 -86v-156zM1024 119q-238 0 -419 136 t-224 343h127q63 -139 202.5 -227t313.5 -88t314.5 88t201.5 227h127q-43 -207 -224 -343t-419 -136z" glyph-name="u1F608.aalt"/><glyph d="M784.5 1307.5q122.5 -0.5 122.5 -261.5t-122.5 -261.5t-122.5 261.5t122.5 261.5zM1261.5 1307.5q122.5 -0.5 122.5 -261.5t-122.5 -261.5t-122.5 261.5t122.5 261.5zM1024 43q-307 0 -488.5 190.5t-183.5 495.5q246 -207 675 -209t669 213q-2 -305 -183.5 -497.5 t-488.5 -192.5zM1024 172q195 0 342.5 95.5t198.5 273.5q-238 -133 -541 -138q-301 4 -539 138q51 -178 197.5 -273.5t341.5 -95.5z" glyph-name="u1F603.aalt"/><glyph d="M627 1268q92 0 149.5 -103.5t63.5 -292.5h-123q-10 141 -30.5 205t-61.5 64q-76 -1 -90 -269h-125q6 188 65.5 292t151.5 104zM1218 1268q92 0 149.5 -103.5t64.5 -292.5h-123q-18 268 -90 269q-79 -1 -93 -269h-125q6 188 65.5 292t151.5 104zM1800 950q0 -54 -43 -97.5 t-106.5 -43.5t-105.5 43t-42 97t66 145t76 157h14q10 -66 75.5 -156.5t65.5 -144.5zM1577 958q0 -28 21.5 -49.5t53.5 -21.5t52 21.5t20 50.5t-30.5 73.5t-42.5 71.5q-12 -27 -43 -72.5t-31 -73.5zM921.5 43q-307.5 0 -488.5 190.5t-183 495.5q246 -207 674 -209t669 213 q-2 -305 -183 -497.5t-488.5 -192.5zM921.5 172q194.5 0 342 95.5t198.5 273.5q-238 -133 -540 -138q-301 4 -539 138q51 -178 197.5 -273.5t341 -95.5z" glyph-name="u1F605.aalt"/><glyph d="M729 1268q92 0 149.5 -103.5t63.5 -292.5h-123q-10 141 -30.5 205t-61.5 64q-76 -1 -90 -269h-125q6 188 65.5 292t151.5 104zM1321 1268q92 0 149.5 -103.5t63.5 -292.5h-123q-18 268 -90 269q-78 -1 -92 -269h-125q6 188 65.5 292t151.5 104zM1024 43 q-307 0 -488.5 190.5t-183.5 495.5q246 -207 675 -209t669 213q-2 -305 -183.5 -497.5t-488.5 -192.5zM1024 172q195 0 342.5 95.5t198.5 273.5q-238 -133 -541 -138q-301 4 -539 138q51 -178 197.5 -273.5t341.5 -95.5z" glyph-name="u1F604.aalt"/><glyph d="M936 1090v-70l-330 -219l-51 143l215 105v12l-215 84l51 141zM1493 1145l-217 -84v-12l217 -105l-51 -143l-332 219v70l332 196zM1024 88q-307 0 -488.5 191.5t-183.5 496.5q248 -211 676 -211t668 213q-2 -305 -183.5 -497.5t-488.5 -192.5zM1025 451q-298 0 -540 135 q51 -178 197.5 -272.5t341.5 -94.5t342.5 94.5t198.5 272.5q-242 -135 -540 -135z" glyph-name="u1F606.aalt"/><glyph d="M730 1268q91 0 149.5 -103.5t64.5 -292.5h-125q-14 268 -92 269q-72 -1 -90 -269h-123q6 190 65.5 293t150.5 103zM1322 1268q91 0 149.5 -103.5t64.5 -292.5h-125q-14 268 -90 269q-41 0 -61.5 -64t-30.5 -205h-123q6 190 65.5 293t150.5 103zM1024 154q-238 0 -419 136 t-224 343h127q63 -139 203.5 -227.5t313.5 -88.5t313.5 88.5t201.5 227.5h127q-43 -207 -224 -343t-419 -136z" glyph-name="u1F60A.aalt"/><glyph d="M1468 727h-137q-82 0 -117.5 30.5t-62.5 100.5l-78 215h-82l-80 -215q-25 -70 -60.5 -100.5t-117.5 -30.5h-137q-98 0 -146.5 44t-76.5 138l-51 164h-179l70 144h1622l70 -144h-162l-51 -164q-29 -94 -77 -138t-147 -44zM1032.5 119q-237.5 0 -419 136t-224.5 343h125 q63 -139 203.5 -227t314.5 -88t313.5 88t202.5 227h127q-43 -207 -224 -343t-418.5 -136z" glyph-name="u1F60E.aalt"/><glyph d="M868 936h-430v147h430v-147zM1427 936h-430v147h430v-147zM934 145v160q184 0 327.5 113t186.5 287h162q-45 -240 -235.5 -400t-440.5 -160z" glyph-name="u1F60F.aalt"/><glyph d="M948 1157v-125q0 -262 -122 -262t-121 262h-302v125h545zM1645 1157v-125q0 -262 -122 -262t-122 262h-301v125h545zM1587 412h-1073v147h1073v-147z" glyph-name="u1F612.aalt"/><glyph d="M784.5 1278q122.5 0 122.5 -260t-122.5 -260t-122.5 260t122.5 260zM1261.5 1278q122.5 0 122.5 -260t-122.5 -260t-122.5 260t122.5 260zM639 172h-145q0 186 155.5 317.5t374.5 131.5t373.5 -131.5t154.5 -317.5h-145q0 119 -112.5 203t-271.5 84t-271.5 -84 t-112.5 -203z" glyph-name="uni2639.aalt"/><glyph d="M785 1276q122 0 122 -258t-122 -258t-122 258t122 258zM1483 1112l-187 -100l187 -125l-53 -129l-285 203v104l285 178zM1024 119q-238 0 -419 136t-224 343h127q63 -139 202.5 -227t313.5 -88t314.5 88t201.5 227h127q-43 -207 -224 -343t-419 -136z" glyph-name="u1F609.aalt"/><glyph d="M864 1028q0 -244 -112.5 -244t-114.5 240l-105 -57v168l394 208v-159l-62 -33v-123zM1295 784q-114 0 -113 244v123l-60 33v159l391 -208v-168l-104 57q0 -240 -114 -240zM1023 594q241 0 398.5 -109.5t206.5 -279.5h-135q-49 104 -168 168.5t-302 64.5t-301 -64.5 t-169 -168.5h-135q49 170 206.5 279.5t398.5 109.5zM1023 303q91 0 149.5 -54t74.5 -147h-92q-29 92 -132 92t-132 -92h-92q16 92 74.5 146.5t149.5 54.5z" glyph-name="u1F61F.aalt"/><glyph d="M785 1276q122 0 122 -258t-122 -258t-122 258t122 258zM1483 1112l-187 -102l187 -121l-53 -131l-285 203v104l285 178zM1559 451h-226q-14 -240 -95 -358t-214 -118q-285 0 -309 476h-226v135h1070v-135zM1024 111q78 0 118 77t56 263h-348q14 -186 55 -263t119 -77z " glyph-name="u1F61C.aalt"/><glyph d="M786.5 1225.5q122.5 -0.5 122.5 -261.5t-122.5 -261.5t-122.5 261.5t122.5 261.5zM1263.5 1225.5q122.5 -0.5 122.5 -261.5t-122.5 -261.5t-122.5 261.5t122.5 261.5zM1024 119q-238 0 -419 136t-224 343h127q63 -139 202.5 -227t313.5 -88t314.5 88t201.5 227h127 q-43 -207 -224 -343t-419 -136z" glyph-name="smileface.aalt"/></font>
</defs>
</svg>
